<svg xmlns="http://www.w3.org/2000/svg" width="70.871" height="93.138" viewBox="0 0 70.871 93.138">
  <g id="Сгруппировать_2666" data-name="Сгруппировать 2666" transform="translate(-1710.554 -1802.482)">
    <g id="Сгруппировать_2660" data-name="Сгруппировать 2660">
      <path id="Контур_18785" data-name="Контур 18785" d="M1755.429,1803.781l-14.226,88.79c-13.321-1.275-23.187-8.829-27.774-19.517-5.171-12-3.682-27.917,7.042-43.275a92.787,92.787,0,0,1,15.12-17.336C1747.744,1801.958,1755.429,1803.781,1755.429,1803.781Z" fill="#39994f"/>
      <path id="Контур_18786" data-name="Контур 18786" d="M1755.429,1803.781l-14.226,88.79c-13.321-1.275-23.187-8.829-27.774-19.517,1.45.23,2.832-.408,2.3-4.13-.668-4.682-.159-18.682,6.594-32.648,4.817-9.963,9-18.15,13.268-23.833C1747.744,1801.958,1755.429,1803.781,1755.429,1803.781Z" fill="#2a893f"/>
    </g>
    <g id="Сгруппировать_2665" data-name="Сгруппировать 2665">
      <g id="Сгруппировать_2662" data-name="Сгруппировать 2662">
        <g id="Сгруппировать_2661" data-name="Сгруппировать 2661">
          <path id="Контур_18787" data-name="Контур 18787" d="M1779.426,1872.47c-.059.2-.131.406-.2.608-5.683,17.289-21.363,25.093-34.517,21.805-17.11-4.278-32.79-23.521-20.434-52.51,7.566-17.753,15.036-29.74,22.1-35.626,4.385-3.681,8.6-4.992,12.606-3.884a1.579,1.579,0,0,1,.226.06,22.354,22.354,0,0,1,12.845,10.247,36.849,36.849,0,0,1,2.538,4.932c3.789,8.853,5.719,21.209,6.72,36.865A48.426,48.426,0,0,1,1779.426,1872.47Z" fill="#ded03e"/>
          <path id="Контур_18788" data-name="Контур 18788" d="M1779.426,1872.47c-.059.2-.131.406-.2.608-5.683,17.289-21.363,25.093-34.517,21.805-17.11-4.278-32.79-23.521-20.434-52.51,7.566-17.753,15.036-29.74,22.1-35.626,4.385-3.681,8.6-4.992,12.606-3.884-2.455,2.574-6.16,6.446-10.056,11.355-7.816,9.782-16.443,23.651-17.6,39.308-1.918,26.058,22.675,40.3,47.529,19.421C1779.045,1872.792,1779.235,1872.637,1779.426,1872.47Z" fill="#d1bf37"/>
        </g>
      </g>
      <g id="Сгруппировать_2663" data-name="Сгруппировать 2663" opacity="0.17" style="mix-blend-mode: screen;isolation: isolate">
        <path id="Контур_18789" data-name="Контур 18789" d="M1779.426,1872.47c-.059.2-.131.406-.2.608a3.348,3.348,0,0,1-.369-.131,29.942,29.942,0,0,1-4.265-54.845c3.789,8.853,5.719,21.209,6.72,36.865A48.426,48.426,0,0,1,1779.426,1872.47Z" fill="#ded03e"/>
        <path id="Контур_18790" data-name="Контур 18790" d="M1772.051,1813.17a13.785,13.785,0,0,1-25.677-6.423c4.385-3.681,8.6-4.992,12.606-3.884a1.579,1.579,0,0,1,.226.06A22.354,22.354,0,0,1,1772.051,1813.17Z" fill="#ded03e"/>
      </g>
      <g id="Сгруппировать_2664" data-name="Сгруппировать 2664">
        <path id="Контур_18791" data-name="Контур 18791" d="M1766.117,1854.932c-1.311,9.913-6.875,17.634-13.178,19.1a9.551,9.551,0,0,1-3.348.167c-7.59-1-12.511-11.248-10.974-22.877s8.925-20.267,16.514-19.266c.108.012.227.036.334.059C1762.876,1833.354,1767.618,1843.469,1766.117,1854.932Z" fill="#a25237"/>
        <path id="Контур_18792" data-name="Контур 18792" d="M1752.939,1874.031a9.551,9.551,0,0,1-3.348.167c-7.59-1-12.511-11.248-10.974-22.877s8.925-20.267,16.514-19.266c.108.012.227.036.334.059C1751.557,1839.526,1743.2,1855.932,1752.939,1874.031Z" fill="#8c3f26"/>
      </g>
    </g>
  </g>
</svg>
