<svg xmlns="http://www.w3.org/2000/svg" width="97.303" height="107.044" viewBox="0 0 97.303 107.044">
  <g id="Сгруппировать_2706" data-name="Сгруппировать 2706" transform="translate(-1697.338 -1930.619)">
    <g id="Сгруппировать_2695" data-name="Сгруппировать 2695">
      <path id="Контур_18821" data-name="Контур 18821" d="M1728.952,2026.229a21.793,21.793,0,0,1-1.99,5.991c-3.7,6.944-10.354,5.265-16.859,5.265-4.331,0-6.3-1.582-7.188-4.186h0c-.744-2.174-.741-5.058-.741-8.33,0-7.194,4.4-12.911,12.347-12.911S1730.357,2019.173,1728.952,2026.229Z" fill="#82b378"/>
      <path id="Контур_18822" data-name="Контур 18822" d="M1726.962,2032.22c-3.7,6.944-10.354,5.265-16.859,5.265-4.331,0-6.3-1.582-7.188-4.186,8.043-6.341,17.755-13.018,17.755-13.018C1720.671,2020.71,1725.423,2027.066,1726.962,2032.22Z" fill="#67935d"/>
      <g id="Сгруппировать_2694" data-name="Сгруппировать 2694">
        <path id="Контур_18823" data-name="Контур 18823" d="M1697.338,2027.307c-.05-7.288,5.25-13.143,12.326-15.087,7.22-1.983,13.216,2.868,13.205,9.937-.011,7.1-6.132,14.133-13.455,15.078C1702.33,2038.15,1697.386,2034.4,1697.338,2027.307Z" fill="#a8d29f"/>
        <path id="Контур_18824" data-name="Контур 18824" d="M1697.974,2027.131c-.047-6.925,4.988-12.489,11.711-14.335,6.861-1.885,12.559,2.725,12.548,9.441-.01,6.747-5.826,13.43-12.785,14.328C1702.717,2037.434,1698.019,2033.867,1697.974,2027.131Z" fill="#ceefc7"/>
        <g id="Сгруппировать_2693" data-name="Сгруппировать 2693">
          <path id="Контур_18825" data-name="Контур 18825" d="M1710.218,2023.075l-1.967-7.4a1.154,1.154,0,0,1,.88-1.331,15.545,15.545,0,0,1,5.784-.191.788.788,0,0,1,.45,1.261l-4.54,7.654C1710.663,2023.337,1710.29,2023.345,1710.218,2023.075Z" fill="#e7ffe1"/>
          <path id="Контур_18826" data-name="Контур 18826" d="M1708.514,2025.349l-7.378,4.611a.8.8,0,0,1-1.284-.436,14.827,14.827,0,0,1-.266-2.739,18.653,18.653,0,0,1,.27-3.121,1.1,1.1,0,0,1,1.261-.9l7.405,1.97C1708.787,2024.8,1708.782,2025.181,1708.514,2025.349Z" fill="#e7ffe1"/>
          <path id="Контур_18827" data-name="Контур 18827" d="M1708.969,2023.978l-7.3-1.941a.838.838,0,0,1-.35-1.345,20.873,20.873,0,0,1,1.9-2.433,23.409,23.409,0,0,1,2.461-2.33.8.8,0,0,1,1.332.237l2.419,7.315A.409.409,0,0,1,1708.969,2023.978Z" fill="#e7ffe1"/>
          <path id="Контур_18828" data-name="Контур 18828" d="M1709.671,2026.034l-2.256,8.148a1.116,1.116,0,0,1-1.347.814,12.2,12.2,0,0,1-2.32-1.124,13.244,13.244,0,0,1-2.191-1.738.977.977,0,0,1,.3-1.448l7.348-4.959C1709.465,2025.549,1709.753,2025.738,1709.671,2026.034Z" fill="#e7ffe1"/>
          <path id="Контур_18829" data-name="Контур 18829" d="M1711.462,2023.3l4.93-7.3a.972.972,0,0,1,1.456-.3,11.879,11.879,0,0,1,1.579,2.009,14.2,14.2,0,0,1,1.244,2.576,1.1,1.1,0,0,1-.787,1.337l-8.131,2.167C1711.462,2023.862,1711.283,2023.563,1711.462,2023.3Z" fill="#e7ffe1"/>
          <path id="Контур_18830" data-name="Контур 18830" d="M1711.755,2024.453l8.031-1.4a.76.76,0,0,1,.885.984,18.749,18.749,0,0,1-.914,2.828,22.5,22.5,0,0,1-1.517,2.975.954.954,0,0,1-1.42.353l-5.327-5.135C1711.3,2024.877,1711.463,2024.5,1711.755,2024.453Z" fill="#e7ffe1"/>
          <path id="Контур_18831" data-name="Контур 18831" d="M1711.034,2025.7l4.331,5.923a1.062,1.062,0,0,1-.469,1.47,18.851,18.851,0,0,1-2.711,1.241,19.328,19.328,0,0,1-3.071.828.736.736,0,0,1-.854-.971l2.165-8.281C1710.5,2025.612,1710.876,2025.483,1711.034,2025.7Z" fill="#e7ffe1"/>
        </g>
      </g>
    </g>
    <g id="Сгруппировать_2705" data-name="Сгруппировать 2705">
      <path id="Контур_18832" data-name="Контур 18832" d="M1778.952,2025.954l-7.725,11.374-.084.121h-51.516l-6.4-13.665,8.2-44.469,4.6-24.945V1941.14h41v11.5Z" fill="#d2e4ff" opacity="0.6"/>
      <path id="Контур_18833" data-name="Контур 18833" d="M1767.021,1941.14h-41l-7.05-4.122s6.4-6.4,11.93-6.4H1766.7S1769.516,1934.415,1767.021,1941.14Z" fill="#d2e4ff" opacity="0.6"/>
      <g id="Сгруппировать_2696" data-name="Сгруппировать 2696">
        <path id="Контур_18834" data-name="Контур 18834" d="M1776.422,2012.843l-1.015-2.63c3.232-1.248,7.542-3.432,9.721-6.752a6.221,6.221,0,0,0,1.2-3.326l-.019-.167.029-.129c.044-.323,4.455-32.4,5.417-41.495a6.717,6.717,0,0,0-1.366-5.381c-2-2.249-5.565-2.384-5.7-2.388h-18.86v-2.82h18.888c.2,0,4.9.094,7.782,3.334a9.4,9.4,0,0,1,2.064,7.552c-.939,8.861-5.122,39.351-5.413,41.469C1789.157,2001.361,1788.617,2008.137,1776.422,2012.843Z" fill="#c7deff"/>
      </g>
      <path id="Контур_18835" data-name="Контур 18835" d="M1767.021,1941.14h-41s27.829-2.546,33.527-10.521h7.144S1769.516,1934.415,1767.021,1941.14Z" fill="#c7deff"/>
      <path id="Контур_18836" data-name="Контур 18836" d="M1775.218,2023.849l-6.847,10.082-.074.108h-45.665l-5.672-12.113,7.267-39.417c2.809-.3,7.761-.615,11.31.275,4.469,1.119,23.5-1.957,32.679-1.965Z" fill="#ffbd7b"/>
      <g id="Сгруппировать_2704" data-name="Сгруппировать 2704">
        <g id="Сгруппировать_2697" data-name="Сгруппировать 2697">
          <path id="Контур_18837" data-name="Контур 18837" d="M1751.96,2024.871a25.8,25.8,0,0,0,4-1.176,7.9,7.9,0,0,1,3.368-.995c.794.087,7.269-.764,7.556.384l-4.619,2.345S1752.991,2025.654,1751.96,2024.871Z" fill="#cadefc"/>
          <path id="Контур_18838" data-name="Контур 18838" d="M1762.036,2025.186s4.438-2.694,4.848-2.1.448,3.991.833,5.141a1.792,1.792,0,0,1-1.012,2.479c-1.133.631-4.339,2.7-4.339,2.7Z" fill="#afcdfb"/>
          <path id="Контур_18839" data-name="Контур 18839" d="M1751.96,2024.871s3.426.362,5.932.383,4.047-.545,4.373.175.431,5.6.693,6.759-.7,1.592-3.311,1.393-6.848.266-6.8-.913S1751.05,2024.783,1751.96,2024.871Z" fill="#e9f3fe"/>
          <path id="Контур_18840" data-name="Контур 18840" d="M1756.644,2025.985s-3.363-.358-4.085-.4.124,2.589.217,3.3c0,0,.287.136.324-.253s-.284-1.729.152-1.912a3.643,3.643,0,0,1,1.772-.565C1755.634,2026.253,1756.931,2026.229,1756.644,2025.985Z" fill="#fff"/>
          <path id="Контур_18841" data-name="Контур 18841" d="M1758.5,2033.03a21.358,21.358,0,0,1,2.321.01c.886.081,1.542-.264,1.474-.724s-.438-4.308-.5-4.884-.913.222-.944.8-1,1.667-1.288,2.637-1.671,1.733-1.653,2.011S1758.5,2033.03,1758.5,2033.03Z" fill="#fff"/>
          <path id="Контур_18842" data-name="Контур 18842" d="M1764.852,2024.169a4.443,4.443,0,0,1-1.312.852c-.658.228-.844.217-.771.63s.339,1.973.356,2.227.3.3.377.091a10.876,10.876,0,0,1,.41-1.463c.227-.481.534-1.457.979-1.739S1765.394,2023.947,1764.852,2024.169Z" fill="#8fb2e5"/>
        </g>
        <g id="Сгруппировать_2698" data-name="Сгруппировать 2698">
          <path id="Контур_18843" data-name="Контур 18843" d="M1723.1,2024.878a25.912,25.912,0,0,0,4.015-1.123,7.884,7.884,0,0,1,3.38-.95c.793.1,7.279-.669,7.551.483l-4.65,2.284S1724.125,2025.674,1723.1,2024.878Z" fill="#cadefc"/>
          <path id="Контур_18844" data-name="Контур 18844" d="M1733.176,2025.326s4.472-2.635,4.875-2.038.4,4,.765,5.151a1.792,1.792,0,0,1-1.045,2.466c-1.141.616-4.374,2.637-4.374,2.637Z" fill="#afcdfb"/>
          <path id="Контур_18845" data-name="Контур 18845" d="M1723.1,2024.878s3.421.407,5.927.461,4.053-.492,4.369.233.357,5.606.6,6.767-.72,1.583-3.328,1.35-6.851.175-6.79-1S1722.2,2024.778,1723.1,2024.878Z" fill="#e9f3fe"/>
          <path id="Контур_18846" data-name="Контур 18846" d="M1727.774,2026.054s-3.359-.4-4.08-.458.09,2.591.174,3.306c0,0,.285.139.327-.249s-.262-1.733.177-1.91a3.637,3.637,0,0,1,1.779-.542C1726.76,2026.308,1728.057,2026.3,1727.774,2026.054Z" fill="#fff"/>
          <path id="Контур_18847" data-name="Контур 18847" d="M1729.537,2033.123a21.481,21.481,0,0,1,2.319.04c.886.092,1.546-.243,1.484-.7s-.38-4.314-.434-4.891-.916.211-.955.792-1.025,1.654-1.322,2.619-1.7,1.712-1.68,1.989S1729.537,2033.123,1729.537,2033.123Z" fill="#fff"/>
          <path id="Контур_18848" data-name="Контур 18848" d="M1736.005,2024.346a4.435,4.435,0,0,1-1.324.834c-.66.221-.846.207-.778.621s.312,1.977.326,2.231.294.309.376.1a10.515,10.515,0,0,1,.43-1.457c.233-.478.552-1.45,1-1.726S1736.55,2024.132,1736.005,2024.346Z" fill="#8fb2e5"/>
        </g>
        <g id="Сгруппировать_2699" data-name="Сгруппировать 2699">
          <path id="Контур_18849" data-name="Контур 18849" d="M1747.8,2032.709c-2.8,2.453-6.831-.381-8.4-.791s-3.8-2.853-3.8-2.853,4.893-1.266,8.513-.522a4.453,4.453,0,0,1,3.679,4.165Z" fill="#a8d29f"/>
          <path id="Контур_18850" data-name="Контур 18850" d="M1747.8,2032.708c-.035-.059-2.237-3.612-12.192-3.643,0,0,4.893-1.266,8.513-.522A4.453,4.453,0,0,1,1747.8,2032.708Z" fill="#82b378"/>
        </g>
        <g id="Сгруппировать_2700" data-name="Сгруппировать 2700">
          <path id="Контур_18851" data-name="Контур 18851" d="M1741.311,2016.435c.16,3.717-4.577,5.086-5.877,6.047s-4.6,1.174-4.6,1.174,2.079-4.607,4.926-6.962a4.454,4.454,0,0,1,5.551-.259Z" fill="#a8d29f"/>
          <path id="Контур_18852" data-name="Контур 18852" d="M1741.309,2016.435c-.068-.009-4.216-.519-10.477,7.221,0,0,2.079-4.607,4.926-6.962A4.454,4.454,0,0,1,1741.309,2016.435Z" fill="#82b378"/>
        </g>
        <g id="Сгруппировать_2701" data-name="Сгруппировать 2701">
          <path id="Контур_18853" data-name="Контур 18853" d="M1762.961,2005.072c-.688,3.656-5.612,3.913-7.1,4.555s-4.749.1-4.749.1,3.071-4.015,6.379-5.661a4.453,4.453,0,0,1,5.464,1.008Z" fill="#a8d29f"/>
          <path id="Контур_18854" data-name="Контур 18854" d="M1762.959,2005.071c-.064-.024-3.988-1.463-11.843,4.653,0,0,3.071-4.015,6.379-5.661A4.453,4.453,0,0,1,1762.959,2005.071Z" fill="#82b378"/>
        </g>
        <g id="Сгруппировать_2702" data-name="Сгруппировать 2702">
          <path id="Контур_18855" data-name="Контур 18855" d="M1726.041,1989.448c3.641-.766,5.765,3.684,6.927,4.809s1.909,4.349,1.909,4.349-4.885-1.3-7.673-3.723a4.453,4.453,0,0,1-1.163-5.434Z" fill="#a8d29f"/>
          <path id="Контур_18856" data-name="Контур 18856" d="M1726.041,1989.449c0,.069.177,4.245,8.836,9.157,0,0-4.885-1.3-7.673-3.723A4.453,4.453,0,0,1,1726.041,1989.449Z" fill="#82b378"/>
        </g>
        <g id="Сгруппировать_2703" data-name="Сгруппировать 2703">
          <path id="Контур_18857" data-name="Контур 18857" d="M1742.1,2016.223a25.871,25.871,0,0,0,3.848,1.6,7.9,7.9,0,0,1,3.243,1.347c.562.567,6.129,3.982,5.63,5.054l-5.066-1.085S1742.407,2017.48,1742.1,2016.223Z" fill="#cadefc"/>
          <path id="Контур_18858" data-name="Контур 18858" d="M1749.73,2022.81s5.143.7,5.09,1.418-2.164,3.384-2.589,4.52a1.791,1.791,0,0,1-2.347,1.289c-1.278-.223-5.067-.637-5.067-.637Z" fill="#afcdfb"/>
          <path id="Контур_18859" data-name="Контур 18859" d="M1742.1,2016.223s2.434,2.438,4.368,4.031,3.488,2.124,3.287,2.889-3.19,4.623-3.716,5.688-1.546.8-3.449-1-5.489-4.1-4.711-4.991S1741.447,2015.582,1742.1,2016.223Z" fill="#e9f3fe"/>
          <path id="Контур_18860" data-name="Контур 18860" d="M1745.037,2020.037s-2.388-2.4-2.921-2.885-1.533,2.09-1.909,2.7c0,0,.137.286.41.007s.868-1.522,1.322-1.39,1.322.216,1.733.676S1745.106,2020.408,1745.037,2020.037Z" fill="#fff"/>
          <path id="Контур_18861" data-name="Контур 18861" d="M1742.044,2026.68a21.314,21.314,0,0,1,1.8,1.468c.639.621,1.365.766,1.6.366s2.373-3.623,2.688-4.11-.85-.4-1.24.031-1.829.663-2.661,1.238-2.39.3-2.55.522S1742.044,2026.68,1742.044,2026.68Z" fill="#fff"/>
          <path id="Контур_18862" data-name="Контур 18862" d="M1752.558,2023.792a4.437,4.437,0,0,1-1.556-.164c-.655-.236-.793-.362-.995.005s-.979,1.746-1.126,1.954.04.425.236.308a10.862,10.862,0,0,1,1.24-.878c.479-.231,1.332-.8,1.855-.735S1753.119,2023.962,1752.558,2023.792Z" fill="#8fb2e5"/>
        </g>
      </g>
      <path id="Контур_18863" data-name="Контур 18863" d="M1748.483,2037.5l22.744-.168c-4.028.034-8.019.077-11.509.121-6.513.081-11.279.16-11.279.16Z" fill="#c7deff" opacity="0.6"/>
      <path id="Контур_18864" data-name="Контур 18864" d="M1778.952,2025.954l-7.725,11.374-.084.121h-8.937c2.7-34.207-3.1-71.807-7.728-83.014-5.472-13.245-17.129-13.3-17.129-13.3h29.672v11.495Z" fill="#c7deff" opacity="0.6"/>
      <path id="Контур_18865" data-name="Контур 18865" d="M1731.147,1955.492l-9.076,66.026s.571,9.749,3.5,9.485,2.076-9.347,2.244-9.894,8.256-65.617,8.256-65.617S1734.054,1952.011,1731.147,1955.492Z" fill="#f8fbff" opacity="0.6"/>
    </g>
  </g>
</svg>
