<svg xmlns="http://www.w3.org/2000/svg" width="108.009" height="78.904" viewBox="0 0 108.009 78.904">
  <g id="Сгруппировать_2690" data-name="Сгруппировать 2690" transform="translate(-1691.984 -2208.874)">
    <g id="Сгруппировать_2675" data-name="Сгруппировать 2675">
      <path id="Контур_18799" data-name="Контур 18799" d="M1745.158,2247.076c-.328.667-5.633.15-11.46-2.044-6.872-2.584-14.484-7.508-15.494-15.588-1.883-14.932,17.955-27.611,28.317-16.112,7.373,8.179,3.73,21.46.9,28.68C1746.263,2244.951,1745.25,2246.887,1745.158,2247.076Z" fill="#39994f"/>
      <path id="Контур_18800" data-name="Контур 18800" d="M1745.158,2247.076c-.328.667-5.633.15-11.46-2.044-7.438-9.582-12.921-23.234-4.122-27.73,14.3-7.309,17.565,14.011,17.846,24.71C1746.263,2244.951,1745.25,2246.887,1745.158,2247.076Z" fill="#39994f" opacity="0.24" style="mix-blend-mode: multiply;isolation: isolate"/>
      <g id="Сгруппировать_2674" data-name="Сгруппировать 2674">
        <g id="Сгруппировать_2671" data-name="Сгруппировать 2671">
          <path id="Контур_18801" data-name="Контур 18801" d="M1752.547,2258.925c-1.04-.51-17.484-22.025-21.443-37.156a.555.555,0,0,1,1.074-.281c3.875,14.816,19.75,35.559,20.914,36.476a.524.524,0,0,1,.225.724A.58.58,0,0,1,1752.547,2258.925Z" fill="#005b13"/>
        </g>
        <g id="Сгруппировать_2672" data-name="Сгруппировать 2672">
          <path id="Контур_18802" data-name="Контур 18802" d="M1729.932,2233.108a23.9,23.9,0,0,1-6.544-5.226.555.555,0,0,1,.84-.724c.065.076,6.584,7.556,11.3,5.49,5.3-2.325,4.9-10.26,4.9-10.34a.554.554,0,0,1,1.106-.066c.022.358.457,8.785-5.559,11.42A7.119,7.119,0,0,1,1729.932,2233.108Z" fill="#005b13"/>
        </g>
        <g id="Сгруппировать_2673" data-name="Сгруппировать 2673">
          <path id="Контур_18803" data-name="Контур 18803" d="M1730.761,2239.379a16.446,16.446,0,0,1-2.416-1.438.555.555,0,0,1,.665-.888c.054.039,5.519,4.061,10.284,2.248,3.972-1.514,5.394-7.973,5.407-8.038a.555.555,0,1,1,1.086.232c-.063.29-1.569,7.115-6.1,8.842C1736.415,2241.583,1732.983,2240.47,1730.761,2239.379Z" fill="#005b13"/>
        </g>
      </g>
    </g>
    <g id="Сгруппировать_2680" data-name="Сгруппировать 2680">
      <path id="Контур_18804" data-name="Контур 18804" d="M1742.431,2251.192c-.289,1.1,6.391,5.829,15.364,9.132,10.576,3.9,24.362,5.823,33.649-2.548,17.181-15.454,6.869-50.1-16.714-47.149-16.776,2.1-25.88,21.181-29.844,32.409C1743.281,2247.613,1742.513,2250.879,1742.431,2251.192Z" fill="#39994f"/>
      <path id="Контур_18805" data-name="Контур 18805" d="M1742.431,2251.192c-.289,1.1,6.391,5.829,15.364,9.132,18.26-3.661,38.337-14.014,32.632-28.07-9.278-22.855-34.472-1.364-45.541,10.782C1743.281,2247.613,1742.513,2250.879,1742.431,2251.192Z" fill="#39994f" opacity="0.24" style="mix-blend-mode: multiply;isolation: isolate"/>
      <g id="Сгруппировать_2679" data-name="Сгруппировать 2679">
        <g id="Сгруппировать_2676" data-name="Сгруппировать 2676">
          <path id="Контур_18806" data-name="Контур 18806" d="M1721.95,2257.535c1.72.451,42.425-8.027,62.217-21.627a.853.853,0,0,0-.966-1.405c-19.379,13.318-58.646,21.472-60.918,21.368a.807.807,0,0,0-.99.615A.893.893,0,0,0,1721.95,2257.535Z" fill="#005b13"/>
        </g>
        <g id="Сгруппировать_2677" data-name="Сгруппировать 2677">
          <path id="Контур_18807" data-name="Контур 18807" d="M1774.142,2250.255a36.656,36.656,0,0,0,12.849.5.851.851,0,0,0-.249-1.684c-.153.023-15.234,2.166-18.639-4.971-3.828-8.026,4.608-16.838,4.694-16.927a.851.851,0,0,0-1.219-1.188c-.385.394-9.352,9.746-5.011,18.847C1767.981,2247.8,1770.921,2249.411,1774.142,2250.255Z" fill="#005b13"/>
        </g>
        <g id="Сгруппировать_2678" data-name="Сгруппировать 2678">
          <path id="Контур_18808" data-name="Контур 18808" d="M1766.882,2256.706a24.9,24.9,0,0,0,4.25.755.851.851,0,1,0,.119-1.7c-.1-.009-10.488-.824-14.2-7.715-3.094-5.747,1.741-14.677,1.79-14.766a.852.852,0,0,0-1.493-.821c-.219.4-5.323,9.84-1.8,16.394C1758.1,2253.59,1763.206,2255.743,1766.882,2256.706Z" fill="#005b13"/>
        </g>
      </g>
    </g>
    <g id="Сгруппировать_2689" data-name="Сгруппировать 2689">
      <g id="Сгруппировать_2688" data-name="Сгруппировать 2688">
        <g id="Сгруппировать_2686" data-name="Сгруппировать 2686">
          <path id="Контур_18809" data-name="Контур 18809" d="M1699.317,2274.127c11.846,9.065,47.1,19.272,67.446,9.978s23-14.8,21.1-19.631c-1.425-3.627-5.337-2.88-11.673-3.574-.141-.023-.281-.034-.428-.05-.736-.084-1.5-.193-2.291-.333-.518-.087-1.056-.193-1.6-.306q-.979-.213-2.018-.483a40.5,40.5,0,0,1-6.78-2.48c-1.048-.487-2.129-1.031-3.231-1.657-.779-.428-1.565-.9-2.371-1.4-.445-.28-.9-.566-1.342-.871-2.258-1.482-4.589-3.161-6.954-4.921-.969-.725-1.951-1.475-2.934-2.224-1.473-1.125-2.96-2.275-4.453-3.418-.517-.4-1.04-.793-1.557-1.193-2.85-2.168-5.719-4.3-8.552-6.216q-1.567-1.066-3.115-2.036c-9.111-5.677-17.709-8.51-24.336-2.855a32.254,32.254,0,0,0-4.167,4.293,36.376,36.376,0,0,0-5.763,10.107C1690.171,2255.795,1691.406,2268.066,1699.317,2274.127Z" fill="#fd8f00"/>
          <g id="Сгруппировать_2685" data-name="Сгруппировать 2685">
            <g id="Сгруппировать_2681" data-name="Сгруппировать 2681">
              <path id="Контур_18810" data-name="Контур 18810" d="M1717.72,2264.51a1.823,1.823,0,0,0,1.452-.541,1.785,1.785,0,0,0,.5-1.1,42.907,42.907,0,0,1,9.474-23.934,40.341,40.341,0,0,1,2.934-3.2q-1.569-1.065-3.116-2.036c-5.129,5.2-11.626,14.48-12.89,28.853A1.816,1.816,0,0,0,1717.72,2264.51Z" fill="#dc7000"/>
            </g>
            <g id="Сгруппировать_2682" data-name="Сгруппировать 2682">
              <path id="Контур_18811" data-name="Контур 18811" d="M1735.634,2270.381a1.807,1.807,0,0,0,2.212-1.275,43.256,43.256,0,0,1,11.729-20.32c-.969-.724-1.952-1.474-2.934-2.224a46.984,46.984,0,0,0-12.282,21.606A1.8,1.8,0,0,0,1735.634,2270.381Z" fill="#dc7000"/>
            </g>
            <g id="Сгруппировать_2683" data-name="Сгруппировать 2683">
              <path id="Контур_18812" data-name="Контур 18812" d="M1755.066,2272.685a1.807,1.807,0,0,0,2.212-1.275,44.956,44.956,0,0,1,6.194-13.771c-1.048-.487-2.129-1.031-3.23-1.657a48.793,48.793,0,0,0-6.451,14.49A1.808,1.808,0,0,0,1755.066,2272.685Z" fill="#dc7000"/>
            </g>
            <g id="Сгруппировать_2684" data-name="Сгруппировать 2684">
              <path id="Контур_18813" data-name="Контур 18813" d="M1768.363,2270.986a1.805,1.805,0,0,0,2.212-1.274,47.975,47.975,0,0,1,3.3-8.8c-.518-.087-1.056-.193-1.6-.3q-.98-.215-2.018-.484a51.745,51.745,0,0,0-3.164,8.654A1.8,1.8,0,0,0,1768.363,2270.986Z" fill="#dc7000"/>
            </g>
          </g>
        </g>
        <path id="Контур_18814" data-name="Контур 18814" d="M1699.317,2274.127c11.846,9.065,47.1,19.272,67.446,9.978s23-14.8,21.1-19.631c-1.425-3.627-5.337-2.88-11.673-3.574a8.374,8.374,0,0,1-4.192,4.344,21.414,21.414,0,0,1-4.387,1.757,48.09,48.09,0,0,1-9.5,1.63c-1.211.11-2.5.194-3.857.249a141.252,141.252,0,0,1-16.229-.411q-1.784-.123-3.662-.3a50.826,50.826,0,0,1-15.483-3.958c-.951-.406-1.884-.844-2.791-1.295a66.455,66.455,0,0,1-21.79-18.06C1690.171,2255.795,1691.406,2268.066,1699.317,2274.127Z" fill="#dc7000" opacity="0.18" style="mix-blend-mode: multiply;isolation: isolate"/>
        <g id="Сгруппировать_2687" data-name="Сгруппировать 2687" opacity="0.22" style="mix-blend-mode: screen;isolation: isolate">
          <path id="Контур_18815" data-name="Контур 18815" d="M1706.534,2245.31a24.293,24.293,0,0,0,11.687,6.349,20.9,20.9,0,0,0,3.646.5,19.087,19.087,0,0,0,14.937-5.625,18.192,18.192,0,0,0,3.422-4.976c-2.85-2.168-5.719-4.3-8.552-6.216q-1.567-1.066-3.115-2.036c-9.111-5.677-17.709-8.51-24.336-2.855a32.254,32.254,0,0,0-4.167,4.293A24.418,24.418,0,0,0,1706.534,2245.31Z" fill="#fd8f00"/>
          <path id="Контур_18816" data-name="Контур 18816" d="M1741.145,2256.35a8.242,8.242,0,0,0,1.519,1.169,9.7,9.7,0,0,0,11.805-1.987,10.93,10.93,0,0,0,1.655-2.216c-2.258-1.482-4.589-3.161-6.954-4.921-.969-.725-1.951-1.475-2.934-2.224-1.473-1.125-2.96-2.275-4.453-3.418-.088.078-.176.169-.257.253a9.681,9.681,0,0,0-1.54,11.946A8.387,8.387,0,0,0,1741.145,2256.35Z" fill="#fd8f00"/>
        </g>
      </g>
    </g>
  </g>
</svg>
