<svg xmlns="http://www.w3.org/2000/svg" width="68.208" height="101.211" viewBox="0 0 68.208 101.211">
  <g id="Сгруппировать_2670" data-name="Сгруппировать 2670" transform="translate(-1711.885 -2072.663)">
    <g id="Сгруппировать_2667" data-name="Сгруппировать 2667">
      <path id="Контур_18793" data-name="Контур 18793" d="M1729.678,2173.422c-6.287,2.4-5.81-5.488-6.4-6.178s-5.348,6.165-7.3.95,4.5-5.191,5.051-5.111c.314.046,2.494-7.189,4.357-13.592,1.476-5.064,2.755-9.608,2.755-9.608,2.21-5.7,8.334.8,8.334.8l-4.128,12.3-4,11.952S1735.954,2171.03,1729.678,2173.422Z" fill="#dfb994"/>
      <path id="Контур_18794" data-name="Контур 18794" d="M1732.343,2152.983a12.69,12.69,0,0,1-6.961-3.492c1.476-5.064,2.755-9.608,2.755-9.608,2.21-5.7,8.334.8,8.334.8Z" fill="#f6d9c4"/>
    </g>
    <g id="Сгруппировать_2669" data-name="Сгруппировать 2669">
      <path id="Контур_18795" data-name="Контур 18795" d="M1776.327,2120.975c-10.308,21.414-33.132,20.641-35.292,21.923s-2.048,8.012-4.684,7.828-.461-5.44-1.227-6.655-2.542,5.271-5.667,4.523.561-5.739-.174-6.58-1.747,3.8-4.784,3.26.46-5.049,1.164-6.749c.16-.387-.794-1.55-2.272-3.347a73.914,73.914,0,0,1-5.791-7.748c-3.073-4.855-5.832-11-5.711-17.917a25.462,25.462,0,0,1,1.66-8.552,56.237,56.237,0,0,1,2.308-5.284c7.932-16.056,22.744-27.126,38.194-21.555a25.469,25.469,0,0,1,2.689,1.132,57.93,57.93,0,0,1,8.173,4.79C1777.776,2089.136,1784.945,2103.083,1776.327,2120.975Z" fill="#d24d53"/>
      <path id="Контур_18796" data-name="Контур 18796" d="M1776.327,2120.975c-10.308,21.414-33.132,20.641-35.292,21.923s-2.048,8.012-4.684,7.828-.461-5.44-1.227-6.655-2.542,5.271-5.667,4.523.561-5.739-.174-6.58-1.747,3.8-4.784,3.26.46-5.049,1.164-6.749c.16-.387-.794-1.55-2.272-3.347,9.673,2.2,15.731,6.082,33.83-12.956,10.8-11.36,15.277-31.213,7.692-42.178C1777.776,2089.136,1784.945,2103.083,1776.327,2120.975Z" fill="#d24d53" opacity="0.2" style="mix-blend-mode: multiply;isolation: isolate"/>
      <g id="Сгруппировать_2668" data-name="Сгруппировать 2668" opacity="0.11" style="mix-blend-mode: screen;isolation: isolate">
        <path id="Контур_18797" data-name="Контур 18797" d="M1755.647,2095.631c-4.832,11.673-17.458,17.529-28.207,13.08a20.324,20.324,0,0,1-11.583-13.034c7.932-16.056,22.744-27.126,38.194-21.555A23.379,23.379,0,0,1,1755.647,2095.631Z" fill="#d24d53"/>
        <path id="Контур_18798" data-name="Контур 18798" d="M1726.241,2121.092a10.124,10.124,0,0,1-8.641,6.338c-3.073-4.855-5.832-11-5.711-17.917a9.427,9.427,0,0,1,9.4-1.376A9.813,9.813,0,0,1,1726.241,2121.092Z" fill="#d24d53"/>
      </g>
    </g>
  </g>
</svg>
