<svg xmlns="http://www.w3.org/2000/svg" width="62.458" height="109.865" viewBox="0 0 62.458 109.865">
  <g id="Сгруппировать_2692" data-name="Сгруппировать 2692" transform="translate(-1714.76 -2322.779)">
    <g id="Сгруппировать_2691" data-name="Сгруппировать 2691">
      <path id="Контур_18817" data-name="Контур 18817" d="M1777.218,2348.847c0-7.092-4.181-26.066-4.181-26.066l-52.624.031s-5.653,17.614-5.653,26.035c0,16.89,12.412,30.768,28.279,32.314v44.348c-1.631,0-22.777,7.132-21.151,7.132h45.494c1.631,0-18.289-7.132-19.918-7.132v-44.241C1764.026,2380.468,1777.218,2366.26,1777.218,2348.847Z" fill="#c5d3e2"/>
      <path id="Контур_18818" data-name="Контур 18818" d="M1717.791,2349.925c0,14.1,9.581,25.864,22.345,28.665h11.708c12.759-2.8,22.34-14.567,22.34-28.665,0-3.773-1.31-11.27-2.388-16.793h-50.867C1719.489,2338.4,1717.791,2345.539,1717.791,2349.925Z" fill="#932210"/>
      <path id="Контур_18819" data-name="Контур 18819" d="M1728.775,2346.157c0,9.807,3.324,17.756.762,17.756s-4.638-7.949-4.638-17.756,2.077-17.754,4.638-17.754S1728.775,2336.351,1728.775,2346.157Z" fill="#fff"/>
    </g>
    <path id="Контур_18820" data-name="Контур 18820" d="M1747.471,2381.273V2425.5c1.619,0,21.542,7.142,19.906,7.142h-21.383v-109.85l27.048-.015s4.176,18.976,4.176,26.074C1777.218,2366.265,1764.026,2380.462,1747.471,2381.273Z" fill="#ccc" style="mix-blend-mode: multiply;isolation: isolate"/>
  </g>
</svg>
