<svg xmlns="http://www.w3.org/2000/svg" xmlns:xlink="http://www.w3.org/1999/xlink" width="1400" height="454.461" viewBox="0 0 1400 454.461">
  <defs>
    <clipPath id="clip-path">
      <rect id="Прямоугольник_723" data-name="Прямоугольник 723" width="1400" height="454.462" transform="translate(0 2442.153)" fill="none"/>
    </clipPath>
  </defs>
  <g id="Сгруппировать_2794" data-name="Сгруппировать 2794" transform="translate(0 -2442.153)">
    <g id="Сгруппировать_2793" data-name="Сгруппировать 2793" clip-path="url(#clip-path)">
      <rect id="Прямоугольник_722" data-name="Прямоугольник 722" width="1400" height="1695.971" transform="translate(0 2532.797)" fill="#fff"/>
      <g id="Сгруппировать_2787" data-name="Сгруппировать 2787">
        <g id="Сгруппировать_2784" data-name="Сгруппировать 2784">
          <path id="Контур_19061" data-name="Контур 19061" d="M.637,2513.018-.135,2630.9c7.862,14.178,13.3,30.651,30.783,30.651,19.384,0,22.38-16.808,34.461-22.257,36.616-16.513,21.661,90.4,22.917,103.23,1.317,13.446,14.5,23.971,27.659,21.595,16.723-3.018,21.6-22.224,19.684-37.026-3.069-23.733-20.444-62.2,5.664-78.916,13.028-8.339,30.368-4.405,36.818,8.99,6.847,14.219-1.059,62.281,21.535,62.281s18.581-51.789,35.518-57.9c21.9-7.9,26.241,24.9,24.769,48.1-2.25,35.457-5.906,61.744,12.923,61.744s19.115-25.886,18.532-56.02,7.282-51.349,21.314-51.349c24.187,0,31,18.853,31.949,42.035,1.358,33.039,3.006,58.872,30.872,58.872,44.955,0,14.269-92.88,45.231-83.282,12.082,3.745,10.942,22.85,17.782,31.167,10.711,13.024,25.054-.883,37.378,4.528,15.677,6.883,10.933,33.728,26.723,41.738,20.7,10.5,31.553-15.172,37.3-56.612,3.576-25.8,5.616-48.91,17.378-53.27,30.446-11.285,34.545,80.7,35.166,99.369.422,12.675,4.995,39.463,17.815,45.857,44.513,22.2,39.855-90.938,42.917-107.367,2.46-13.2,8.753-37,26.006-23.763,14.674,11.268-2.784,64.6,14.359,82.968,15.077,16.154,36.531,8.138,42.359-8.256,5.743-16.154-2.293-32.4,4.211-44.78,11.092-21.12,30.693-6.868,29.532,25.036-1.077,29.6,3.591,43.795,19.385,43.795,13.641,0,17.936-14.417,16.513-33.691-3.59-48.621,4.307-55.352,14.359-55.352s16.283,14.331,21.539,22.992c9.333,15.384,26.71,10.61,33.026-7.9,7.184-21.048,7.9-34.935,30.512-41.64V2513.018Z" fill="#be1e2d"/>
          <g id="Сгруппировать_2783" data-name="Сгруппировать 2783">
            <path id="Контур_19062" data-name="Контур 19062" d="M.637,2513.018-.135,2630.9c7.862,14.177,13.3,30.649,30.783,30.649,19.384,0,22.38-16.808,34.461-22.256,36.616-16.514,21.661,90.394,22.917,103.23,1.317,13.446,14.5,23.971,27.659,21.594,16.723-3.018,21.6-22.222,19.684-37.025-3.069-23.733-20.444-62.2,5.664-78.917,13.028-8.339,30.368-4.4,36.818,8.99,6.847,14.219-1.059,62.283,21.535,62.283s18.581-51.791,35.518-57.9c21.9-7.9,26.241,24.9,24.769,48.1-2.25,35.456-5.906,61.742,12.923,61.742s19.115-25.884,18.532-56.019,7.282-51.35,21.314-51.35c24.187,0,31,18.855,31.949,42.036,1.358,33.038,3.006,58.871,30.872,58.871,44.955,0,14.269-92.878,45.231-83.281,12.082,3.745,10.942,22.849,17.782,31.167,10.711,13.023,25.054-.882,37.378,4.528,15.677,6.883,10.933,33.729,26.723,41.737,20.7,10.5,31.553-15.17,37.3-56.612,3.576-25.8,5.616-48.909,17.378-53.268,30.446-11.287,34.545,80.7,35.166,99.369.422,12.674,4.995,39.462,17.815,45.856,44.513,22.2,39.855-90.939,42.917-107.367,2.46-13.2,8.753-37,26.006-23.763,14.674,11.267-2.784,64.6,14.359,82.969,15.077,16.154,36.531,8.136,42.359-8.258,5.743-16.153-2.293-32.4,4.211-44.778,11.092-21.12,30.693-6.87,29.532,25.036-1.077,29.6,3.591,43.794,19.385,43.794,13.641,0,17.936-14.418,16.513-33.689-3.59-48.623,4.307-55.355,14.359-55.355s16.283,14.332,21.539,22.993c9.333,15.383,26.71,10.61,33.026-7.9,7.184-21.05,7.9-34.937,30.512-41.642V2513.018Z" fill="#e11948"/>
          </g>
        </g>
        <g id="Сгруппировать_2785" data-name="Сгруппировать 2785">
          <path id="Контур_19063" data-name="Контур 19063" d="M132.538,2733.367c-.1-6.655-2.128-12.956-3.8-19.335a184.877,184.877,0,0,1-4.731-25.264.884.884,0,0,0-1.727-.233,39.164,39.164,0,0,0-1.58,17.362c.734,6.484,2.253,12.851,3.563,19.234a30.392,30.392,0,0,1-.559,13.432c-1.32,5.468-4.444,7.159-8.539,10.307-3.067,2.358-2.659,8.557,2.219,8.192C128.626,2756.22,132.673,2742.815,132.538,2733.367Z" fill="#cd5e16" opacity="0.8" style="mix-blend-mode: soft-light;isolation: isolate"/>
          <path id="Контур_19064" data-name="Контур 19064" d="M223.506,2666.018c-2.437,2.234-3.209,6.389-4.261,9.4-1.936,5.547-3.921,11.087-6.1,16.542a80.485,80.485,0,0,1-7.932,15.536c-3.136,4.593-5.228,4.385-9.674,2.121a1.223,1.223,0,0,0-1.78,1.368,6.931,6.931,0,0,0,9.82,4.173c5.044-2.39,8.291-7.968,10.791-12.692a149.083,149.083,0,0,0,8.583-20.439c1.59-4.535,4.066-9.606,4.349-14.441C227.417,2665.549,224.845,2664.791,223.506,2666.018Z" fill="#cd5e16" opacity="0.8" style="mix-blend-mode: soft-light;isolation: isolate"/>
          <path id="Контур_19065" data-name="Контур 19065" d="M289.807,2692a.838.838,0,0,0-1.552-.42c-2.055,4.665-2.03,10.307-2.31,15.313-.453,8.068,0,16.18-.028,24.254-.042,11.265.945,31.993-13.187,35.325-2,.471-1.323,3.121.45,3.322,15.071,1.713,17.042-20.507,17.555-30.725C291.522,2723.376,288.54,2707.611,289.807,2692Z" fill="#cd5e16" opacity="0.8" style="mix-blend-mode: soft-light;isolation: isolate"/>
          <path id="Контур_19066" data-name="Контур 19066" d="M403.932,2685.168c-9.008,12.293-8.541,29.845-11.448,44.225-1.472,7.278-3.462,15.3-8.166,21.239-5.222,6.6-11.9,5.767-19.348,7.3-2.529.519-3.158,4.556-.742,5.675,7.656,3.545,16.5.756,22.723-4.44,6.345-5.3,9.307-13.988,11.181-21.74,2.148-8.88,3.127-18.167,3.912-27.255.692-8,.912-16.7,3.226-24.436C405.524,2684.884,404.4,2684.535,403.932,2685.168Z" fill="#cd5e16" opacity="0.8" style="mix-blend-mode: soft-light;isolation: isolate"/>
          <path id="Контур_19067" data-name="Контур 19067" d="M355.441,2746.619c-9.548-15.9-4.856-35.6-6.271-53.184a.606.606,0,0,0-1.211,0c-.975,10.162-2.665,20.107-2.61,30.362.044,8.022.634,19.947,8.3,24.617A1.321,1.321,0,0,0,355.441,2746.619Z" fill="#cd5e16" opacity="0.8" style="mix-blend-mode: soft-light;isolation: isolate"/>
          <path id="Контур_19068" data-name="Контур 19068" d="M453.116,2709.753c-5.208-.851-7.789-2.171-10.337-7.049a73.437,73.437,0,0,1-5.347-13.731.583.583,0,0,0-1.14.154,30.936,30.936,0,0,0,3.374,17.578c2.519,4.631,8.523,9.727,13.854,6.139C454.605,2712.114,454.686,2710.01,453.116,2709.753Z" fill="#cd5e16" opacity="0.8" style="mix-blend-mode: soft-light;isolation: isolate"/>
          <path id="Контур_19069" data-name="Контур 19069" d="M650.2,2675.124c-6.261,11.493-8.81,24.987-10.293,37.9-1.229,10.7-2.226,21.407-4,32.032-1.741,10.4-3.637,21.426-8.331,30.968-1.61,3.273-3.6,5.973-6.836,7.71-2.919,1.563-7.9-.511-10.552-1.763-.468-.221-1.129.265-.777.777,4.935,7.171,12.9,9.17,19.536,2.7,7.516-7.326,10.354-19.6,12.635-29.43a249.406,249.406,0,0,0,5.22-37.538c.319-4.273.458-8.563.674-12.842.149-2.974-.161-5.884-.276-8.865-.272-7.092,2.472-14.329,4.318-21.1A.722.722,0,0,0,650.2,2675.124Z" fill="#cd5e16" opacity="0.8" style="mix-blend-mode: soft-light;isolation: isolate"/>
          <path id="Контур_19070" data-name="Контур 19070" d="M730.287,2701.641a2.253,2.253,0,0,0-4.162,1.127c-.326,4.081.654,8.221.7,12.326a65.508,65.508,0,0,1-1.534,14.98c-2.354,10.5-7.715,17.566-19.186,16.524a1.409,1.409,0,0,0-.707,2.61c11.092,5.356,20.525-2.069,24.6-12.476a53.589,53.589,0,0,0,3.265-18.519C733.338,2713.064,733.475,2705.979,730.287,2701.641Z" fill="#cd5e16" opacity="0.8" style="mix-blend-mode: soft-light;isolation: isolate"/>
          <path id="Контур_19071" data-name="Контур 19071" d="M802.352,2712.353c.475-7.577,3.829-15,3.7-22.508a1.6,1.6,0,0,0-2.964-.8c-6.184,9.343-6.574,24.282-6.225,35.112.233,7.228,3.909,24.9-4.443,28.64-1.144.512-.326,2.38.846,2.006,9.224-2.938,9.1-16.108,9.161-23.871C802.478,2724.706,801.96,2718.6,802.352,2712.353Z" fill="#cd5e16" opacity="0.8" style="mix-blend-mode: soft-light;isolation: isolate"/>
          <path id="Контур_19072" data-name="Контур 19072" d="M899.134,2637.349c-6.642,1.506-13.089,7.821-17.782,12.512a56.045,56.045,0,0,0-12.168,18.123,107.124,107.124,0,0,0-4.165,14.122c-1.129,4.4-2.978,11.018-7.892,12.521-1.53.468-1.8,3.05,0,3.359,11.057,1.9,14.328-12.6,16.375-20.608a49.313,49.313,0,0,1,9.449-18.764,61.968,61.968,0,0,1,8.352-8.362c3.391-2.888,7.663-4.679,10.815-7.777C904.387,2640.244,902.05,2636.688,899.134,2637.349Z" fill="#cd5e16" opacity="0.8" style="mix-blend-mode: soft-light;isolation: isolate"/>
          <path id="Контур_19073" data-name="Контур 19073" d="M537.047,2683.384a1.1,1.1,0,0,0-2.2,0c-.556,5.534-2.132,11.05-3.505,16.42-2.187,8.553-4.142,17.187-6.552,25.681-2.143,7.551-4.618,15.319-8.9,21.966-1.086,1.687-2.612,3.687-4.616,4.3-1.846.564-3.94-1.189-5.891-.905a1.455,1.455,0,0,0-1.058,1.058c-.932,6.75,8.623,7.295,12.479,4.318,6.377-4.927,9.333-13.87,11.826-21.2C534.078,2719.034,538.386,2700.431,537.047,2683.384Z" fill="#cd5e16" opacity="0.8" style="mix-blend-mode: soft-light;isolation: isolate"/>
        </g>
        <g id="Сгруппировать_2786" data-name="Сгруппировать 2786" opacity="0.8">
          <path id="Контур_19074" data-name="Контур 19074" d="M111.434,2756.357a11.251,11.251,0,0,1-6.323-3.255c-1.178-1.328-2.956.287-2.06,1.708a9.9,9.9,0,0,0,3.623,3.563,9.159,9.159,0,0,0,4.846.985C113.374,2759.3,112.944,2756.7,111.434,2756.357Z" fill="#fff"/>
          <path id="Контур_19075" data-name="Контур 19075" d="M197.571,2706.343c-.551-1.021-1.331-1.872-1.97-2.831a11.267,11.267,0,0,1-1.434-3.319,1.768,1.768,0,0,0-3.464.7c.469,2.849,1.618,6.237,4.278,7.752C196.463,2709.49,198.473,2708.017,197.571,2706.343Z" fill="#fff"/>
          <path id="Контур_19076" data-name="Контур 19076" d="M279.226,2750.926a25.254,25.254,0,0,0-1.807,3.531c-.2.467-.278.951-.484,1.416a1.253,1.253,0,0,0-.166.587v.034c-1.077.661-.151,1.987.817,2.05a3.213,3.213,0,0,0,2.7-1.667,8.632,8.632,0,0,0,1.411-5.288A1.338,1.338,0,0,0,279.226,2750.926Z" fill="#fff"/>
          <path id="Контур_19077" data-name="Контур 19077" d="M382.261,2747.409a25.225,25.225,0,0,0-3.139,3.044,7.871,7.871,0,0,1-4.148,2.011c-.7.118-.439,1.072.154,1.141,3.474.4,8.106-.873,9.358-4.485A1.525,1.525,0,0,0,382.261,2747.409Z" fill="#fff"/>
          <path id="Контур_19078" data-name="Контур 19078" d="M622.7,2781.5c-1.873-1.471-4.192-1.562-6.226-2.771a15.287,15.287,0,0,1-5.052-5.42c-1.2-2-3.935-.254-3.052,1.784a28.468,28.468,0,0,0,4.46,7.368c1.954,2.269,5.481,4.9,8.6,3.848C623.26,2785.7,624.53,2782.94,622.7,2781.5Z" fill="#fff"/>
          <path id="Контур_19079" data-name="Контур 19079" d="M719.663,2737.071c-2.873-.726-5.838.729-8.844.267a11.375,11.375,0,0,1-8.392-5.5c-.343-.578-1.46-.388-1.364.37a11.587,11.587,0,0,0,6.244,9.174c3.449,1.951,10.437,2.66,13.414-.3A2.419,2.419,0,0,0,719.663,2737.071Z" fill="#fff"/>
          <path id="Контур_19080" data-name="Контур 19080" d="M794.452,2741.44c-.633,1.108-1.211,2.266-1.947,3.314a8.8,8.8,0,0,1-2.409,2c-1.073.727-.817,2.832.725,2.681a7.788,7.788,0,0,0,6.641-7.183A1.626,1.626,0,0,0,794.452,2741.44Z" fill="#fff"/>
          <path id="Контур_19081" data-name="Контур 19081" d="M861.764,2683.481c-1.5,2.422-2.436,4.826-5.61,5.113-1.74.157-2.951,2.771-.994,3.669,5.549,2.546,10.841-1.838,11.542-7.444C867.049,2682.043,863.034,2681.432,861.764,2683.481Z" fill="#fff"/>
        </g>
      </g>
      <g id="Сгруппировать_2792" data-name="Сгруппировать 2792">
        <g id="Сгруппировать_2789" data-name="Сгруппировать 2789">
          <path id="Контур_19082" data-name="Контур 19082" d="M1805.363,2514.095l.772,117.882c-7.862,14.178-13.3,30.651-30.783,30.651-19.384,0-22.38-16.808-34.461-22.257-36.616-16.513-21.661,90.4-22.917,103.23-1.317,13.446-14.495,23.971-27.659,21.595-16.723-3.018-21.6-22.224-19.684-37.027,3.069-23.732,20.444-62.2-5.664-78.915-13.028-8.339-30.368-4.4-36.818,8.99-6.847,14.219,1.059,62.281-21.535,62.281s-18.581-51.789-35.518-57.9c-21.9-7.9-26.241,24.9-24.769,48.1,2.25,35.458,5.906,61.745-12.923,61.745s-19.115-25.886-18.532-56.02-7.282-51.349-21.314-51.349c-24.187,0-31,18.853-31.949,42.035-1.358,33.039-3.006,58.872-30.872,58.872-44.955,0-14.269-92.88-45.231-83.283-12.082,3.745-10.942,22.851-17.782,31.168-10.711,13.024-25.054-.883-37.378,4.528-15.677,6.883-10.933,33.728-26.723,41.738-20.705,10.5-31.553-15.172-37.3-56.612-3.576-25.8-5.616-48.91-17.378-53.27-30.446-11.285-34.545,80.705-35.166,99.369-.422,12.675-4.995,39.463-17.815,45.857-44.513,22.2-39.855-90.938-42.917-107.367-2.46-13.2-8.753-37-26.006-23.763-14.674,11.268,2.784,64.6-14.359,82.968-15.077,16.154-36.531,8.138-42.359-8.256-5.743-16.154,2.293-32.4-4.211-44.781-11.092-21.119-30.693-6.867-29.532,25.037,1.077,29.6-3.591,43.795-19.385,43.795-13.641,0-17.936-14.417-16.513-33.691,3.59-48.621-4.307-55.352-14.359-55.352s-16.283,14.33-21.539,22.992c-9.333,15.384-26.71,10.609-33.026-7.9-7.184-21.048-7.9-34.935-30.512-41.64V2514.095Z" fill="#be1e2d"/>
          <g id="Сгруппировать_2788" data-name="Сгруппировать 2788">
            <path id="Контур_19083" data-name="Контур 19083" d="M1805.363,2514.095l.772,117.883c-7.862,14.177-13.3,30.649-30.783,30.649-19.384,0-22.38-16.808-34.461-22.256-36.616-16.514-21.661,90.394-22.917,103.23-1.317,13.446-14.495,23.971-27.659,21.594-16.723-3.018-21.6-22.222-19.684-37.026,3.069-23.732,20.444-62.2-5.664-78.916-13.028-8.339-30.368-4.4-36.818,8.99-6.847,14.219,1.059,62.283-21.535,62.283s-18.581-51.791-35.518-57.9c-21.9-7.9-26.241,24.9-24.769,48.1,2.25,35.456,5.906,61.742-12.923,61.742s-19.115-25.884-18.532-56.019-7.282-51.35-21.314-51.35c-24.187,0-31,18.855-31.949,42.036-1.358,33.038-3.006,58.871-30.872,58.871-44.955,0-14.269-92.878-45.231-83.282-12.082,3.745-10.942,22.85-17.782,31.168-10.711,13.023-25.054-.882-37.378,4.528-15.677,6.883-10.933,33.729-26.723,41.737-20.705,10.5-31.553-15.17-37.3-56.612-3.576-25.8-5.616-48.909-17.378-53.268-30.446-11.287-34.545,80.7-35.166,99.369-.422,12.674-4.995,39.462-17.815,45.856-44.513,22.2-39.855-90.939-42.917-107.367-2.46-13.2-8.753-37-26.006-23.763-14.674,11.267,2.784,64.6-14.359,82.969-15.077,16.154-36.531,8.136-42.359-8.258-5.743-16.153,2.293-32.4-4.211-44.778-11.092-21.12-30.693-6.87-29.532,25.036,1.077,29.6-3.591,43.794-19.385,43.794-13.641,0-17.936-14.419-16.513-33.69,3.59-48.622-4.307-55.354-14.359-55.354s-16.283,14.331-21.539,22.993c-9.333,15.383-26.71,10.609-33.026-7.9-7.184-21.05-7.9-34.937-30.512-41.642V2514.095Z" fill="#e11948"/>
          </g>
        </g>
        <g id="Сгруппировать_2790" data-name="Сгруппировать 2790">
          <path id="Контур_19084" data-name="Контур 19084" d="M1673.462,2734.444c.1-6.655,2.128-12.956,3.8-19.335a184.866,184.866,0,0,0,4.731-25.264.884.884,0,0,1,1.727-.233,39.164,39.164,0,0,1,1.58,17.362c-.734,6.484-2.253,12.851-3.563,19.234a30.392,30.392,0,0,0,.559,13.432c1.32,5.468,4.444,7.159,8.539,10.307,3.067,2.358,2.659,8.557-2.219,8.192C1677.374,2757.3,1673.327,2743.892,1673.462,2734.444Z" fill="#cd5e16" opacity="0.8" style="mix-blend-mode: soft-light;isolation: isolate"/>
          <path id="Контур_19085" data-name="Контур 19085" d="M1582.494,2667.095c2.437,2.234,3.209,6.389,4.261,9.4,1.936,5.547,3.921,11.087,6.1,16.542a80.486,80.486,0,0,0,7.932,15.536c3.136,4.593,5.228,4.385,9.674,2.121a1.223,1.223,0,0,1,1.78,1.368,6.931,6.931,0,0,1-9.82,4.173c-5.044-2.39-8.291-7.968-10.791-12.692a149.062,149.062,0,0,1-8.583-20.439c-1.59-4.535-4.066-9.606-4.349-14.441C1578.583,2666.626,1581.155,2665.868,1582.494,2667.095Z" fill="#cd5e16" opacity="0.8" style="mix-blend-mode: soft-light;isolation: isolate"/>
          <path id="Контур_19086" data-name="Контур 19086" d="M1516.193,2693.076a.838.838,0,0,1,1.552-.42c2.055,4.664,2.03,10.307,2.31,15.313.453,8.068,0,16.18.028,24.254.042,11.265-.945,31.993,13.187,35.325,2,.471,1.323,3.121-.45,3.322-15.071,1.713-17.042-20.507-17.555-30.726C1514.478,2724.453,1517.46,2708.688,1516.193,2693.076Z" fill="#cd5e16" opacity="0.8" style="mix-blend-mode: soft-light;isolation: isolate"/>
          <path id="Контур_19087" data-name="Контур 19087" d="M1402.068,2686.245c9.008,12.293,8.541,29.845,11.448,44.225,1.472,7.278,3.462,15.3,8.166,21.239,5.222,6.6,11.9,5.767,19.348,7.3,2.529.519,3.158,4.556.742,5.675-7.656,3.545-16.5.756-22.723-4.441-6.345-5.3-9.307-13.987-11.181-21.739-2.148-8.88-3.127-18.167-3.912-27.255-.692-8-.912-16.7-3.226-24.436C1400.476,2685.961,1401.6,2685.612,1402.068,2686.245Z" fill="#cd5e16" opacity="0.8" style="mix-blend-mode: soft-light;isolation: isolate"/>
          <path id="Контур_19088" data-name="Контур 19088" d="M1450.559,2747.7c9.548-15.9,4.856-35.6,6.271-53.184a.606.606,0,0,1,1.211,0c.975,10.162,2.665,20.107,2.61,30.362-.044,8.022-.634,19.947-8.3,24.617A1.321,1.321,0,0,1,1450.559,2747.7Z" fill="#cd5e16" opacity="0.8" style="mix-blend-mode: soft-light;isolation: isolate"/>
          <path id="Контур_19089" data-name="Контур 19089" d="M1352.884,2710.83c5.208-.851,7.789-2.171,10.337-7.049a73.433,73.433,0,0,0,5.347-13.731.583.583,0,0,1,1.14.154,30.935,30.935,0,0,1-3.374,17.578c-2.519,4.631-8.523,9.727-13.854,6.139C1351.4,2713.191,1351.314,2711.086,1352.884,2710.83Z" fill="#cd5e16" opacity="0.8" style="mix-blend-mode: soft-light;isolation: isolate"/>
          <path id="Контур_19090" data-name="Контур 19090" d="M1155.8,2676.2c6.261,11.493,8.81,24.987,10.293,37.9,1.229,10.695,2.226,21.407,4,32.032,1.741,10.4,3.637,21.426,8.331,30.968,1.61,3.273,3.6,5.973,6.836,7.709,2.919,1.564,7.9-.51,10.552-1.762.468-.221,1.129.265.777.777-4.935,7.171-12.9,9.17-19.536,2.7-7.516-7.326-10.354-19.6-12.635-29.43a249.411,249.411,0,0,1-5.22-37.538c-.319-4.273-.458-8.563-.674-12.842-.149-2.974.161-5.884.276-8.865.272-7.092-2.472-14.329-4.318-21.1A.722.722,0,0,1,1155.8,2676.2Z" fill="#cd5e16" opacity="0.8" style="mix-blend-mode: soft-light;isolation: isolate"/>
          <path id="Контур_19091" data-name="Контур 19091" d="M1075.713,2702.718a2.252,2.252,0,0,1,4.162,1.127c.326,4.081-.654,8.221-.7,12.326a65.506,65.506,0,0,0,1.534,14.98c2.354,10.5,7.715,17.566,19.186,16.524a1.409,1.409,0,0,1,.707,2.61c-11.092,5.355-20.525-2.069-24.6-12.476a53.59,53.59,0,0,1-3.265-18.519C1072.662,2714.141,1072.525,2707.056,1075.713,2702.718Z" fill="#cd5e16" opacity="0.8" style="mix-blend-mode: soft-light;isolation: isolate"/>
          <path id="Контур_19092" data-name="Контур 19092" d="M1003.648,2713.43c-.475-7.577-3.829-15-3.7-22.508a1.6,1.6,0,0,1,2.964-.8c6.184,9.343,6.574,24.282,6.225,35.112-.233,7.228-3.909,24.9,4.443,28.64,1.144.512.326,2.38-.846,2.006-9.224-2.938-9.1-16.108-9.161-23.871C1003.522,2725.783,1004.04,2719.675,1003.648,2713.43Z" fill="#cd5e16" opacity="0.8" style="mix-blend-mode: soft-light;isolation: isolate"/>
          <path id="Контур_19093" data-name="Контур 19093" d="M906.866,2638.426c6.642,1.506,13.089,7.821,17.782,12.512a56.046,56.046,0,0,1,12.168,18.123,107.1,107.1,0,0,1,4.165,14.122c1.129,4.4,2.978,11.018,7.892,12.521,1.53.468,1.8,3.05,0,3.359-11.057,1.9-14.328-12.6-16.375-20.608a49.312,49.312,0,0,0-9.449-18.764,61.966,61.966,0,0,0-8.352-8.362c-3.391-2.888-7.663-4.679-10.815-7.777C901.613,2641.321,903.95,2637.765,906.866,2638.426Z" fill="#cd5e16" opacity="0.8" style="mix-blend-mode: soft-light;isolation: isolate"/>
          <path id="Контур_19094" data-name="Контур 19094" d="M1268.953,2684.461a1.1,1.1,0,0,1,2.2,0c.556,5.533,2.132,11.05,3.505,16.42,2.187,8.553,4.142,17.187,6.552,25.681,2.143,7.551,4.618,15.319,8.895,21.966,1.086,1.687,2.612,3.687,4.616,4.3,1.846.563,3.94-1.189,5.891-.9a1.455,1.455,0,0,1,1.058,1.058c.932,6.75-8.623,7.295-12.479,4.318-6.377-4.927-9.333-13.87-11.826-21.2C1271.922,2720.11,1267.614,2701.508,1268.953,2684.461Z" fill="#cd5e16" opacity="0.8" style="mix-blend-mode: soft-light;isolation: isolate"/>
        </g>
        <g id="Сгруппировать_2791" data-name="Сгруппировать 2791" opacity="0.8">
          <path id="Контур_19095" data-name="Контур 19095" d="M1694.566,2757.434a11.253,11.253,0,0,0,6.323-3.255c1.178-1.328,2.956.287,2.06,1.708a9.894,9.894,0,0,1-3.623,3.563,9.169,9.169,0,0,1-4.846.985C1692.626,2760.374,1693.056,2757.773,1694.566,2757.434Z" fill="#fff"/>
          <path id="Контур_19096" data-name="Контур 19096" d="M1608.429,2707.42c.551-1.021,1.331-1.872,1.97-2.831a11.273,11.273,0,0,0,1.434-3.319,1.768,1.768,0,0,1,3.464.7c-.469,2.849-1.618,6.237-4.278,7.752C1609.537,2710.567,1607.527,2709.094,1608.429,2707.42Z" fill="#fff"/>
          <path id="Контур_19097" data-name="Контур 19097" d="M1526.774,2752a25.227,25.227,0,0,1,1.807,3.531c.2.467.278.95.484,1.416a1.252,1.252,0,0,1,.166.587v.034c1.077.661.151,1.987-.817,2.05a3.213,3.213,0,0,1-2.7-1.667,8.634,8.634,0,0,1-1.411-5.288A1.338,1.338,0,0,1,1526.774,2752Z" fill="#fff"/>
          <path id="Контур_19098" data-name="Контур 19098" d="M1423.739,2748.486a25.193,25.193,0,0,1,3.139,3.044,7.87,7.87,0,0,0,4.148,2.011c.7.118.439,1.072-.154,1.141-3.474.4-8.106-.874-9.358-4.486A1.525,1.525,0,0,1,1423.739,2748.486Z" fill="#fff"/>
          <path id="Контур_19099" data-name="Контур 19099" d="M1183.3,2782.58c1.873-1.471,4.192-1.562,6.226-2.771a15.286,15.286,0,0,0,5.052-5.42c1.2-2,3.935-.254,3.052,1.784a28.47,28.47,0,0,1-4.46,7.368c-1.954,2.269-5.481,4.9-8.6,3.848C1182.74,2786.775,1181.47,2784.017,1183.3,2782.58Z" fill="#fff"/>
          <path id="Контур_19100" data-name="Контур 19100" d="M1086.337,2738.148c2.873-.726,5.838.729,8.844.267a11.376,11.376,0,0,0,8.392-5.5c.343-.578,1.46-.388,1.364.37a11.587,11.587,0,0,1-6.244,9.174c-3.449,1.951-10.437,2.66-13.414-.3A2.419,2.419,0,0,1,1086.337,2738.148Z" fill="#fff"/>
          <path id="Контур_19101" data-name="Контур 19101" d="M1011.548,2742.517c.633,1.108,1.211,2.266,1.947,3.314a8.8,8.8,0,0,0,2.409,2c1.073.727.817,2.832-.725,2.681a7.788,7.788,0,0,1-6.641-7.183A1.626,1.626,0,0,1,1011.548,2742.517Z" fill="#fff"/>
          <path id="Контур_19102" data-name="Контур 19102" d="M944.236,2684.558c1.5,2.422,2.436,4.826,5.61,5.113,1.74.157,2.951,2.771.994,3.669-5.549,2.545-10.841-1.838-11.542-7.444C938.951,2683.12,942.966,2682.509,944.236,2684.558Z" fill="#fff"/>
        </g>
      </g>
    </g>
  </g>
</svg>
