<svg xmlns="http://www.w3.org/2000/svg" xmlns:xlink="http://www.w3.org/1999/xlink" width="100.178" height="100.178" viewBox="0 0 100.178 100.178">
  <defs>
    <clipPath id="clip-path">
      <circle id="Эллипс_75" data-name="Эллипс 75" cx="50.089" cy="50.089" r="50.089" transform="translate(2296.1 7702.388)" fill="none"/>
    </clipPath>
  </defs>
  <g id="Сгруппировать_1891" data-name="Сгруппировать 1891" transform="translate(-2296.1 -7702.388)">
    <circle id="Эллипс_74" data-name="Эллипс 74" cx="50.089" cy="50.089" r="50.089" transform="translate(2296.1 7702.388)" fill="#49ac6a" opacity="0.48"/>
    <g id="Сгруппировать_1890" data-name="Сгруппировать 1890">
      <g id="Сгруппировать_1889" data-name="Сгруппировать 1889" clip-path="url(#clip-path)">
        <g id="Сгруппировать_1888" data-name="Сгруппировать 1888">
          <g id="Сгруппировать_1887" data-name="Сгруппировать 1887">
            <g id="Сгруппировать_1886" data-name="Сгруппировать 1886">
              <path id="Контур_17319" data-name="Контур 17319" d="M2375.3,7780.231a15.8,15.8,0,0,0-1.335,1.882,12.983,12.983,0,0,1-1.012,1.447c-.019-.019-.038-.033-.058-.053a15.111,15.111,0,0,1,1.491-2.371c.164-.271.348-.537.537-.794C2375.008,7780.221,2375.124,7780.091,2375.3,7780.231Z"/>
              <path id="Контур_17320" data-name="Контур 17320" d="M2374.766,7787.5c.973-2.749,1.955-5.493,3.093-8.179.169-.407.266-.847.43-1.254.039-.091.068-.241.121-.343a.171.171,0,0,1,.237-.082c.247.1.015.4-.048.551-.489,1.288-1.021,2.551-1.524,3.833s-1,2.565-1.481,3.857c-.557,1.5-1.1,3.02-1.752,4.491a45.15,45.15,0,0,0-1.994,4.99c-.034.1-.068.222-.2.242a7.545,7.545,0,0,1,.774-2.376C2373.169,7791.309,2374.074,7789.45,2374.766,7787.5Z"/>
              <path id="Контур_17321" data-name="Контур 17321" d="M2371.65,7795.611v.01l-.01-.01Z"/>
              <path id="Контур_17322" data-name="Контур 17322" d="M2371.65,7795.621s0,.009-.01.014,0-.014,0-.024Z"/>
              <path id="Контур_17323" data-name="Контур 17323" d="M2371.683,7734.493a4.882,4.882,0,0,1-5.26,2.632,3.747,3.747,0,0,0,.992-1.335c.043-.131.155-.155.281-.145a6.187,6.187,0,0,0,3.479-.963A4.273,4.273,0,0,1,2371.683,7734.493Z" fill="#8fbe23"/>
              <path id="Контур_17324" data-name="Контур 17324" d="M2365.7,7742.9c.794.232,1.6.29,2.091,1.137.367.629,1.016,1.079,1.359,1.752.083.165.233.32.112.6a19.6,19.6,0,0,0-1.747-1.311c-.223-.107-.45-.305-.673-.3-.75.014-.929-.431-.987-1.046A8.438,8.438,0,0,0,2365.7,7742.9Z" fill="#8fbe23"/>
              <path id="Контур_17325" data-name="Контур 17325" d="M2364.913,7740.663a2.355,2.355,0,0,0,.46-.934c.217.039-.01.358.237.344a.248.248,0,0,0,.227-.223,1.606,1.606,0,0,1,.17-.716c.179.314-.117.629.043,1.006a3.071,3.071,0,0,0,.368-1.476c.015-.169-.111-.29-.247-.188-.155.111-.256.247-.44.072.237-.2-.073-.58.266-.755,1.336-.672,4.825-.135,5.706,1.017a12.421,12.421,0,0,0,1.79,1.843c.15.131.407.16.475.441-1.259.324-2.512.663-3.775.973a7.736,7.736,0,0,1-2.313.619c-1.239-.087-2.507-.155-3.432-1.186-.106-.111-.242-.256-.4-.256l.4-.47A.36.36,0,0,0,2364.913,7740.663Z" fill="#b1729c"/>
              <path id="Контур_17326" data-name="Контур 17326" d="M2365.9,7803.814c.373-1.089.818-2.154,1.239-3.228a1.92,1.92,0,0,1,.228-.4c.048-.068.1-.184.222-.126.141.073.087.179.039.291-.3.745-.576,1.5-.915,2.231-.421.9-.663,1.868-.992,2.8-.6,1.708-1.239,3.412-1.911,5.1a11.346,11.346,0,0,1-.775,1.936.412.412,0,0,1,.015-.4C2364.095,7809.316,2364.961,7806.553,2365.9,7803.814Z"/>
              <path id="Контур_17327" data-name="Контур 17327" d="M2363.045,7812.443a.084.084,0,0,1-.029.009c0-.009,0-.019.01-.029Z"/>
              <path id="Контур_17328" data-name="Контур 17328" d="M2363.026,7812.423s0,0,0,0,.01.015.015.025Z"/>
              <path id="Контур_17329" data-name="Контур 17329" d="M2362.808,7812.738a.45.45,0,0,1,.208-.286,20.511,20.511,0,0,1-1.137,2.957,4.066,4.066,0,0,1-.828,1.617c.247-.615.489-1.23.74-1.844C2362.13,7814.369,2362.479,7813.556,2362.808,7812.738Z"/>
              <path id="Контур_17330" data-name="Контур 17330" d="M2362.479,7742.226c-.078-.092-.1-.261.014-.3.261-.1.353-.445.77-.455a2.642,2.642,0,0,1-.513.7c-.058.049-.112.121-.175.121A.131.131,0,0,1,2362.479,7742.226Z"/>
              <path id="Контур_17331" data-name="Контур 17331" d="M2361.428,7735.141a4.563,4.563,0,0,1,1.065-4.476,18.409,18.409,0,0,1,2.657-2.376c.2-.155.319-.373.523-.528.285-.223.416-.242.518.174.367,1.476.542,2.981.822,4.472a5.363,5.363,0,0,1,.107,2.333,4.409,4.409,0,0,1-1.471,2.356c-.117.1-.233.2-.339.063-.31-.377-.77-.551-1.108-.89-.2-.194-.238-.358-.059-.566.368.092.46.522.833.716-.31-.934-1.142-1.147-1.8-1.558-.189-.121-.426.13-.634.232a.117.117,0,0,0-.068.111l-.315-.009a.266.266,0,0,0-.029-.112c-.1-.2-.3-.126-.46-.043C2361.593,7735.078,2361.535,7735.175,2361.428,7735.141Z" fill="#b1729c"/>
              <path id="Контур_17332" data-name="Контур 17332" d="M2361.293,7742.647c-.136-.082-.373.165-.484,0-.15-.223.189-.286.237-.46a3.1,3.1,0,0,1,.174-.354l.175-.987a1.083,1.083,0,0,0,1.248-1.19,2.37,2.37,0,0,1,.591-1.559,5.158,5.158,0,0,0,.43-.808c.054-.111.112-.213-.058-.281l.421-.416a8.041,8.041,0,0,1,.673.528c.2.189.542.276.358.668a.1.1,0,0,0,.024.1c.746.3.228.731.087,1.08-.183.474-.2,1.03-.653,1.384-.1.077-.247.271-.116.392a.309.309,0,0,0,.048.038l-.4.47a.263.263,0,0,0-.174.068.21.21,0,0,0-.1.159h-.517c-.417.01-.509.358-.77.455-.116.039-.092.208-.014.3a.131.131,0,0,0,.1.063l.117.257A1.179,1.179,0,0,1,2361.293,7742.647Z" fill="#c19fb5"/>
              <path id="Контур_17333" data-name="Контур 17333" d="M2360.765,7738.737c.325.01.7-.024.383.508-.068.111-.112.271.058.349.121.053.261.072.339-.1.116-.281.314-.174.527-.126.111.029.189.058.16.165-.063.242-.053.537-.31.682a1.414,1.414,0,0,1-1.844-.866C2360.02,7738.892,2360.306,7738.7,2360.765,7738.737Z" fill="#c19fb5"/>
              <path id="Контур_17334" data-name="Контур 17334" d="M2360.359,7725.607a8.253,8.253,0,0,1,.837,3.282,14.035,14.035,0,0,0,.082,2.008c.131.663-.333,1.152-.44,1.781a2.735,2.735,0,0,1-.745-2.734A14.878,14.878,0,0,0,2360.359,7725.607Z" fill="#8fbe23"/>
              <path id="Контур_17335" data-name="Контур 17335" d="M2359.865,7738.568a.85.85,0,0,1,1.205-.242c.407.188.533.043.683-.281.232-.518.493-1.021.813-1.679a16.094,16.094,0,0,1-.533,2.24c.775-.338,1.118-1.026,1.573-1.6.17.068.112.17.058.281a5.158,5.158,0,0,1-.43.808,2.37,2.37,0,0,0-.591,1.559,1.083,1.083,0,0,1-1.248,1.19,1.665,1.665,0,0,1-.509-.15,2.719,2.719,0,0,1-.924-.663A1.071,1.071,0,0,1,2359.865,7738.568Zm.213.779a1.414,1.414,0,0,0,1.844.866c.257-.145.247-.44.31-.682.029-.107-.049-.136-.16-.165-.213-.048-.411-.155-.527.126-.078.174-.218.155-.339.1-.17-.078-.126-.238-.058-.349.319-.532-.058-.5-.383-.508C2360.306,7738.7,2360.02,7738.892,2360.078,7739.347Z"/>
              <path id="Контур_17336" data-name="Контур 17336" d="M2358.776,7822.054c.228-.484.455-.968.688-1.452A2.412,2.412,0,0,1,2358.776,7822.054Z"/>
              <path id="Контур_17337" data-name="Контур 17337" d="M2361.211,7743.247a2.019,2.019,0,0,0,2.245-1.166,5.9,5.9,0,0,0-.764.465l-.117-.257c.063,0,.117-.072.175-.121a2.642,2.642,0,0,0,.513-.7h.517c0,.112.126.223.2.325a1.967,1.967,0,0,0,.392.484,2.85,2.85,0,0,1,1.089,2.158,7.748,7.748,0,0,1-.905,4.622c-.228.45-.441.029-.484-.063a2.565,2.565,0,0,0-1.7-1.254,7.745,7.745,0,0,1-2.158-1.142,2.773,2.773,0,0,1-1.225-1.863,19.824,19.824,0,0,1-.256-2,.748.748,0,0,0-.174-.474l.266-.029a1.974,1.974,0,0,0,1.7.9A2.469,2.469,0,0,1,2361.211,7743.247Z" fill="#b1729c"/>
              <path id="Контур_17338" data-name="Контур 17338" d="M2358.046,7772.023c.237.058.484.087.793.169a22.377,22.377,0,0,1-2.836,1.244,15.943,15.943,0,0,1-5.091.818,4.57,4.57,0,0,0-2.424.968,7.661,7.661,0,0,1-1.694.924c-.731.223-1.317.746-2.1,1.036a5.268,5.268,0,0,1,1.273-2.158,9.732,9.732,0,0,1,4.075-3.17,9.985,9.985,0,0,1,5.164-.707C2356.178,7771.312,2357.078,7771.786,2358.046,7772.023Z" fill="#91aa25"/>
              <path id="Контур_17339" data-name="Контур 17339" d="M2360.069,7763.152c-.654.528-.789.518-1.506.073a1.475,1.475,0,0,0-.154-.087c-.117-.058-.213-.3-.368-.092-.107.14-.063.261.072.431.02.024.039.043.058.067l-.174.155c-.063-.072-.126-.14-.193-.213a.72.72,0,0,1-.223-.513c0-.2.063-.358.29-.343a3.858,3.858,0,0,0,1.1-.262,10.349,10.349,0,0,0,3.983-1.868,5.013,5.013,0,0,1,1.766-.939c.944-.222,1.888-.411,2.836-.6.078-.019.189.083.232-.062.029-.107-.038-.165-.111-.242a.4.4,0,0,0-.44-.126,13.7,13.7,0,0,0-1.994.537,12.5,12.5,0,0,0,1.587-1.723,17.924,17.924,0,0,0,1.128-1.936,1.753,1.753,0,0,1,1.161-.919c-.111,1.06-1.2,1.345-1.466,2.216.169.078.377.47.61.1a7.341,7.341,0,0,1,1.553-1.52,2.148,2.148,0,0,1,1.413-.667c-.585.58-1.016,1.118-1.529,1.592-.469.426-1.142.5-1.529,1.069-.179.266-.053.3.1.344a.664.664,0,0,0,.474-.111,8.877,8.877,0,0,1,1.732-.8.923.923,0,0,1-.135.194,41.079,41.079,0,0,0-3.126,3.111c-1.152,1.157-2.144,2.464-3.407,3.509a3.542,3.542,0,0,1-3.257.862c-.1-.025-.291.014-.233-.16.155-.436-.213-.479-.46-.624a6.214,6.214,0,0,0,.857-.46,11.241,11.241,0,0,1,3.1-1.83c.116-.038.329-.111.208-.324a.334.334,0,0,0-.445-.169,8.758,8.758,0,0,0-.929.426A19.5,19.5,0,0,0,2360.069,7763.152Z" fill="#b1729c"/>
              <path id="Контур_17340" data-name="Контур 17340" d="M2363.955,7757.664a27.8,27.8,0,0,1-4.8,1.8,6.206,6.206,0,0,0-1.965.847,3.509,3.509,0,0,1,2.333-1.355,22.39,22.39,0,0,0,4.157-1.728.977.977,0,0,1,.392-.174.226.226,0,0,1,.2.13C2364.443,7757.456,2364.182,7757.553,2363.955,7757.664Z"/>
              <path id="Контур_17341" data-name="Контур 17341" d="M2360.615,7734.275a2.927,2.927,0,0,0,.16,1.355l-.663.257a.226.226,0,0,0,.029-.078.177.177,0,0,0-.2-.222c-.847.053-.992-.567-1.176-1.181a11.1,11.1,0,0,0-.862-2.3c-.256.155-.14.329-.087.479.3.823.62,1.641.934,2.459.068.179.218.392-.029.5s-.271-.193-.319-.31a14.088,14.088,0,0,0-1.694-2.584c-.063-.1-.1-.3-.286-.174-.164.111-.116.242,0,.387a17.083,17.083,0,0,1,1.617,2.444c.15.286.193.479-.165.634a.938.938,0,0,0-.576.6c-.111.735-.4.4-.7.164a5.021,5.021,0,0,1-1.389-1.8,7.587,7.587,0,0,1-.988-4.254c.117-1.05.305-2.095.489-3.136.058-.329.271-.372.533-.159a21.2,21.2,0,0,1,3.349,3.073,16.288,16.288,0,0,1,1.8,2.855A1.671,1.671,0,0,1,2360.615,7734.275Z" fill="#b1729c"/>
              <path id="Контур_17342" data-name="Контур 17342" d="M2367.439,7755.4a9.7,9.7,0,0,1-4.3,4.375c-.929.528-1.83,1.113-2.793,1.588a15.972,15.972,0,0,1-2.076.687.528.528,0,0,1-.619-.237,2.816,2.816,0,0,1-.634-1.491l.179-.019a6.206,6.206,0,0,1,1.965-.847,27.8,27.8,0,0,0,4.8-1.8c.227-.111.488-.208.319-.484a.226.226,0,0,0-.2-.13l-.02-.775a5.661,5.661,0,0,0,3.044-.774A1.561,1.561,0,0,1,2367.439,7755.4Z" fill="#c19fb5"/>
              <path id="Контур_17343" data-name="Контур 17343" d="M2363.684,7757.224a22.39,22.39,0,0,1-4.157,1.728,3.509,3.509,0,0,0-2.333,1.355l-.179.019a3.8,3.8,0,0,1,.5-2.434,3.288,3.288,0,0,1,1.186-.857,7.45,7.45,0,0,1,4.409-.774c.314.014.634.024.943.014l.02.775A.977.977,0,0,0,2363.684,7757.224Z" fill="#c19fb5"/>
              <path id="Контур_17344" data-name="Контур 17344" d="M2356.5,7737.968a2.379,2.379,0,0,0,.024,2.661c.039.039.1.116.116.112.523-.32.528.237.721.44a2.081,2.081,0,0,0,.925.658,1.13,1.13,0,0,1,.537.4l-.266.029c-.131-.121-.329-.1-.615.068-.353.2-.673.522-1.142.44-.044-.01-.116.039-.145.078-1.089,1.461-2.531,1.36-4.07.948a8.086,8.086,0,0,0-2.333-.261c-.242.009-.494.014-.629-.2-.16-.267.16-.354.281-.484,1.19-1.293,2.013-2.875,3.218-4.158a3.683,3.683,0,0,1,3.446-1.238Z" fill="#b1729c"/>
              <path id="Контур_17345" data-name="Контур 17345" d="M2360.882,7735.906c.053.126.033.353.242.353.174,0,.256-.169.28-.324a.616.616,0,0,1,.47-.508c.145-.044.285-.1.285-.232l.315.009a.15.15,0,0,0,.029.087c.126.175.3.136.474.107.068-.015.184-.107.213.058a1.83,1.83,0,0,0,.837,1.132l-.421.416c-.455.576-.8,1.264-1.573,1.6a16.094,16.094,0,0,0,.533-2.24c-.32.658-.581,1.161-.813,1.679-.15.324-.276.469-.683.281a.85.85,0,0,0-1.205.242,1.071,1.071,0,0,0,.1,1.461,2.719,2.719,0,0,0,.924.663,1.665,1.665,0,0,0,.509.15l-.175.987c-.508.1-.73.451-1.016.668-.223.17-.334.141-.474.01a4.533,4.533,0,0,1-1.191-1.466c-.082-.2-.058-.528-.377-.4-.271.111-.087.363-.024.556.019.049.058.112-.025.146a2.745,2.745,0,0,1-.992-1.409c-.063-.154-.116-.421-.217-.445-.63-.15-.455-.571-.383-.973a.885.885,0,0,0-.019-.546l.068-.513h.009c.112.019.218.048.325.062.425.063.643-.024.716-.517a1.166,1.166,0,0,1,.769-.833c.087.339.174.668.291,1.108a1.361,1.361,0,0,0,.038-1.176c-.038-.125-.14-.266,0-.372s.232.024.358.072a3.824,3.824,0,0,0,.813.2.221.221,0,0,0,.227-.111l.663-.257C2360.8,7735.722,2360.843,7735.814,2360.882,7735.906Z" fill="#c19fb5"/>
              <path id="Контур_17346" data-name="Контур 17346" d="M2356.376,7763.181c-.044-.111-.242-.2-.087-.334a.628.628,0,0,1,.455-.217c.184.024.256.135.271.314a1.932,1.932,0,0,0,.687,1.229,5.229,5.229,0,0,1,1.142,1.965,1.433,1.433,0,0,1,.049.392,2.019,2.019,0,0,1-.126.683c-.1.193-.073.488-.426.416a.5.5,0,0,1-.416-.591,6.063,6.063,0,0,0-.61-2.632C2357.107,7763.912,2356.584,7763.67,2356.376,7763.181Z" fill="#8fbe23"/>
              <path id="Контур_17347" data-name="Контур 17347" d="M2358.263,7744.143c-.522,1.185-.75,2.521-1.664,3.581a13.658,13.658,0,0,1,.348-3.939.523.523,0,0,1,.257-.358,1.778,1.778,0,0,0,.9-.843C2358.181,7743.228,2358.428,7743.775,2358.263,7744.143Z" fill="#8fbe23"/>
              <path id="Контур_17348" data-name="Контур 17348" d="M2358.288,7741.839a2.081,2.081,0,0,1-.925-.658c-.193-.2-.2-.76-.721-.44-.014,0-.077-.073-.116-.112a2.379,2.379,0,0,1-.024-2.661.885.885,0,0,1,.019.546c-.072.4-.247.823.383.973.1.024.154.291.217.445a2.745,2.745,0,0,0,.992,1.409c.083-.034.044-.1.025-.146-.063-.193-.247-.445.024-.556.319-.126.295.2.377.4a4.533,4.533,0,0,0,1.191,1.466c.14.131.251.16.474-.01.286-.217.508-.571,1.016-.668a3.1,3.1,0,0,0-.174.354c-.048.174-.387.237-.237.46.111.169.348-.078.484,0a1.179,1.179,0,0,0,1.4-.1,5.9,5.9,0,0,1,.764-.465,2.019,2.019,0,0,1-2.245,1.166,2.469,2.469,0,0,0-.683-.116,1.974,1.974,0,0,1-1.7-.9A1.13,1.13,0,0,0,2358.288,7741.839Z"/>
              <path id="Контур_17349" data-name="Контур 17349" d="M2355.34,7723.468a.766.766,0,0,1-.425.276c-.121.024-.238.053-.31-.068s-.01-.217.1-.295c1.253-.919,1.771-2.361,2.56-3.615.116-.184.232-.372.348-.556.039.019.073.043.111.063-.508.992-1.026,1.984-1.534,2.976A5.689,5.689,0,0,1,2355.34,7723.468Z"/>
              <path id="Контур_17350" data-name="Контур 17350" d="M2376.165,7791.855c-.407,1.254-.755,2.527-1.07,3.79-.43,1.727-1.113,3.368-1.539,5.1-.343,1.4-.929,2.739-1.331,4.128-.784,2.695-1.892,5.289-2.5,8.043-.261,1.181-.392,2.4-.7,3.562a36.2,36.2,0,0,1-2.148,5.667c-.828,1.815-1.476,3.707-2.246,5.551-.653,1.568-1.147,3.194-1.815,4.762-.522,1.219-.948,2.5-1.514,3.7-1.065,2.275-1.781,4.7-3.011,6.892-.546.987-1.18,1.921-1.766,2.884a27.408,27.408,0,0,0-1.592,3.368,23.645,23.645,0,0,1-3.01,5.44c-.044-.024-.092-.044-.136-.068.373-.615.76-1.224,1.113-1.849a27.492,27.492,0,0,0,1.713-3.891,29.634,29.634,0,0,1,2.948-5.458,21.218,21.218,0,0,0,2.023-4.269c.546-1.544,1.268-3,1.926-4.5.634-1.437,1.205-2.9,1.742-4.38.61-1.674,1.268-3.334,1.9-5,1.007-2.681,2.391-5.2,3.276-7.932a26.945,26.945,0,0,0,.717-3.552,36.069,36.069,0,0,1,1.621-5.585c.866-2.463,1.626-4.96,2.473-7.428.939-2.725,1.631-5.517,2.439-8.281.3-1.026.469-2.09.731-3.126.14-.552.353-1.084.522-1.621.213-.673.417-1.355.634-2.023a.644.644,0,0,1,.4-.508c-.15.643-.242,1.229-.421,1.786C2377.021,7788.637,2376.678,7790.273,2376.165,7791.855Z"/>
              <path id="Контур_17351" data-name="Контур 17351" d="M2353.09,7718.7c.077-.638.595-1.006.944-1.476A6.14,6.14,0,0,1,2353.09,7718.7Z"/>
              <path id="Контур_17352" data-name="Контур 17352" d="M2353.071,7718.74a.005.005,0,0,0-.005-.005.154.154,0,0,0,.024-.034c0,.015-.005.034-.005.054Z"/>
              <path id="Контур_17353" data-name="Контур 17353" d="M2353.046,7718.779l.025-.039.014.015A.407.407,0,0,1,2353.046,7718.779Z"/>
              <path id="Контур_17354" data-name="Контур 17354" d="M2353.046,7718.779c-.314.586-.634,1.166-.948,1.752-.048-.024-.092-.053-.136-.078C2352.321,7719.892,2352.427,7719.19,2353.046,7718.779Z"/>
              <path id="Контур_17355" data-name="Контур 17355" d="M2352.538,7723.73c1.273-2.26,2.318-4.651,3.751-6.824a5.94,5.94,0,0,1,.416-.508c.044.034.087.068.131.1a26.372,26.372,0,0,0-1.709,2.884c-.532,1.055-1.064,2.115-1.6,3.165-.227.44-.469.876-.7,1.316-.058.107-.15.218-.266.165S2352.475,7723.841,2352.538,7723.73Z"/>
              <path id="Контур_17356" data-name="Контур 17356" d="M2354.034,7717.225c-.349.47-.867.838-.944,1.476a.154.154,0,0,1-.024.034.005.005,0,0,1,.005.005l-.025.039c-.619.411-.725,1.113-1.084,1.674.044.025.088.054.136.078.314-.586.634-1.166.948-1.752a.407.407,0,0,0,.039-.024c0-.02.005-.039.005-.054A6.14,6.14,0,0,0,2354.034,7717.225Zm-1.471,6.8c.116.053.208-.058.266-.165.232-.44.474-.876.7-1.316.533-1.05,1.065-2.11,1.6-3.165a26.372,26.372,0,0,1,1.709-2.884c-.044-.029-.087-.063-.131-.1a5.94,5.94,0,0,0-.416.508c-1.433,2.173-2.478,4.564-3.751,6.824C2352.475,7723.841,2352.437,7723.972,2352.563,7724.025Zm3.624-1.776c.508-.992,1.026-1.984,1.534-2.976-.038-.02-.072-.044-.111-.063-.116.184-.232.372-.348.556-.789,1.254-1.307,2.7-2.56,3.615-.107.078-.165.175-.1.295s.189.092.31.068a.766.766,0,0,0,.425-.276A5.689,5.689,0,0,0,2356.187,7722.249Zm1.539-1.752a9.183,9.183,0,0,1-2.013,3.581,3.873,3.873,0,0,1-1.563.789,1.558,1.558,0,0,0-.218.068c-.576.372-.973.271-1.52-.218a3.188,3.188,0,0,0-1.756-.765c-.494-.048-.746-.266-.755-.774-.01-.59-.252-1.2.227-1.733.049-.053.034-.188.015-.28-.252-1.181.576-1.888,1.195-2.662a15.384,15.384,0,0,1,2.836-2.681,14.78,14.78,0,0,1,1.979-1.157,20.572,20.572,0,0,0,2.565-1.781,12.874,12.874,0,0,1-.382,5.053C2358.123,7718.784,2357.934,7719.645,2357.726,7720.5Z" fill="#91aa25"/>
              <path id="Контур_17357" data-name="Контур 17357" d="M2356.933,7761.942a4.545,4.545,0,0,1-3.441.271,2.849,2.849,0,0,1-1.709-.711c-.121-.145-.28-.261-.29-.489a5.072,5.072,0,0,0,2.333-.087c.455-.063.919-.111,1.369-.184a1.852,1.852,0,0,1,1.8.871C2357.126,7761.763,2357.146,7761.826,2356.933,7761.942Z" fill="#8fbe23"/>
              <path id="Контур_17358" data-name="Контур 17358" d="M2350.162,7883.182a1.683,1.683,0,0,1,1.921,1.814,1.334,1.334,0,0,1-.585,1.012,2.6,2.6,0,0,1-3.751-.7c-.092-.184-.155-.295.015-.489a5.326,5.326,0,0,1,1.292-1.326A2.068,2.068,0,0,1,2350.162,7883.182Z" fill="#fbf3ad"/>
              <path id="Контур_17359" data-name="Контур 17359" d="M2351.658,7724.882c.764.121,1,.692,1.088,1.408.092.75.223,1.5.344,2.294A3.767,3.767,0,0,1,2351.658,7724.882Z" fill="#8fbe23"/>
              <path id="Контур_17360" data-name="Контур 17360" d="M2352.809,7736.09a17.231,17.231,0,0,1-1.5-.881,11.249,11.249,0,0,1,2.5.247,2.862,2.862,0,0,1,1.984,1.374C2354.653,7737.125,2353.748,7736.525,2352.809,7736.09Z" fill="#8fbe23"/>
              <path id="Контур_17361" data-name="Контур 17361" d="M2361.854,7821.841c1.38-3.209,2.87-6.369,4.23-9.582,1.263-2.991,2.734-5.89,3.814-8.953a24.009,24.009,0,0,0,1.069-5.024,7.845,7.845,0,0,1,.673-2.647,3.667,3.667,0,0,1-.257,1.307c-.363,1.64-.464,3.329-.866,4.965a39.549,39.549,0,0,1-2.231,6.074c-.929,2.187-1.907,4.35-2.86,6.528-1.07,2.449-2.173,4.883-3.189,7.351-.755,1.82-1.51,3.64-2.285,5.45-1.345,3.15-2.584,6.349-3.953,9.5-.794,1.829-1.443,3.721-2.1,5.6-.5,1.447-1.079,2.865-1.6,4.3-.382,1.06-.711,2.139-1.1,3.194a8.034,8.034,0,0,1-1.3,2.585.319.319,0,0,1-.107-.223.219.219,0,0,1,.03-.111,44.406,44.406,0,0,0,1.863-4.946c1.21-3.194,2.357-6.417,3.62-9.587,1.2-3.02,2.531-5.992,3.779-9C2360.02,7826.371,2360.886,7824.082,2361.854,7821.841Z"/>
              <path id="Контур_17362" data-name="Контур 17362" d="M2351,7725.385a.93.93,0,0,1,.121,0A.24.24,0,0,1,2351,7725.385Z"/>
              <path id="Контур_17363" data-name="Контур 17363" d="M2349.954,7719.4a.1.1,0,0,0,0,.039.07.07,0,0,0-.034.01c0-.01,0-.015.01-.024S2349.949,7719.408,2349.954,7719.4Z"/>
              <path id="Контур_17364" data-name="Контур 17364" d="M2363.03,7812.418s0,0,0,0,0,.02-.01.029a.45.45,0,0,0-.208.286c-.329.818-.678,1.631-1.017,2.444-.251.614-.493,1.229-.74,1.844a4.066,4.066,0,0,0,.828-1.617,20.511,20.511,0,0,0,1.137-2.957.084.084,0,0,0,.029-.009C2363.04,7812.433,2363.035,7812.428,2363.03,7812.418Zm4.1-11.832c-.421,1.074-.866,2.139-1.239,3.228-.934,2.739-1.8,5.5-2.85,8.2a.412.412,0,0,0-.015.4,11.346,11.346,0,0,0,.775-1.936c.672-1.684,1.306-3.388,1.911-5.1.329-.934.571-1.9.992-2.8.339-.726.61-1.486.915-2.231.048-.112.1-.218-.039-.291-.121-.058-.174.058-.222.126A1.92,1.92,0,0,0,2367.134,7800.586Zm10.725-21.26c-1.138,2.686-2.12,5.43-3.093,8.179-.692,1.945-1.6,3.8-2.342,5.73a7.545,7.545,0,0,0-.774,2.376h-.01c0,.01.005.014,0,.024a7.845,7.845,0,0,0-.673,2.647,24.009,24.009,0,0,1-1.069,5.024c-1.08,3.063-2.551,5.962-3.814,8.953-1.36,3.213-2.85,6.373-4.23,9.582-.968,2.241-1.834,4.53-2.773,6.78-1.248,3-2.579,5.977-3.779,9-1.263,3.17-2.41,6.393-3.62,9.587a44.406,44.406,0,0,1-1.863,4.946.219.219,0,0,0-.03.111l-.8.048c-.063-1.093-.155-2.192-.305-3.281-.106-.769-.2-1.544-.285-2.318l.6-.034c.2-.058.2-.2.237-.334.619-1.887,1.04-3.823,1.5-5.754.585-2.453,1.161-4.907,1.945-7.312.5-1.544.852-3.146,1.438-4.656.624-1.626,1.287-3.233,1.814-4.9.451-1.417.833-2.864,1.409-4.239.682-1.621,1.423-3.218,2.158-4.815.925-1.994,1.728-4.036,2.764-5.982.972-1.819,1.877-3.678,2.777-5.536.7-1.442,1.472-2.846,2.217-4.259.789-1.5,1.505-3.054,2.4-4.506.388-.629.649-1.335.993-1.993q1.545-2.984,3.111-5.968c.6-1.137,1.118-2.322,1.685-3.474.875-1.772,1.882-3.48,2.8-5.227a.453.453,0,0,0,.029-.063l.13.068c-.053.1-.082.252-.121.343C2378.125,7778.479,2378.028,7778.919,2377.859,7779.326Zm-18.395,41.276c-.233.484-.46.968-.688,1.452A2.412,2.412,0,0,0,2359.464,7820.6Z" fill="#6ea82e"/>
              <path id="Контур_17365" data-name="Контур 17365" d="M2376.339,7780.6c.784-1.452,1.486-2.953,2.241-4.424a.152.152,0,0,1,.019-.043c.169-.334.281-.726.818-.871-.4.842-.736,1.635-1.137,2.4a.453.453,0,0,1-.029.063c-.92,1.747-1.927,3.455-2.8,5.227-.567,1.152-1.085,2.337-1.685,3.474q-1.567,2.978-3.111,5.968c-.344.658-.6,1.364-.993,1.993-.89,1.452-1.606,3-2.4,4.506-.745,1.413-1.52,2.817-2.217,4.259-.9,1.858-1.805,3.717-2.777,5.536-1.036,1.946-1.839,3.988-2.764,5.982-.735,1.6-1.476,3.194-2.158,4.815-.576,1.375-.958,2.822-1.409,4.239-.527,1.665-1.19,3.272-1.814,4.9-.586,1.51-.934,3.112-1.438,4.656-.784,2.405-1.36,4.859-1.945,7.312-.465,1.931-.886,3.867-1.5,5.754-.039.131-.034.276-.237.334a4.478,4.478,0,0,1,.222-1.282c.658-2.8,1.259-5.609,1.989-8.387a80.581,80.581,0,0,1,3.015-9.592c.988-2.468,1.733-5.014,2.551-7.54a27.84,27.84,0,0,1,1.423-3.15c1.142-2.483,2.148-5.029,3.373-7.473,1.166-2.318,2.269-4.665,3.518-6.935,1.515-2.744,2.889-5.565,4.433-8.295,1.007-1.785,1.81-3.682,2.812-5.473C2373.784,7785.956,2374.916,7783.212,2376.339,7780.6Z"/>
              <path id="Контур_17366" data-name="Контур 17366" d="M2348.976,7724.523a1.41,1.41,0,0,0,.9-.14,1.012,1.012,0,0,1,.789-.029c.193.044.5.082.484.315-.015.29-.32.188-.513.2a2.487,2.487,0,0,0-.765.179c-.653.228-1.186-.116-1.82-.629C2348.468,7724.47,2348.725,7724.519,2348.976,7724.523Z" fill="#8fbe23"/>
              <path id="Контур_17367" data-name="Контур 17367" d="M2349.291,7715.5a2.609,2.609,0,0,1,.377,2.758,1.845,1.845,0,0,0-.082.218,1.873,1.873,0,0,1-2.095,1.849,10.172,10.172,0,0,0-1.239.247c-.552.091-.668-.068-.5-.591a3.069,3.069,0,0,1,1.525-1.694,2.9,2.9,0,0,0,1.849-2.444.507.507,0,0,1,.072-.213A.575.575,0,0,1,2349.291,7715.5Z" fill="#8fbe23"/>
              <path id="Контур_17368" data-name="Контур 17368" d="M2351.924,7854.74a23.645,23.645,0,0,0,3.01-5.44,27.408,27.408,0,0,1,1.592-3.368c.586-.963,1.22-1.9,1.766-2.884,1.23-2.193,1.946-4.617,3.011-6.892.566-1.2.992-2.478,1.514-3.7.668-1.568,1.162-3.194,1.815-4.762.77-1.844,1.418-3.736,2.246-5.551a36.2,36.2,0,0,0,2.148-5.667c.31-1.167.441-2.381.7-3.562.6-2.754,1.713-5.348,2.5-8.043.4-1.389.988-2.73,1.331-4.128.426-1.733,1.109-3.374,1.539-5.1.315-1.263.663-2.536,1.07-3.79.513-1.582.856-3.218,1.374-4.8.179-.557.271-1.143.421-1.786a.644.644,0,0,0-.4.508c-.217.668-.421,1.35-.634,2.023-.169.537-.382,1.069-.522,1.621-.262,1.036-.431,2.1-.731,3.126-.808,2.764-1.5,5.556-2.439,8.281-.847,2.468-1.607,4.965-2.473,7.428a36.069,36.069,0,0,0-1.621,5.585,26.945,26.945,0,0,1-.717,3.552c-.885,2.73-2.269,5.251-3.276,7.932-.629,1.67-1.287,3.33-1.9,5-.537,1.476-1.108,2.943-1.742,4.38-.658,1.491-1.38,2.952-1.926,4.5a21.218,21.218,0,0,1-2.023,4.269,29.634,29.634,0,0,0-2.948,5.458,27.492,27.492,0,0,1-1.713,3.891c-.353.625-.74,1.234-1.113,1.849C2351.832,7854.7,2351.88,7854.716,2351.924,7854.74Zm26.356-77.079c.4-.76.74-1.553,1.137-2.4-.537.145-.649.537-.818.871a.152.152,0,0,0-.019.043l-.4-.2a7.158,7.158,0,0,0,.658-1.476.878.878,0,0,1,.508-.576c.474-.228.91-.537,1.442-.857-.551,2.686-.193,5.295-.314,7.884a39.03,39.03,0,0,1-.407,3.91c-.421,2.8-1.176,5.517-1.868,8.251-.677,2.677-1.577,5.3-2.284,7.971-.5,1.888-.8,3.833-1.263,5.735-.412,1.655-1.016,3.262-1.37,4.941a88.932,88.932,0,0,1-2.671,10.187,57.138,57.138,0,0,1-3.1,7.656c-1.868,3.678-3.456,7.487-5.362,11.146-.746,1.427-1.627,2.782-2.449,4.171-1.346,2.275-2.841,4.458-4.177,6.742-.556.963-1.277,1.834-1.877,2.768-.92,1.428-2,2.734-3.006,4.1a11.759,11.759,0,0,1-1.694,2.444,6.3,6.3,0,0,0-.45.479,4.018,4.018,0,0,1,.17-.823,9.053,9.053,0,0,0,.474-4.234c-.034-1.36-.068-2.725-.155-4.09l.8-.048a.319.319,0,0,0,.107.223,8.034,8.034,0,0,0,1.3-2.585c.392-1.055.721-2.134,1.1-3.194.523-1.432,1.1-2.85,1.6-4.3.653-1.883,1.3-3.775,2.1-5.6,1.369-3.146,2.608-6.345,3.953-9.5.775-1.81,1.53-3.63,2.285-5.45,1.016-2.468,2.119-4.9,3.189-7.351.953-2.178,1.931-4.341,2.86-6.528a39.549,39.549,0,0,0,2.231-6.074c.4-1.636.5-3.325.866-4.965a3.667,3.667,0,0,0,.257-1.307c.005,0,.005-.01.01-.014v-.01c.13-.02.164-.141.2-.242a45.15,45.15,0,0,1,1.994-4.99c.648-1.471,1.2-2.986,1.752-4.491.479-1.292.977-2.574,1.481-3.857s1.035-2.545,1.524-3.833c.063-.155.295-.45.048-.551a.171.171,0,0,0-.237.082Z" fill="#6ea82e"/>
              <path id="Контур_17369" data-name="Контур 17369" d="M2348.551,7853.825c-.068,1.3.062,2.594.058,3.886l-.528-.009a1.9,1.9,0,0,0-.15-.528c-.358-1.529-.75-3.044-1.123-4.568-.363-1.476-.7-2.962-.958-4.462-.169-1.017-.334-2.038-.556-3.04l1.258-.295a4.258,4.258,0,0,0,.479,1.249h.7c.082,1.273.426,2.521.5,3.8A38.113,38.113,0,0,1,2348.551,7853.825Z" fill="#73992d"/>
              <path id="Контур_17370" data-name="Контур 17370" d="M2360.48,7805.972c.978-2.047,2.052-4.046,2.918-6.136.741-1.791,1.786-3.427,2.517-5.217.329-.8.692-1.578,1.06-2.357a30.449,30.449,0,0,1,2-3.136c.673-1.089,1.394-2.154,2.159-3.18a20.3,20.3,0,0,1,1.761-2.439c.02.02.039.034.058.053-.73,1.331-1.684,2.517-2.473,3.8a57.92,57.92,0,0,0-3.416,5.474c-.663,1.408-1.22,2.86-1.989,4.22a46.542,46.542,0,0,0-2.2,4.723c-.7,1.631-1.514,3.214-2.342,4.786-.711,1.351-1.152,2.822-1.858,4.167-1.355,2.58-2.512,5.251-3.644,7.932-.712,1.68-1.2,3.456-1.839,5.169-.4,1.094-.876,2.163-1.351,3.228-.527,1.19-1,2.42-1.437,3.654-.755,2.1-1.432,4.224-2.071,6.359-.015.053-.005.116-.02.169-.062.232.049.682-.3.6a.16.16,0,0,1-.13-.121c-.039-.15.092-.406.135-.585.5-1.97,1.162-3.891,1.81-5.822.77-2.294,1.752-4.5,2.672-6.727.813-1.975,1.379-4.032,2.182-6.006.9-2.2,1.873-4.36,2.952-6.485C2358.655,7810.1,2359.512,7808,2360.48,7805.972Z"/>
              <path id="Контур_17371" data-name="Контур 17371" d="M2373.963,7782.113a15.8,15.8,0,0,1,1.335-1.882,11.761,11.761,0,0,1,1.389-2.013c.509-.741,1.055-1.457,1.5-2.236l.4.2c-.755,1.471-1.457,2.972-2.241,4.424-1.423,2.608-2.555,5.352-4,7.946-1,1.791-1.8,3.688-2.812,5.473-1.544,2.73-2.918,5.551-4.433,8.295-1.249,2.27-2.352,4.617-3.518,6.935-1.225,2.444-2.231,4.99-3.373,7.473a27.84,27.84,0,0,0-1.423,3.15c-.818,2.526-1.563,5.072-2.551,7.54a80.581,80.581,0,0,0-3.015,9.592c-.73,2.778-1.331,5.59-1.989,8.387a4.478,4.478,0,0,0-.222,1.282l-.6.034c-.15-1.292-.3-2.579-.5-3.867-.145-.871-.029-1.8-.13-2.7a20.509,20.509,0,0,0-.407-2.3l.528-.116a.16.16,0,0,0,.13.121c.349.082.238-.368.3-.6.015-.053.005-.116.02-.169.639-2.135,1.316-4.259,2.071-6.359.44-1.234.91-2.464,1.437-3.654.475-1.065.949-2.134,1.351-3.228.638-1.713,1.127-3.489,1.839-5.169,1.132-2.681,2.289-5.352,3.644-7.932.706-1.345,1.147-2.816,1.858-4.167.828-1.572,1.646-3.155,2.342-4.786a46.542,46.542,0,0,1,2.2-4.723c.769-1.36,1.326-2.812,1.989-4.22a57.92,57.92,0,0,1,3.416-5.474c.789-1.287,1.743-2.473,2.473-3.8A12.983,12.983,0,0,0,2373.963,7782.113Z" fill="#6ea82e"/>
              <path id="Контур_17372" data-name="Контур 17372" d="M2351.309,7882.79a3.151,3.151,0,0,0-3.465,1.026c-.295.353-.436.353-.576-.1a23.153,23.153,0,0,1-.585-3.03c-.325-1.829-.605-3.668-.9-5.5-.242-1.5-.5-3-.721-4.5a25.091,25.091,0,0,0-.479-3.64,30.174,30.174,0,0,1-.755-3.881,8.88,8.88,0,0,1,2.754,1.307c.319.222.7-.213.4-.237.677-.334.856-.959,1.326-1.4a23.348,23.348,0,0,1,.561,2.962c.208,1.544.426,3.087.624,4.636.233,1.81.45,3.625.673,5.44.194,1.587.61,3.131.934,4.694.131.639.334,1.263.5,1.892.029.107.107.223.02.324S2351.42,7882.828,2351.309,7882.79Z" fill="#85813b"/>
              <path id="Контур_17373" data-name="Контур 17373" d="M2373.977,7778.489a32.054,32.054,0,0,0,2.541-2.817,5.831,5.831,0,0,1,2-1.36,8.836,8.836,0,0,1-1.467,2.918c-.556.823-1.132,1.636-1.7,2.454-.121.174-.286.344-.054.547-.174-.14-.29-.01-.377.111-.189.257-.373.523-.537.794a15.111,15.111,0,0,0-1.491,2.371,20.3,20.3,0,0,0-1.761,2.439c-.765,1.026-1.486,2.091-2.159,3.18a30.449,30.449,0,0,0-2,3.136c-.368.779-.731,1.558-1.06,2.357-.731,1.79-1.776,3.426-2.517,5.217-.866,2.09-1.94,4.089-2.918,6.136s-1.825,4.123-2.846,6.127c-1.079,2.125-2.052,4.288-2.952,6.485-.8,1.974-1.369,4.031-2.182,6.006-.92,2.231-1.9,4.433-2.672,6.727-.648,1.931-1.306,3.852-1.81,5.822-.043.179-.174.435-.135.585l-.528.116c-.28-1.263-.639-2.511-.914-3.779a2.478,2.478,0,0,1,.3-1.791,7.107,7.107,0,0,0,.614-2,65.939,65.939,0,0,1,2.333-7.148,58.832,58.832,0,0,1,3.015-6.973c1.316-2.73,2.715-5.416,3.891-8.218s2.487-5.512,3.862-8.208c1.2-2.366,2.72-4.544,3.9-6.91.929-1.859,1.95-3.659,3-5.445.886-1.505,1.81-2.981,2.812-4.413A25.784,25.784,0,0,1,2373.977,7778.489Z" fill="#6ea82e"/>
              <path id="Контур_17374" data-name="Контур 17374" d="M2345.618,7858.307l-1.317.551c-.372-.682-.754-1.364-1.146-2.032-.581-1-1.114-2.038-1.752-2.991l.987-.034c.043,0,.087-.01.131-.019-.131-.455-.271-.91-.383-1.37-.2-.818-.435-1.621-.7-2.415l1.385-.426c.474,1.384.977,2.754,1.476,4.128C2344.839,7855.2,2345.115,7856.792,2345.618,7858.307Z" fill="#73992d"/>
              <path id="Контур_17375" data-name="Контур 17375" d="M2344.631,7710.828a1.4,1.4,0,0,0-.509-.538.317.317,0,0,0-.125-.029l.59-.575A9.662,9.662,0,0,0,2346,7711a8.138,8.138,0,0,1,2.265,2.875,3.032,3.032,0,0,1-.842,3.8,33.108,33.108,0,0,0-1.1-3.349A29.623,29.623,0,0,0,2344.631,7710.828Z" fill="#91aa25"/>
              <path id="Контур_17376" data-name="Контур 17376" d="M2344.989,7777.68c1.447-.842,3.024-1.393,4.4-2.327a3.248,3.248,0,0,1,1.969-.523,15.18,15.18,0,0,0,6.819-1.674c.983-.455,1.97-.9,3.078-1.409a9.8,9.8,0,0,1-2.057,1.53,40.118,40.118,0,0,1-6.059,3.387,8.789,8.789,0,0,1-3.944.934,9.065,9.065,0,0,1-1.268-.126A7.451,7.451,0,0,0,2344.989,7777.68Z" fill="#91aa25"/>
              <path id="Контур_17377" data-name="Контур 17377" d="M2343.222,7740.431a.781.781,0,0,1,.087,1.447,2.172,2.172,0,0,0-.682.919,14.014,14.014,0,0,1-.75,1.23c-.692,1.277-2.357.74-3.054-.155a19,19,0,0,1-1.819-3.049c-.136-.257-.257-.518-.436-.866,1.839.624,3.63.343,5.415.29A2.268,2.268,0,0,1,2343.222,7740.431Z" fill="#91aa25"/>
              <path id="Контур_17378" data-name="Контур 17378" d="M2344.974,7719.258a9.029,9.029,0,0,0-.435-3.717,33.092,33.092,0,0,0-1.535-3.01,28.708,28.708,0,0,1-1.369-2.957.657.657,0,0,1-.078-.343.184.184,0,0,1,.092-.121c.213-.117.31.116.363.266.717,1.989,1.83,3.8,2.638,5.754a7.051,7.051,0,0,1,.532,3.736.522.522,0,0,1-.092.324A.424.424,0,0,1,2344.974,7719.258Z"/>
              <path id="Контур_17379" data-name="Контур 17379" d="M2345.182,7718.866a7.051,7.051,0,0,0-.532-3.736c-.808-1.955-1.921-3.765-2.638-5.754-.053-.15-.15-.383-.363-.266a.184.184,0,0,0-.092.121l-.333-.025c.038-.537.072-1.069.116-1.606a.464.464,0,0,0-.2-.5c-.145-.082-.271-.256-.2-.372.1-.165.3-.078.469-.02a4.415,4.415,0,0,1,2.507,2,5.632,5.632,0,0,0,.673.973l-.59.575a.186.186,0,0,0-.179.107c-.063.126-.063.2.13.276.291.116.426.44.566.706a33.112,33.112,0,0,1,2.6,6.04c.1.348.107.5-.281.692a2.835,2.835,0,0,0-1.19,1.137l-.557-.029A.522.522,0,0,0,2345.182,7718.866Z" fill="#91aa25"/>
              <path id="Контур_17380" data-name="Контур 17380" d="M2344.974,7719.258a.424.424,0,0,0,.116-.068l.557.029a3.9,3.9,0,0,0-.247.513c-.14.354-.266.658-.716.339a.481.481,0,0,0-.223-.053,3.363,3.363,0,0,1-2.647-2.115,9.409,9.409,0,0,1-.523-1.065,14.749,14.749,0,0,1-.217-5.676c.058-.649.1-1.3.15-1.956l.333.025a.657.657,0,0,0,.078.343,28.708,28.708,0,0,0,1.369,2.957,33.092,33.092,0,0,1,1.535,3.01A9.029,9.029,0,0,1,2344.974,7719.258Z" fill="#91aa25"/>
              <path id="Контур_17381" data-name="Контур 17381" d="M2344.418,7738.65a2.574,2.574,0,0,1,.1,1.558,24.226,24.226,0,0,0-3.712-5.991.658.658,0,0,1,.857.368,11.223,11.223,0,0,0,1.481,1.95A13.99,13.99,0,0,1,2344.418,7738.65Z" fill="#8fbe23"/>
              <path id="Контур_17382" data-name="Контур 17382" d="M2340.8,7733.341a.384.384,0,0,1-.083-.315c.126-.416.155-.9.5-1.19a4.247,4.247,0,0,0,1.563-2.265,3.126,3.126,0,0,1,.4,1.916.831.831,0,0,1-.31.6c-.581.406-1.181.788-1.771,1.176C2341.006,7733.322,2340.894,7733.433,2340.8,7733.341Z" fill="#8fbe23"/>
              <path id="Контур_17383" data-name="Контур 17383" d="M2340.691,7709.865c-.072,1.553-.034,3.092-.072,4.631a6.575,6.575,0,0,0,1.316,4.278,2.576,2.576,0,0,0,.89.716,1.519,1.519,0,0,1-.7.107,1.672,1.672,0,0,0-1.167.406c-.29.257-.445.15-.59-.169a9.706,9.706,0,0,1-1.094-5.682A19.955,19.955,0,0,1,2340.691,7709.865Z" fill="#91aa25"/>
              <path id="Контур_17384" data-name="Контур 17384" d="M2346.378,7844.025c-.407-1.815-.959-3.586-1.5-5.367a63.084,63.084,0,0,0-2.376-6.485,13,13,0,0,0-2.042-3.842.81.81,0,0,1-.141-.218c-.009-.029-.019-.058-.029-.082-.033-.121-.106-.281.073-.349.116-.043.194.024.276.136a9.93,9.93,0,0,1,1.655,2.831c.319.881.736,1.713,1.011,2.613.373,1.225.838,2.415,1.239,3.63.775,2.352,1.409,4.733,2.033,7.124.179.672.3,1.359.45,2.042a4.258,4.258,0,0,1-.479-1.249C2346.489,7844.548,2346.436,7844.287,2346.378,7844.025Z"/>
              <path id="Контур_17385" data-name="Контур 17385" d="M2345.294,7845.1a17.963,17.963,0,0,0-.76-2.579c-1.254-3.209-2.372-6.461-3.407-9.747-.465-1.476-.929-2.952-1.476-4.4l.672-.261a.81.81,0,0,0,.141.218,13,13,0,0,1,2.042,3.842,63.084,63.084,0,0,1,2.376,6.485c.537,1.781,1.089,3.552,1.5,5.367.058.262.111.523.174.784Z" fill="#73992d"/>
              <path id="Контур_17386" data-name="Контур 17386" d="M2340.459,7735.209c.106.557.005.968-.634,1.128-.479.125-.939.324-1.437.5-.092-.164.145-.329-.015-.474-.256-.034-.3.421-.706.3a9.123,9.123,0,0,1,1.122-.871,1.812,1.812,0,0,0,.4-.315c.339-.324.552-.842,1.205-.643C2340.4,7734.885,2340.43,7735.049,2340.459,7735.209Z" fill="#8fbe23"/>
              <path id="Контур_17387" data-name="Контур 17387" d="M2337.129,7719.582c.417-.145.629.184.9.325.426.222.813.517,1.229.759a1.563,1.563,0,0,0,1.994-.2,2.152,2.152,0,0,1,1.969-.329,15.693,15.693,0,0,1,2.1.6c-.165.354-.528.329-.76.5a8.72,8.72,0,0,1-3.417,1.64,1.968,1.968,0,0,1-1.761-.363,4.642,4.642,0,0,1-1.346-1.452C2337.773,7720.555,2337.444,7720.09,2337.129,7719.582Z" fill="#8fbe23"/>
              <path id="Контур_17388" data-name="Контур 17388" d="M2337.86,7747.3a11.664,11.664,0,0,1-3.47,1.268C2335.387,7746.683,2336.37,7746.359,2337.86,7747.3Z" fill="#8fbe23"/>
              <path id="Контур_17389" data-name="Контур 17389" d="M2335.426,7764.173a1.218,1.218,0,0,1,.9-.488.594.594,0,0,1,.566.28c.145.223-.024.281-.135.392-.121.126-.058.3-.078.446-.053.425-.4.542-.73.629s-.828-.1-.862-.242A1.444,1.444,0,0,1,2335.426,7764.173Z" fill="#8fbe23"/>
              <path id="Контур_17390" data-name="Контур 17390" d="M2337.521,7735.446c.407-.15.833-.237,1.254-.353-.591.576-1.355.9-1.718,1.665a4.375,4.375,0,0,1-1.355.048c-.131-.145-.015-.227.092-.319A5.367,5.367,0,0,1,2337.521,7735.446Z" fill="#8fbe23"/>
              <path id="Контур_17391" data-name="Контур 17391" d="M2339.772,7730.776a12.762,12.762,0,0,0-2.275-2.265c-.493-.406-1-.808-1.486-1.224-.038-.034-.009-.136-.019-.305A10.054,10.054,0,0,1,2339.772,7730.776Z"/>
              <path id="Контур_17392" data-name="Контур 17392" d="M2331.753,7726.324a32.965,32.965,0,0,1,4.665,2.778,8.046,8.046,0,0,1,2.091,2.458c-1.317-2.033-3.374-3.088-5.45-4.123a2.8,2.8,0,0,1-1.171-.891A1.905,1.905,0,0,1,2331.753,7726.324Z"/>
              <path id="Контур_17393" data-name="Контур 17393" d="M2345,7828.892c-.464-1.089-.89-2.11-1.335-3.121a12.96,12.96,0,0,0-2.106-3.736,3.765,3.765,0,0,1-.774-2.372c-.189-1.9-.261-3.8-.382-5.706-.068-1.04-.184-2.085-.2-3.126-.034-1.844.087-3.683.183-5.527.078-1.447.063-2.9.136-4.35.082-1.583.092-3.17.126-4.758.019-1.04.1-2.085.208-3.126a3.621,3.621,0,0,0-.034-.769,42.042,42.042,0,0,1,.261-5.735,21.235,21.235,0,0,0-.077-2.594c-.044-.489.077-.987.073-1.481-.01-1.065-.078-2.129-.073-3.194.005-.431.169-.924-.058-1.273-.349-.537-.46-1.161-.765-1.7a32.938,32.938,0,0,0-1.742-3.6c-.939-1.263-1.1-2.9-2.086-4.138-.648-.8-1.244-1.646-1.878-2.459-.121-.15-.348-.271-.183-.469s.377,0,.493.116a18.111,18.111,0,0,1,2.13,2.575c1.272,1.931,2.042,4.128,3.247,6.1a11.329,11.329,0,0,0,.905,1.33,2.37,2.37,0,0,1,.2.281c.111.155,0,.5.315.465.353-.044.208-.407.188-.567a6.8,6.8,0,0,1,.194-2.5c.377-1.481-.334-2.69-.648-4-.46-1.883-1.128-3.707-1.772-5.537-.3-.846-.377-1.756-.668-2.589-.469-1.345-1.1-2.637-1.635-3.958-.329-.809-.562-1.665-.934-2.449-.886-1.878-1.2-3.969-2.246-5.779a.731.731,0,0,1-.039-.188.828.828,0,0,1,.9.59c1.6,3.427,3,6.93,4.283,10.483.716,1.964,1.539,3.886,2.265,5.846.488,1.326.837,2.71,1.258,4.06a1.41,1.41,0,0,0,.392.7,1.086,1.086,0,0,0,.193-1.08c-.154-.421.068-.822.1-1.238.111-1.675.223-3.349.382-5.019s.117-3.368.17-5.052c.039-1.268-.145-2.551-.015-3.809.189-1.858-.145-3.727.257-5.59a22.354,22.354,0,0,0,.155-3.024,30.782,30.782,0,0,1,.363-3.727c.416-2.076.358-4.205.851-6.257a18.174,18.174,0,0,0,.209-5.648c-.18-2.555-.276-5.115-.4-7.675a3.115,3.115,0,0,1,0-.973,18.985,18.985,0,0,1,.435,1.994,15.672,15.672,0,0,1,.392,3.247c-.2,2.173.388,4.312.228,6.48-.024.315-.228.629-.039,1a2.053,2.053,0,0,0,1.2-1.258c.552-1.481,1.365-2.846,1.96-4.3a8.636,8.636,0,0,0,.741-2.981c.019-.566.372-.373.677-.353-.561.058-.421.542-.479.924a16.615,16.615,0,0,1-.978,3.107,36.582,36.582,0,0,1-2.114,4.767,19.349,19.349,0,0,0-1.675,6.359c-.2,1.442.1,2.88-.043,4.3-.281,2.87-.058,5.75-.3,8.61-.165,1.883-.194,3.77-.4,5.648a17.8,17.8,0,0,0,.189,5.168c0,.029.048.049.087.087a38.315,38.315,0,0,0,3.087-6.557,17.3,17.3,0,0,1,1.133-1.965c.542-.939,1.069-1.9,1.631-2.831,1.34-2.236,2.54-4.549,3.7-6.882a11.5,11.5,0,0,1,.663-1.452,1.252,1.252,0,0,1,.813-.595,4.559,4.559,0,0,1-.624,2.512c-.736,1.4-1.738,2.647-2.449,4.065q-1.1,2.191-2.27,4.346a35.461,35.461,0,0,0-1.573,3.194c-.851,2.061-1.766,4.094-2.618,6.156a27.084,27.084,0,0,0-1.616,5.5c-.208,1.133-.523,2.246-.789,3.364-.049.193-.218.431.082.542.266.1.349-.111.45-.315a15.158,15.158,0,0,1,3.586-4.559c.533-.479.9-1.093,1.433-1.568a23.186,23.186,0,0,1,4.849-3.707c.3-.15.5-.479,1-.479-.658.6-1.288,1.128-1.863,1.7-1.365,1.36-2.875,2.56-4.269,3.891a22.718,22.718,0,0,0-4.336,5.58,20.59,20.59,0,0,1-1.694,3c-.387.489-.266.779.329,1,.218.082.2.16.165.324a11.708,11.708,0,0,0,.009,3.833,12.015,12.015,0,0,1,0,2.129c-.1,1.733-.112,3.466-.078,5.2.024,1.5-.227,3-.247,4.5-.034,2.153-.048,4.312-.135,6.47-.131,3.194-.247,6.388-.2,9.587.044,2.56.2,5.12.252,7.681a46.541,46.541,0,0,0,.745,6.228c.184,1.191.383,2.381.567,3.576A2.616,2.616,0,0,1,2345,7828.892Z" fill="#85813b"/>
              <path id="Контур_17394" data-name="Контур 17394" d="M2334.2,7741.554a9.1,9.1,0,0,1,.339,1.539,5.943,5.943,0,0,1,.116,2.071c-.271-1.176-.532-2.352-.808-3.523-.034-.131-.121-.286.034-.349C2334.066,7741.225,2334.158,7741.423,2334.2,7741.554Z"/>
              <path id="Контур_17395" data-name="Контур 17395" d="M2331.583,7768.781c-.111-.988.528-1.593,1.06-2.256.557-.692,1.186-.561,1.52.271a.529.529,0,0,1-.184.654,4.025,4.025,0,0,0-1.471,2.526c-.039.44-.068.886-.107,1.379A3.911,3.911,0,0,1,2331.583,7768.781Z" fill="#8fbe23"/>
              <path id="Контур_17396" data-name="Контур 17396" d="M2331.617,7751.668a2.333,2.333,0,0,1,.566-2.613,1.336,1.336,0,0,1,.731-.32c.266-.014.537-.019.416.426a9.713,9.713,0,0,0-.135,1.133,1.082,1.082,0,0,1-.145.368A6.181,6.181,0,0,1,2331.617,7751.668Z" fill="#8fbe23"/>
              <path id="Контур_17397" data-name="Контур 17397" d="M2340.517,7730.674a2.822,2.822,0,0,0,.053.33c-.024.672-.392,1.35-.242,2.018.228,1-.653,1.156-1.108,1.621-.252.251-.658-.015-1.031.13-.256.1-.508.194-.76.3l-.266-.934c-3.344-1.418-4.7-4.477-6.267-7.366l.992-.223a2.8,2.8,0,0,0,1.171.891c2.076,1.035,4.133,2.09,5.45,4.123a8.046,8.046,0,0,0-2.091-2.458l1.079-.591a12.762,12.762,0,0,1,2.275,2.265Z" fill="#91aa25"/>
              <path id="Контур_17398" data-name="Контур 17398" d="M2328.341,7760.031a12.7,12.7,0,0,0,3.789,3.387c.658.354.847,1.114,1.254,1.685.183.266-.189.329-.359.377a2.98,2.98,0,0,1-2.177-.266c-1.021-.547-2.018-1.147-3.04-1.7a5.4,5.4,0,0,1-1.993-2.468,37.28,37.28,0,0,0-4.124-6.291A16.689,16.689,0,0,1,2328.341,7760.031Z" fill="#b1729c"/>
              <path id="Контур_17399" data-name="Контур 17399" d="M2334.966,7733.157a16.039,16.039,0,0,1-4.394-6.717l-.029-.073a.129.129,0,0,1,.038-.174c.107.189.213.382.315.576,1.568,2.889,2.923,5.948,6.267,7.366A3.3,3.3,0,0,1,2334.966,7733.157Z"/>
              <path id="Контур_17400" data-name="Контур 17400" d="M2330.572,7726.44a16.039,16.039,0,0,0,4.394,6.717,3.3,3.3,0,0,0,2.2.978l.266.934a7.833,7.833,0,0,0-1.219.6c-.508.319-1.084.145-1.646-.523-.6-.716-1.113-1.519-1.751-2.2-1.254-1.34-1.781-3.063-2.561-4.65a9.341,9.341,0,0,1-.629-1.67l.92-.252Z" fill="#91aa25"/>
              <path id="Контур_17401" data-name="Контур 17401" d="M2340.435,7730.137c.038.179.058.354.082.537l-.745.1a10.054,10.054,0,0,0-3.78-3.794c.01.169-.019.271.019.305.484.416.993.818,1.486,1.224l-1.079.591a32.965,32.965,0,0,0-4.665-2.778,1.905,1.905,0,0,0,.135.222l-.992.223c-.1-.194-.208-.387-.315-.576a.129.129,0,0,0-.038.174l-.92.252a8.854,8.854,0,0,1-.256-3.315c.038-.363-.271-.876.121-1.041.271-.116.711.175,1.074.3a10.89,10.89,0,0,1,2.594,1.466,18.91,18.91,0,0,0,3.083,1.539,11.151,11.151,0,0,1,2.608,2.042A4.575,4.575,0,0,1,2340.435,7730.137Z" fill="#91aa25"/>
              <path id="Контур_17402" data-name="Контур 17402" d="M2328.7,7743.344c.643.7,1.379,1.292,2.057,1.946C2329.957,7744.757,2328.965,7744.438,2328.7,7743.344Z"/>
              <path id="Контур_17403" data-name="Контур 17403" d="M2328.36,7752.4a8.077,8.077,0,0,0,3.126,3.305,8.077,8.077,0,0,1,3.364,5.919,3.788,3.788,0,0,1-.29,2.231c-.078.16-.165.353-.073.5.261.417-.034.586-.319.784a9.839,9.839,0,0,1-1.138-1.674,1.056,1.056,0,0,0-.547-.489,5.084,5.084,0,0,1-2.356-2.163c-.025-.049-.092-.063-.184-.121.547-.136.377-.441.193-.731-.164-.256-.363-.489-.508-.75-.082-.145-.31-.319.024-.5.136-.078.078-.329-.067-.513a5.563,5.563,0,0,1-1.06-2.406c-.126-.653-.368-1.282-.533-1.935a10.266,10.266,0,0,0-.421-2.483c.049-.01.092-.024.141-.034A8.556,8.556,0,0,1,2328.36,7752.4Z" fill="#b1729c"/>
              <path id="Контур_17404" data-name="Контур 17404" d="M2332.029,7743.988a11.141,11.141,0,0,0-3.088-2.338c-.179-.121-.174-.285-.2-.445a9.991,9.991,0,0,0-1.53-4.365.293.293,0,0,1,.015-.339c.9.557,1.815,1.084,2.681,1.684a4.387,4.387,0,0,1,1.834,2.812A9.864,9.864,0,0,1,2332.029,7743.988Z" fill="#c19fb5"/>
              <path id="Контур_17405" data-name="Контур 17405" d="M2326.705,7742.783a20.347,20.347,0,0,0,3.184,2.613c.025.02.02.073.054.184a5.054,5.054,0,0,1-1.505-.847q-1.089-.8-2.154-1.64c-.14-.107-.4-.262-.281-.446.146-.227.358.025.542.073A.28.28,0,0,1,2326.705,7742.783Z"/>
              <path id="Контур_17406" data-name="Контур 17406" d="M2334.54,7743.093a9.1,9.1,0,0,0-.339-1.539c-.043-.131-.135-.329-.319-.262-.155.063-.068.218-.034.349.276,1.171.537,2.347.808,3.523A5.943,5.943,0,0,0,2334.54,7743.093Zm-1.945-.562c.024-.552-.31-1.026-.334-1.573a19.354,19.354,0,0,1,.14-5,18.262,18.262,0,0,1,2.986,9.118,3.13,3.13,0,0,1-1.161,2.691,1.2,1.2,0,0,1-.886.261,11.186,11.186,0,0,1-4.409-1.66,10.172,10.172,0,0,1-3.615-3.678,23.507,23.507,0,0,1-2.1-3.252,2.625,2.625,0,0,0,1.573.339,1.68,1.68,0,0,1,1.064.517,7.96,7.96,0,0,0,2.217,1.53,12,12,0,0,1,2.841,1.689,10.394,10.394,0,0,1,1.732,2.5c.058.1.063.237.141.314.193.194.367.6.643.455.213-.111-.1-.416-.2-.619A7.086,7.086,0,0,1,2332.595,7742.531Zm-3.891.813c.261,1.094,1.253,1.413,2.057,1.946C2330.083,7744.636,2329.347,7744.041,2328.7,7743.344Zm1.185,2.052a20.347,20.347,0,0,1-3.184-2.613.28.28,0,0,0-.16-.063c-.184-.048-.4-.3-.542-.073-.121.184.141.339.281.446q1.067.842,2.154,1.64a5.054,5.054,0,0,0,1.505.847C2329.909,7745.469,2329.914,7745.416,2329.889,7745.4Z" fill="#b1729c"/>
              <path id="Контур_17407" data-name="Контур 17407" d="M2328.055,7756.885c.717.924.687,2.183,1.186,3.228a16.613,16.613,0,0,1-1.916-2.018,3.442,3.442,0,0,1-.949-1.641c-.15-.653-.673-1.214-.9-1.906A32.9,32.9,0,0,1,2328.055,7756.885Z" fill="#c19fb5"/>
              <path id="Контур_17408" data-name="Контур 17408" d="M2340.507,7847.669a23.878,23.878,0,0,1,.929,2.328c.267.794.5,1.6.7,2.415.112.46.252.915.383,1.37-.044.009-.088.014-.131.019-.382-1.118-.8-2.226-1.137-3.359a44.461,44.461,0,0,0-2.164-4.946c-.711-1.635-1.422-3.261-2.071-4.921-.992-2.531-1.781-5.13-2.773-7.656-.605-1.549-1.084-3.151-1.776-4.651-.445-.968-.929-1.931-1.36-2.9-.634-1.442-.91-3-1.423-4.491-.619-1.81-1.558-3.489-2.26-5.265-.711-1.8-1.292-3.654-1.911-5.488-1.031-3.044-2.072-6.088-3.059-9.147a27.774,27.774,0,0,1-.953-4.356.985.985,0,0,1,.116-.643c.159.7.314,1.268.416,1.844a35.734,35.734,0,0,0,1.582,5.788c.339.939.62,1.892.915,2.84.45,1.457.9,2.914,1.462,4.332.305.76.566,1.544.8,2.328a34.38,34.38,0,0,0,1.95,4.805,41.041,41.041,0,0,1,1.941,5.309,29.649,29.649,0,0,0,1.752,4.152,51.539,51.539,0,0,1,2.028,4.9c.445,1.215.871,2.434,1.3,3.654.508,1.442.982,2.894,1.534,4.322C2338.262,7842.762,2339.375,7845.221,2340.507,7847.669Z"/>
              <path id="Контур_17409" data-name="Контур 17409" d="M2321.072,7800.746c-.1-1.346-.276-2.691-.431-4.032l.862-.1a27.774,27.774,0,0,0,.953,4.356c.987,3.059,2.028,6.1,3.059,9.147.619,1.834,1.2,3.687,1.911,5.488.7,1.776,1.641,3.455,2.26,5.265.513,1.486.789,3.049,1.423,4.491.431.973.915,1.936,1.36,2.9.692,1.5,1.171,3.1,1.776,4.651.992,2.526,1.781,5.125,2.773,7.656.649,1.66,1.36,3.286,2.071,4.921a44.461,44.461,0,0,1,2.164,4.946c.334,1.133.755,2.241,1.137,3.359l-.987.034c-.092-.136-.184-.271-.281-.4a21.44,21.44,0,0,1-2.662-4.665,56.443,56.443,0,0,0-3.484-7.564c-.644-1.1-1.229-2.251-1.834-3.378-.876-1.636-1.52-3.378-2.265-5.072a23.831,23.831,0,0,1-1.53-3.77,37.751,37.751,0,0,0-1.742-5.062c-.595-1.462-1.147-2.933-1.607-4.438-.353-1.152-.687-2.313-1.045-3.465-.271-.876-.673-1.728-.876-2.6-.29-1.268-.663-2.516-1.06-3.741-.576-1.776-.905-3.6-1.408-5.386A18.471,18.471,0,0,1,2321.072,7800.746Z" fill="#73992d"/>
              <path id="Контур_17410" data-name="Контур 17410" d="M2344.534,7842.525a17.963,17.963,0,0,1,.76,2.579c.222,1,.387,2.023.556,3.04.257,1.5.595,2.986.958,4.462.373,1.524.765,3.039,1.123,4.568a1.9,1.9,0,0,1,.15.528.808.808,0,0,1-.043.242,16.328,16.328,0,0,1-.9-2.619,88.061,88.061,0,0,1-2.071-9.2,32.143,32.143,0,0,0-1.936-6.03q-.928-2.411-1.7-4.888c-.494-1.593-1.094-3.151-1.568-4.748a21.827,21.827,0,0,0-1.2-3.359c-.929-1.916-1.65-3.924-2.482-5.88-.629-1.476-1.394-2.9-2.057-4.365-.77-1.694-1.263-3.494-1.892-5.241-.378-1.036-.842-2.047-1.249-3.073-.919-2.313-1.67-4.685-2.468-7.037-.479-1.418-1.045-2.8-1.631-4.176-1.07-2.536-2.129-5.072-3.107-7.642-.615-1.6-1.345-3.155-2-4.742a33.9,33.9,0,0,0-2.961-5.517c-.4-.61-.9-1.147-1.264-1.8.4,1.288.876,2.551,1.181,3.857.344,1.481.958,2.87,1.3,4.351.2.857.634,1.66.905,2.507.416,1.287.716,2.623,1.191,3.886s.837,2.536,1.3,3.789q.784,2.091,1.515,4.206c.271.769.813,1.384,1.123,2.124.765,1.82,1.505,3.654,2.241,5.488.479,1.2,1.132,2.3,1.611,3.5,1.089,2.705,1.975,5.483,3.073,8.188.741,1.824,1.225,3.751,1.83,5.628.295.925.7,1.81,1,2.735.567,1.722,1.278,3.4,1.878,5.11.832,2.367,1.67,4.733,2.4,7.129.8,2.594,1.757,5.134,2.633,7.7.731,2.139,1.442,4.288,2.149,6.437.595,1.8.871,3.7,1.544,5.488.034.092.213.276,0,.343-.257.083-.165-.188-.218-.3a12.216,12.216,0,0,1-.6-1.485c-.5-1.515-.779-3.1-1.321-4.608-.5-1.374-1-2.744-1.476-4.128q-.429-1.24-.813-2.5c-.673-2.2-1.539-4.336-2.217-6.538q-1.148-3.732-2.429-7.419c-.828-2.367-1.772-4.694-2.614-7.061-.822-2.3-1.534-4.646-2.371-6.94-.794-2.158-1.549-4.331-2.4-6.465-.837-2.091-1.843-4.114-2.647-6.224a32.331,32.331,0,0,0-1.7-4.012,48.845,48.845,0,0,1-3.3-8.677c-1.137-3.538-2.323-7.066-3.451-10.608-.566-1.771-1.026-3.577-1.563-5.362-.126-.407-.184-.838-.276-1.259a3.422,3.422,0,0,0-.5-1.263c.276.034.344.233.44.392s.16.349.242.523a41.9,41.9,0,0,0,2.739,4.4,33.731,33.731,0,0,1,3.1,6.509c1.006,2.749,2.25,5.391,3.387,8.082.736,1.728,1.467,3.46,2.12,5.222.629,1.684,1.152,3.407,1.742,5.1.349.992.76,1.96,1.118,2.942.692,1.907,1.525,3.756,2.11,5.7a25,25,0,0,0,1.113,2.826c.547,1.254,1.167,2.483,1.714,3.732q1.407,3.2,2.768,6.417c.179.426.348.852.513,1.282.547,1.452,1.011,2.928,1.476,4.4C2342.162,7836.064,2343.28,7839.316,2344.534,7842.525Z"/>
              <path id="Контур_17411" data-name="Контур 17411" d="M2317.326,7777.768c.537,1.785,1,3.591,1.563,5.362,1.128,3.542,2.314,7.07,3.451,10.608a48.845,48.845,0,0,0,3.3,8.677,32.331,32.331,0,0,1,1.7,4.012c.8,2.11,1.81,4.133,2.647,6.224.847,2.134,1.6,4.307,2.4,6.465.837,2.294,1.549,4.637,2.371,6.94.842,2.367,1.786,4.694,2.614,7.061q1.284,3.687,2.429,7.419c.678,2.2,1.544,4.336,2.217,6.538q.384,1.255.813,2.5l-1.385.426a23.878,23.878,0,0,0-.929-2.328c-1.132-2.448-2.245-4.907-3.208-7.423-.552-1.428-1.026-2.88-1.534-4.322-.431-1.22-.857-2.439-1.3-3.654a51.539,51.539,0,0,0-2.028-4.9,29.649,29.649,0,0,1-1.752-4.152,41.041,41.041,0,0,0-1.941-5.309,34.38,34.38,0,0,1-1.95-4.805c-.232-.784-.493-1.568-.8-2.328-.567-1.418-1.012-2.875-1.462-4.332-.295-.948-.576-1.9-.915-2.84a35.734,35.734,0,0,1-1.582-5.788c-.1-.576-.257-1.142-.416-1.844a.985.985,0,0,0-.116.643l-.862.1c-.082-.735-.16-1.471-.213-2.207a42.045,42.045,0,0,0-.643-4.979c-.5-2.565-1.264-5.067-1.873-7.608a32.8,32.8,0,0,1-1.065-3.664c-.063-.508-.15-1.021-.237-1.529-.01-.039-.01-.087-.019-.131l.459-.087C2317.142,7776.93,2317.2,7777.361,2317.326,7777.768Z" fill="#73992d"/>
              <path id="Контур_17412" data-name="Контур 17412" d="M2344.432,7859.444c-1.152-1.8-2.212-3.63-3.436-5.338a29.4,29.4,0,0,1-3.634-6.877,48.632,48.632,0,0,0-3.194-6.577c-.843-1.515-1.607-3.078-2.323-4.665-.688-1.529-1.293-3.1-2.081-4.583a11.749,11.749,0,0,1-1.012-3.044,31.482,31.482,0,0,0-1.64-4.535c-.644-1.631-1.191-3.276-1.689-4.956-.673-2.264-1.394-4.515-2.13-6.755a77.646,77.646,0,0,1-2.323-8.721c-.261-1.263-.251-2.565-.426-3.838-.421-3.049-.363-6.146-.948-9.171-.232-1.215-.566-2.415-.9-3.615-.388-1.4-.659-2.841-1.06-4.239-.194-.668-.373-1.336-.6-1.989a19.8,19.8,0,0,1-.692-3.785c0-.053-.053-.126-.053-.189,0-.043.019-.077.092-.1.145-.039.184.038.2.125.009.044.009.092.019.131.087.508.174,1.021.237,1.529a32.8,32.8,0,0,0,1.065,3.664c.609,2.541,1.369,5.043,1.873,7.608a42.045,42.045,0,0,1,.643,4.979c.053.736.131,1.472.213,2.207.155,1.341.329,2.686.431,4.032a18.471,18.471,0,0,0,.537,3.542c.5,1.786.832,3.61,1.408,5.386.4,1.225.77,2.473,1.06,3.741.2.876.6,1.728.876,2.6.358,1.152.692,2.313,1.045,3.465.46,1.5,1.012,2.976,1.607,4.438a37.751,37.751,0,0,1,1.742,5.062,23.831,23.831,0,0,0,1.53,3.77c.745,1.694,1.389,3.436,2.265,5.072.6,1.127,1.19,2.274,1.834,3.378a56.443,56.443,0,0,1,3.484,7.564,21.44,21.44,0,0,0,2.662,4.665c.1.131.189.266.281.4.638.953,1.171,1.989,1.752,2.991.392.668.774,1.35,1.146,2.032C2344.389,7859.018,2344.539,7859.173,2344.432,7859.444Z"/>
              <path id="Контур_17413" data-name="Контур 17413" d="M2317.045,7780.541c.223.653.4,1.321.6,1.989.4,1.4.672,2.836,1.06,4.239.329,1.2.663,2.4.9,3.615.585,3.025.527,6.122.948,9.171.175,1.273.165,2.575.426,3.838a77.646,77.646,0,0,0,2.323,8.721c.736,2.24,1.457,4.491,2.13,6.755.5,1.68,1.045,3.325,1.689,4.956a31.482,31.482,0,0,1,1.64,4.535,11.749,11.749,0,0,0,1.012,3.044c.788,1.486,1.393,3.054,2.081,4.583.716,1.587,1.48,3.15,2.323,4.665a48.632,48.632,0,0,1,3.194,6.577,29.4,29.4,0,0,0,3.634,6.877c1.224,1.708,2.284,3.533,3.436,5.338.107-.271-.043-.426-.131-.586l1.317-.551a12.216,12.216,0,0,0,.6,1.485c.053.112-.039.383.218.3.213-.067.034-.251,0-.343-.673-1.786-.949-3.683-1.544-5.488-.707-2.149-1.418-4.3-2.149-6.437-.876-2.57-1.834-5.11-2.633-7.7-.73-2.4-1.568-4.762-2.4-7.129-.6-1.713-1.311-3.388-1.878-5.11-.3-.925-.706-1.81-1-2.735-.6-1.877-1.089-3.8-1.83-5.628-1.1-2.705-1.984-5.483-3.073-8.188-.479-1.191-1.132-2.3-1.611-3.5-.736-1.834-1.476-3.668-2.241-5.488-.31-.74-.852-1.355-1.123-2.124q-.733-2.112-1.515-4.206c-.464-1.253-.832-2.536-1.3-3.789s-.775-2.6-1.191-3.886c-.271-.847-.7-1.65-.905-2.507-.344-1.481-.958-2.87-1.3-4.351-.3-1.306-.779-2.569-1.181-3.857.363.654.867,1.191,1.264,1.8a33.9,33.9,0,0,1,2.961,5.517c.654,1.587,1.384,3.14,2,4.742.978,2.57,2.037,5.106,3.107,7.642.586,1.374,1.152,2.758,1.631,4.176.8,2.352,1.549,4.724,2.468,7.037.407,1.026.871,2.037,1.249,3.073.629,1.747,1.122,3.547,1.892,5.241.663,1.467,1.428,2.889,2.057,4.365.832,1.956,1.553,3.964,2.482,5.88a21.827,21.827,0,0,1,1.2,3.359c.474,1.6,1.074,3.155,1.568,4.748q.77,2.475,1.7,4.888a32.143,32.143,0,0,1,1.936,6.03,88.061,88.061,0,0,0,2.071,9.2,16.328,16.328,0,0,0,.9,2.619.808.808,0,0,0,.043-.242l.528.009a11.511,11.511,0,0,1-.17,1.994,9.19,9.19,0,0,1-.4,1.321,4.115,4.115,0,0,0-.276,1.331c0,.678-.629.968-1.012,1.4-.106.121-.319.019-.484-.058a6.549,6.549,0,0,1-2.666-2.58,27.553,27.553,0,0,0-2.386-3.247c-1.162-1.37-2.149-2.855-3.214-4.288-1.292-1.742-2.487-3.542-3.658-5.362-.808-1.254-1.4-2.657-2.294-3.857a33.524,33.524,0,0,1-3.383-6.442c-.808-1.776-1.505-3.586-2.158-5.42-.441-1.234-1.017-2.415-1.443-3.654-.837-2.434-1.679-4.863-2.274-7.375-.421-1.781-1-3.528-1.476-5.3-.649-2.425-1.147-4.879-1.6-7.347-.334-1.843-.721-3.683-1.108-5.522a58.97,58.97,0,0,1-1.317-7.118c-.087-1.026-.314-2.043-.348-3.078-.082-2.193-.2-4.39-.174-6.582.019-1.258.193-2.526.125-3.78a29.051,29.051,0,0,0-.488-3.276,13.448,13.448,0,0,1-.349-2.033,3.954,3.954,0,0,0-.092-.827l.334-.049c0,.063.049.136.053.189A19.8,19.8,0,0,0,2317.045,7780.541Z" fill="#73992d"/>
              <path id="Контур_17414" data-name="Контур 17414" d="M2343.779,7862.048a6.578,6.578,0,0,0,.547.6,14.52,14.52,0,0,1-5.571-3.663c-1.268-1.51-2.332-3.194-3.465-4.82-1.1-1.578-2.032-3.267-3.237-4.772-.663-.823-1.384-1.6-2.067-2.4a25.758,25.758,0,0,1-2.913-4.385c-.687-1.263-1.341-2.546-1.95-3.847a58.53,58.53,0,0,1-3.6-8.208c-.789-2.73-1.854-5.367-2.778-8.048-.6-1.762-1-3.581-1.471-5.377-.329-1.258-.77-2.487-1.065-3.76-.387-1.689-.532-3.407-.861-5.1-.484-2.507-.867-5.033-1.1-7.574-.111-1.166-.1-2.347-.232-3.5-.271-2.347.116-4.689,0-7.027-.107-2.158.024-4.307.024-6.46a39.981,39.981,0,0,1,.465-4.743,27.6,27.6,0,0,0,.227-4.191c-.005-.2,0-.4,0-.6.048,0,.1,0,.15,0a13.028,13.028,0,0,1,.745,3.344c.165,1.544.455,3.069.726,4.593a11.877,11.877,0,0,1,.02,3.1c-.146,1.926.135,3.843.121,5.769a46.316,46.316,0,0,0,.517,5.962c.421,3.422,1.355,6.737,1.946,10.124.266,1.544.537,3.088.856,4.617.528,2.517,1.181,5,1.888,7.477.561,1.96,1.031,3.944,1.611,5.9.388,1.3.934,2.545,1.331,3.837.571,1.849,1.52,3.552,2.028,5.435a34.886,34.886,0,0,0,1.365,3.359,55.579,55.579,0,0,0,2.54,5.347,15.738,15.738,0,0,0,1.448,2.13c.672.909,1.064,1.974,1.669,2.913a47.87,47.87,0,0,0,3.528,5.159,18.525,18.525,0,0,1,1.4,2.047c.793,1.244,1.839,2.26,2.715,3.422C2342.177,7859.8,2343.024,7860.891,2343.779,7862.048Z" fill="#73992d"/>
              <path id="Контур_17415" data-name="Контур 17415" d="M2346.581,7844.016c-.624-2.391-1.258-4.772-2.033-7.124-.4-1.215-.866-2.405-1.239-3.63-.275-.9-.692-1.732-1.011-2.613a9.93,9.93,0,0,0-1.655-2.831c-.082-.112-.16-.179-.276-.136-.179.068-.106.228-.073.349.01.024.02.053.029.082l-.672.261c-.165-.43-.334-.856-.513-1.282q-1.358-3.215-2.768-6.417c-.547-1.249-1.167-2.478-1.714-3.732a25,25,0,0,1-1.113-2.826c-.585-1.945-1.418-3.794-2.11-5.7-.358-.982-.769-1.95-1.118-2.942-.59-1.694-1.113-3.417-1.742-5.1-.653-1.762-1.384-3.494-2.12-5.222-1.137-2.691-2.381-5.333-3.387-8.082a33.731,33.731,0,0,0-3.1-6.509,41.9,41.9,0,0,1-2.739-4.4c-.082-.174-.15-.358-.242-.523s-.164-.358-.44-.392a3.422,3.422,0,0,1,.5,1.263l-.459.087c-.015-.087-.054-.164-.2-.125-.073.019-.092.053-.092.1l-.334.049c-.159-.808-.5-1.568-.629-2.376-.048-.3-.15-.586-.223-.881a1.724,1.724,0,0,0-.464-1.07.7.7,0,0,1-.14-.648c.13,0,.179.092.227.164a9.576,9.576,0,0,0,2.8,2.71,11.636,11.636,0,0,1,3.059,3.282,63.883,63.883,0,0,1,4,6.078c.934,1.723,1.771,3.489,2.579,5.275.77,1.7,1.414,3.451,2.135,5.164.769,1.839,1.466,3.712,2.26,5.541.948,2.183,1.766,4.423,2.681,6.625.808,1.941,1.723,3.843,2.483,5.8.614,1.587,1.161,3.2,1.659,4.839a14.46,14.46,0,0,0,2.2,4.54,29.933,29.933,0,0,1,4.384,9.205c.745,2.376,1.287,4.815,1.839,7.239a15.971,15.971,0,0,1,.5,4.554c-.058.959.406,1.873.4,2.851,0,.184.005.368.02.547h-.7C2346.881,7845.375,2346.76,7844.688,2346.581,7844.016Z" fill="#73992d"/>
              <path id="Контур_17416" data-name="Контур 17416" d="M2351.12,7725.38a.93.93,0,0,0-.121,0A.24.24,0,0,0,2351.12,7725.38Zm-16.73,23.191a11.664,11.664,0,0,0,3.47-1.268C2336.37,7746.359,2335.387,7746.683,2334.39,7748.571Zm1.036,15.6a1.444,1.444,0,0,0-.339,1.017c.034.145.532.324.862.242s.677-.2.73-.629c.02-.15-.043-.32.078-.446.111-.111.28-.169.135-.392a.594.594,0,0,0-.566-.28A1.218,1.218,0,0,0,2335.426,7764.173Zm31.989-28.383a3.747,3.747,0,0,1-.992,1.335,4.882,4.882,0,0,0,5.26-2.632,4.273,4.273,0,0,0-.508.189,6.187,6.187,0,0,1-3.479.963C2367.57,7735.635,2367.458,7735.659,2367.415,7735.79Zm-1.563,7.941c.058.615.237,1.06.987,1.046.223,0,.45.193.673.3a19.6,19.6,0,0,1,1.747,1.311c.121-.28-.029-.435-.112-.6-.343-.673-.992-1.123-1.359-1.752-.489-.847-1.3-.905-2.091-1.137A8.438,8.438,0,0,1,2365.852,7743.731Zm-15.98-19.348a1.41,1.41,0,0,1-.9.14c-.251,0-.508-.053-.929-.106.634.513,1.167.857,1.82.629a2.487,2.487,0,0,1,.765-.179c.193-.01.5.092.513-.2.014-.233-.291-.271-.484-.315A1.012,1.012,0,0,0,2349.872,7724.383Zm.29,158.8a2.068,2.068,0,0,0-1.108.309,5.326,5.326,0,0,0-1.292,1.326c-.17.194-.107.305-.015.489a2.6,2.6,0,0,0,3.751.7,1.334,1.334,0,0,0,.585-1.012A1.683,1.683,0,0,0,2350.162,7883.182Zm-2.671-162.859a1.873,1.873,0,0,0,2.095-1.849,1.845,1.845,0,0,1,.082-.218,2.609,2.609,0,0,0-.377-2.758.575.575,0,0,0-.1.13.507.507,0,0,0-.072.213,2.9,2.9,0,0,1-1.849,2.444,3.069,3.069,0,0,0-1.525,1.694c-.164.523-.048.682.5.591A10.172,10.172,0,0,1,2347.491,7720.323Zm-15.874,31.345a6.181,6.181,0,0,0,1.433-1.006,1.082,1.082,0,0,0,.145-.368,9.713,9.713,0,0,1,.135-1.133c.121-.445-.15-.44-.416-.426a1.336,1.336,0,0,0-.731.32A2.333,2.333,0,0,0,2331.617,7751.668Zm1.026,14.857c-.532.663-1.171,1.268-1.06,2.256a3.911,3.911,0,0,0,.818,2.574c.039-.493.068-.939.107-1.379a4.025,4.025,0,0,1,1.471-2.526.529.529,0,0,0,.184-.654C2333.829,7765.964,2333.2,7765.833,2332.643,7766.525Zm-1.8-1.311a2.98,2.98,0,0,0,2.177.266c.17-.048.542-.111.359-.377-.407-.571-.6-1.331-1.254-1.685a12.7,12.7,0,0,1-3.789-3.387,16.689,16.689,0,0,0-6.65-5.28,37.28,37.28,0,0,1,4.124,6.291,5.4,5.4,0,0,0,1.993,2.468C2328.83,7764.067,2329.827,7764.667,2330.848,7765.214Zm-1.607-5.1c-.5-1.045-.469-2.3-1.186-3.228a32.9,32.9,0,0,0-2.579-2.337c.227.692.75,1.253.9,1.906a3.442,3.442,0,0,0,.949,1.641A16.613,16.613,0,0,0,2329.241,7760.113Zm-.3-18.463a11.141,11.141,0,0,1,3.088,2.338,9.864,9.864,0,0,0-.291-2.991,4.387,4.387,0,0,0-1.834-2.812c-.866-.6-1.786-1.127-2.681-1.684a.293.293,0,0,0-.015.339,9.991,9.991,0,0,1,1.53,4.365C2328.767,7741.365,2328.762,7741.529,2328.941,7741.65Zm.711,17.06c-.334.184-.106.358-.024.5.145.261.344.494.508.75.184.29.354.6-.193.731.092.058.159.072.184.121a5.084,5.084,0,0,0,2.356,2.163,1.056,1.056,0,0,1,.547.489,9.839,9.839,0,0,0,1.138,1.674c.285-.2.58-.367.319-.784-.092-.15-.005-.343.073-.5a3.788,3.788,0,0,0,.29-2.231,8.077,8.077,0,0,0-3.364-5.919,8.077,8.077,0,0,1-3.126-3.305,8.556,8.556,0,0,0-.648-1.06c-.049.01-.092.024-.141.034a10.266,10.266,0,0,1,.421,2.483c.165.653.407,1.282.533,1.935a5.563,5.563,0,0,0,1.06,2.406C2329.73,7758.381,2329.788,7758.632,2329.652,7758.71Zm1.254-15.2a12,12,0,0,0-2.841-1.689,7.96,7.96,0,0,1-2.217-1.53,1.68,1.68,0,0,0-1.064-.517,2.625,2.625,0,0,1-1.573-.339,23.507,23.507,0,0,0,2.1,3.252,10.172,10.172,0,0,0,3.615,3.678,11.186,11.186,0,0,0,4.409,1.66,1.2,1.2,0,0,0,.886-.261,3.13,3.13,0,0,0,1.161-2.691,18.262,18.262,0,0,0-2.986-9.118,19.354,19.354,0,0,0-.14,5c.024.547.358,1.021.334,1.573a7.086,7.086,0,0,0,.629,3.63c.1.2.411.508.2.619-.276.15-.45-.261-.643-.455-.078-.077-.083-.217-.141-.314A10.394,10.394,0,0,0,2330.906,7743.514Zm7.869-8.421c-.421.116-.847.2-1.254.353a5.367,5.367,0,0,0-1.727,1.041c-.107.092-.223.174-.092.319a4.375,4.375,0,0,0,1.355-.048C2337.42,7735.988,2338.184,7735.669,2338.775,7735.093Zm5,126.955c-.755-1.157-1.6-2.251-2.439-3.349-.876-1.162-1.922-2.178-2.715-3.422a18.525,18.525,0,0,0-1.4-2.047,47.87,47.87,0,0,1-3.528-5.159c-.6-.939-1-2-1.669-2.913a15.738,15.738,0,0,1-1.448-2.13,55.579,55.579,0,0,1-2.54-5.347,34.886,34.886,0,0,1-1.365-3.359c-.508-1.883-1.457-3.586-2.028-5.435-.4-1.292-.943-2.54-1.331-3.837-.58-1.956-1.05-3.94-1.611-5.9-.707-2.473-1.36-4.96-1.888-7.477-.319-1.529-.59-3.073-.856-4.617-.591-3.387-1.525-6.7-1.946-10.124a46.316,46.316,0,0,1-.517-5.962c.014-1.926-.267-3.843-.121-5.769a11.877,11.877,0,0,0-.02-3.1c-.271-1.524-.561-3.049-.726-4.593a13.028,13.028,0,0,0-.745-3.344c-.048,0-.1,0-.15,0,0,.2-.005.4,0,.6a27.6,27.6,0,0,1-.227,4.191,39.981,39.981,0,0,0-.465,4.743c0,2.153-.131,4.3-.024,6.46.111,2.338-.276,4.68,0,7.027.135,1.157.121,2.338.232,3.5.237,2.541.62,5.067,1.1,7.574.329,1.694.474,3.412.861,5.1.3,1.273.736,2.5,1.065,3.76.469,1.8.866,3.615,1.471,5.377.924,2.681,1.989,5.318,2.778,8.048a58.53,58.53,0,0,0,3.6,8.208c.609,1.3,1.263,2.584,1.95,3.847a25.758,25.758,0,0,0,2.913,4.385c.683.8,1.4,1.577,2.067,2.4,1.205,1.5,2.139,3.194,3.237,4.772,1.133,1.626,2.2,3.31,3.465,4.82a14.52,14.52,0,0,0,5.571,3.663A6.578,6.578,0,0,1,2343.779,7862.048Zm-4.956-118.176c.7.9,2.362,1.432,3.054.155a14.014,14.014,0,0,0,.75-1.23,2.172,2.172,0,0,1,.682-.919.781.781,0,0,0-.087-1.447,2.268,2.268,0,0,0-1.239-.184c-1.785.053-3.576.334-5.415-.29.179.348.3.609.436.866A19,19,0,0,0,2338.823,7743.872Zm1.892-10.846a.384.384,0,0,0,.083.315c.1.092.208-.019.3-.077.59-.388,1.19-.77,1.771-1.176a.831.831,0,0,0,.31-.6,3.126,3.126,0,0,0-.4-1.916,4.247,4.247,0,0,1-1.563,2.265C2340.87,7732.126,2340.841,7732.61,2340.715,7733.026Zm-.89,3.311c.639-.16.74-.571.634-1.128-.029-.16-.058-.324-.063-.377-.653-.2-.866.319-1.205.643a1.812,1.812,0,0,1-.4.315,9.123,9.123,0,0,0-1.122.871c.4.121.45-.334.706-.3.16.145-.077.31.015.474C2338.886,7736.661,2339.346,7736.462,2339.825,7736.337Zm.745-5.333a2.822,2.822,0,0,1-.053-.33c-.024-.183-.044-.358-.082-.537a4.575,4.575,0,0,0-1.588-2.531,11.151,11.151,0,0,0-2.608-2.042,18.91,18.91,0,0,1-3.083-1.539,10.89,10.89,0,0,0-2.594-1.466c-.363-.121-.8-.412-1.074-.3-.392.165-.083.678-.121,1.041a8.854,8.854,0,0,0,.256,3.315,9.341,9.341,0,0,0,.629,1.67c.78,1.587,1.307,3.31,2.561,4.65.638.683,1.146,1.486,1.751,2.2.562.668,1.138.842,1.646.523a7.833,7.833,0,0,1,1.219-.6c.252-.1.5-.2.76-.3.373-.145.779.121,1.031-.13.455-.465,1.336-.62,1.108-1.621C2340.178,7732.354,2340.546,7731.676,2340.57,7731Zm.049-16.508c.038-1.539,0-3.078.072-4.631a19.955,19.955,0,0,0-1.418,4.287,9.706,9.706,0,0,0,1.094,5.682c.145.319.3.426.59.169a1.672,1.672,0,0,1,1.167-.406,1.519,1.519,0,0,0,.7-.107,2.576,2.576,0,0,1-.89-.716A6.575,6.575,0,0,1,2340.619,7714.5Zm12.471,14.088c-.121-.794-.252-1.544-.344-2.294-.092-.716-.324-1.287-1.088-1.408A3.767,3.767,0,0,0,2353.09,7728.584Zm3.509,19.14c.914-1.06,1.142-2.4,1.664-3.581.165-.368-.082-.915-.159-1.559a1.778,1.778,0,0,1-.9.843.523.523,0,0,0-.257.358A13.658,13.658,0,0,0,2356.6,7747.724Zm-.31,15.123c-.155.131.043.223.087.334.208.489.731.731.939,1.225a6.063,6.063,0,0,1,.61,2.632.5.5,0,0,0,.416.591c.353.072.329-.223.426-.416a2.019,2.019,0,0,0,.126-.683,1.433,1.433,0,0,0-.049-.392,5.229,5.229,0,0,0-1.142-1.965,1.932,1.932,0,0,1-.687-1.229c-.015-.179-.087-.29-.271-.314A.628.628,0,0,0,2356.289,7762.847Zm.726-2.521a2.816,2.816,0,0,0,.634,1.491.528.528,0,0,0,.619.237,15.972,15.972,0,0,0,2.076-.687c.963-.475,1.864-1.06,2.793-1.588a9.7,9.7,0,0,0,4.3-4.375,1.561,1.561,0,0,0-.339.1,5.661,5.661,0,0,1-3.044.774c-.309.01-.629,0-.943-.014a7.45,7.45,0,0,0-4.409.774,3.288,3.288,0,0,0-1.186.857A3.8,3.8,0,0,0,2357.015,7760.326Zm-4.206-24.236c.939.435,1.844,1.035,2.981.74a2.862,2.862,0,0,0-1.984-1.374,11.249,11.249,0,0,0-2.5-.247A17.231,17.231,0,0,0,2352.809,7736.09Zm2.9-12.012a9.183,9.183,0,0,0,2.013-3.581c.208-.852.4-1.713.61-2.56a12.874,12.874,0,0,0,.382-5.053,20.572,20.572,0,0,1-2.565,1.781,14.78,14.78,0,0,0-1.979,1.157,15.384,15.384,0,0,0-2.836,2.681c-.619.774-1.447,1.481-1.195,2.662.019.092.034.227-.015.28-.479.533-.237,1.143-.227,1.733.009.508.261.726.755.774a3.188,3.188,0,0,1,1.756.765c.547.489.944.59,1.52.218a1.558,1.558,0,0,1,.218-.068A3.873,3.873,0,0,0,2355.713,7724.078Zm-2.221,38.135a4.545,4.545,0,0,0,3.441-.271c.213-.116.193-.179.067-.329a1.852,1.852,0,0,0-1.8-.871c-.45.073-.914.121-1.369.184a5.072,5.072,0,0,1-2.333.087c.01.228.169.344.29.489A2.849,2.849,0,0,0,2353.492,7762.213Zm7.7-33.324a8.253,8.253,0,0,0-.837-3.282,14.878,14.878,0,0,1-.266,4.337,2.735,2.735,0,0,0,.745,2.734c.107-.629.571-1.118.44-1.781A14.035,14.035,0,0,1,2361.2,7728.889Zm1.3,1.776a4.563,4.563,0,0,0-1.065,4.476c.107.034.165-.063.242-.1.16-.083.359-.155.46.043a.266.266,0,0,1,.029.112c0,.13-.14.188-.285.232a.616.616,0,0,0-.47.508c-.024.155-.106.319-.28.324-.209,0-.189-.227-.242-.353-.039-.092-.078-.184-.107-.276a2.927,2.927,0,0,1-.16-1.355,1.671,1.671,0,0,0-.217-.992,16.288,16.288,0,0,0-1.8-2.855,21.2,21.2,0,0,0-3.349-3.073c-.262-.213-.475-.17-.533.159-.184,1.041-.372,2.086-.489,3.136a7.587,7.587,0,0,0,.988,4.254,5.021,5.021,0,0,0,1.389,1.8c.3.238.59.571.7-.164a.938.938,0,0,1,.576-.6c.358-.155.315-.348.165-.634a17.083,17.083,0,0,0-1.617-2.444c-.116-.145-.164-.276,0-.387.189-.126.223.077.286.174a14.088,14.088,0,0,1,1.694,2.584c.048.117.077.417.319.31s.1-.319.029-.5c-.314-.818-.629-1.636-.934-2.459-.053-.15-.169-.324.087-.479a11.1,11.1,0,0,1,.862,2.3c.184.614.329,1.234,1.176,1.181a.177.177,0,0,1,.2.222.226.226,0,0,1-.029.078.221.221,0,0,1-.227.111,3.824,3.824,0,0,1-.813-.2c-.126-.048-.233-.169-.358-.072s-.034.247,0,.372a1.361,1.361,0,0,1-.038,1.176c-.117-.44-.2-.769-.291-1.108a1.166,1.166,0,0,0-.769.833c-.073.493-.291.58-.716.517-.107-.014-.213-.043-.325-.062h-.009a3.683,3.683,0,0,0-3.446,1.238c-1.205,1.283-2.028,2.865-3.218,4.158-.121.13-.441.217-.281.484.135.217.387.212.629.2a8.086,8.086,0,0,1,2.333.261c1.539.412,2.981.513,4.07-.948.029-.039.1-.088.145-.078.469.082.789-.237,1.142-.44.286-.165.484-.189.615-.068a.748.748,0,0,1,.174.474,19.824,19.824,0,0,0,.256,2,2.773,2.773,0,0,0,1.225,1.863,7.745,7.745,0,0,0,2.158,1.142,2.565,2.565,0,0,1,1.7,1.254c.043.092.256.513.484.063a7.748,7.748,0,0,0,.905-4.622,2.85,2.85,0,0,0-1.089-2.158,1.967,1.967,0,0,1-.392-.484c-.078-.1-.2-.213-.2-.325a.21.21,0,0,1,.1-.159.263.263,0,0,1,.174-.068c.155,0,.291.145.4.256.925,1.031,2.193,1.1,3.432,1.186a7.736,7.736,0,0,0,2.313-.619c1.263-.31,2.516-.649,3.775-.973-.068-.281-.325-.31-.475-.441a12.421,12.421,0,0,1-1.79-1.843c-.881-1.152-4.37-1.689-5.706-1.017-.339.175-.029.557-.266.755.184.175.285.039.44-.072.136-.1.262.019.247.188a3.071,3.071,0,0,1-.368,1.476c-.16-.377.136-.692-.043-1.006a1.606,1.606,0,0,0-.17.716.248.248,0,0,1-.227.223c-.247.014-.02-.305-.237-.344a2.355,2.355,0,0,1-.46.934.36.36,0,0,1-.465.111.309.309,0,0,1-.048-.038c-.131-.121.014-.315.116-.392.455-.354.47-.91.653-1.384.141-.349.659-.78-.087-1.08a.1.1,0,0,1-.024-.1c.184-.392-.16-.479-.358-.668a8.041,8.041,0,0,0-.673-.528,1.83,1.83,0,0,1-.837-1.132c-.029-.165-.145-.073-.213-.058-.179.029-.348.068-.474-.107a.15.15,0,0,1-.029-.087.117.117,0,0,1,.068-.111c.208-.1.445-.353.634-.232.658.411,1.49.624,1.8,1.558-.373-.194-.465-.624-.833-.716-.179.208-.14.372.059.566.338.339.8.513,1.108.89.106.136.222.039.339-.063a4.409,4.409,0,0,0,1.471-2.356,5.363,5.363,0,0,0-.107-2.333c-.28-1.491-.455-3-.822-4.472-.1-.416-.233-.4-.518-.174-.2.155-.325.373-.523.528A18.409,18.409,0,0,0,2362.493,7730.665Zm14.194,47.553a11.761,11.761,0,0,0-1.389,2.013c-.232-.2-.067-.373.054-.547.566-.818,1.142-1.631,1.7-2.454a8.836,8.836,0,0,0,1.467-2.918,5.831,5.831,0,0,0-2,1.36,32.054,32.054,0,0,1-2.541,2.817,25.784,25.784,0,0,0-3.813,4.467c-1,1.432-1.926,2.908-2.812,4.413-1.05,1.786-2.071,3.586-3,5.445-1.181,2.366-2.7,4.544-3.9,6.91-1.375,2.7-2.691,5.421-3.862,8.208s-2.575,5.488-3.891,8.218a58.832,58.832,0,0,0-3.015,6.973,65.939,65.939,0,0,0-2.333,7.148,7.107,7.107,0,0,1-.614,2,2.478,2.478,0,0,0-.3,1.791c.275,1.268.634,2.516.914,3.779a20.509,20.509,0,0,1,.407,2.3c.1.9-.015,1.829.13,2.7.208,1.288.354,2.575.5,3.867.087.774.179,1.549.285,2.318.15,1.089.242,2.188.305,3.281.087,1.365.121,2.73.155,4.09a9.053,9.053,0,0,1-.474,4.234,4.018,4.018,0,0,0-.17.823,6.3,6.3,0,0,1,.45-.479,11.759,11.759,0,0,0,1.694-2.444c1-1.365,2.086-2.671,3.006-4.1.6-.934,1.321-1.805,1.877-2.768,1.336-2.284,2.831-4.467,4.177-6.742.822-1.389,1.7-2.744,2.449-4.171,1.906-3.659,3.494-7.468,5.362-11.146a57.138,57.138,0,0,0,3.1-7.656,88.932,88.932,0,0,0,2.671-10.187c.354-1.679.958-3.286,1.37-4.941.464-1.9.76-3.847,1.263-5.735.707-2.671,1.607-5.294,2.284-7.971.692-2.734,1.447-5.454,1.868-8.251a39.03,39.03,0,0,0,.407-3.91c.121-2.589-.237-5.2.314-7.884-.532.32-.968.629-1.442.857a.878.878,0,0,0-.508.576,7.158,7.158,0,0,1-.658,1.476C2377.742,7776.761,2377.2,7777.477,2376.687,7778.218Zm-27.294-2.865c-1.38.934-2.957,1.485-4.4,2.327a7.451,7.451,0,0,1,2.942-.208,9.065,9.065,0,0,0,1.268.126,8.789,8.789,0,0,0,3.944-.934,40.118,40.118,0,0,0,6.059-3.387,9.8,9.8,0,0,0,2.057-1.53c-1.108.508-2.095.954-3.078,1.409a15.18,15.18,0,0,1-6.819,1.674A3.248,3.248,0,0,0,2349.393,7775.353Zm-2.58,62.753c-.552-2.424-1.094-4.863-1.839-7.239a29.933,29.933,0,0,0-4.384-9.205,14.46,14.46,0,0,1-2.2-4.54c-.5-1.635-1.045-3.252-1.659-4.839-.76-1.96-1.675-3.862-2.483-5.8-.915-2.2-1.733-4.442-2.681-6.625-.794-1.829-1.491-3.7-2.26-5.541-.721-1.713-1.365-3.46-2.135-5.164-.808-1.786-1.645-3.552-2.579-5.275a63.883,63.883,0,0,0-4-6.078,11.636,11.636,0,0,0-3.059-3.282,9.576,9.576,0,0,1-2.8-2.71c-.048-.072-.1-.169-.227-.164a.7.7,0,0,0,.14.648,1.724,1.724,0,0,1,.464,1.07c.073.295.175.585.223.881.131.808.47,1.568.629,2.376a3.954,3.954,0,0,1,.092.827,13.448,13.448,0,0,0,.349,2.033,29.051,29.051,0,0,1,.488,3.276c.068,1.254-.106,2.522-.125,3.78-.029,2.192.092,4.389.174,6.582.034,1.035.261,2.052.348,3.078a58.97,58.97,0,0,0,1.317,7.118c.387,1.839.774,3.679,1.108,5.522.45,2.468.948,4.922,1.6,7.347.479,1.771,1.055,3.518,1.476,5.3.595,2.512,1.437,4.941,2.274,7.375.426,1.239,1,2.42,1.443,3.654.653,1.834,1.35,3.644,2.158,5.42a33.524,33.524,0,0,0,3.383,6.442c.9,1.2,1.486,2.6,2.294,3.857,1.171,1.82,2.366,3.62,3.658,5.362,1.065,1.433,2.052,2.918,3.214,4.288a27.553,27.553,0,0,1,2.386,3.247,6.549,6.549,0,0,0,2.666,2.58c.165.077.378.179.484.058.383-.436,1.007-.726,1.012-1.4a4.115,4.115,0,0,1,.276-1.331,9.19,9.19,0,0,0,.4-1.321,11.511,11.511,0,0,0,.17-1.994c0-1.292-.126-2.589-.058-3.886a38.113,38.113,0,0,0-.315-3.968c-.077-1.278-.421-2.526-.5-3.8-.015-.179-.02-.363-.02-.547.005-.978-.459-1.892-.4-2.851A15.971,15.971,0,0,0,2346.813,7838.106Zm-2.115-60.924c.779-.29,1.365-.813,2.1-1.036a7.661,7.661,0,0,0,1.694-.924,4.57,4.57,0,0,1,2.424-.968,15.943,15.943,0,0,0,5.091-.818,22.377,22.377,0,0,0,2.836-1.244c-.309-.082-.556-.111-.793-.169-.968-.237-1.868-.711-2.836-.876a9.985,9.985,0,0,0-5.164.707,9.732,9.732,0,0,0-4.075,3.17A5.268,5.268,0,0,0,2344.7,7777.182Zm-.116,89.874a25.091,25.091,0,0,1,.479,3.64c.223,1.5.479,3,.721,4.5.3,1.829.576,3.668.9,5.5a23.153,23.153,0,0,0,.585,3.03c.14.45.281.45.576.1a3.151,3.151,0,0,1,3.465-1.026c.111.038.218.116.315,0s.009-.217-.02-.324c-.169-.629-.372-1.253-.5-1.892-.324-1.563-.74-3.107-.934-4.694-.223-1.815-.44-3.63-.673-5.44-.2-1.549-.416-3.092-.624-4.636a23.348,23.348,0,0,0-.561-2.962c-.47.44-.649,1.065-1.326,1.4.3.024-.083.459-.4.237a8.88,8.88,0,0,0-2.754-1.307A30.174,30.174,0,0,0,2344.582,7867.056Zm-.063-126.848a2.574,2.574,0,0,0-.1-1.558,13.99,13.99,0,0,0-1.273-2.115,11.223,11.223,0,0,1-1.481-1.95.658.658,0,0,0-.857-.368A24.226,24.226,0,0,1,2344.519,7740.208Zm.112-29.38a29.623,29.623,0,0,1,1.689,3.5,33.108,33.108,0,0,1,1.1,3.349,3.032,3.032,0,0,0,.842-3.8A8.138,8.138,0,0,0,2346,7711a9.662,9.662,0,0,1-1.413-1.316,5.632,5.632,0,0,1-.673-.973,4.415,4.415,0,0,0-2.507-2c-.169-.058-.367-.145-.469.02-.073.116.053.29.2.372a.464.464,0,0,1,.2.5c-.044.537-.078,1.069-.116,1.606-.049.654-.092,1.307-.15,1.956a14.749,14.749,0,0,0,.217,5.676,9.409,9.409,0,0,0,.523,1.065,3.363,3.363,0,0,0,2.647,2.115.481.481,0,0,1,.223.053c.45.319.576.015.716-.339a3.9,3.9,0,0,1,.247-.513,2.835,2.835,0,0,1,1.19-1.137c.388-.189.383-.344.281-.692a33.112,33.112,0,0,0-2.6-6.04c-.14-.266-.275-.59-.566-.706-.193-.078-.193-.15-.13-.276a.186.186,0,0,1,.179-.107.317.317,0,0,1,.125.029A1.4,1.4,0,0,1,2344.631,7710.828Zm-.073,10.4c.232-.175.595-.15.76-.5a15.693,15.693,0,0,0-2.1-.6,2.152,2.152,0,0,0-1.969.329,1.563,1.563,0,0,1-1.994.2c-.416-.242-.8-.537-1.229-.759-.267-.141-.479-.47-.9-.325.315.508.644.973.905,1.476a4.642,4.642,0,0,0,1.346,1.452,1.968,1.968,0,0,0,1.761.363A8.72,8.72,0,0,0,2344.558,7721.233Zm-.9,104.538c.445,1.011.871,2.032,1.335,3.121a2.616,2.616,0,0,0,0-1.065c-.184-1.2-.383-2.385-.567-3.576a46.541,46.541,0,0,1-.745-6.228c-.048-2.561-.208-5.121-.252-7.681-.048-3.2.068-6.393.2-9.587.087-2.158.1-4.317.135-6.47.02-1.505.271-3,.247-4.5-.034-1.732-.024-3.465.078-5.2a12.015,12.015,0,0,0,0-2.129,11.708,11.708,0,0,1-.009-3.833c.038-.164.053-.242-.165-.324-.595-.223-.716-.513-.329-1a20.59,20.59,0,0,0,1.694-3,22.718,22.718,0,0,1,4.336-5.58c1.394-1.331,2.9-2.531,4.269-3.891.575-.576,1.205-1.1,1.863-1.7-.5,0-.7.329-1,.479a23.186,23.186,0,0,0-4.849,3.707c-.533.475-.9,1.089-1.433,1.568a15.158,15.158,0,0,0-3.586,4.559c-.1.2-.184.416-.45.315-.3-.111-.131-.349-.082-.542.266-1.118.581-2.231.789-3.364a27.084,27.084,0,0,1,1.616-5.5c.852-2.062,1.767-4.1,2.618-6.156a35.461,35.461,0,0,1,1.573-3.194q1.169-2.157,2.27-4.346c.711-1.418,1.713-2.662,2.449-4.065a4.559,4.559,0,0,0,.624-2.512,1.252,1.252,0,0,0-.813.595,11.5,11.5,0,0,0-.663,1.452c-1.162,2.333-2.362,4.646-3.7,6.882-.562.934-1.089,1.892-1.631,2.831a17.3,17.3,0,0,0-1.133,1.965,38.315,38.315,0,0,1-3.087,6.557c-.039-.038-.083-.058-.087-.087a17.8,17.8,0,0,1-.189-5.168c.2-1.878.232-3.765.4-5.648.247-2.86.024-5.74.3-8.61.14-1.422-.155-2.86.043-4.3a19.349,19.349,0,0,1,1.675-6.359,36.582,36.582,0,0,0,2.114-4.767,16.615,16.615,0,0,0,.978-3.107c.058-.382-.082-.866.479-.924-.305-.02-.658-.213-.677.353a8.636,8.636,0,0,1-.741,2.981c-.595,1.457-1.408,2.822-1.96,4.3a2.053,2.053,0,0,1-1.2,1.258c-.189-.373.015-.687.039-1,.16-2.168-.426-4.307-.228-6.48a15.672,15.672,0,0,0-.392-3.247,18.985,18.985,0,0,0-.435-1.994,3.115,3.115,0,0,0,0,.973c.126,2.56.222,5.12.4,7.675a18.174,18.174,0,0,1-.209,5.648c-.493,2.052-.435,4.181-.851,6.257a30.782,30.782,0,0,0-.363,3.727,22.354,22.354,0,0,1-.155,3.024c-.4,1.863-.068,3.732-.257,5.59-.13,1.258.054,2.541.015,3.809-.053,1.684-.015,3.368-.17,5.052s-.271,3.344-.382,5.019c-.029.416-.251.817-.1,1.238a1.086,1.086,0,0,1-.193,1.08,1.41,1.41,0,0,1-.392-.7c-.421-1.35-.77-2.734-1.258-4.06-.726-1.96-1.549-3.882-2.265-5.846-1.288-3.553-2.686-7.056-4.283-10.483a.828.828,0,0,0-.9-.59.731.731,0,0,0,.039.188c1.045,1.81,1.36,3.9,2.246,5.779.372.784.605,1.64.934,2.449.537,1.321,1.166,2.613,1.635,3.958.291.833.368,1.743.668,2.589.644,1.83,1.312,3.654,1.772,5.537.314,1.307,1.025,2.516.648,4a6.8,6.8,0,0,0-.194,2.5c.02.16.165.523-.188.567-.315.038-.2-.31-.315-.465a2.37,2.37,0,0,0-.2-.281,11.329,11.329,0,0,1-.905-1.33c-1.2-1.97-1.975-4.167-3.247-6.1a18.111,18.111,0,0,0-2.13-2.575c-.116-.116-.319-.319-.493-.116s.062.319.183.469c.634.813,1.23,1.656,1.878,2.459.983,1.234,1.147,2.875,2.086,4.138a32.938,32.938,0,0,1,1.742,3.6c.3.538.416,1.162.765,1.7.227.349.063.842.058,1.273,0,1.065.063,2.129.073,3.194,0,.494-.117.992-.073,1.481a21.235,21.235,0,0,1,.077,2.594,42.042,42.042,0,0,0-.261,5.735,3.621,3.621,0,0,1,.034.769c-.111,1.041-.189,2.086-.208,3.126-.034,1.588-.044,3.175-.126,4.758-.073,1.451-.058,2.9-.136,4.35-.1,1.844-.217,3.683-.183,5.527.019,1.041.135,2.086.2,3.126.121,1.9.193,3.809.382,5.706a3.765,3.765,0,0,0,.774,2.372A12.96,12.96,0,0,1,2343.663,7825.771Zm-30.2-28.786c-.353-2.536.121-5.072.005-7.607-.111-2.459,0-4.922.121-7.376.044-.9.266-1.786.363-2.681a24.962,24.962,0,0,0,.082-7.283,3.577,3.577,0,0,0-.45-1.472c-.145-.208-.053-.28.083-.411.44-.435.406-.387.755.155a9.76,9.76,0,0,0,2.961,3.417,12.238,12.238,0,0,1,3.746,3.833c.673,1,1.394,1.955,2.076,2.947a42.315,42.315,0,0,1,3.122,5.488q1.582,3.252,2.966,6.6c.944,2.275,1.825,4.573,2.749,6.858,1,2.482,1.98,4.975,3.035,7.438.571,1.336,1.18,2.666,1.742,4.007a38.63,38.63,0,0,1,2.09,5.894,19.063,19.063,0,0,0,1.215,2.769c-.29-2.643-.213-5.3-.5-7.937a16.8,16.8,0,0,1,.038-3.112c.092-1.263-.043-2.545.073-3.8.136-1.471.1-2.942.2-4.409.174-2.419.252-4.854.252-7.264.005-2.777.411-5.526.329-8.3-.058-2.072-.044-4.138-.077-6.209a4.395,4.395,0,0,0-.7-1.747,41.892,41.892,0,0,0-2.178-4.429,20.194,20.194,0,0,1-1.084-2.473,10.219,10.219,0,0,0-1.462-2.192c-.217-.271-.4-.223-.629-.024a4.084,4.084,0,0,0-1.316,4.152c.039.2.082.4-.116.528s-.3-.087-.426-.184c-1.447-1.026-1.534-2.541-1.433-4.09.039-.566.513-.972.8-1.442a1.779,1.779,0,0,0,.338-.59c-1.311.072-2.255-.7-3.257-1.326-.493-.31-1.069-.426-1.543-.77a4.632,4.632,0,0,1-1.423-1.553,49.438,49.438,0,0,0-4.167-6.684c-.329-.421-.682-.827-1-1.258-.087-.116-.261-.276-.1-.45a.408.408,0,0,1,.475-.087,13.273,13.273,0,0,1,3.779,2.076,6.346,6.346,0,0,0,.954.644,22.364,22.364,0,0,0-1.868-3.335,2.625,2.625,0,0,1-.208-.406c-.058-.107-.1-.194.009-.31a.257.257,0,0,1,.363-.039,1.58,1.58,0,0,1,.392.33,28.945,28.945,0,0,0,3.446,3.378,10.176,10.176,0,0,0-.5-1.8c-.194-.9-.276-1.824-.412-2.734a5.806,5.806,0,0,0-.808-2.067c-.1-.164-.315-.367-.048-.551s.421.048.575.222a19.029,19.029,0,0,1,2.328,3.543,7.118,7.118,0,0,0,2.468,2.308,8.138,8.138,0,0,1,3.5,5.222,7.339,7.339,0,0,1,.227,2.822c-.048.246.106.271.271.188,1.137-.566,1.892.266,2.734.741a.263.263,0,0,1,.126.13c.034.088-.029.179-.193.228a.887.887,0,0,1-.276.029c-.523-.019-.915.063-1.084.692-.15.542-.775.61-1.234.852a21.847,21.847,0,0,0,1.466,1.814,52.522,52.522,0,0,1,2.788,5.217,9.408,9.408,0,0,1,.963,1.839.287.287,0,0,0,.213.16c.111,0,.116-.126.135-.222.155-.726.034-1.467.131-2.188a4.89,4.89,0,0,0-.358-2.115c-.509-1.65-1.007-3.3-1.51-4.96-.155-.513-.31-1.021-.47-1.53-.822-2.623-1.727-5.216-2.8-7.757a31.46,31.46,0,0,1-1.868-5.058,3.21,3.21,0,0,0-.62-1.263c-.28,1.351-1.5,1.757-2.424,2.473a2.938,2.938,0,0,1,1.05-4.123,14.278,14.278,0,0,1-4.709-2.129,7.622,7.622,0,0,1-2.071-2.13c-.818-1.142-1.612-2.3-2.338-3.5a5.063,5.063,0,0,1-.7-1.422c-.034-.146-.165-.3,0-.426a.4.4,0,0,1,.44,0,2.267,2.267,0,0,1,.537.329.84.84,0,0,0,.644.213,3.036,3.036,0,0,1,2.458,1.132,6.883,6.883,0,0,0,1.6,1.021,13.315,13.315,0,0,0-.668-2.942c-.324-1.031-1.069-1.878-1.35-2.938-.043-.154-.14-.285.053-.4a.287.287,0,0,1,.412.077,7.645,7.645,0,0,0,2.744,2.125,5.254,5.254,0,0,1,2.163,2,9.1,9.1,0,0,0-.005-1.1,16.153,16.153,0,0,1,.184-2.643c.01-.2.019-.445.285-.518.281-.077.407.117.533.329.368.62.731,1.235,1.069,1.864a16.724,16.724,0,0,1,1.031,2.284c.121.344.228.692.32,1.05.295,1.171.479,2.357.721,3.533a11.511,11.511,0,0,1-.083,2.183c1.264-.378,2.212.421,3.238.929.189.092.716-.015.561.459s-.542.17-.793.1a1.666,1.666,0,0,0-1.418.237,8.232,8.232,0,0,1-1.733.586c-.416.16-.527.339-.3.716a53.626,53.626,0,0,1,2.468,5.522c.871,1.858,1.481,3.847,2.2,5.783a40.834,40.834,0,0,0,1.714,4.225,20.269,20.269,0,0,1,.938,3.025c.059.179.107.358.2.692a6.8,6.8,0,0,0,.184-2.076c0-.712.135-1.4.188-2.1.107-1.248.131-2.492.16-3.746.039-1.51.092-3.024.048-4.539a12.22,12.22,0,0,1,.117-2.226,3.344,3.344,0,0,0-.01-1.1,9.932,9.932,0,0,1,.058-2.981c.155-1.3.165-2.613.3-3.91.106-1,.189-1.994.256-2.991.02-.252.136-.653-.116-.726-.309-.092-.5.256-.672.523a11.166,11.166,0,0,1-1.152,1.848,2.345,2.345,0,0,1-2.86.436,4.978,4.978,0,0,1-1.747-1.96,35.188,35.188,0,0,1-1.873-3.538,1.217,1.217,0,0,1-.068-.2.283.283,0,0,1,.14-.3.369.369,0,0,1,.208-.068.471.471,0,0,1,.315.15,3.459,3.459,0,0,0,2.5.765c1.2.034,2.41-.073,3.615-.121a1.43,1.43,0,0,1,.987.237c.092.073.218.145.315.073.145-.112.01-.237-.039-.358a17.1,17.1,0,0,0-1.931-3.4c-.222-.309-.45-.624-.682-.953a.668.668,0,0,0-.107.484.791.791,0,0,1-.566.765,6.421,6.421,0,0,1-.982.338,3.186,3.186,0,0,0-1.863,1.322c-.175.208-.315.513-.62.367a.267.267,0,0,1-.111-.092c-.082-.145.038-.353.082-.527.14-.629.01-.813-.639-.808-.46,0-.919.053-1.379.1a.324.324,0,0,1-.378-.194.314.314,0,0,1-.014-.048c-.029-.165.111-.242.242-.291a1.709,1.709,0,0,0,.6-.508c-1.452-.523-1.974-1.878-2.85-2.9a19.36,19.36,0,0,1-3.475-7.153,12.6,12.6,0,0,1-.223-4.055c.015-.508.387-.653.905-.479a27.794,27.794,0,0,1,5.135,2.734c.532.32,1.152.479,1.7.789a12.568,12.568,0,0,1,3.678,3.223,4.8,4.8,0,0,1,.842,2.357c.025.145-.048.314.112.455a2.8,2.8,0,0,0,1.321-1.975,6.482,6.482,0,0,0,.169-.958c.02-.189.063-.3.262-.29s.193.179.184.3a4.919,4.919,0,0,0,.4,1.887,3.325,3.325,0,0,1,.17,1.128c-.049.653-.441,1.108-1.283,1.568a4,4,0,0,0-.943.721,25.555,25.555,0,0,1,3.32,4.612,16.64,16.64,0,0,0,.44-2.744,12.722,12.722,0,0,0,.227-3.185c0-.193.112-.479-.28-.488-.126,0-.1-.194-.083-.3v-.015a25.05,25.05,0,0,0-.087-5.217,26.494,26.494,0,0,0-.28-3.5c-.068-.338-.252-.682.2-1.069a2.255,2.255,0,0,0-.948.542,5.294,5.294,0,0,1-3.267,1.219,3.2,3.2,0,0,1-2.734-1.548c-.659-.823-1.065-1.825-1.786-2.609-.116-.126-.266-.334-.121-.522s.343-.16.571-.083a7.523,7.523,0,0,1,1.931.934,2.739,2.739,0,0,0,1.529.707,14.26,14.26,0,0,1-1.321-3.683,7.265,7.265,0,0,1,.334-3.905c.426-1.046.731-2.139,1.224-3.165a1.932,1.932,0,0,0,.024-1.3c-.082-.344-.024-.325.262-.7.159-.208.092-.547.048-.837-.077-.494.073-.6.552-.5a4.807,4.807,0,0,1,3.315,2.464,6.937,6.937,0,0,0,1.829,1.887,8.238,8.238,0,0,1,2.759,3.983,2.558,2.558,0,0,0,.029-.3c-.01-.189.077-.305.261-.3s.32.087.3.324a2.447,2.447,0,0,0,.363,1.437,3.136,3.136,0,0,1,.082,2.619,2.109,2.109,0,0,0-.169,1.03c-.005.01-.014.015-.019.025s-.005.014-.01.024c-.213.058-.2.28-.281.426a1.255,1.255,0,0,1-1,.7c-.8.1-1.539.464-2.356.488-.107,0-.252.029-.223.194.063.373-.063.74-.005,1.123.1.682.194,1.369.271,2.052.237,2.061.382,4.128.465,6.2a12.163,12.163,0,0,0,.063,2.265.376.376,0,0,0,.271-.257c.324-.731.634-1.471,1-2.178a13.683,13.683,0,0,0,1.694-4.486c.02-.179.136-.382-.14-.372-.954.038-1.617-.741-2.522-.838a.405.405,0,0,1-.367-.353.562.562,0,0,1,.014-.218.455.455,0,0,1,.576-.338c.571.092,1.152.15,1.728.212.44.049.556-.15.508-.585a5.632,5.632,0,0,1-.14-1.776,12.381,12.381,0,0,1,.44-2.26.07.07,0,0,1,.034-.01.1.1,0,0,1,0-.039c.678-.813,1.3-1.674,2.037-2.434a15.854,15.854,0,0,1,4.153-2.952,23.229,23.229,0,0,0,2.54-1.781c.155-.106.286-.329.552-.174.247.145.189.373.15.561a9.678,9.678,0,0,0,.044,1.834,16.8,16.8,0,0,1-.479,3.707,16.568,16.568,0,0,1-1.113,3.795,7.008,7.008,0,0,1-2.6,3.218c-.179.1-.324.232-.615.077-.319-.174-.609.208-.91.349a.632.632,0,0,0-.445.76,9.724,9.724,0,0,1,.329,2.894c-.024.15-.048.3-.063.45a.274.274,0,0,1-.246.276.277.277,0,0,1-.344-.228,4.4,4.4,0,0,0-1.123-1.849,6.759,6.759,0,0,1-.7-1.519,14.736,14.736,0,0,0-.7,2.032,42.879,42.879,0,0,1-1.767,4.637,16.4,16.4,0,0,0-1.326,2.758,18.316,18.316,0,0,0-.856,3.731,35.234,35.234,0,0,0-.242,4.172c-.01,2.057-.034,4.114-.136,6.17-.106,2.072-.164,4.148-.285,6.224a46.466,46.466,0,0,0-.291,6.3c.01.068.025.136.049.31a4.742,4.742,0,0,0,.551-1.06,54.175,54.175,0,0,1,3.616-7.279,64.524,64.524,0,0,0,4.041-7.375c.266-.629.716-1.171.987-1.81a1.061,1.061,0,0,0,.169-.624,3.348,3.348,0,0,1-1.8-.141,10.548,10.548,0,0,0-2.623-.392,5.511,5.511,0,0,1-1.612-.368.544.544,0,0,1-.392-.377c-.014-.15.2-.2.368-.256.5-.17.741-.644,1.041-1.036a37.085,37.085,0,0,1,2.937-3.9,1.894,1.894,0,0,1,1.3-.716c-.111-.29-.339-.334-.537-.411a22.012,22.012,0,0,1-3.455-1.946c-.17-.1-.421-.271-.31-.493.131-.262.411-.112.614-.054a9.343,9.343,0,0,0,2.735.392,5.764,5.764,0,0,1,1.529.339,19.833,19.833,0,0,1-.886-2.425,6.3,6.3,0,0,1-.13-3.053c.024-.155.053-.31.082-.465.14-.774.286-1.544.455-2.308.058-.242.044-.567.373-.668s.387.237.571.368c.953.672,1.8,1.476,2.705,2.211.59.479.919,1.171,1.563,1.723a14.48,14.48,0,0,0,.523-3.276,14.771,14.771,0,0,0-.165-2.575c-.024-.14-.135-.372.116-.445a.4.4,0,0,1,.48.232,16.318,16.318,0,0,1,.8,1.912,11.44,11.44,0,0,1,.421,4.568,12.553,12.553,0,0,1,2.836-2.845,4.146,4.146,0,0,0,1.447-1.568.242.242,0,0,1,.281-.16.444.444,0,0,1,.343.353c.291,1.438.6,2.875.8,4.332.126.885.377,1.752.455,2.652a4.551,4.551,0,0,1-.068.735c-.044.731-.063.77.668.692a7.86,7.86,0,0,0,2.628-.871,7.656,7.656,0,0,0,1.834-1.026.348.348,0,0,1,.556.039c-1.408,1.07-1.824,3.078-3.673,3.833a3.82,3.82,0,0,1,2.488,1.481,11.449,11.449,0,0,0,2.265,2.1,1.683,1.683,0,0,0,1,.412.374.374,0,0,1,.392.455.273.273,0,0,1-.392.222c-1.321-.406-2.526.16-3.774.416-1.3.267-2.527.78-3.882,1.089.368.47.7.939,1.08,1.365a9.512,9.512,0,0,1,1.243,2.1c.049.1.078.252.16.3.266.154.15.362.034.474-.15.14-.349.082-.518-.063-.658-.557-1.316-1.108-1.984-1.646a4.492,4.492,0,0,0-.808-.546c-.741-.373-1.017-.247-1.036.542a11.153,11.153,0,0,1-.9,3.329,3.615,3.615,0,0,0-.208.765.387.387,0,0,1-.286.334c-.184.053-.285-.073-.382-.2-.155-.217-.31-.44-.465-.658a2.83,2.83,0,0,0-1.553-1.215,5.247,5.247,0,0,1-3.819-3.416,1.823,1.823,0,0,0-.406,1.04,11.313,11.313,0,0,1-1.892,3.5c-.1.141-.194.189-.329.112a.3.3,0,0,1-.131-.4q.2-.575.377-1.147a1.89,1.89,0,0,0,.054-.9c-.092.068-.2.112-.238.189-.837,1.742-2.047,3.272-2.869,5.024a52.2,52.2,0,0,1-2.618,4.9,12.581,12.581,0,0,0-.6,1.554c-.223.537-.465,1.064-.7,1.592s-.47,1.064-.678,1.6a61.011,61.011,0,0,0-2.482,7.133c-.179.692-.257,1.408-.407,2.25,2.812-3.116,5.551-6.092,9.176-8.2a8.878,8.878,0,0,0-1.8-.406,5.033,5.033,0,0,1-2.328-1.786.447.447,0,0,1-.15-.373c.034-.121.184-.193.431-.2a1.62,1.62,0,0,1,.687.044,3.449,3.449,0,0,0,2.216.063,4.685,4.685,0,0,1,2.822,0,16.772,16.772,0,0,1,.15-1.945c.358-1.365,1.461-1.863,2.579-2.328a8.425,8.425,0,0,1,3.5-.469,8.023,8.023,0,0,0,2.947-.189,10.847,10.847,0,0,0,3.262-1.67,2.871,2.871,0,0,0,.7-1.471c.058-.164-.024-.45.29-.377.3.067.368.271.324.571a13.554,13.554,0,0,0-.522,2.081c.329.029.542-.223.808-.334a6.776,6.776,0,0,0,2.284-1.041.3.3,0,0,1,.489.116.343.343,0,0,1-.2.518c-.886.4-1.38,1.239-2.2,1.834a.655.655,0,0,0,.522-.15,1.769,1.769,0,0,1,2.183.281.394.394,0,0,1-.126.716,2.355,2.355,0,0,1-.716.189,4.174,4.174,0,0,0-3.262,1.829c-.44.538-1.026.964-1.505,1.477-.939,1.011-1.839,2.056-2.778,3.063a6.453,6.453,0,0,1-2.3,1.737,3.923,3.923,0,0,1-2.981-.019,4.575,4.575,0,0,1-1.786-1.278c-.019-.024-.038-.043-.058-.067-.135-.17-.179-.291-.072-.431.155-.208.251.034.368.092a1.475,1.475,0,0,1,.154.087c.717.445.852.455,1.506-.073a19.5,19.5,0,0,1,2.579-1.911,8.758,8.758,0,0,1,.929-.426.334.334,0,0,1,.445.169c.121.213-.092.286-.208.324a11.241,11.241,0,0,0-3.1,1.83,6.214,6.214,0,0,1-.857.46c.247.145.615.188.46.624-.058.174.136.135.233.16a3.542,3.542,0,0,0,3.257-.862c1.263-1.045,2.255-2.352,3.407-3.509a41.079,41.079,0,0,1,3.126-3.111.923.923,0,0,0,.135-.194,8.877,8.877,0,0,0-1.732.8.664.664,0,0,1-.474.111c-.15-.044-.276-.078-.1-.344.387-.566,1.06-.643,1.529-1.069.513-.474.944-1.012,1.529-1.592a2.148,2.148,0,0,0-1.413.667,7.341,7.341,0,0,0-1.553,1.52c-.233.373-.441-.019-.61-.1.271-.871,1.355-1.156,1.466-2.216a1.753,1.753,0,0,0-1.161.919,17.924,17.924,0,0,1-1.128,1.936,12.5,12.5,0,0,1-1.587,1.723,13.7,13.7,0,0,1,1.994-.537.4.4,0,0,1,.44.126c.073.077.14.135.111.242-.043.145-.154.043-.232.062-.948.194-1.892.383-2.836.6a5.013,5.013,0,0,0-1.766.939,10.349,10.349,0,0,1-3.983,1.868,3.858,3.858,0,0,1-1.1.262c-.227-.015-.29.14-.29.343a.72.72,0,0,0,.223.513c.067.073.13.141.193.213a7.132,7.132,0,0,1,1.1,1.679,2.938,2.938,0,0,1,.145,2.231,2.058,2.058,0,0,0-.111.267c-.112.692-.107.7-.765.4-.866-.387-1.04-.614-.973-1.6a4.1,4.1,0,0,0-1.219-2.889c-.17-.213-.315-.048-.479.073a27.724,27.724,0,0,0-2.686,2.483c-.489.474-1.05.861-1.534,1.335-1.723,1.694-3.557,3.291-4.719,5.5a9.148,9.148,0,0,0,.745-.557,8.237,8.237,0,0,1,3.964-1.848,10.555,10.555,0,0,1,3.823-.271,6.8,6.8,0,0,1,1.791.609,5.254,5.254,0,0,0,5.251-.629c.217-.14.45-.329.663-.092.242.271,0,.489-.194.688a17.64,17.64,0,0,1-3.388,2.821,51.9,51.9,0,0,1-4.747,2.734,10.531,10.531,0,0,1-5.309,1.539,10.978,10.978,0,0,1-1.384-.14,6.431,6.431,0,0,0-3.112.29c-.232.068-.256.262-.29.45a10.764,10.764,0,0,0,.067,2.846,11.053,11.053,0,0,1,.058,1.2c-.053,1.713-.135,3.426-.188,5.14-.024.861.043,1.727-.01,2.589-.106,1.79-.237,3.581-.189,5.376.029,1.3-.092,2.594-.14,3.9-.073,1.9-.058,3.8-.179,5.706-.111,1.839-.107,3.683-.068,5.517.034,1.573.174,3.146.213,4.719.048,1.795.044,3.6.237,5.381.17,1.573.383,3.155.649,4.709.314,1.815.532,3.644.856,5.454.049.276.252.518.073.852.232-.068.31-.174.329-.334a26.562,26.562,0,0,1,1.253-4.578c.625-1.936,1.472-3.809,2.193-5.716a119.67,119.67,0,0,1,5.188-11.019c.348-.7.595-1.452.88-2.183.509-1.326,1.312-2.512,1.815-3.847a55.436,55.436,0,0,1,2.715-5.488c1.438-2.827,3.122-5.517,4.588-8.329a50.585,50.585,0,0,1,3.572-6.04c.711-.992,1.277-2.081,2.018-3.063a32.509,32.509,0,0,1,3.692-4.094,20.015,20.015,0,0,0,1.52-1.728,7.737,7.737,0,0,1,3.179-2.289,4.87,4.87,0,0,0,1.893-1.259.444.444,0,0,1,.576-.106c.232.126.174.329.145.508a13.965,13.965,0,0,0-.329,2.2c-.015,1.3,0,2.609-.049,3.915-.048,1.409-.087,2.817-.247,4.22a52.786,52.786,0,0,1-1.142,6.33q-.813,3.318-1.732,6.6c-.479,1.727-1.075,3.421-1.539,5.149-.213.794-.291,1.621-.508,2.415-.562,2.1-.9,4.259-1.631,6.315-.431,1.215-.5,2.522-.847,3.756-.47,1.679-.929,3.373-1.3,5.067-.774,3.513-2.313,6.727-3.615,10.027-.552,1.4-1.355,2.71-2,4.075-.629,1.316-1.18,2.667-1.81,3.978-.788,1.665-1.553,3.344-2.458,4.946-1.447,2.565-3.03,5.053-4.622,7.53-1.016,1.578-1.96,3.2-3.015,4.748q-1.734,2.542-3.654,4.956c-.106.135-.2.285-.29.43a7.786,7.786,0,0,1-1.345,1.849c-.717.619-.76.774-.552,1.7.8,3.547,1.089,7.167,1.592,10.758a58.006,58.006,0,0,0,1.81,8.837,20.518,20.518,0,0,1,.479,2.628c.1.576-.29.938-.663,1.258a3.407,3.407,0,0,1-4.026.271,1.647,1.647,0,0,1-.813-1.074c-.16-1.235-.7-2.367-.891-3.6-.251-1.636-.561-3.267-.793-4.912-.257-1.844-.644-3.668-.838-5.522-.271-2.618-.847-5.183-1.335-7.763a1.473,1.473,0,0,0-.944-1.292,9.235,9.235,0,0,1-3.272-2.134,24.55,24.55,0,0,1-2.444-2.986c-1.781-2.512-3.324-5.183-5.2-7.627-.7-.919-1.549-1.713-2.246-2.642a30.7,30.7,0,0,1-2.613-4.075,104.054,104.054,0,0,1-4.8-9.911c-1.152-2.885-1.994-5.9-3.044-8.818-.832-2.3-1.466-4.646-2.067-7.013-.309-1.205-.774-2.371-1.05-3.6-.392-1.742-.547-3.528-.885-5.28-.5-2.584-.847-5.193-1.167-7.8C2313.474,7799.347,2313.624,7798.152,2313.459,7796.985Z"/>
            </g>
          </g>
        </g>
      </g>
    </g>
  </g>
</svg>
