<svg xmlns="http://www.w3.org/2000/svg" width="99.895" height="99.895" viewBox="0 0 99.895 99.895">
  <g id="Сгруппировать_1950" data-name="Сгруппировать 1950" transform="translate(-1646.038 -8062.969)">
    <circle id="Эллипс_76" data-name="Эллипс 76" cx="49.947" cy="49.947" r="49.947" transform="translate(1646.038 8062.969)" fill="#49ac6a" opacity="0.48"/>
    <g id="Сгруппировать_1949" data-name="Сгруппировать 1949">
      <g id="Сгруппировать_1948" data-name="Сгруппировать 1948">
        <g id="Сгруппировать_1895" data-name="Сгруппировать 1895">
          <g id="Сгруппировать_1892" data-name="Сгруппировать 1892">
            <path id="Контур_17417" data-name="Контур 17417" d="M1684.313,8087.851l11.272,20.716c3.615-1.967,4.788-6.791,1.676-12.511S1687.928,8085.884,1684.313,8087.851Z" fill="#251a1b"/>
            <path id="Контур_17418" data-name="Контур 17418" d="M1684.169,8103.18c3.113,5.72,7.8,7.354,11.416,5.387l-11.272-20.716C1680.7,8089.819,1681.056,8097.459,1684.169,8103.18Z" fill="#1b1815"/>
          </g>
          <g id="Сгруппировать_1893" data-name="Сгруппировать 1893">
            <path id="Контур_17419" data-name="Контур 17419" d="M1692.458,8107.557c.28.515,1.4.448,2.495-.15l-1.014-1.864C1692.841,8106.14,1692.177,8107.042,1692.458,8107.557Z" fill="#6a4f3f"/>
            <path id="Контур_17420" data-name="Контур 17420" d="M1693.939,8105.543l1.014,1.864c1.1-.6,1.762-1.5,1.482-2.014S1695.038,8104.945,1693.939,8105.543Z" fill="#785745"/>
          </g>
          <g id="Сгруппировать_1894" data-name="Сгруппировать 1894">
            <path id="Контур_17421" data-name="Контур 17421" d="M1692.864,8107.417c.228.418,1.136.364,2.029-.122l-.825-1.515C1693.176,8106.266,1692.636,8107,1692.864,8107.417Z" fill="#1b1815"/>
            <path id="Контур_17422" data-name="Контур 17422" d="M1694.068,8105.78l.825,1.515c.892-.486,1.431-1.219,1.2-1.637S1694.96,8105.295,1694.068,8105.78Z" fill="#251a1b"/>
          </g>
        </g>
        <g id="Сгруппировать_1899" data-name="Сгруппировать 1899">
          <g id="Сгруппировать_1896" data-name="Сгруппировать 1896">
            <path id="Контур_17423" data-name="Контур 17423" d="M1682.423,8124.621l11.272,20.716c3.615-1.968,4.789-6.791,1.676-12.511S1686.038,8122.654,1682.423,8124.621Z" fill="#251a1b"/>
            <path id="Контур_17424" data-name="Контур 17424" d="M1682.279,8139.95c3.113,5.72,7.8,7.354,11.416,5.387l-11.272-20.716C1678.807,8126.589,1679.166,8134.229,1682.279,8139.95Z" fill="#1b1815"/>
          </g>
          <g id="Сгруппировать_1897" data-name="Сгруппировать 1897">
            <path id="Контур_17425" data-name="Контур 17425" d="M1690.568,8144.327c.28.515,1.4.448,2.495-.15l-1.014-1.864C1690.951,8142.91,1690.287,8143.812,1690.568,8144.327Z" fill="#6a4f3f"/>
            <path id="Контур_17426" data-name="Контур 17426" d="M1692.049,8142.313l1.014,1.864c1.1-.6,1.762-1.5,1.482-2.014S1693.148,8141.715,1692.049,8142.313Z" fill="#785745"/>
          </g>
          <g id="Сгруппировать_1898" data-name="Сгруппировать 1898">
            <path id="Контур_17427" data-name="Контур 17427" d="M1690.974,8144.187c.228.417,1.136.364,2.029-.122l-.825-1.515C1691.286,8143.035,1690.746,8143.768,1690.974,8144.187Z" fill="#1b1815"/>
            <path id="Контур_17428" data-name="Контур 17428" d="M1692.178,8142.55l.825,1.515c.892-.486,1.431-1.219,1.2-1.637S1693.071,8142.064,1692.178,8142.55Z" fill="#251a1b"/>
          </g>
        </g>
        <path id="Контур_17429" data-name="Контур 17429" d="M1694.828,8063.477l2.749-.229,1.031,24.055s12.371,4.868,16.667,17.7l-.744.4s-4.926-13.631-16.954-17.067c0,0-4.3,3.608-3.264,33.5l-.687.172s-2.578-24.227,2.577-35.224l-.687-9.278s-12.2,4.983-13.574,18.385l-.859-.172s1.031-13.918,14.261-20.619Z" fill="#7f7724"/>
        <path id="Контур_17430" data-name="Контур 17430" d="M1708.574,8094.863a31.862,31.862,0,0,1,14.089,3.608l-.171.859s-6.186-3.78-12.715-2.921Z" fill="#7f7724"/>
        <g id="Сгруппировать_1903" data-name="Сгруппировать 1903">
          <g id="Сгруппировать_1900" data-name="Сгруппировать 1900">
            <path id="Контур_17431" data-name="Контур 17431" d="M1698.533,8120.5l11.481,22.948c4.005-2,5.462-7.205,2.292-13.541S1702.538,8118.5,1698.533,8120.5Z" fill="#422028"/>
            <path id="Контур_17432" data-name="Контур 17432" d="M1697.8,8137.164c3.17,6.336,8.206,8.288,12.211,6.285l-11.481-22.948C1694.528,8122.5,1694.632,8130.827,1697.8,8137.164Z" fill="#311b1d"/>
          </g>
          <g id="Сгруппировать_1901" data-name="Сгруппировать 1901">
            <path id="Контур_17433" data-name="Контур 17433" d="M1706.652,8142.234c.285.57,1.5.539,2.719-.069l-1.033-2.066C1707.121,8140.708,1706.367,8141.664,1706.652,8142.234Z" fill="#6a4f3f"/>
            <path id="Контур_17434" data-name="Контур 17434" d="M1708.338,8140.1l1.033,2.066c1.217-.609,1.972-1.565,1.687-2.135S1709.554,8139.491,1708.338,8140.1Z" fill="#785745"/>
          </g>
          <g id="Сгруппировать_1902" data-name="Сгруппировать 1902">
            <path id="Контур_17435" data-name="Контур 17435" d="M1707.1,8142.1c.231.464,1.22.439,2.209-.056l-.839-1.678C1707.481,8140.856,1706.867,8141.633,1707.1,8142.1Z" fill="#281a1b"/>
            <path id="Контур_17436" data-name="Контур 17436" d="M1708.469,8140.362l.839,1.678c.989-.5,1.6-1.272,1.371-1.735S1709.458,8139.867,1708.469,8140.362Z" fill="#311b1d"/>
          </g>
        </g>
        <g id="Сгруппировать_1907" data-name="Сгруппировать 1907">
          <g id="Сгруппировать_1904" data-name="Сгруппировать 1904">
            <path id="Контур_17437" data-name="Контур 17437" d="M1682,8129.6l8.127,24.338c4.247-1.418,6.424-6.361,4.18-13.082S1686.244,8128.182,1682,8129.6Z" fill="#422028"/>
            <path id="Контур_17438" data-name="Контур 17438" d="M1678.922,8145.992c2.244,6.721,6.955,9.364,11.2,7.946L1682,8129.6C1677.749,8131.018,1676.678,8139.271,1678.922,8145.992Z" fill="#311b1d"/>
          </g>
          <g id="Сгруппировать_1905" data-name="Сгруппировать 1905">
            <path id="Контур_17439" data-name="Контур 17439" d="M1686.967,8152.261c.2.6,1.411.746,2.7.315l-.732-2.191C1687.647,8150.816,1686.765,8151.656,1686.967,8152.261Z" fill="#6a4f3f"/>
            <path id="Контур_17440" data-name="Контур 17440" d="M1688.937,8150.385l.732,2.191c1.29-.431,2.172-1.271,1.97-1.875S1690.228,8149.955,1688.937,8150.385Z" fill="#785745"/>
          </g>
          <g id="Сгруппировать_1906" data-name="Сгруппировать 1906">
            <path id="Контур_17441" data-name="Контур 17441" d="M1687.429,8152.187c.164.492,1.147.607,2.2.256l-.595-1.779C1687.982,8151.014,1687.265,8151.7,1687.429,8152.187Z" fill="#281a1b"/>
            <path id="Контур_17442" data-name="Контур 17442" d="M1689.03,8150.664l.595,1.779c1.048-.349,1.765-1.032,1.6-1.524S1690.079,8150.314,1689.03,8150.664Z" fill="#311b1d"/>
          </g>
        </g>
        <g id="Сгруппировать_1911" data-name="Сгруппировать 1911">
          <g id="Сгруппировать_1908" data-name="Сгруппировать 1908">
            <path id="Контур_17443" data-name="Контур 17443" d="M1721.9,8101.486l11.481,22.948c4-2,5.461-7.205,2.292-13.541S1725.906,8099.483,1721.9,8101.486Z" fill="#422028"/>
            <path id="Контур_17444" data-name="Контур 17444" d="M1721.171,8118.149c3.17,6.336,8.2,8.288,12.211,6.285l-11.481-22.948C1717.9,8103.49,1718,8111.811,1721.171,8118.149Z" fill="#311b1d"/>
          </g>
          <g id="Сгруппировать_1909" data-name="Сгруппировать 1909">
            <path id="Контур_17445" data-name="Контур 17445" d="M1730.019,8123.219c.286.57,1.5.539,2.72-.07l-1.033-2.065C1730.489,8121.693,1729.734,8122.649,1730.019,8123.219Z" fill="#6a4f3f"/>
            <path id="Контур_17446" data-name="Контур 17446" d="M1731.706,8121.084l1.033,2.065c1.216-.608,1.971-1.564,1.686-2.134S1732.922,8120.475,1731.706,8121.084Z" fill="#785745"/>
          </g>
          <g id="Сгруппировать_1910" data-name="Сгруппировать 1910">
            <path id="Контур_17447" data-name="Контур 17447" d="M1730.466,8123.081c.232.463,1.222.438,2.21-.056l-.839-1.678C1730.848,8121.841,1730.235,8122.618,1730.466,8123.081Z" fill="#281a1b"/>
            <path id="Контур_17448" data-name="Контур 17448" d="M1731.837,8121.347l.839,1.678c.988-.5,1.6-1.271,1.37-1.735S1732.826,8120.852,1731.837,8121.347Z" fill="#311b1d"/>
          </g>
        </g>
        <g id="Сгруппировать_1915" data-name="Сгруппировать 1915">
          <g id="Сгруппировать_1912" data-name="Сгруппировать 1912">
            <path id="Контур_17449" data-name="Контур 17449" d="M1675.678,8095.695l-15.662,20.326c3.547,2.733,8.864,1.781,13.189-3.831S1679.225,8098.429,1675.678,8095.695Z" fill="#422028"/>
            <path id="Контур_17450" data-name="Контур 17450" d="M1660.359,8102.291c-4.325,5.613-3.89,11-.343,13.73l15.662-20.326C1672.13,8092.962,1664.684,8096.679,1660.359,8102.291Z" fill="#311b1d"/>
          </g>
          <g id="Сгруппировать_1913" data-name="Сгруппировать 1913">
            <path id="Контур_17451" data-name="Контур 17451" d="M1659.646,8112.465c-.389.505.169,1.588,1.247,2.418l1.409-1.829C1661.225,8112.223,1660.036,8111.96,1659.646,8112.465Z" fill="#6a4f3f"/>
            <path id="Контур_17452" data-name="Контур 17452" d="M1662.3,8113.054l-1.409,1.829c1.077.83,2.266,1.094,2.656.589S1663.38,8113.884,1662.3,8113.054Z" fill="#785745"/>
          </g>
          <g id="Сгруппировать_1914" data-name="Сгруппировать 1914">
            <path id="Контур_17453" data-name="Контур 17453" d="M1659.965,8112.808c-.316.41.137,1.29,1.013,1.964l1.145-1.485C1661.247,8112.612,1660.281,8112.4,1659.965,8112.808Z" fill="#281a1b"/>
            <path id="Контур_17454" data-name="Контур 17454" d="M1662.123,8113.287l-1.145,1.485c.875.675,1.842.889,2.158.479S1663,8113.961,1662.123,8113.287Z" fill="#311b1d"/>
          </g>
        </g>
        <g id="Сгруппировать_1919" data-name="Сгруппировать 1919">
          <g id="Сгруппировать_1916" data-name="Сгруппировать 1916">
            <path id="Контур_17455" data-name="Контур 17455" d="M1682.481,8091.259l-5.441,25.076c4.375.948,8.771-2.189,10.274-9.114S1686.857,8092.208,1682.481,8091.259Z" fill="#422028"/>
            <path id="Контур_17456" data-name="Контур 17456" d="M1671.466,8103.783c-1.5,6.924,1.2,11.6,5.574,12.552l5.441-25.076C1678.1,8090.309,1672.968,8096.858,1671.466,8103.783Z" fill="#311b1d"/>
          </g>
          <g id="Сгруппировать_1917" data-name="Сгруппировать 1917">
            <path id="Контур_17457" data-name="Контур 17457" d="M1675.182,8113.28c-.136.623.832,1.363,2.162,1.651l.489-2.257C1676.5,8112.385,1675.317,8112.657,1675.182,8113.28Z" fill="#6a4f3f"/>
            <path id="Контур_17458" data-name="Контур 17458" d="M1677.833,8112.674l-.489,2.257c1.329.288,2.516.017,2.652-.606S1679.163,8112.963,1677.833,8112.674Z" fill="#785745"/>
          </g>
          <g id="Сгруппировать_1918" data-name="Сгруппировать 1918">
            <path id="Контур_17459" data-name="Контур 17459" d="M1675.617,8113.453c-.111.506.676,1.107,1.756,1.342l.4-1.834C1676.691,8112.727,1675.726,8112.947,1675.617,8113.453Z" fill="#281a1b"/>
            <path id="Контур_17460" data-name="Контур 17460" d="M1677.771,8112.961l-.4,1.834c1.08.234,2.046.013,2.155-.493S1678.852,8113.195,1677.771,8112.961Z" fill="#311b1d"/>
          </g>
        </g>
        <g id="Сгруппировать_1923" data-name="Сгруппировать 1923">
          <g id="Сгруппировать_1920" data-name="Сгруппировать 1920">
            <path id="Контур_17461" data-name="Контур 17461" d="M1710.659,8098.819l-5.441,25.076c4.376.949,8.772-2.189,10.274-9.113S1715.035,8099.769,1710.659,8098.819Z" fill="#422028"/>
            <path id="Контур_17462" data-name="Контур 17462" d="M1699.645,8111.343c-1.5,6.924,1.2,11.6,5.573,12.552l5.441-25.076C1706.283,8097.869,1701.147,8104.418,1699.645,8111.343Z" fill="#311b1d"/>
          </g>
          <g id="Сгруппировать_1921" data-name="Сгруппировать 1921">
            <path id="Контур_17463" data-name="Контур 17463" d="M1703.36,8120.84c-.135.623.833,1.363,2.163,1.651l.489-2.257C1704.683,8119.946,1703.495,8120.218,1703.36,8120.84Z" fill="#6a4f3f"/>
            <path id="Контур_17464" data-name="Контур 17464" d="M1706.012,8120.234l-.489,2.257c1.329.288,2.516.017,2.652-.606S1707.342,8120.523,1706.012,8120.234Z" fill="#785745"/>
          </g>
          <g id="Сгруппировать_1922" data-name="Сгруппировать 1922">
            <path id="Контур_17465" data-name="Контур 17465" d="M1703.8,8121.013c-.11.506.677,1.107,1.757,1.342l.4-1.834C1704.87,8120.287,1703.905,8120.507,1703.8,8121.013Z" fill="#281a1b"/>
            <path id="Контур_17466" data-name="Контур 17466" d="M1705.95,8120.521l-.4,1.834c1.08.234,2.045.014,2.155-.493S1707.03,8120.755,1705.95,8120.521Z" fill="#311b1d"/>
          </g>
        </g>
        <g id="Сгруппировать_1927" data-name="Сгруппировать 1927">
          <g id="Сгруппировать_1924" data-name="Сгруппировать 1924">
            <path id="Контур_17467" data-name="Контур 17467" d="M1721.2,8098.152l22.318,10.465c1.826-3.9-.172-8.684-6.335-11.574S1723.029,8094.257,1721.2,8098.152Z" fill="#801d3b"/>
            <path id="Контур_17468" data-name="Контур 17468" d="M1730.573,8111.148c6.164,2.89,11.122,1.364,12.949-2.531l-22.318-10.465C1719.377,8102.047,1724.41,8108.259,1730.573,8111.148Z" fill="#571e2f"/>
          </g>
          <g id="Сгруппировать_1925" data-name="Сгруппировать 1925">
            <path id="Контур_17469" data-name="Контур 17469" d="M1740.264,8109.7c.554.26,1.453-.489,2.009-1.672l-2.009-.942C1739.709,8108.273,1739.709,8109.443,1740.264,8109.7Z" fill="#8b6f5f"/>
            <path id="Контур_17470" data-name="Контур 17470" d="M1740.264,8107.089l2.009.942c.554-1.183.554-2.353,0-2.613S1740.818,8105.906,1740.264,8107.089Z" fill="#a78371"/>
          </g>
          <g id="Сгруппировать_1926" data-name="Сгруппировать 1926">
            <path id="Контур_17471" data-name="Контур 17471" d="M1740.519,8109.333c.45.211,1.181-.4,1.632-1.359l-1.632-.765C1740.068,8108.17,1740.068,8109.121,1740.519,8109.333Z" fill="#571e2f"/>
            <path id="Контур_17472" data-name="Контур 17472" d="M1740.519,8107.209l1.632.765c.451-.961.451-1.912,0-2.123S1740.97,8106.248,1740.519,8107.209Z" fill="#801d3b"/>
          </g>
        </g>
        <g id="Сгруппировать_1931" data-name="Сгруппировать 1931">
          <g id="Сгруппировать_1928" data-name="Сгруппировать 1928">
            <path id="Контур_17473" data-name="Контур 17473" d="M1681.933,8124.166l-22.967,8.951c1.562,4.009,6.408,5.863,12.75,3.392S1683.495,8128.174,1681.933,8124.166Z" fill="#801d3b"/>
            <path id="Контур_17474" data-name="Контур 17474" d="M1666.059,8121.993c-6.342,2.472-8.656,7.117-7.093,11.124l22.967-8.951C1680.37,8120.158,1672.4,8119.521,1666.059,8121.993Z" fill="#571e2f"/>
          </g>
          <g id="Сгруппировать_1929" data-name="Сгруппировать 1929">
            <path id="Контур_17475" data-name="Контур 17475" d="M1660.425,8130.009c-.571.222-.649,1.39-.174,2.608l2.067-.806C1661.843,8130.593,1661,8129.786,1660.425,8130.009Z" fill="#8b6f5f"/>
            <path id="Контур_17476" data-name="Контур 17476" d="M1662.318,8131.811l-2.067.806c.474,1.217,1.322,2.024,1.893,1.8S1662.793,8133.028,1662.318,8131.811Z" fill="#a78371"/>
          </g>
          <g id="Сгруппировать_1930" data-name="Сгруппировать 1930">
            <path id="Контур_17477" data-name="Контур 17477" d="M1660.517,8130.449c-.463.181-.527,1.129-.141,2.119l1.679-.655C1661.67,8130.924,1660.981,8130.268,1660.517,8130.449Z" fill="#571e2f"/>
            <path id="Контур_17478" data-name="Контур 17478" d="M1662.055,8131.913l-1.679.655c.386.989,1.074,1.645,1.538,1.464S1662.441,8132.9,1662.055,8131.913Z" fill="#801d3b"/>
          </g>
        </g>
        <g id="Сгруппировать_1935" data-name="Сгруппировать 1935">
          <g id="Сгруппировать_1932" data-name="Сгруппировать 1932">
            <path id="Контур_17479" data-name="Контур 17479" d="M1694.275,8120.75v28.636c5,0,9.049-4.463,9.049-12.371S1699.273,8120.75,1694.275,8120.75Z" fill="#251a1b"/>
            <path id="Контур_17480" data-name="Контур 17480" d="M1685.226,8137.015c0,7.908,4.051,12.371,9.049,12.371V8120.75C1689.277,8120.75,1685.226,8129.108,1685.226,8137.015Z" fill="#1b1815"/>
          </g>
          <g id="Сгруппировать_1933" data-name="Сгруппировать 1933">
            <path id="Контур_17481" data-name="Контур 17481" d="M1691.526,8146.5c0,.712,1.231,1.289,2.749,1.289v-2.578C1692.757,8145.206,1691.526,8145.783,1691.526,8146.5Z" fill="#6a4f3f"/>
            <path id="Контур_17482" data-name="Контур 17482" d="M1694.275,8145.206v2.578c1.518,0,2.749-.577,2.749-1.289S1695.793,8145.206,1694.275,8145.206Z" fill="#785745"/>
          </g>
          <g id="Сгруппировать_1934" data-name="Сгруппировать 1934">
            <path id="Контур_17483" data-name="Контур 17483" d="M1692.041,8146.581c0,.578,1,1.047,2.234,1.047v-2.094C1693.041,8145.534,1692.041,8146,1692.041,8146.581Z" fill="#1b1815"/>
            <path id="Контур_17484" data-name="Контур 17484" d="M1694.275,8145.534v2.094c1.233,0,2.233-.469,2.233-1.047S1695.508,8145.534,1694.275,8145.534Z" fill="#251a1b"/>
          </g>
        </g>
        <g id="Сгруппировать_1939" data-name="Сгруппировать 1939">
          <g id="Сгруппировать_1936" data-name="Сгруппировать 1936">
            <path id="Контур_17485" data-name="Контур 17485" d="M1714.43,8103.7l6.426,27.907c4.87-1.121,7.817-6.38,6.043-14.086S1719.3,8102.582,1714.43,8103.7Z" fill="#251a1b"/>
            <path id="Контур_17486" data-name="Контур 17486" d="M1709.261,8121.585c1.774,7.706,6.724,11.147,11.595,10.025l-6.426-27.907C1709.559,8104.825,1707.487,8113.879,1709.261,8121.585Z" fill="#1b1815"/>
          </g>
          <g id="Сгруппировать_1937" data-name="Сгруппировать 1937">
            <path id="Контур_17487" data-name="Контур 17487" d="M1717.528,8129.41c.159.693,1.488.979,2.968.639l-.578-2.512C1718.438,8127.877,1717.368,8128.716,1717.528,8129.41Z" fill="#6a4f3f"/>
            <path id="Контур_17488" data-name="Контур 17488" d="M1719.918,8127.537l.578,2.512c1.479-.341,2.549-1.18,2.39-1.873S1721.4,8127.2,1719.918,8127.537Z" fill="#785745"/>
          </g>
          <g id="Сгруппировать_1938" data-name="Сгруппировать 1938">
            <path id="Контур_17489" data-name="Контур 17489" d="M1718.049,8129.377c.129.564,1.21.8,2.412.52l-.47-2.041C1718.789,8128.133,1717.92,8128.814,1718.049,8129.377Z" fill="#1b1815"/>
            <path id="Контур_17490" data-name="Контур 17490" d="M1719.991,8127.856l.47,2.041c1.2-.277,2.071-.959,1.941-1.522S1721.193,8127.579,1719.991,8127.856Z" fill="#251a1b"/>
          </g>
        </g>
        <path id="Контур_17491" data-name="Контур 17491" d="M1693.683,8115.825a21.211,21.211,0,0,0-12.257,11.913h-.687s2.406-8.477,12.772-13.345Z" fill="#7f7724"/>
        <g id="Сгруппировать_1943" data-name="Сгруппировать 1943">
          <g id="Сгруппировать_1940" data-name="Сгруппировать 1940">
            <path id="Контур_17492" data-name="Контур 17492" d="M1681.519,8125.958l-11.078,23.145c4.039,1.933,9.041-.107,12.1-6.5S1685.558,8127.891,1681.519,8125.958Z" fill="#422028"/>
            <path id="Контур_17493" data-name="Контур 17493" d="M1667.913,8135.6c-3.059,6.391-1.511,11.566,2.528,13.5l11.078-23.145C1677.479,8124.025,1670.972,8129.213,1667.913,8135.6Z" fill="#311b1d"/>
          </g>
          <g id="Сгруппировать_1941" data-name="Сгруппировать 1941">
            <path id="Контур_17494" data-name="Контур 17494" d="M1669.338,8145.7c-.275.576.5,1.518,1.723,2.106l1-2.084C1670.831,8145.137,1669.613,8145.128,1669.338,8145.7Z" fill="#6a4f3f"/>
            <path id="Контур_17495" data-name="Контур 17495" d="M1672.058,8145.724l-1,2.084c1.227.587,2.445.6,2.721.021S1673.285,8146.312,1672.058,8145.724Z" fill="#785745"/>
          </g>
          <g id="Сгруппировать_1942" data-name="Сгруппировать 1942">
            <path id="Контур_17496" data-name="Контур 17496" d="M1669.721,8145.971c-.224.467.4,1.233,1.4,1.71l.81-1.692C1670.934,8145.512,1669.945,8145.5,1669.721,8145.971Z" fill="#281a1b"/>
            <path id="Контур_17497" data-name="Контур 17497" d="M1671.931,8145.989l-.81,1.692c1,.477,1.987.486,2.211.018S1672.929,8146.466,1671.931,8145.989Z" fill="#311b1d"/>
          </g>
        </g>
        <path id="Контур_17498" data-name="Контур 17498" d="M1686.409,8083.007a30.11,30.11,0,0,0-11.34,6.873l-.859-.516s7.56-6.529,13.23-7.9Z" fill="#7f7724"/>
        <g id="Сгруппировать_1947" data-name="Сгруппировать 1947">
          <g id="Сгруппировать_1944" data-name="Сгруппировать 1944">
            <path id="Контур_17499" data-name="Контур 17499" d="M1676.471,8087.707l-20.635,13.484c2.354,3.6,7.477,4.42,13.175.7S1678.824,8091.308,1676.471,8087.707Z" fill="#801d3b"/>
            <path id="Контур_17500" data-name="Контур 17500" d="M1660.489,8088.846c-5.7,3.724-7.006,8.745-4.653,12.345l20.635-13.484C1674.118,8084.106,1666.187,8085.122,1660.489,8088.846Z" fill="#571e2f"/>
          </g>
          <g id="Сгруппировать_1945" data-name="Сгруппировать 1945">
            <path id="Контур_17501" data-name="Контур 17501" d="M1656.625,8097.849c-.513.335-.349,1.494.366,2.588l1.857-1.214C1658.133,8098.129,1657.138,8097.514,1656.625,8097.849Z" fill="#8b6f5f"/>
            <path id="Контур_17502" data-name="Контур 17502" d="M1658.848,8099.223l-1.857,1.214c.715,1.094,1.711,1.709,2.223,1.374S1659.563,8100.317,1658.848,8099.223Z" fill="#a78371"/>
          </g>
          <g id="Сгруппировать_1946" data-name="Сгруппировать 1946">
            <path id="Контур_17503" data-name="Контур 17503" d="M1656.806,8098.261c-.416.272-.284,1.213.3,2.1l1.509-.987C1658.031,8098.488,1657.223,8097.989,1656.806,8098.261Z" fill="#571e2f"/>
            <path id="Контур_17504" data-name="Контур 17504" d="M1658.612,8099.377l-1.509.987c.581.889,1.39,1.388,1.806,1.116S1659.193,8100.266,1658.612,8099.377Z" fill="#801d3b"/>
          </g>
        </g>
      </g>
    </g>
  </g>
</svg>
