<svg xmlns="http://www.w3.org/2000/svg" width="1399" height="262.158" viewBox="0 0 1399 262.158">
  <path id="Контур_18905" data-name="Контур 18905" d="M1400,4497.445l-13.7-14-12.623,12.906-12.916-13.205-13.078,13.372-11.271-11.523-12.549,12.83h-.149l-12.84-13.129-12.429,12.707-13.505-13.807L1272.32,4496.5l-12.916-13.205-13.078,13.372-11.271-11.523-12.4,12.68h-.442l-12.695-12.979-12.695,12.979H1195.6l.22-.225-13.7-14L1169.5,4496.5l-12.916-13.206-13.079,13.372-11.269-11.523-12.4,12.68h-.442L1106.7,4484.84l-12.429,12.707-13.505-13.808-12.623,12.906-12.916-13.205-13.078,13.372-11.271-11.523-12.256,12.53h-.733l-12.549-12.83-12.549,12.83h-.582l.221-.225-13.7-14L966.108,4496.5l-12.916-13.205-13.079,13.372-11.271-11.523-12.4,12.68H916L903.3,4484.84l-12.429,12.707-13.5-13.808-12.623,12.905-12.916-13.2-13.079,13.372-11.269-11.523-12.256,12.53h-.734l-12.549-12.83-12.548,12.83h-1.222l.074-.076-13.7-14-12.622,12.906-12.916-13.205-13.079,13.372-11.271-11.523-12.255,12.53h-.734l-12.549-12.83L686.7,4497.7l-13.5-13.808-12.623,12.906-12.916-13.2-13.079,13.372L623.3,4485.439l-12.109,12.38h-1.027l-12.4-12.68-12.4,12.68h-4.242l-12.7-12.979L555.8,4497.746l-12.916-13.2L529.9,4497.819h-.583l.659-.674-13.7-14-12.623,12.905-12.916-13.2-13.078,13.372-11.271-11.523L453.77,4497.6l-12.916-13.2L428.426,4497.1l-13.505-13.808L402.3,4496.2l-12.916-13.205L376.3,4496.363l-11.271-11.523-12.623,12.905-12.916-13.2-12.987,13.278h-1.222l.512-.524-13.7-14L299.477,4496.2l-12.916-13.205-13.078,13.372-11.271-11.523-12.623,12.905-12.916-13.2-12.429,12.707L210.74,4483.44l-12.623,12.906L185.2,4483.141l-13.078,13.372-11.271-11.523-12.548,12.83h-.149l-12.842-13.129-12.84,13.129H122.3L109.6,4484.84l-12.623,12.905-12.916-13.2-12.429,12.707L58.128,4483.44l-12.622,12.906L32.59,4483.141l-13.079,13.372L8.24,4484.99l-7.22,14L1,4505.6V4745H1400V4497.819h-.367Z" transform="translate(-1 -4482.842)" fill="#3fb4b0"/>
</svg>
