<svg xmlns="http://www.w3.org/2000/svg" width="158.276" height="158.276" viewBox="0 0 158.276 158.276">
  <g id="Сгруппировать_2927" data-name="Сгруппировать 2927" transform="translate(-289.46 -3614.724)">
    <path id="Контур_19478" data-name="Контур 19478" d="M447.736,3693.862q0,1.666-.071,3.311-.15,3.739-.649,7.38A78.458,78.458,0,0,1,436,3735.343a79.466,79.466,0,0,1-17.4,19.856,79.041,79.041,0,0,1-19.639,11.761q-2.748,1.143-5.592,2.08a79.072,79.072,0,0,1-79.222-17.75q-2.655-2.514-5.072-5.271a79.144,79.144,0,1,1,136.354-71.183c.1.4.2.8.291,1.205A79.62,79.62,0,0,1,447.736,3693.862Z" fill="#fccca8"/>
    <path id="Контур_19479" data-name="Контур 19479" d="M442.407,3639.068c1.825,12.713-13.873,25.483-35.062,28.524a59.042,59.042,0,0,1-20.611-.527l0,0c-11.529-2.483-19.868-8.7-21.057-16.982-1.824-12.712,13.876-25.486,35.065-28.527S440.583,3626.355,442.407,3639.068Z" fill="#f05c4b"/>
    <g id="Сгруппировать_2922" data-name="Сгруппировать 2922">
      <path id="Контур_19480" data-name="Контур 19480" d="M403.954,3643.964c-11.579,1.662-21.985-1.709-25.627-7.758a9.432,9.432,0,0,0-.234,3.77c1.178,8.211,13.227,13.275,26.911,11.311s23.824-10.212,22.645-18.423a9.44,9.44,0,0,0-1.285-3.552C424.57,3636.142,415.533,3642.3,403.954,3643.964Z" fill="#e53e2d"/>
      <path id="Контур_19481" data-name="Контур 19481" d="M388.561,3643.092l-1.127,6.587s-11.139,9.56-.7,17.382c-11.53-2.483-19.868-8.7-21.057-16.981-1.824-12.713,13.876-25.487,35.065-28.527C400.738,3621.553,380.513,3634.558,388.561,3643.092Z" fill="#e53e2d"/>
    </g>
    <path id="Контур_19482" data-name="Контур 19482" d="M447.736,3693.862q0,1.666-.071,3.311-.15,3.739-.649,7.38a78.646,78.646,0,0,1-4.067,16.481,53.5,53.5,0,0,1-8.9-1.121h0c-11.531-2.484-19.868-8.7-21.057-16.984-1.747-12.181,12.6-24.42,32.44-28.093.1.4.2.8.291,1.205A79.62,79.62,0,0,1,447.736,3693.862Z" fill="#f05c4b"/>
    <g id="Сгруппировать_2923" data-name="Сгруппировать 2923">
      <path id="Контур_19483" data-name="Контур 19483" d="M447.665,3697.173q-.15,3.739-.649,7.38a32.761,32.761,0,0,1-12.265-2.025c-5.185-2.022-8.728-5.436-9.338-9.7a9.4,9.4,0,0,1,.232-3.77c1.873,3.114,5.54,5.517,10.233,6.89A35.333,35.333,0,0,0,447.665,3697.173Z" fill="#e53e2d"/>
      <path id="Контур_19484" data-name="Контур 19484" d="M435.878,3695.942v0l-1.127,6.583s-11.138,9.561-.7,17.384c-11.532-2.483-19.869-8.7-21.057-16.984-1.748-12.18,12.594-24.419,32.44-28.092q.15.6.291,1.205C440.652,3679.8,429.566,3689.246,435.878,3695.942Z" fill="#e53e2d"/>
    </g>
    <path id="Контур_19485" data-name="Контур 19485" d="M387.055,3736.534c-8.2,9.887-28.2,6.827-44.679-6.834a59.008,59.008,0,0,1-13.447-15.629v-.005c-5.9-10.211-6.893-20.563-1.552-27.007,8.2-9.887,28.2-6.828,44.684,6.834S395.252,3726.646,387.055,3736.534Z" fill="#f05c4b"/>
    <g id="Сгруппировать_2924" data-name="Сгруппировать 2924">
      <path id="Контур_19486" data-name="Контур 19486" d="M357.609,3711.323c-9.005-7.465-13.493-17.44-11.456-24.2a9.465,9.465,0,0,0-2.951,2.358c-5.294,6.386-.957,18.715,9.686,27.539s23.563,10.8,28.857,4.413a9.446,9.446,0,0,0,1.77-3.338C377.248,3721.35,366.614,3718.788,357.609,3711.323Z" fill="#e53e2d"/>
      <path id="Контур_19487" data-name="Контур 19487" d="M347.921,3699.329l-5.639,3.588s-14.564-1.836-13.354,11.149c-5.9-10.211-6.894-20.563-1.552-27.006,8.2-9.888,28.2-6.829,44.683,6.833C372.059,3693.893,348.842,3687.636,347.921,3699.329Z" fill="#e53e2d"/>
    </g>
    <path id="Контур_19488" data-name="Контур 19488" d="M367.469,3674.392c-2.886,12.514-22.134,18.759-42.993,13.948a59.028,59.028,0,0,1-19.031-7.93l0,0c-9.857-6.477-15.39-15.281-13.509-23.437,2.886-12.514,22.138-18.761,43-13.95S370.356,3661.877,367.469,3674.392Z" fill="#f05c4b"/>
    <g id="Сгруппировать_2925" data-name="Сгруппировать 2925">
      <path id="Контур_19489" data-name="Контур 19489" d="M329.841,3665.08c-11.4-2.628-19.886-9.527-21.1-16.484a9.44,9.44,0,0,0-1.579,3.432c-1.865,8.083,7.545,17.154,21.016,20.261s25.9-.926,27.768-9.009a9.491,9.491,0,0,0,.084-3.777C351.891,3665.226,341.239,3667.71,329.841,3665.08Z" fill="#e53e2d"/>
      <path id="Контур_19490" data-name="Контур 19490" d="M315.8,3658.711l-3.429,5.737s-13.839,4.9-6.929,15.958c-9.856-6.477-15.39-15.281-13.509-23.437,2.886-12.514,22.138-18.761,43-13.95C334.93,3643.019,311.373,3647.849,315.8,3658.711Z" fill="#e53e2d"/>
    </g>
    <path id="Контур_19491" data-name="Контур 19491" d="M436,3735.343a79.489,79.489,0,0,1-17.4,19.856,78.959,78.959,0,0,1-25.23,13.841c-5.572-4.69-8.66-10.414-8.059-16.273,1.3-12.779,19.632-21.371,40.925-19.194A63.351,63.351,0,0,1,436,3735.343Z" fill="#f05c4b"/>
    <g id="Сгруппировать_2926" data-name="Сгруппировать 2926">
      <path id="Контур_19492" data-name="Контур 19492" d="M418.6,3755.2a77.955,77.955,0,0,1-7.168,5.213c-7.468-3.327-12.207-8.786-11.625-14.445a9.46,9.46,0,0,1,1.137-3.6C402.689,3748.047,409.54,3753.051,418.6,3755.2Z" fill="#e53e2d"/>
      <path id="Контур_19493" data-name="Контур 19493" d="M409.21,3751.523l-2.687,6.121s-6.974,3.5-7.559,9.316q-2.748,1.143-5.591,2.08c-5.572-4.69-8.66-10.414-8.059-16.273,1.3-12.779,19.632-21.371,40.925-19.194C426.239,3733.573,403.467,3741.3,409.21,3751.523Z" fill="#e53e2d"/>
    </g>
    <path id="Контур_19494" data-name="Контур 19494" d="M327.7,3761.624a79.129,79.129,0,0,1-13.55-10.334q-2.655-2.514-5.072-5.271a79.19,79.19,0,0,1-12.151-18.551c18.1-7.629,36.219-5.5,41.555,5.32C342.614,3741.167,337.944,3752.45,327.7,3761.624Z" fill="#f05c4b"/>
    <path id="Контур_19495" data-name="Контур 19495" d="M314.151,3751.29q-2.655-2.514-5.072-5.272c7.178-5.106,11.461-11.841,11.128-17.526a9.44,9.44,0,0,1,2.323,2.978C325.382,3737.252,321.738,3745.179,314.151,3751.29Z" fill="#e53e2d"/>
  </g>
</svg>
