<svg xmlns="http://www.w3.org/2000/svg" width="136.475" height="125.56" viewBox="0 0 136.475 125.56">
  <g id="Сгруппировать_2913" data-name="Сгруппировать 2913" transform="translate(-928.521 -4246)">
    <g id="Сгруппировать_2912" data-name="Сгруппировать 2912">
      <path id="Контур_19455" data-name="Контур 19455" d="M996.351,4268.18A35.694,35.694,0,0,1,1029.078,4246c19.716,0,33.915,16.866,35.7,36.966,0,0,.964,4.99-1.157,13.973a61.779,61.779,0,0,1-18.828,31.4l-48.442,43.22-47.625-43.223a61.762,61.762,0,0,1-18.829-31.4c-2.121-8.983-1.157-13.973-1.157-13.973,1.785-20.1,15.984-36.966,35.7-36.966C979.078,4246,990.843,4255.125,996.351,4268.18Z" fill="#e11948"/>
      <path id="Контур_19456" data-name="Контур 19456" d="M944.9,4289.886a2.727,2.727,0,0,1-2.73-2.73,27.327,27.327,0,0,1,27.3-27.295,2.729,2.729,0,0,1,0,5.459,21.862,21.862,0,0,0-21.837,21.836A2.727,2.727,0,0,1,944.9,4289.886Z" fill="#fff"/>
    </g>
  </g>
</svg>
