<svg xmlns="http://www.w3.org/2000/svg" width="175.337" height="123.285" viewBox="0 0 175.337 123.285">
  <g id="Сгруппировать_2914" data-name="Сгруппировать 2914" transform="translate(-898.663 -3434.846)">
    <path id="Контур_19457" data-name="Контур 19457" d="M1004.738,3474.691c-23.089,5.334-44.492,19.827-60.385,36.013,12.506,21.288,34.946,36.913,60.385,42.118,25.439-5.205,47.88-20.83,60.386-42.118C1049.231,3494.518,1027.828,3480.025,1004.738,3474.691Z" fill="#e4f0fa"/>
    <path id="Контур_19458" data-name="Контур 19458" d="M976.657,3513.611a24.132,24.132,0,0,1,16.779-22.873,23.972,23.972,0,1,0,0,45.746A23.98,23.98,0,0,1,976.657,3513.611Z" fill="#fff"/>
    <path id="Контур_19459" data-name="Контур 19459" d="M1010.218,3513.611a23.981,23.981,0,0,0-16.782-22.873,23.979,23.979,0,0,0,0,45.746A23.982,23.982,0,0,0,1010.218,3513.611Z" fill="#50baea"/>
    <path id="Контур_19460" data-name="Контур 19460" d="M986.246,3506.762a6.849,6.849,0,1,1-6.849,6.849A6.847,6.847,0,0,1,986.246,3506.762Z" fill="#57555c"/>
    <path id="Контур_19461" data-name="Контур 19461" d="M968.205,3502.334a3.424,3.424,0,1,0-4.842,0A3.42,3.42,0,0,0,968.205,3502.334Z"/>
    <path id="Контур_19462" data-name="Контур 19462" d="M996.6,3513.611a10.273,10.273,0,1,0-10.274,10.274A10.285,10.285,0,0,0,996.6,3513.611Zm-13.7,0a3.424,3.424,0,1,1,3.424,3.425A3.428,3.428,0,0,1,982.907,3513.611Z"/>
    <path id="Контур_19463" data-name="Контур 19463" d="M986.331,3541.008a27.4,27.4,0,1,0-11-52.494,3.425,3.425,0,0,0,2.756,6.271,20.363,20.363,0,0,1,8.245-1.721,20.547,20.547,0,1,1-20.547,20.547c0-.117,0-.231,0-.348a3.424,3.424,0,0,0-6.847-.159c0,.17,0,.337,0,.507A27.428,27.428,0,0,0,986.331,3541.008Z"/>
    <path id="Контур_19464" data-name="Контур 19464" d="M989.756,3458.818v-20.547a3.424,3.424,0,1,0-6.849,0v20.547a3.424,3.424,0,1,0,6.849,0Z"/>
    <path id="Контур_19465" data-name="Контур 19465" d="M948.073,3465.079a3.426,3.426,0,0,0,0-4.844l-14.527-14.526a3.425,3.425,0,0,0-4.844,4.843l14.527,14.527A3.427,3.427,0,0,0,948.073,3465.079Z"/>
    <path id="Контур_19466" data-name="Контур 19466" d="M1029.434,3465.079l14.527-14.527a3.425,3.425,0,0,0-4.844-4.843l-14.527,14.526a3.425,3.425,0,0,0,4.844,4.844Z"/>
    <path id="Контур_19467" data-name="Контур 19467" d="M899.521,3514.2a3.424,3.424,0,1,0,5.133,4.534q1.095-1.239,2.234-2.468c16.923,25.569,47.6,41.868,79.443,41.868s62.521-16.3,79.443-41.868c.757.819,1.505,1.642,2.235,2.468a3.424,3.424,0,1,0,5.133-4.534c-21.754-24.629-54.056-45.1-86.811-45.1S921.271,3489.573,899.521,3514.2Zm86.81-38.256c34.157,0,62.348,23.325,74.549,35.28-15.485,24.417-44.442,40.06-74.549,40.06s-59.063-15.643-74.548-40.06C923.984,3499.266,952.175,3475.941,986.331,3475.941Z"/>
  </g>
</svg>
