<svg xmlns="http://www.w3.org/2000/svg" width="160.448" height="160.448" viewBox="0 0 160.448 160.448">
  <g id="Сгруппировать_2921" data-name="Сгруппировать 2921" transform="translate(-906.107 -3829.401)">
    <circle id="Эллипс_108" data-name="Эллипс 108" cx="80.224" cy="80.224" r="80.224" transform="translate(906.107 3829.401)" fill="#886c60"/>
    <path id="Контур_19468" data-name="Контур 19468" d="M1037.486,3911.97c-2.24-12.492,1.713-44.856,3.953-60.563a79.7,79.7,0,0,0-42.826-21.032c.527,19.108,1.819,59.721,2.662,66.546,1.081,8.961-3.953,16.235-7.037,17.948-3.11,1.607-15.918,7.59-19.556,10.779-3.636,3.215-26.486,10.146-27.013,10.779-.528.527-7.169,2.451-7.169,2.451a15.9,15.9,0,0,1-9.83,1.291c-3.426.949-1.713,6.3-1.713,6.3-3.321,5.245,3.426,6.826,3.426,6.826,1.713,3.215,6.088,1.186,6.088,1.186,1.607,2.662,7.379.949,7.379.949,1.607,2.24,7.485.316,7.485.316l3.742.949c10.358,3.742,26.276-1.924,41.457-1.924,4.269,0,38.768,6.193,44.223-2.135C1048.292,3944.44,1040.6,3928.864,1037.486,3911.97Z" fill="#f3cfb5"/>
    <path id="Контур_19469" data-name="Контур 19469" d="M1040.912,3926.387Z" fill="none" stroke="#000" stroke-miterlimit="10" stroke-width="1"/>
    <g id="Сгруппировать_2919" data-name="Сгруппировать 2919">
      <path id="Контур_19470" data-name="Контур 19470" d="M929.721,3946.785a9.211,9.211,0,0,0,4.059-2.135,7.119,7.119,0,0,1,4.164-1.713c.738-.1,3.32-2.556,3.32-2.556a15.19,15.19,0,0,1-3.847,1.924c-1.4.21-3.743,1.5-4.586,1.713-.633.1-3.32-.738-3.953-2.24-.844,1.923,0,4.8,0,4.8a4.865,4.865,0,0,0-.738,1.766A2.612,2.612,0,0,1,929.721,3946.785Z" fill="#e3b697"/>
      <path id="Контур_19471" data-name="Контур 19471" d="M928.14,3948.34v.053C928.114,3948.393,928.114,3948.366,928.14,3948.34Z" fill="#e3b697"/>
      <path id="Контур_19472" data-name="Контур 19472" d="M1041.228,3928.205c4.059,14.944-.1,22.428-.1,22.428-2.451,5.008-16.551,3.953-19.239,3.11s-18.9-5.139-22.428-4.9c-3.532.106-15.708,3.32-17.21,4.164s-15.918,3.742-19.107,3.637c-3.11-.211-7.169-1.608-8.118-2.873-.948-1.291,2.03-3.637,2.03-3.637-.949,0-5.772,3.216-7.38,3.954a4.106,4.106,0,0,1-4.374-.949c-.527-.738,1.607-4.48,2.24-5.561s4.164-2.451,4.164-2.451-3.215.633-4.164,1.713a20.874,20.874,0,0,0-2.662,4.8,3.284,3.284,0,0,1-2.978,2.135c-2.029.211-3.32-.527-3.742-1.4-.528-.949,1.186-2.662,2.134-3.215.949-.527,2.346-1.608,2.451-2.451.106-.738,2.346-1.819,2.346-1.819s-2.451.738-2.662,1.292a5.811,5.811,0,0,1-2.451,2.345c-1.291.528-2.029,2.241-2.767,3.427s-2.24.737-3.215.421c-1.081-.316-1.081-1.291-.528-1.607a25.241,25.241,0,0,0,3.743-4.27c.422-.843,4.27-2.662,4.27-2.662-1.5.106-4.9,1.924-5.008,2.346a9.385,9.385,0,0,1-1.4,2.029c-1.818.844-1.4,1.714-2.872,2.768-1.608,1.08-4.059-2.451-4.164-2.451-.844,3.846,4.163,4.9,4.163,4.9,1.713,3.216,6.088,1.186,6.088,1.186,1.608,2.662,7.38.949,7.38.949,1.607,2.24,7.485.316,7.485.316l3.742.949c10.357,3.743,26.276-1.924,41.456-1.924,4.27,0,38.768,6.194,44.224-2.134C1046.157,3947.233,1044.022,3938.457,1041.228,3928.205Z" fill="#e3b697"/>
      <path id="Контур_19473" data-name="Контур 19473" d="M1030.028,3894.892s-1.292,10.885.527,16.867,3.742,12.914-.949,16.341-17.947,4.164-17.947-8.328,4.586-41.219,4.586-41.219-2.662,38.24,1.291,42.51c3.848,4.27,9.409,3.426,10.779-.316C1029.58,3917,1027.129,3898.082,1030.028,3894.892Z" fill="#e3b697"/>
    </g>
    <g id="Сгруппировать_2920" data-name="Сгруппировать 2920">
      <path id="Контур_19474" data-name="Контур 19474" d="M931.118,3946.258a7.953,7.953,0,0,0-1.924.738l.843,1.5s1.713,0,2.135-.738A1.052,1.052,0,0,0,931.118,3946.258Z" fill="#fffffb"/>
      <path id="Контур_19475" data-name="Контур 19475" d="M933.78,3949.684l1.186.844s1.924-1.081,1.4-2.03C935.809,3947.655,933.78,3949.684,933.78,3949.684Z" fill="#fffffb"/>
      <path id="Контур_19476" data-name="Контур 19476" d="M938.787,3950.106c.106,0,1.608,1.08,1.608,1.08s2.134-.843,1.5-1.818C941.054,3947.971,938.787,3950.106,938.787,3950.106Z" fill="#fffffb"/>
      <path id="Контур_19477" data-name="Контур 19477" d="M947.036,3949.368c-.948-.211-2.029.844-2.029,2.557,0,0,1.4.527,2.029,0S947.985,3949.473,947.036,3949.368Z" fill="#fffffb"/>
    </g>
  </g>
</svg>
