<svg xmlns="http://www.w3.org/2000/svg" width="148.32" height="165" viewBox="0 0 148.32 165">
  <g id="Сгруппировать_2928" data-name="Сгруппировать 2928" transform="translate(-278.137 -4017)">
    <g id="Page-1">
      <g id="_050---Human-Brain" data-name="050---Human-Brain">
        <path id="Shape" d="M328.92,4160.1c9.755,4.412,14.03,21.9,14.03,21.9l71.388-.2a69.949,69.949,0,0,0-4.551-8.043,58.8,58.8,0,0,1-3.377-8.545,98.049,98.049,0,0,1-3.46-17.32,51.135,51.135,0,0,1,3.938-26.457c3.206-7.311,8.773-13.1,13.018-19.8a41.051,41.051,0,0,0,6.534-21.905,82.7,82.7,0,0,0-2.867-23.327,44.084,44.084,0,0,0-16.028-23c-14.105-11.06-28.494-17.245-46.712-16.318a187.591,187.591,0,0,0-27.106,3.892c-9.723,1.957-20.019,5.593-27,12.961a51.451,51.451,0,0,0-10.81,17.638,81.594,81.594,0,0,0-2.709,9.957A87.853,87.853,0,0,1,289,4072.306a7.031,7.031,0,0,0-.612,3.389c.546,3.937,6.452,5.63,6.5,9.689a5.681,5.681,0,0,1-.8,2.535,111.466,111.466,0,0,1-12.671,20.622c-1.172,1.437-3.551,4.267-3.255,6.3.211,1.443,1.94,2.64,3.007,3.434,2.276,1.69,6.91,2.845,7.488,5.9a7.68,7.68,0,0,1-.538,4.6c-1.573,3.319-3.317,5.089-2.079,6.13s4.551,3.542,4.551,3.542-3.149,4.023-1.4,5.257c2.162,1.536,4.916,2.245,5.65,5.121a17.618,17.618,0,0,1-.672,6.771,13.883,13.883,0,0,0,.82,6.329,7.758,7.758,0,0,0,9.129,5.656,239.084,239.084,0,0,0,24.807-7.482" fill="#3a475d"/>
        <path id="Shape-2" data-name="Shape" d="M388.524,4137.763a8.647,8.647,0,0,1-8-5.374c-.774-1.875-3.542-4.552-8.7-8.423-8.353-6.259-10.478-17.453-5.69-29.948l1.707-4.412,47.574,8.756-9.314,9.331h-.046c-4.2,4.276-8.059,9.235-8.059,14.566a30.2,30.2,0,0,1-1.488,9.8,8.338,8.338,0,0,1-7.965,5.707Z" fill="#323e50"/>
        <path id="Shape-3" data-name="Shape" d="M391.733,4110.475a31.016,31.016,0,0,1-10.013-1.635,33.719,33.719,0,0,1-6.563-3.041,72.782,72.782,0,0,1-13.681-11.277,16.139,16.139,0,0,0-7.579-4.324,25.335,25.335,0,0,0-4.571-.635c-.569-.031-1.207-.045-1.847-.045a143.74,143.74,0,0,0-18.881,1.991l-3.872.569a37.463,37.463,0,0,1-5.12.37c-.538,0-1.061,0-1.565-.04a22.812,22.812,0,0,1-7.365-1.405,19.253,19.253,0,0,1-12.313-16.293l-.059-.4a29.414,29.414,0,0,1-.182-6.517,28.967,28.967,0,0,1,.62-4.856c.074-.325,1.186-5.053,2.054-7.92.2-.64.333-1.067.466-1.437.686-1.818,1.391-3.459,2.117-4.941a44.643,44.643,0,0,1,7.5-10.811,33.392,33.392,0,0,1,10.859-7.282,53.1,53.1,0,0,1,6.207-2.276c2.233-.669,4.552-1.249,6.919-1.721,2.631-.544,5.388-1.067,8.176-1.559,1.732-.322,3.536-.615,5.337-.879,2.1-.322,4.193-.586,6.318-.822,2.054-.217,4.04-.4,6.028-.487.122,0,.285-.023.458-.031,1.1-.049,2.2-.077,3.274-.077.854,0,1.682.031,2.49.06a51.727,51.727,0,0,1,6.31.6,55.641,55.641,0,0,1,17.683,5.931c1.5.768,2.956,1.6,4.4,2.518a80.238,80.238,0,0,1,6.666,4.552c.677.5,1.342,1.01,2.036,1.556a37.153,37.153,0,0,1,3.673,3.186,36.463,36.463,0,0,1,10.387,16.87,69.865,69.865,0,0,1,2.275,12.54c.2,2.2.313,4.2.342,6.159.042.9.042,1.9.042,2.921a30.123,30.123,0,0,1-.236,3.539,30.681,30.681,0,0,1-1.382,6.771,35.656,35.656,0,0,1-4.011,8.685,26.864,26.864,0,0,1-13.038,10.412,39.342,39.342,0,0,1-10.358,1.482Z" fill="#323e50"/>
        <path id="Shape-4" data-name="Shape" d="M371.45,4096.058c-1.878,4.893-5.064,16.727,3.783,23.356,6.623,4.967,9.388,8.008,10.549,10.81a2.845,2.845,0,0,0,5.34,0,24.38,24.38,0,0,0,1.18-7.965c0-8.193,5.918-14.936,11.351-20.2.029,0,.057-.028.085-.056Z" fill="#dc4259"/>
        <path id="Shape-5" data-name="Shape" d="M415.032,4076.742c-.028-1.935-.142-3.841-.313-5.69a64.522,64.522,0,0,0-2.1-11.55,30.808,30.808,0,0,0-8.932-14.4,33.108,33.108,0,0,0-3.158-2.731c-.655-.512-1.28-1-1.935-1.479-2.133-1.593-4.238-3.044-6.315-4.3-1.337-.853-2.646-1.593-3.983-2.276a50.034,50.034,0,0,0-15.9-5.348,46.091,46.091,0,0,0-5.662-.541c-.739-.028-1.507-.056-2.276-.056-.995,0-2.019.028-3.044.085-.142,0-.284.028-.426.028-1.878.086-3.755.256-5.661.456-2.049.227-4.069.483-6.117.8-1.735.256-3.47.541-5.177.854-2.731.483-5.434.995-8.051,1.536-2.276.455-4.41.995-6.4,1.593a48.1,48.1,0,0,0-5.547,2.02,27.693,27.693,0,0,0-9.047,6,38.67,38.67,0,0,0-6.515,9.388c-.682,1.394-1.308,2.873-1.877,4.381-.114.313-.228.683-.37,1.138-.825,2.731-1.935,7.454-1.935,7.454a24.782,24.782,0,0,0-.512,4.125,23.543,23.543,0,0,0,.2,5.632v.029a13.673,13.673,0,0,0,8.676,11.777,17.288,17.288,0,0,0,5.661,1.053,29.85,29.85,0,0,0,5.6-.285,150.294,150.294,0,0,1,25.717-2.56,31.213,31.213,0,0,1,5.633.8,21.723,21.723,0,0,1,10.184,5.775,68.594,68.594,0,0,0,12.631,10.469,27.092,27.092,0,0,0,22.474,2.588,21.4,21.4,0,0,0,9.758-7.965,30.092,30.092,0,0,0,3.414-7.425,24.973,24.973,0,0,0,1.138-5.661,24.018,24.018,0,0,0,.2-2.874C415.061,4078.619,415.061,4077.68,415.032,4076.742Z" fill="#ed7575"/>
        <path id="Shape-6" data-name="Shape" d="M318.337,4065.362a8.56,8.56,0,0,1-8.535,8.535h-5.831v-.029a23.543,23.543,0,0,1-.2-5.632,1.343,1.343,0,0,1,.342-.029H309.8a2.845,2.845,0,0,0,2.845-2.845,2.845,2.845,0,0,1,5.69,0Z" fill="#e84b5f"/>
        <path id="Shape-7" data-name="Shape" d="M318.337,4082.431v4.011a.944.944,0,0,1-.029.285,17.288,17.288,0,0,1-5.661-1.053v-3.243a2.845,2.845,0,0,1,5.69,0Z" fill="#e84b5f"/>
        <path id="Shape-8" data-name="Shape" d="M335.406,4076.742h-2.845a8.534,8.534,0,0,1-8.534-8.535v-2.845a8.534,8.534,0,0,1,8.534-8.534h2.845a2.845,2.845,0,1,1,0,5.689h-2.845a2.845,2.845,0,0,0-2.845,2.845v2.845a2.845,2.845,0,0,0,2.845,2.845h2.845a2.845,2.845,0,1,1,0,5.69Z" fill="#e84b5f"/>
        <path id="Shape-9" data-name="Shape" d="M321.182,4053.983a2.845,2.845,0,0,1-2.845,2.845H307.185a2.77,2.77,0,0,1-.967-.171c.142-.455.256-.825.37-1.138.569-1.508,1.195-2.987,1.877-4.381h9.872A2.845,2.845,0,0,1,321.182,4053.983Z" fill="#e84b5f"/>
        <path id="Shape-10" data-name="Shape" d="M335.406,4048.293a2.845,2.845,0,0,1-2.845,2.845,8.559,8.559,0,0,1-8.534-8.534v-6.856a48.1,48.1,0,0,1,5.547-2.02,3,3,0,0,1,.142.882v7.994a2.845,2.845,0,0,0,2.845,2.845A2.844,2.844,0,0,1,335.406,4048.293Z" fill="#e84b5f"/>
        <path id="Shape-11" data-name="Shape" d="M346.785,4071.052H343.94a2.845,2.845,0,1,1,0-5.69h2.845a2.845,2.845,0,0,0,2.845-2.845v-5.689a2.845,2.845,0,0,1,5.69,0v5.689A8.535,8.535,0,0,1,346.785,4071.052Z" fill="#e84b5f"/>
        <path id="Shape-12" data-name="Shape" d="M361.009,4056.828a2.845,2.845,0,0,1-2.845-2.845v-2.845a2.844,2.844,0,0,0-2.844-2.845h-5.69a2.845,2.845,0,0,0-2.845,2.845v2.845a2.845,2.845,0,0,1-5.69,0v-2.845a8.534,8.534,0,0,1,8.535-8.534h5.69a8.534,8.534,0,0,1,8.534,8.534v2.845A2.845,2.845,0,0,1,361.009,4056.828Z" fill="#e84b5f"/>
        <path id="Shape-13" data-name="Shape" d="M349.63,4031.224v2.845a2.845,2.845,0,0,1-5.69,0v-2.845a2.2,2.2,0,0,1,.086-.625c1.707-.313,3.442-.6,5.177-.854A2.648,2.648,0,0,1,349.63,4031.224Z" fill="#e84b5f"/>
        <path id="Shape-14" data-name="Shape" d="M361.009,4028.664v5.405a2.844,2.844,0,1,1-5.689,0v-5.12c1.906-.2,3.783-.37,5.661-.456A.36.36,0,0,1,361.009,4028.664Z" fill="#e84b5f"/>
        <path id="Shape-15" data-name="Shape" d="M378.078,4042.6a2.845,2.845,0,0,1-2.845,2.845h-5.689a2.845,2.845,0,0,1-2.845-2.845v-13.968a.486.486,0,0,1,.028-.2,46.091,46.091,0,0,1,5.662.541v10.782h2.844A2.845,2.845,0,0,1,378.078,4042.6Z" fill="#e84b5f"/>
        <path id="Shape-16" data-name="Shape" d="M355.32,4079.586v4.552a3.276,3.276,0,0,1-.057.541,31.213,31.213,0,0,0-5.633-.8v-4.3a2.845,2.845,0,0,1,5.69,0Z" fill="#e84b5f"/>
        <path id="Shape-17" data-name="Shape" d="M372.389,4079.586h-2.845a8.534,8.534,0,0,1-8.535-8.534v-2.845a2.845,2.845,0,0,1,5.69,0v2.845a2.845,2.845,0,0,0,2.845,2.845h2.845a2.844,2.844,0,0,1,0,5.689Z" fill="#e84b5f"/>
        <path id="Shape-18" data-name="Shape" d="M383.768,4068.207h-2.845a8.535,8.535,0,0,1,0-17.069h2.845a2.845,2.845,0,1,1,0,5.69h-2.845a2.845,2.845,0,1,0,0,5.689h2.845a2.845,2.845,0,1,1,0,5.69Z" fill="#e84b5f"/>
        <path id="Shape-19" data-name="Shape" d="M392.3,4036.914v8.535a2.844,2.844,0,0,1-5.689,0v-8.535a2.845,2.845,0,0,1,1.678-2.589c1.337.683,2.646,1.423,3.983,2.276A1.061,1.061,0,0,1,392.3,4036.914Z" fill="#e84b5f"/>
        <path id="Shape-20" data-name="Shape" d="M403.682,4045.107v6.031a8.561,8.561,0,0,1-8.535,8.535,2.845,2.845,0,0,1,0-5.69,2.845,2.845,0,0,0,2.845-2.845v-8.506a2.846,2.846,0,0,1,.6-1.735c.655.483,1.28.967,1.935,1.479A33.108,33.108,0,0,1,403.682,4045.107Z" fill="#e84b5f"/>
        <path id="Shape-21" data-name="Shape" d="M389.457,4082.431h-2.844a2.844,2.844,0,1,1,0-5.689h2.844a2.845,2.845,0,0,0,2.845-2.845v-5.69a2.845,2.845,0,0,1,5.69,0v5.69A8.534,8.534,0,0,1,389.457,4082.431Z" fill="#e84b5f"/>
        <path id="Shape-22" data-name="Shape" d="M397.992,4090.966a2.845,2.845,0,0,1-2.845,2.845h-8.534a2.844,2.844,0,0,0-2.845,2.844v5.69a2.858,2.858,0,0,1-.228,1.109,28.054,28.054,0,0,1-5.462-2.531v-4.268a8.56,8.56,0,0,1,8.535-8.534h8.534a2.844,2.844,0,0,1,2.845,2.845Z" fill="#e84b5f"/>
        <path id="Shape-23" data-name="Shape" d="M415.032,4076.742h-8.506a2.845,2.845,0,0,1,0-5.69h8.193C414.89,4072.9,415,4074.807,415.032,4076.742Z" fill="#e84b5f"/>
        <path id="Shape-24" data-name="Shape" d="M414.862,4082.46a24.973,24.973,0,0,1-1.138,5.661h-7.2a2.845,2.845,0,0,1,0-5.69h7.937A1.736,1.736,0,0,1,414.862,4082.46Z" fill="#e84b5f"/>
      </g>
    </g>
  </g>
</svg>
