<svg xmlns="http://www.w3.org/2000/svg" width="184.277" height="158.056" viewBox="0 0 184.277 158.056">
  <g id="Сгруппировать_2911" data-name="Сгруппировать 2911" transform="translate(-1037.435 -7602.91)">
    <path id="Контур_19452" data-name="Контур 19452" d="M1080,7760.566l65.089-15.5,63.2-15.054,1.179-.28a14.565,14.565,0,0,0,10.792-17.543l-.281-1.178-19.162-80.451-.28-1.178A14.565,14.565,0,0,0,1183,7618.586l-1.179.281-32.725,7.794-1.064-4.468a14.589,14.589,0,0,0-17.572-10.812l-32.57,7.758a14.588,14.588,0,0,0-10.812,17.572l1.064,4.468-34.612,8.244a14.564,14.564,0,0,0-10.794,17.543l19.723,82.807A14.563,14.563,0,0,0,1080,7760.566Zm17.74-126.394a3.632,3.632,0,0,1,2.687-4.371l32.573-7.758a3.632,3.632,0,0,1,4.369,2.69l1.064,4.467-19.816,4.72-19.813,4.719Z" opacity="0.2"/>
    <g id="Сгруппировать_2910" data-name="Сгруппировать 2910">
      <path id="Контур_19453" data-name="Контур 19453" d="M1128.534,7603.31l-32.571,7.757a14.588,14.588,0,0,0-10.811,17.572l2.128,8.937a14.588,14.588,0,0,0,17.572,10.811l32.571-7.757a14.587,14.587,0,0,0,10.811-17.572l-2.128-8.937A14.588,14.588,0,0,0,1128.534,7603.31Zm9.039,22.287a3.633,3.633,0,0,1-2.688,4.369l-32.573,7.758a3.631,3.631,0,0,1-4.368-2.688l-2.128-8.936a3.63,3.63,0,0,1,2.687-4.37l32.573-7.758a3.632,3.632,0,0,1,4.369,2.689Z" fill="#376049"/>
      <path id="Прямоугольник_746" data-name="Прямоугольник 746" d="M7.2,0H155.023a7.2,7.2,0,0,1,7.2,7.2v99.86a7.2,7.2,0,0,1-7.2,7.2H7.2a7.2,7.2,0,0,1-7.2-7.2V7.2A7.2,7.2,0,0,1,7.2,0Z" transform="translate(1037.435 7644.726) rotate(-13.397)" fill="#fff"/>
      <path id="Контур_19454" data-name="Контур 19454" d="M1179.9,7610.795l-63.2,15.053,26.472,111.144,63.2-15.053a15.776,15.776,0,0,0,11.69-19l-19.162-80.451A15.775,15.775,0,0,0,1179.9,7610.795Z" fill="#e8f3e8"/>
      <g id="Сгруппировать_2909" data-name="Сгруппировать 2909">
        <rect id="Прямоугольник_747" data-name="Прямоугольник 747" width="75.265" height="22.077" transform="translate(1091.474 7679.232) rotate(-13.397)" fill="#f1673e"/>
        <rect id="Прямоугольник_748" data-name="Прямоугольник 748" width="75.264" height="22.077" transform="translate(1132.66 7642.085) rotate(76.603)" fill="#f1673e"/>
      </g>
    </g>
  </g>
</svg>
