<svg xmlns="http://www.w3.org/2000/svg" width="154.018" height="171.491" viewBox="0 0 154.018 171.491">
  <g id="Сгруппировать_2900" data-name="Сгруппировать 2900" transform="translate(-160.511 -7570.659)">
    <path id="Контур_19434" data-name="Контур 19434" d="M221.794,7741.456l42.4-16.3,43.046-16.549,2.026-.778a8.19,8.19,0,0,0,4.713-10.6l-.779-2.025-41.18-107.12-.784-2.041a8.186,8.186,0,0,0-10.594-4.7l-2.025.779-21.1,8.111-.564-1.466a1.825,1.825,0,0,0-2.36-1.05l-12.846,4.939a7.922,7.922,0,1,0-14.789,5.685l-12.847,4.939a1.824,1.824,0,0,0-1.048,2.359l.564,1.467-20.456,7.863a10.374,10.374,0,0,0-5.96,13.4l41.18,107.12A10.374,10.374,0,0,0,221.794,7741.456Z" opacity="0.2"/>
    <g id="Сгруппировать_2899" data-name="Сгруппировать 2899">
      <rect id="Прямоугольник_732" data-name="Прямоугольник 732" width="112.287" height="135.508" rx="5.125" transform="translate(160.511 7610.95) rotate(-21.028)" fill="#fff"/>
      <path id="Контур_19435" data-name="Контур 19435" d="M268.258,7578.3,311,7689.486a8.19,8.19,0,0,1-4.713,10.6l-45.072,17.327-48.624-126.484,45.072-17.327A8.187,8.187,0,0,1,268.258,7578.3Z" fill="#e8f3e8"/>
      <path id="Контур_19436" data-name="Контур 19436" d="M218.769,7584.915a7.922,7.922,0,1,0-14.789,5.685l-12.847,4.939a1.823,1.823,0,0,0-1.048,2.358l2.228,5.795a5.554,5.554,0,0,0,7.18,3.193L233.01,7594a5.556,5.556,0,0,0,3.192-7.18l-2.227-5.795a1.826,1.826,0,0,0-2.36-1.049Z" fill="#376049"/>
      <g id="Сгруппировать_2898" data-name="Сгруппировать 2898">
        <rect id="Прямоугольник_733" data-name="Прямоугольник 733" width="19.745" height="5.791" transform="translate(183.347 7632.615) rotate(-21.028)" fill="#f1673e"/>
        <rect id="Прямоугольник_734" data-name="Прямоугольник 734" width="19.745" height="5.791" transform="translate(192.761 7621.521) rotate(68.972)" fill="#f1673e"/>
      </g>
      <rect id="Прямоугольник_735" data-name="Прямоугольник 735" width="54.097" height="11.602" transform="translate(208.931 7619.667) rotate(-21.028)" fill="#f1673e"/>
      <rect id="Прямоугольник_736" data-name="Прямоугольник 736" width="83.398" height="4.797" transform="translate(194.755 7660.738) rotate(-21.028)" fill="#98bda8"/>
      <rect id="Прямоугольник_737" data-name="Прямоугольник 737" width="83.398" height="4.796" transform="translate(201.306 7677.777) rotate(-21.028)" fill="#98bda8"/>
      <rect id="Прямоугольник_738" data-name="Прямоугольник 738" width="83.398" height="4.797" transform="translate(207.855 7694.815) rotate(-21.028)" fill="#98bda8"/>
      <rect id="Прямоугольник_739" data-name="Прямоугольник 739" width="48.422" height="4.797" transform="translate(214.405 7711.854) rotate(-21.028)" fill="#98bda8"/>
    </g>
  </g>
</svg>
