<svg xmlns="http://www.w3.org/2000/svg" width="103.109" height="130.429" viewBox="0 0 103.109 130.429">
  <g id="Сгруппировать_2908" data-name="Сгруппировать 2908" transform="translate(-692.83 -7574.757)">
    <path id="Контур_19443" data-name="Контур 19443" d="M703.2,7698.16l3.352,2.4a24.793,24.793,0,0,0,34.589-5.744l50.166-70.144a24.794,24.794,0,0,0-5.746-34.59l-3.352-2.4a24.793,24.793,0,0,0-34.589,5.744l-50.166,70.144A24.793,24.793,0,0,0,703.2,7698.16Z" opacity="0.2"/>
    <g id="Сгруппировать_2907" data-name="Сгруппировать 2907">
      <path id="Контур_19444" data-name="Контур 19444" d="M706.556,7692.262l-3.352-2.4a24.793,24.793,0,0,1-5.746-34.59l50.166-70.143a24.792,24.792,0,0,1,34.589-5.744l3.352,2.4a24.793,24.793,0,0,1,5.746,34.59l-50.166,70.143A24.794,24.794,0,0,1,706.556,7692.262Z" fill="#fcbd17"/>
      <path id="Прямоугольник_744" data-name="Прямоугольник 744" d="M7.28,0H33.19a7.282,7.282,0,0,1,7.282,7.282V46.43a7.281,7.281,0,0,1-7.281,7.281H7.28A7.28,7.28,0,0,1,0,46.432V7.28A7.28,7.28,0,0,1,7.28,0Z" transform="matrix(0.813, 0.582, -0.582, 0.813, 743.547, 7602.208)" fill="#fcda15"/>
      <path id="Контур_19445" data-name="Контур 19445" d="M767.9,7637.729l-14.108,19.733a14.713,14.713,0,0,1-20.542,3.4l-8.946-6.4a14.636,14.636,0,0,1-5.848-9.007l52.136-17.568A14.619,14.619,0,0,1,767.9,7637.729Z" fill="#c88b40"/>
      <path id="Прямоугольник_745" data-name="Прямоугольник 745" d="M4.281,0H40.135a4.281,4.281,0,0,1,4.281,4.281V26.9a4.279,4.279,0,0,1-4.279,4.279H4.281A4.281,4.281,0,0,1,0,26.895V4.281A4.281,4.281,0,0,1,4.281,0Z" transform="matrix(-0.582, 0.813, -0.813, -0.582, 769.982, 7626.828)" fill="#fcda15"/>
      <g id="Сгруппировать_2905" data-name="Сгруппировать 2905">
        <path id="Контур_19446" data-name="Контур 19446" d="M766.978,7592.3a3.13,3.13,0,1,1-.724-4.368A3.129,3.129,0,0,1,766.978,7592.3Z" fill="#c88b40"/>
        <path id="Контур_19447" data-name="Контур 19447" d="M782.106,7603.119a3.131,3.131,0,1,1-.725-4.368A3.132,3.132,0,0,1,782.106,7603.119Z" fill="#c88b40"/>
        <path id="Контур_19448" data-name="Контур 19448" d="M767.48,7607.585a3.131,3.131,0,1,1-.725-4.368A3.13,3.13,0,0,1,767.48,7607.585Z" fill="#c88b40"/>
      </g>
      <g id="Сгруппировать_2906" data-name="Сгруппировать 2906">
        <path id="Контур_19449" data-name="Контур 19449" d="M710.752,7672.246a3.131,3.131,0,1,0-4.368.726A3.131,3.131,0,0,0,710.752,7672.246Z" fill="#c88b40"/>
        <path id="Контур_19450" data-name="Контур 19450" d="M725.881,7683.066a3.131,3.131,0,1,0-4.368.724A3.133,3.133,0,0,0,725.881,7683.066Z" fill="#c88b40"/>
        <path id="Контур_19451" data-name="Контур 19451" d="M725.378,7667.781a3.131,3.131,0,1,0-4.368.725A3.129,3.129,0,0,0,725.378,7667.781Z" fill="#c88b40"/>
      </g>
    </g>
  </g>
</svg>
