<svg xmlns="http://www.w3.org/2000/svg" width="137.372" height="198.653" viewBox="0 0 137.372 198.653">
  <g id="Сгруппировать_2904" data-name="Сгруппировать 2904" transform="translate(-391.739 -7484.738)">
    <path id="Контур_19437" data-name="Контур 19437" d="M420.2,7549.584c-.378.889-.733,1.714-1.046,2.625l-11.741,34.176-13.978,40.685a30.932,30.932,0,0,0,19.23,39.357l44.46,15.274a31,31,0,0,0,39.36-19.226l13.977-40.683,11.741-34.176c.315-.915.534-1.783.79-2.719a31.014,31.014,0,0,0-19.511-36.444l2.194.754,2.165-6.3,2.941,1.01,1.316.452a4.1,4.1,0,0,0,5.214-2.548l.452-1.315,6.866-19.985.451-1.315a4.1,4.1,0,0,0-2.547-5.215l-1.312-.451h0l-55.788-19.166a5.494,5.494,0,0,0-6.981,3.411l-6.867,19.985a5.5,5.5,0,0,0,3.412,6.982l2.94,1.01-2.165,6.3,2.273.781A30.975,30.975,0,0,0,420.2,7549.584Z" opacity="0.2"/>
    <g id="Сгруппировать_2903" data-name="Сгруппировать 2903">
      <g id="Сгруппировать_2901" data-name="Сгруппировать 2901">
        <rect id="Прямоугольник_740" data-name="Прямоугольник 740" width="69.978" height="32.121" rx="2.715" transform="matrix(0.946, 0.325, -0.325, 0.946, 462.93, 7484.738)" fill="#fff"/>
        <path id="Контур_19438" data-name="Контур 19438" d="M525.23,7506.142l-29.093-10L485.7,7526.525l29.093,10a4.1,4.1,0,0,0,5.214-2.548l7.769-22.615A4.1,4.1,0,0,0,525.23,7506.142Z" fill="#d1e8d3"/>
        <rect id="Прямоугольник_741" data-name="Прямоугольник 741" width="52.77" height="6.686" transform="matrix(0.946, 0.325, -0.325, 0.946, 460.637, 7517.891)" fill="#98bda8"/>
        <path id="Контур_19439" data-name="Контур 19439" d="M524.9,7579.764l-25.719,74.861a30.933,30.933,0,0,1-39.357,19.23l-44.461-15.274a30.932,30.932,0,0,1-19.229-39.358l25.719-74.861c.313-.912.667-1.736,1.046-2.625a30.986,30.986,0,0,1,38.311-16.606l44.461,15.275a30.986,30.986,0,0,1,20.017,36.644C525.435,7577.984,525.21,7578.853,524.9,7579.764Z" fill="#f4803b"/>
        <path id="Контур_19440" data-name="Контур 19440" d="M524.9,7579.769l-25.718,74.859a30.931,30.931,0,0,1-39.362,19.219l-22.121-7.6L483.544,7532.8l22.121,7.6a31,31,0,0,1,20.024,36.648C525.432,7577.985,525.214,7578.854,524.9,7579.769Z" fill="#f1673e"/>
        <path id="Контур_19441" data-name="Контур 19441" d="M524.9,7579.764l-11.741,34.176-103.047-35.4,11.741-34.175c.313-.912.667-1.736,1.046-2.625l102.789,35.313C525.435,7577.984,525.21,7578.853,524.9,7579.764Z" fill="#fff"/>
        <path id="Контур_19442" data-name="Контур 19442" d="M524.9,7579.769l-11.741,34.176-51.422-17.666,12.66-36.85,51.293,17.621C525.432,7577.985,525.214,7578.854,524.9,7579.769Z" fill="#d1e8d3"/>
      </g>
      <g id="Сгруппировать_2902" data-name="Сгруппировать 2902">
        <rect id="Прямоугольник_742" data-name="Прямоугольник 742" width="20.089" height="5.893" transform="matrix(0.946, 0.325, -0.325, 0.946, 459.524, 7571.804)" fill="#f1673e"/>
        <rect id="Прямоугольник_743" data-name="Прямоугольник 743" width="20.087" height="5.892" transform="matrix(-0.325, 0.946, -0.946, -0.325, 474.117, 7569.313)" fill="#f1673e"/>
      </g>
    </g>
  </g>
</svg>
