<svg xmlns="http://www.w3.org/2000/svg" xmlns:xlink="http://www.w3.org/1999/xlink" width="477.627" height="783.445" viewBox="0 0 477.627 783.445">
  <defs>
    <clipPath id="clip-path">
      <rect id="Прямоугольник_727" data-name="Прямоугольник 727" width="248.3" height="783.445" transform="translate(1027.793 1088.566)" fill="none"/>
    </clipPath>
  </defs>
  <g id="Сгруппировать_2865" data-name="Сгруппировать 2865" transform="translate(-798.467 -1088.566)">
    <ellipse id="Эллипс_104" data-name="Эллипс 104" cx="152.585" cy="11.771" rx="152.585" ry="11.771" transform="translate(873.001 1838.839)" fill="#403f3e" opacity="0.2"/>
    <g id="Сгруппировать_2864" data-name="Сгруппировать 2864">
      <g id="Сгруппировать_2834" data-name="Сгруппировать 2834">
        <g id="Сгруппировать_2826" data-name="Сгруппировать 2826">
          <path id="Контур_19228" data-name="Контур 19228" d="M1209.341,1486.639a21.269,21.269,0,0,1-15.088-6.25L1077,1363.131a21.338,21.338,0,0,1,30.176-30.176l117.257,117.258a21.338,21.338,0,0,1-15.089,36.426Z" fill="#f6b8a1"/>
          <path id="Контур_19229" data-name="Контур 19229" d="M1248.73,1485.093a5.241,5.241,0,0,0,7.412-7.412l-27.281-27.28h10.9a5.24,5.24,0,0,0,0-10.481h-26.4A25.331,25.331,0,0,0,1189.1,1482.2a5.237,5.237,0,0,0,1.134,1.7l24.807,24.8a5.241,5.241,0,0,0,7.411-7.413l-11.716-11.715a25.57,25.57,0,0,0,3.523-.752l15.366,15.365a5.241,5.241,0,0,0,7.412-7.413l-13.191-13.19c.434-.38.863-.77,1.276-1.184q.458-.457.886-.931l17.552,17.551a5.241,5.241,0,1,0,7.411-7.412l-19.579-19.577a25.383,25.383,0,0,0,.815-3.466Z" fill="#f6b8a1"/>
        </g>
        <path id="Контур_19230" data-name="Контур 19230" d="M1140.979,1835.4l-.012,0c-.2-.048-.391-.087-.591-.118l-48.244-9.681c.047-.643.079-1.291.079-1.945V1581.74a26.2,26.2,0,0,0-52.409,0v259.972a8.164,8.164,0,0,0,8.14,8.141h91.272a7.336,7.336,0,0,0,1.765-14.458Z" fill="#f6b8a1"/>
        <g id="Сгруппировать_2827" data-name="Сгруппировать 2827">
          <path id="Контур_19231" data-name="Контур 19231" d="M846.8,1486.639a21.271,21.271,0,0,0,15.088-6.25l117.256-117.258a21.338,21.338,0,0,0-30.176-30.176L831.714,1450.213a21.338,21.338,0,0,0,15.089,36.426Z" fill="#f6b8a1"/>
          <path id="Контур_19232" data-name="Контур 19232" d="M866.844,1446.583a25.312,25.312,0,0,0-24.065-6.663h-26.4a5.24,5.24,0,1,0,0,10.481h10.9L800,1477.681a5.241,5.241,0,0,0,7.411,7.412l16.52-16.52a25.332,25.332,0,0,0,.814,3.466l-19.577,19.577a5.24,5.24,0,1,0,7.409,7.412l17.553-17.551q.429.474.886.931c.414.414.842.8,1.277,1.184l-13.191,13.19a5.241,5.241,0,1,0,7.411,7.413l15.366-15.365a25.573,25.573,0,0,0,3.523.752L833.688,1501.3a5.241,5.241,0,1,0,7.412,7.413l24.806-24.8a5.224,5.224,0,0,0,1.133-1.7A25.332,25.332,0,0,0,866.844,1446.583Z" fill="#f6b8a1"/>
        </g>
        <path id="Контур_19233" data-name="Контур 19233" d="M990.138,1555.536a26.2,26.2,0,0,0-26.205,26.2v241.908c0,.654.032,1.3.08,1.945l-48.244,9.681q-.3.047-.592.118l-.011,0a7.336,7.336,0,0,0,1.764,14.458H1008.2a8.164,8.164,0,0,0,8.14-8.141V1581.74A26.2,26.2,0,0,0,990.138,1555.536Z" fill="#f6b8a1"/>
        <g id="Сгруппировать_2833" data-name="Сгруппировать 2833">
          <rect id="Прямоугольник_726" data-name="Прямоугольник 726" width="41.86" height="43.85" transform="translate(1007.142 1283.104)" fill="#f6b8a1"/>
          <g id="Сгруппировать_2829" data-name="Сгруппировать 2829">
            <g id="Сгруппировать_2828" data-name="Сгруппировать 2828">
              <path id="Контур_19234" data-name="Контур 19234" d="M986,1235.525a13.27,13.27,0,1,0-13.27,13.27A13.27,13.27,0,0,0,986,1235.525Z" fill="#d79880"/>
            </g>
            <path id="Контур_19235" data-name="Контур 19235" d="M976.049,1233.8c-1.238-1.743-8.025-4.714-9.55-.618s4.66,2.531,6.748,7.565C975.039,1245.07,981.337,1239.872,976.049,1233.8Z" fill="#dadada" style="mix-blend-mode: multiply;isolation: isolate"/>
            <path id="Контур_19236" data-name="Контур 19236" d="M972.726,1222.255a13.229,13.229,0,0,0-3.13.387v25.766a13.264,13.264,0,1,0,3.13-26.153Z" fill="#dadada" opacity="0.6" style="mix-blend-mode: multiply;isolation: isolate"/>
          </g>
          <g id="Сгруппировать_2831" data-name="Сгруппировать 2831">
            <g id="Сгруппировать_2830" data-name="Сгруппировать 2830">
              <path id="Контур_19237" data-name="Контур 19237" d="M1070.149,1235.525a13.27,13.27,0,1,1,13.271,13.27A13.27,13.27,0,0,1,1070.149,1235.525Z" fill="#d79880"/>
            </g>
            <path id="Контур_19238" data-name="Контур 19238" d="M1080.095,1233.8c1.239-1.743,8.026-4.714,9.551-.618s-4.659,2.531-6.749,7.565C1081.1,1245.07,1074.807,1239.872,1080.095,1233.8Z" fill="#dadada" style="mix-blend-mode: multiply;isolation: isolate"/>
            <path id="Контур_19239" data-name="Контур 19239" d="M1083.42,1222.255a13.226,13.226,0,0,1,3.129.387v25.766a13.264,13.264,0,1,1-3.129-26.153Z" fill="#dadada" opacity="0.6" style="mix-blend-mode: multiply;isolation: isolate"/>
          </g>
          <path id="Контур_19240" data-name="Контур 19240" d="M1007.142,1283.1v23.754a61.851,61.851,0,0,0,41.86,0V1283.1Z" fill="#dadada" opacity="0.6" style="mix-blend-mode: multiply;isolation: isolate"/>
          <path id="Контур_19241" data-name="Контур 19241" d="M972.726,1193.341v55.346a55.347,55.347,0,1,0,110.694,0v-55.346Z" fill="#f6b8a1"/>
          <path id="Контур_19242" data-name="Контур 19242" d="M967.2,1220.823V1190.23a10.725,10.725,0,1,1,21.451,0,12.053,12.053,0,0,1-.078,1.3l-3.129,29.3-.133,1.1a9.089,9.089,0,0,1-18.111-1.1Z" fill="#64403e"/>
          <path id="Контур_19243" data-name="Контур 19243" d="M1088.943,1220.823V1190.23a10.726,10.726,0,0,0-21.452,0,12.326,12.326,0,0,0,.078,1.3l3.129,29.3.134,1.1a9.089,9.089,0,0,0,18.111-1.1Z" fill="#64403e"/>
          <path id="Контур_19244" data-name="Контур 19244" d="M1078.217,1179.5a10.726,10.726,0,0,0-10.726,10.726,12.326,12.326,0,0,0,.078,1.3l.194,1.815H988.382l.193-1.815a12.053,12.053,0,0,0,.078-1.3,10.722,10.722,0,0,0-16.636-8.947,13.907,13.907,0,0,0,.358,6.55c1.582,5.37,6.112,10.118,13.463,14.113,7.594,4.126,23.935,7.009,39.739,7.01h.008c29.68,0,51.314-8.982,61.311-25.01A10.7,10.7,0,0,0,1078.217,1179.5Z" fill="#dadada" opacity="0.6" style="mix-blend-mode: multiply;isolation: isolate"/>
          <path id="Контур_19245" data-name="Контур 19245" d="M1084.889,1162.959a8.249,8.249,0,0,0-12.352,0,9.531,9.531,0,0,0-1.841,2.958l0,0c-3.182-3.457-65.631-27.559-93.668,14.437,0,0-4.906,8.981,10.977,17.612s87.528,15.129,99.045-25.437l0,0A10.075,10.075,0,0,0,1084.889,1162.959Z" fill="#774f4b"/>
          <path id="Контур_19246" data-name="Контур 19246" d="M1035.624,1246.314c3.561,0,5.283-2.658,3.829-5.908,0,0-3.635-8.118-11.381-8.118s-11.381,8.118-11.381,8.118c-1.454,3.25.268,5.908,3.829,5.908Z" fill="#d79880"/>
          <path id="Контур_19247" data-name="Контур 19247" d="M1001.1,1229.052a3.884,3.884,0,1,0-3.885,3.884A3.884,3.884,0,0,0,1001.1,1229.052Z" fill="#3a404a"/>
          <path id="Контур_19248" data-name="Контур 19248" d="M1055.044,1229.052a3.885,3.885,0,1,1,3.884,3.884A3.884,3.884,0,0,1,1055.044,1229.052Z" fill="#3a404a"/>
          <g id="Сгруппировать_2832" data-name="Сгруппировать 2832">
            <path id="Контур_19249" data-name="Контур 19249" d="M1007.142,1256.672a20.93,20.93,0,1,0,41.86,0Z" fill="#bd6054"/>
            <path id="Контур_19250" data-name="Контур 19250" d="M1042.348,1271.97a23.5,23.5,0,0,0-28.553,0,20.911,20.911,0,0,0,28.553,0Z" fill="#e98699"/>
          </g>
        </g>
        <path id="Контур_19251" data-name="Контур 19251" d="M1093.275,1561.526c2.375-14.414,7.242-29.194,8.666-43.073a318.725,318.725,0,0,0,.8-56.039c-1.287-17.361-10.657-33.352-10.657-50.711v-84.749H964.059v45.865c0,17.374.806,33.2-2.614,50.421-3.477,17.518-8.571,34.718-10.793,52.476a165.517,165.517,0,0,0,1.212,48.866c2.616,15.016,12.36,31.118,12.2,46.225-.04,3.644,0,7.289,0,10.933h26.28a85.306,85.306,0,0,0,74.9.006c2.12-1.038,7.757-.012,9.986-.015l16.995-.025A78.151,78.151,0,0,1,1093.275,1561.526Z" fill="#f6b8a1"/>
      </g>
      <g id="Сгруппировать_2863" data-name="Сгруппировать 2863">
        <g id="Сгруппировать_2862" data-name="Сгруппировать 2862" clip-path="url(#clip-path)">
          <g id="Сгруппировать_2861" data-name="Сгруппировать 2861">
            <g id="Сгруппировать_2860" data-name="Сгруппировать 2860">
              <g id="Сгруппировать_2859" data-name="Сгруппировать 2859">
                <g id="Сгруппировать_2835" data-name="Сгруппировать 2835">
                  <path id="Контур_19252" data-name="Контур 19252" d="M1037.989,1467.294c-8.6.985-31.565-6.164-37.088-3.006" fill="none" stroke="#4d8bc9" stroke-linecap="round" stroke-linejoin="round" stroke-width="1.999"/>
                  <path id="Контур_19253" data-name="Контур 19253" d="M1009.009,1463.543c-1.813-1.5-8.44-2.2-10.554-5.54" fill="none" stroke="#4d8bc9" stroke-linecap="round" stroke-linejoin="round" stroke-width="1.692"/>
                  <path id="Контур_19254" data-name="Контур 19254" d="M1007.845,1463.543c-1.813,1.5-6.349,2.88-8.463,6.217" fill="none" stroke="#4d8bc9" stroke-linecap="round" stroke-linejoin="round" stroke-width="1.692"/>
                  <path id="Контур_19255" data-name="Контур 19255" d="M1002.708,1461.235c0-2.176-1.807-3.9-2.473-5.457" fill="none" stroke="#4d8bc9" stroke-linecap="round" stroke-linejoin="round" stroke-width="0.913"/>
                </g>
                <g id="Сгруппировать_2836" data-name="Сгруппировать 2836">
                  <path id="Контур_19256" data-name="Контур 19256" d="M1041.708,1458.424c2.373-.832,10.108.67,14.445,3.4" fill="none" stroke="#4d8bc9" stroke-linecap="round" stroke-linejoin="round" stroke-width="1.999"/>
                  <path id="Контур_19257" data-name="Контур 19257" d="M1048.931,1458.961c1.813-1.5,7.555-1.307,9.668-4.644" fill="none" stroke="#4d8bc9" stroke-linecap="round" stroke-linejoin="round" stroke-width="1.692"/>
                  <path id="Контур_19258" data-name="Контур 19258" d="M1050.284,1459.456c1.332,3.84,5.275,4.5,7.388,7.838" fill="none" stroke="#4d8bc9" stroke-linecap="round" stroke-linejoin="round" stroke-width="1.692"/>
                  <path id="Контур_19259" data-name="Контур 19259" d="M1054.372,1457.108c0-2.176,1.781-3.459,2.447-5.016" fill="none" stroke="#4d8bc9" stroke-linecap="round" stroke-linejoin="round" stroke-width="0.913"/>
                </g>
                <g id="Сгруппировать_2837" data-name="Сгруппировать 2837">
                  <path id="Контур_19260" data-name="Контур 19260" d="M1025.494,1361.576c-4.364-13.091-31.5-36.346-66.039-20.458s-29.511,63.182-42.859,75.64-63.266,9.86-66.8,31.587c-2.027,12.47,22.276,23.438-11.006,54.287" fill="none" stroke="#4d8bc9" stroke-linecap="round" stroke-linejoin="round" stroke-width="1.999"/>
                  <path id="Контур_19261" data-name="Контур 19261" d="M855.954,1468.321c-7.138,1.683-29.978,6.239-47.479,24.28" fill="none" stroke="#4d8bc9" stroke-linecap="round" stroke-linejoin="round" stroke-width="1.999"/>
                  <path id="Контур_19262" data-name="Контур 19262" d="M964.059,1353.132c-7.418,0-39.532,14.408-55.289,30.563s-33.832,69.334-42.9,73.553c-17.531,8.159-24.866-8.849-63.182,22.247" fill="none" stroke="#4d8bc9" stroke-linecap="round" stroke-linejoin="round" stroke-width="1.999"/>
                  <path id="Контур_19263" data-name="Контур 19263" d="M813.814,1492.6c12.459-21.9,63.478-42.176,80.683-62.346s28.478-63.3,69.708-77.123c26.03-8.731,66.925-6.823,76.615,17.574" fill="none" stroke="#e8496e" stroke-linecap="round" stroke-linejoin="round" stroke-width="3.516"/>
                  <path id="Контур_19264" data-name="Контур 19264" d="M912.628,1401.679c-14.868,2.176-64.571,33.453-67.371,52.6s-4.757,35.595-21.659,45.977" fill="none" stroke="#e8496e" stroke-linecap="round" stroke-linejoin="round" stroke-width="1.999"/>
                  <path id="Контур_19265" data-name="Контур 19265" d="M849.689,1449.4c-3.31,1-13.682-9.2-32.121-4.236" fill="none" stroke="#4d8bc9" stroke-linecap="round" stroke-linejoin="round" stroke-width="1.999"/>
                  <path id="Контур_19266" data-name="Контур 19266" d="M867.441,1451.326c-5.87.434-33.1-7.536-60.894,30.839" fill="none" stroke="#e8496e" stroke-linecap="round" stroke-linejoin="round" stroke-width="1.999"/>
                  <path id="Контур_19267" data-name="Контур 19267" d="M883.375,1440.384c-19.06,22.648-13.652,39.779-45.645,64.251" fill="none" stroke="#e8496e" stroke-linecap="round" stroke-linejoin="round" stroke-width="1.999"/>
                  <path id="Контур_19268" data-name="Контур 19268" d="M862.926,1458.422c-1.28,8.17-5.922,17.945-13.129,19.788-9.064,2.318-21.745,11.964-27.529,24.422" fill="none" stroke="#4d8bc9" stroke-linecap="round" stroke-linejoin="round" stroke-width="1.999"/>
                  <path id="Контур_19269" data-name="Контур 19269" d="M852.99,1440.384c-19.361,12.415-27.527,2.329-36.655,3.406" fill="none" stroke="#e8496e" stroke-linecap="round" stroke-linejoin="round" stroke-width="1.999"/>
                </g>
                <g id="Сгруппировать_2838" data-name="Сгруппировать 2838">
                  <path id="Контур_19270" data-name="Контур 19270" d="M1024.16,1384.646c-46.894-12.556-56.805,3.886-38.117,6.081" fill="none" stroke="#4d8bc9" stroke-linecap="round" stroke-linejoin="round" stroke-width="1.999"/>
                  <path id="Контур_19271" data-name="Контур 19271" d="M1026.384,1399.774c-1.2.075-27.289-4.154-44.59-3.334-14.173.672-15.329,8.97,1.8,10.232" fill="none" stroke="#4d8bc9" stroke-linecap="round" stroke-linejoin="round" stroke-width="1.999"/>
                  <path id="Контур_19272" data-name="Контур 19272" d="M1031.25,1401.936c-1.742,8.264-9.848,12.408-21.18,10.725-6.037-.9-34.294-.872-39.693,3.652s7.508,7.9,20.782,6.894" fill="none" stroke="#4d8bc9" stroke-linecap="round" stroke-linejoin="round" stroke-width="1.999"/>
                  <path id="Контур_19273" data-name="Контур 19273" d="M1030.925,1405.538c-1.742,8.264-2.274,26.568-18.544,23.912-6.024-.984-34.294-.872-39.693,3.652s7.509,7.9,20.783,6.894" fill="none" stroke="#4d8bc9" stroke-linecap="round" stroke-linejoin="round" stroke-width="1.999"/>
                  <path id="Контур_19274" data-name="Контур 19274" d="M1029.391,1414.079c-1.742,8.264-4.089,33.738-20.36,31.081-6.023-.983-20.5-2.346-25.9,2.178s5.439,8.409,11.809,7.964" fill="none" stroke="#4d8bc9" stroke-linecap="round" stroke-linejoin="round" stroke-width="1.999"/>
                  <path id="Контур_19275" data-name="Контур 19275" d="M1027.376,1370.939c-3.81-3.424-16.417-5.966-24.722-5.966-14.535,0-27.343,4.6-17.257,9.439" fill="none" stroke="#4d8bc9" stroke-linecap="round" stroke-linejoin="round" stroke-width="2.804"/>
                </g>
                <g id="Сгруппировать_2839" data-name="Сгруппировать 2839">
                  <path id="Контур_19276" data-name="Контур 19276" d="M1024.678,1387.7c-47-11.4-56.8,3.886-38.117,6.081" fill="none" stroke="#e8496e" stroke-linecap="round" stroke-linejoin="round" stroke-width="1.999"/>
                  <path id="Контур_19277" data-name="Контур 19277" d="M1027.9,1402.389c-9.858,1.13-27.29-4.154-44.59-3.334-14.174.672-15.064,10.248,2.511,9.387" fill="none" stroke="#e8496e" stroke-linecap="round" stroke-linejoin="round" stroke-width="1.999"/>
                  <path id="Контур_19278" data-name="Контур 19278" d="M1028.146,1400.07c.931,9.691-6.211,17.65-18.113,16.243-9.661-1.141-31.983-1.627-37.382,2.9s3.751,7.112,16.358,2.5" fill="none" stroke="#e8496e" stroke-linecap="round" stroke-linejoin="round" stroke-width="1.999"/>
                  <path id="Контур_19279" data-name="Контур 19279" d="M1024.678,1418.331c-7.107,17.008-41.148,7.695-50.671,17.731-4.849,5.109,3.882,7.168,17.6,4.609" fill="none" stroke="#e8496e" stroke-linecap="round" stroke-linejoin="round" stroke-width="1.999"/>
                  <path id="Контур_19280" data-name="Контур 19280" d="M1018.041,1434.034c-1.3,25.027-26.807,10.038-33.05,15.39-5.347,4.585,5.44,8.41,11.81,7.964" fill="none" stroke="#e8496e" stroke-linecap="round" stroke-linejoin="round" stroke-width="1.999"/>
                  <path id="Контур_19281" data-name="Контур 19281" d="M1029.933,1373.337c-3.81-3.424-16.417-5.966-24.722-5.966-14.535,0-26.436,3.407-16.35,8.245" fill="none" stroke="#e8496e" stroke-linecap="round" stroke-linejoin="round" stroke-width="2.804"/>
                </g>
                <g id="Сгруппировать_2840" data-name="Сгруппировать 2840">
                  <path id="Контур_19282" data-name="Контур 19282" d="M1031.983,1384.646c46.894-12.556,56.8,3.886,38.117,6.081" fill="none" stroke="#4d8bc9" stroke-linecap="round" stroke-linejoin="round" stroke-width="1.999"/>
                  <path id="Контур_19283" data-name="Контур 19283" d="M1029.759,1399.774c1.2.075,27.289-4.154,44.589-3.334,14.174.672,15.33,8.97-1.8,10.232" fill="none" stroke="#4d8bc9" stroke-linecap="round" stroke-linejoin="round" stroke-width="1.999"/>
                  <path id="Контур_19284" data-name="Контур 19284" d="M1024.893,1401.936c1.741,8.264,9.848,12.408,21.18,10.725,6.037-.9,34.294-.872,39.692,3.652s-7.508,7.9-20.782,6.894" fill="none" stroke="#4d8bc9" stroke-linecap="round" stroke-linejoin="round" stroke-width="1.999"/>
                  <path id="Контур_19285" data-name="Контур 19285" d="M1040.154,1420.491c1.741,8.264,37.9,8.087,43.3,12.611s-7.509,7.9-20.783,6.894" fill="none" stroke="#4d8bc9" stroke-linecap="round" stroke-linejoin="round" stroke-width="1.999"/>
                  <path id="Контур_19286" data-name="Контур 19286" d="M1041.972,1434.034c3.138,13.593,25.64,8.78,31.039,13.3s-5.44,8.409-11.81,7.964" fill="none" stroke="#4d8bc9" stroke-linecap="round" stroke-linejoin="round" stroke-width="1.999"/>
                  <path id="Контур_19287" data-name="Контур 19287" d="M1028.767,1370.939c3.809-3.424,16.416-5.966,24.722-5.966,14.535,0,27.342,4.6,17.257,9.439" fill="none" stroke="#4d8bc9" stroke-linecap="round" stroke-linejoin="round" stroke-width="2.804"/>
                </g>
                <g id="Сгруппировать_2841" data-name="Сгруппировать 2841">
                  <path id="Контур_19288" data-name="Контур 19288" d="M1031.465,1387.7c47-11.4,56.805,3.886,38.117,6.081" fill="none" stroke="#e8496e" stroke-linecap="round" stroke-linejoin="round" stroke-width="1.999"/>
                  <path id="Контур_19289" data-name="Контур 19289" d="M1028.244,1402.389c9.858,1.13,27.29-4.154,44.59-3.334,14.174.672,15.064,10.248-2.511,9.387" fill="none" stroke="#e8496e" stroke-linecap="round" stroke-linejoin="round" stroke-width="1.999"/>
                  <path id="Контур_19290" data-name="Контур 19290" d="M1028,1400.07c-.931,9.691,6.211,17.65,18.113,16.243,9.66-1.141,31.983-1.627,37.382,2.9s-3.751,7.112-16.358,2.5" fill="none" stroke="#e8496e" stroke-linecap="round" stroke-linejoin="round" stroke-width="1.999"/>
                  <path id="Контур_19291" data-name="Контур 19291" d="M1037.063,1412.1c-1.415,29.792,35.55,13.921,45.073,23.957,4.849,5.109-3.882,7.168-17.6,4.609" fill="none" stroke="#e8496e" stroke-linecap="round" stroke-linejoin="round" stroke-width="1.999"/>
                  <path id="Контур_19292" data-name="Контур 19292" d="M1037.594,1419.21c-2.385,33.218,27.315,24.862,33.558,30.214,5.347,4.585-5.44,8.41-11.81,7.964" fill="none" stroke="#e8496e" stroke-linecap="round" stroke-linejoin="round" stroke-width="1.999"/>
                  <path id="Контур_19293" data-name="Контур 19293" d="M1026.21,1373.337c3.809-3.424,16.416-5.966,24.722-5.966,14.535,0,26.436,3.407,16.35,8.245" fill="none" stroke="#e8496e" stroke-linecap="round" stroke-linejoin="round" stroke-width="2.804"/>
                </g>
                <g id="Сгруппировать_2844" data-name="Сгруппировать 2844">
                  <path id="Контур_19294" data-name="Контур 19294" d="M1039.97,1401.5c-7.59,11.241-34.938,24.992-14.476,54.352s47.293,117.442,37.319,151.868,10.168,90.006,12.954,123.729c1.513,18.3-34.947,99.426-14.446,109.741,21.687,10.91,46.333-7.135,73.423,3.514" fill="none" stroke="#e8496e" stroke-linecap="round" stroke-linejoin="round" stroke-width="3.044"/>
                  <path id="Контур_19295" data-name="Контур 19295" d="M1034.189,1476.748c-4.447,37.4,49.519,96.979,39.544,131.4s-25.224,92.874-12.019,124.376c7.1,16.937-15.6,104.718-.393,108.666,23.5,6.1,38.178-8.063,65.269,2.586" fill="none" stroke="#4d8bc9" stroke-linecap="round" stroke-linejoin="round" stroke-width="3.044"/>
                  <g id="Сгруппировать_2842" data-name="Сгруппировать 2842">
                    <path id="Контур_19296" data-name="Контур 19296" d="M1048.3,1553.124c-8.5,3.728-7.328,21.97-12.921,24.64" fill="none" stroke="#4d8bc9" stroke-linecap="round" stroke-linejoin="round" stroke-width="1.999"/>
                    <path id="Контур_19297" data-name="Контур 19297" d="M1040.935,1565.224c-3.8,5.866-6.341,2.422-9.016,3.52" fill="none" stroke="#4d8bc9" stroke-linecap="round" stroke-linejoin="round" stroke-width="1.692"/>
                    <path id="Контур_19298" data-name="Контур 19298" d="M1043.626,1557.9c-.786,1.636,6.007,9.627,4.672,14.3" fill="none" stroke="#4d8bc9" stroke-linecap="round" stroke-linejoin="round" stroke-width="1.692"/>
                  </g>
                  <path id="Контур_19299" data-name="Контур 19299" d="M1056.131,1562.184c1.47,10.421-8.411,40.645-9.279,77.131-.654,27.467,8.028,69.655,4.449,107.555-2.011,21.3-10.679,84.7-.3,93.6,7.453,6.389,28.059-9.833,36.988-5.043" fill="none" stroke="#4d8bc9" stroke-linecap="round" stroke-linejoin="round" stroke-width="1.999"/>
                  <path id="Контур_19300" data-name="Контур 19300" d="M1061.154,1646.452c-.7,4.979,21.589,11.55,20.106,34.094s-14.831,104.454-1.5,138.863" fill="none" stroke="#4d8bc9" stroke-linecap="round" stroke-linejoin="round" stroke-width="1.999"/>
                  <path id="Контур_19301" data-name="Контур 19301" d="M1057.263,1663.642c1.157,3.556,13.623,60.5,11.147,77.14" fill="none" stroke="#4d8bc9" stroke-linecap="round" stroke-linejoin="round" stroke-width="1.999"/>
                  <path id="Контур_19302" data-name="Контур 19302" d="M1064.958,1590.964c2.037,27.586,13.04,24.916,16.373,49.833" fill="none" stroke="#e8496e" stroke-linecap="round" stroke-linejoin="round" stroke-width="1.999"/>
                  <path id="Контур_19303" data-name="Контур 19303" d="M1060.558,1618.592c0,16.211-18.378,29.919-14.559,53.056" fill="none" stroke="#e8496e" stroke-linecap="round" stroke-linejoin="round" stroke-width="1.999"/>
                  <path id="Контур_19304" data-name="Контур 19304" d="M1063.635,1803.2c-.469,6.423-4.5,33.569,7.6,29.933" fill="none" stroke="#e8496e" stroke-linecap="round" stroke-linejoin="round" stroke-width="1.999"/>
                  <path id="Контур_19305" data-name="Контур 19305" d="M1097.143,1842.881c3.25-1.966,13.039-7.306,20.158-6.193" fill="none" stroke="#e8496e" stroke-linecap="round" stroke-linejoin="round" stroke-width="1.999"/>
                  <g id="Сгруппировать_2843" data-name="Сгруппировать 2843">
                    <path id="Контур_19306" data-name="Контур 19306" d="M1056.495,1551.1c-8.366,4.172-9.68,21.322-22.88,23.249" fill="none" stroke="#e8496e" stroke-linecap="round" stroke-linejoin="round" stroke-width="1.999"/>
                    <path id="Контур_19307" data-name="Контур 19307" d="M1046.35,1564.42c-3.708,10.382,1.726,11.823-1.7,23.355" fill="none" stroke="#e8496e" stroke-linecap="round" stroke-linejoin="round" stroke-width="1.692"/>
                    <path id="Контур_19308" data-name="Контур 19308" d="M1043.274,1569.1c-6.678,1.425-6.322-2.683-11.364-3.8" fill="none" stroke="#e8496e" stroke-linecap="round" stroke-linejoin="round" stroke-width="1.692"/>
                    <path id="Контур_19309" data-name="Контур 19309" d="M1037.14,1568.264a10.062,10.062,0,0,0-3.525-6.08" fill="none" stroke="#e8496e" stroke-linecap="round" stroke-linejoin="round" stroke-width="1.692"/>
                  </g>
                </g>
                <g id="Сгруппировать_2849" data-name="Сгруппировать 2849">
                  <path id="Контур_19310" data-name="Контур 19310" d="M1037.063,1397.33c1.307,23.161,8.94,50.11,2.739,66.586-20.357,54.083-67.367,109.811-57.392,144.236s25.224,92.874,12.019,124.376c-7.1,16.937,15.6,104.718.393,108.666-23.5,6.1-38.179-8.063-65.269,2.586" fill="none" stroke="#4d8bc9" stroke-linecap="round" stroke-linejoin="round" stroke-width="3.044"/>
                  <g id="Сгруппировать_2845" data-name="Сгруппировать 2845">
                    <path id="Контур_19311" data-name="Контур 19311" d="M1007.845,1553.124c8.5,3.728,7.328,21.97,12.92,24.64" fill="none" stroke="#4d8bc9" stroke-linecap="round" stroke-linejoin="round" stroke-width="1.999"/>
                    <path id="Контур_19312" data-name="Контур 19312" d="M1015.208,1565.224c3.795,5.866,6.341,2.422,9.016,3.52" fill="none" stroke="#4d8bc9" stroke-linecap="round" stroke-linejoin="round" stroke-width="1.692"/>
                    <path id="Контур_19313" data-name="Контур 19313" d="M1012.517,1557.9c.786,1.636-6.007,9.627-4.672,14.3" fill="none" stroke="#4d8bc9" stroke-linecap="round" stroke-linejoin="round" stroke-width="1.692"/>
                  </g>
                  <g id="Сгруппировать_2846" data-name="Сгруппировать 2846">
                    <path id="Контур_19314" data-name="Контур 19314" d="M1000.012,1562.184c-1.47,10.421,8.411,40.645,9.279,77.131.654,27.467-8.028,69.655-4.449,107.555,2.011,21.3,10.679,84.7.3,93.6-7.454,6.389-28.06-9.833-36.988-5.043" fill="none" stroke="#4d8bc9" stroke-linecap="round" stroke-linejoin="round" stroke-width="1.999"/>
                    <path id="Контур_19315" data-name="Контур 19315" d="M994.989,1646.452c.7,4.979-21.589,11.55-20.106,34.094s14.831,104.454,1.5,138.863" fill="none" stroke="#4d8bc9" stroke-linecap="round" stroke-linejoin="round" stroke-width="1.999"/>
                    <path id="Контур_19316" data-name="Контур 19316" d="M998.88,1663.642c-1.157,3.556-13.623,60.5-11.147,77.14" fill="none" stroke="#4d8bc9" stroke-linecap="round" stroke-linejoin="round" stroke-width="1.999"/>
                  </g>
                  <g id="Сгруппировать_2847" data-name="Сгруппировать 2847">
                    <path id="Контур_19317" data-name="Контур 19317" d="M1041.708,1481.893c-18.544,39.007-64.55,56.208-48.378,125.831,8.11,34.911-10.168,90.006-12.954,123.729-1.513,18.3,34.947,99.426,14.446,109.741-21.687,10.91-46.333-7.135-73.423,3.514" fill="none" stroke="#e8496e" stroke-linecap="round" stroke-linejoin="round" stroke-width="3.044"/>
                    <path id="Контур_19318" data-name="Контур 19318" d="M991.185,1590.964c-2.037,27.586-13.04,24.916-16.373,49.833" fill="none" stroke="#e8496e" stroke-linecap="round" stroke-linejoin="round" stroke-width="1.999"/>
                    <path id="Контур_19319" data-name="Контур 19319" d="M995.585,1618.592c0,16.211,18.378,29.919,14.559,53.056" fill="none" stroke="#e8496e" stroke-linecap="round" stroke-linejoin="round" stroke-width="1.999"/>
                    <path id="Контур_19320" data-name="Контур 19320" d="M992.508,1803.2c.469,6.423,4.5,33.569-7.6,29.933" fill="none" stroke="#e8496e" stroke-linecap="round" stroke-linejoin="round" stroke-width="1.999"/>
                    <path id="Контур_19321" data-name="Контур 19321" d="M959,1842.881c-3.25-1.966-13.039-7.306-20.158-6.193" fill="none" stroke="#e8496e" stroke-linecap="round" stroke-linejoin="round" stroke-width="1.999"/>
                  </g>
                  <g id="Сгруппировать_2848" data-name="Сгруппировать 2848">
                    <path id="Контур_19322" data-name="Контур 19322" d="M1003.126,1553.124c8.366,4.173,6.2,19.3,19.4,21.228" fill="none" stroke="#e8496e" stroke-linecap="round" stroke-linejoin="round" stroke-width="1.999"/>
                    <path id="Контур_19323" data-name="Контур 19323" d="M1010.7,1563.9c3.707,10.382-2.63,12.345.795,23.877" fill="none" stroke="#e8496e" stroke-linecap="round" stroke-linejoin="round" stroke-width="1.692"/>
                    <path id="Контур_19324" data-name="Контур 19324" d="M1013.773,1569.3c6.678,1.425,5.417-2.876,10.46-3.988" fill="none" stroke="#e8496e" stroke-linecap="round" stroke-linejoin="round" stroke-width="1.692"/>
                    <path id="Контур_19325" data-name="Контур 19325" d="M1019,1568.744a11.118,11.118,0,0,1,3.525-6.56" fill="none" stroke="#e8496e" stroke-linecap="round" stroke-linejoin="round" stroke-width="1.692"/>
                  </g>
                </g>
                <g id="Сгруппировать_2851" data-name="Сгруппировать 2851">
                  <g id="Сгруппировать_2850" data-name="Сгруппировать 2850">
                    <path id="Контур_19326" data-name="Контур 19326" d="M1029.507,1378.565c0-1.34.113-12.577-1.714-17.424" fill="none" stroke="#4d8bc9" stroke-linecap="round" stroke-linejoin="round" stroke-width="5.33"/>
                    <path id="Контур_19327" data-name="Контур 19327" d="M1029.077,1365.988c.806-.753,7.31-7.522,9.987-8.824" fill="none" stroke="#4d8bc9" stroke-linecap="round" stroke-linejoin="round" stroke-width="3.997"/>
                  </g>
                  <path id="Контур_19328" data-name="Контур 19328" d="M1040.656,1375.887c12.2,2.486,15.548,6.025,17.925,20.514,2.241,13.659-1.885,22.809-9.181,22.809-6.037,0-17.218-3.388-24.531-14.776-2.658-4.139-2.982-8.356-3.528-12C1019.423,1379.618,1030.066,1373.729,1040.656,1375.887Z" fill="#b74654"/>
                  <path id="Контур_19329" data-name="Контур 19329" d="M1044.427,1383.634c1.244,1.242,9.389,3.053,11.007,1.24s-2.78-10.433-7.564-9.123S1042.227,1381.434,1044.427,1383.634Z" fill="#fcdcb8"/>
                  <path id="Контур_19330" data-name="Контур 19330" d="M1022.218,1388.3c-5.52-2.4,2.125-17.963,15.9-16.051,1.3,3.416-2.521,7.651-8.05,10.137S1025.259,1389.627,1022.218,1388.3Z" fill="#fcdcb8"/>
                  <path id="Контур_19331" data-name="Контур 19331" d="M1036.179,1381.434c-.359-4.4.118-17.28,14.559-6.76" fill="none" stroke="#e8496e" stroke-linecap="round" stroke-linejoin="round" stroke-width="5.33"/>
                  <path id="Контур_19332" data-name="Контур 19332" d="M1040.82,1383.021c.546-2.352,3.033-9.812,8.58-13.446" fill="none" stroke="#4d8bc9" stroke-linecap="round" stroke-linejoin="round" stroke-width="5.33"/>
                </g>
                <g id="Сгруппировать_2852" data-name="Сгруппировать 2852">
                  <path id="Контур_19333" data-name="Контур 19333" d="M1027.4,1359.4c-1.166-17,34.75-34.17,69.285-18.282s29.511,63.182,42.859,75.64,63.266,9.86,66.8,31.587c2.027,12.47-22.276,23.438,11.006,54.287" fill="none" stroke="#4d8bc9" stroke-linecap="round" stroke-linejoin="round" stroke-width="1.999"/>
                  <path id="Контур_19334" data-name="Контур 19334" d="M1200.189,1468.321c7.139,1.683,29.978,6.239,47.48,24.28" fill="none" stroke="#4d8bc9" stroke-linecap="round" stroke-linejoin="round" stroke-width="1.999"/>
                  <path id="Контур_19335" data-name="Контур 19335" d="M1092.085,1353.132c7.418,0,39.532,14.408,55.288,30.563s33.833,69.334,42.9,73.553c17.53,8.159,24.866-8.849,63.182,22.247" fill="none" stroke="#4d8bc9" stroke-linecap="round" stroke-linejoin="round" stroke-width="1.999"/>
                  <path id="Контур_19336" data-name="Контур 19336" d="M1037.063,1379.235c2.966-17.2,28.845-34.834,54.876-26.1,41.23,13.828,52.5,56.953,69.707,77.123s68.225,40.449,80.684,62.346" fill="none" stroke="#e8496e" stroke-linecap="round" stroke-linejoin="round" stroke-width="1.999"/>
                  <path id="Контур_19337" data-name="Контур 19337" d="M1143.516,1401.679c14.868,2.176,64.57,33.453,67.371,52.6s4.756,35.595,21.659,45.977" fill="none" stroke="#e8496e" stroke-linecap="round" stroke-linejoin="round" stroke-width="1.999"/>
                  <path id="Контур_19338" data-name="Контур 19338" d="M1206.454,1449.4c3.31,1,13.683-9.2,32.121-4.236" fill="none" stroke="#4d8bc9" stroke-linecap="round" stroke-linejoin="round" stroke-width="1.999"/>
                  <path id="Контур_19339" data-name="Контур 19339" d="M1188.7,1451.326c5.87.434,33.1-7.536,60.894,30.839" fill="none" stroke="#e8496e" stroke-linecap="round" stroke-linejoin="round" stroke-width="1.999"/>
                  <path id="Контур_19340" data-name="Контур 19340" d="M1172.769,1440.384c19.06,22.648,13.652,39.779,45.645,64.251" fill="none" stroke="#e8496e" stroke-linecap="round" stroke-linejoin="round" stroke-width="1.999"/>
                  <path id="Контур_19341" data-name="Контур 19341" d="M1193.218,1458.422c1.28,8.17,5.922,17.945,13.129,19.788,9.064,2.318,21.744,11.964,27.529,24.422" fill="none" stroke="#4d8bc9" stroke-linecap="round" stroke-linejoin="round" stroke-width="1.999"/>
                  <path id="Контур_19342" data-name="Контур 19342" d="M1203.154,1440.384c19.361,12.415,27.527,2.329,36.655,3.406" fill="none" stroke="#e8496e" stroke-linecap="round" stroke-linejoin="round" stroke-width="1.999"/>
                </g>
                <g id="Сгруппировать_2853" data-name="Сгруппировать 2853">
                  <path id="Контур_19343" data-name="Контур 19343" d="M1030.7,1463.3c2.373-.832,20.121-3.217,24.458-.489" fill="none" stroke="#e8496e" stroke-linecap="round" stroke-linejoin="round" stroke-width="1.999"/>
                  <path id="Контур_19344" data-name="Контур 19344" d="M1047.113,1461.389c1.813-1.5,8.379-2.75,10.493-6.087" fill="none" stroke="#e8496e" stroke-linecap="round" stroke-linejoin="round" stroke-width="1.692"/>
                  <path id="Контур_19345" data-name="Контур 19345" d="M1048.67,1461.389c1.813,1.5,5.9,3.553,8.009,6.89" fill="none" stroke="#e8496e" stroke-linecap="round" stroke-linejoin="round" stroke-width="1.692"/>
                  <path id="Контур_19346" data-name="Контур 19346" d="M1053.353,1458.534c0-2.176,1.807-3.9,2.473-5.457" fill="none" stroke="#e8496e" stroke-linecap="round" stroke-linejoin="round" stroke-width="0.913"/>
                </g>
                <g id="Сгруппировать_2854" data-name="Сгруппировать 2854">
                  <path id="Контур_19347" data-name="Контур 19347" d="M1029.464,1461.529c-5.935-2.995-23.2-2.1-27.539.63" fill="none" stroke="#e8496e" stroke-linecap="round" stroke-linejoin="round" stroke-width="1.999"/>
                  <path id="Контур_19348" data-name="Контур 19348" d="M1010.033,1460.192c-1.814-1.5-8.44-2.2-10.554-5.539" fill="none" stroke="#e8496e" stroke-linecap="round" stroke-linejoin="round" stroke-width="1.692"/>
                  <path id="Контур_19349" data-name="Контур 19349" d="M1009.031,1460.2c-1.813,1.5-6.512,4.09-8.625,7.428" fill="none" stroke="#e8496e" stroke-linecap="round" stroke-linejoin="round" stroke-width="1.692"/>
                  <path id="Контур_19350" data-name="Контур 19350" d="M1003.732,1457.886c0-2.176-1.807-3.9-2.473-5.458" fill="none" stroke="#e8496e" stroke-linecap="round" stroke-linejoin="round" stroke-width="0.913"/>
                </g>
                <g id="Сгруппировать_2855" data-name="Сгруппировать 2855">
                  <path id="Контур_19351" data-name="Контур 19351" d="M1048.62,1337.94c-4.9-13.184-9.556-32.911,4.461-47.325,18.994-19.534,35.69-45.627,17.666-88.544" fill="none" stroke="#4d8bc9" stroke-linecap="round" stroke-linejoin="round" stroke-width="1.999"/>
                  <path id="Контур_19352" data-name="Контур 19352" d="M1078.024,1235.525c-1.806-2.456-8.925-11.355-12.485-22.034" fill="none" stroke="#4d8bc9" stroke-linecap="round" stroke-linejoin="round" stroke-width="1.999"/>
                  <path id="Контур_19353" data-name="Контур 19353" d="M1074.384,1211.933c-8.845-2.977-13.271-18.592-19.523-23.062" fill="none" stroke="#4d8bc9" stroke-linecap="round" stroke-linejoin="round" stroke-width="1.999"/>
                </g>
                <g id="Сгруппировать_2856" data-name="Сгруппировать 2856">
                  <path id="Контур_19354" data-name="Контур 19354" d="M1005.531,1341.341c4.9-13.184,13.734-36.312-2.469-50.726-20.356-18.11-35.69-45.627-17.666-88.544" fill="none" stroke="#4d8bc9" stroke-linecap="round" stroke-linejoin="round" stroke-width="1.999"/>
                  <path id="Контур_19355" data-name="Контур 19355" d="M977.42,1236.471c.463-.63,8.937-10.241,13.184-22.98" fill="none" stroke="#4d8bc9" stroke-linecap="round" stroke-linejoin="round" stroke-width="1.999"/>
                  <path id="Контур_19356" data-name="Контур 19356" d="M981.759,1211.933c8.845-2.977,13.271-18.592,19.523-23.062" fill="none" stroke="#4d8bc9" stroke-linecap="round" stroke-linejoin="round" stroke-width="1.999"/>
                </g>
                <g id="Сгруппировать_2857" data-name="Сгруппировать 2857">
                  <path id="Контур_19357" data-name="Контур 19357" d="M1010.59,1349.85c3.572-21.175,8.675-46.777,3.2-56.121-5.859-10.008-39.453-17.268-32.036-54.428,3.687-18.478,14.859-34.593,19.407-38.9" fill="none" stroke="#e8496e" stroke-linecap="round" stroke-linejoin="round" stroke-width="1.999"/>
                  <path id="Контур_19358" data-name="Контур 19358" d="M983.9,1231.12c1.406-16.294,4.719-30.718,9.437-37.779" fill="none" stroke="#e8496e" stroke-linecap="round" stroke-linejoin="round" stroke-width="1.999"/>
                  <path id="Контур_19359" data-name="Контур 19359" d="M994.893,1208.357c.493-3.839.493-10.735,4.053-14.74" fill="none" stroke="#e8496e" stroke-linecap="round" stroke-linejoin="round" stroke-width="1.999"/>
                </g>
                <g id="Сгруппировать_2858" data-name="Сгруппировать 2858">
                  <path id="Контур_19360" data-name="Контур 19360" d="M1049,1361.008c-14.931-23.068-12.894-55.979-3.892-67.279,7.226-9.07,36.69-17.268,29.274-54.428-3.688-18.478-14.859-34.593-19.407-38.9" fill="none" stroke="#e8496e" stroke-linecap="round" stroke-linejoin="round" stroke-width="1.999"/>
                  <path id="Контур_19361" data-name="Контур 19361" d="M1072.248,1231.12c-1.406-16.294-4.719-30.718-9.437-37.779" fill="none" stroke="#e8496e" stroke-linecap="round" stroke-linejoin="round" stroke-width="1.999"/>
                  <path id="Контур_19362" data-name="Контур 19362" d="M1061.25,1208.357c-.494-3.839-.494-10.735-4.053-14.74" fill="none" stroke="#e8496e" stroke-linecap="round" stroke-linejoin="round" stroke-width="1.999"/>
                </g>
              </g>
            </g>
          </g>
        </g>
      </g>
    </g>
  </g>
</svg>
