<svg xmlns="http://www.w3.org/2000/svg" width="334" height="305.299" viewBox="0 0 334 305.299">
  <g id="Сгруппировать_2932" data-name="Сгруппировать 2932" transform="translate(27 -6600.646)">
    <g id="Сгруппировать_2713" data-name="Сгруппировать 2713" transform="translate(-1567 -306)">
      <path id="Контур_18874" data-name="Контур 18874" d="M1718.6,7062.551c-9.28-25.012-6.706-22.332-11.643-20.77-65.4,20.671-106.053,34.669-128.938,49.121l-3.18,50.466c22.872,15.32,63.988,28.3,110.556,26l-22.37-23.168,46.828,20.556c31.309-5.178,65.106-19.817,93.038-34.867l-24.157-20.347,43.139,9.252c42.888-27.266,52.617-50.873,52.111-62.935-.644-15.341-58.389-39.385-140.735-21.146Z" fill="#56762b"/>
      <path id="Контур_18875" data-name="Контур 18875" d="M1855.569,7083.178c-26.776,6.5-47.016-.761-60.769-.878C1816.756,7100.472,1862.1,7081.593,1855.569,7083.178Z" fill="#3a5925"/>
      <path id="Контур_18876" data-name="Контур 18876" d="M1829.744,7038.063c-15.49,21.689-31.629,29.72-43.061,46.751C1787.924,7088.392,1821.623,7059.5,1829.744,7038.063Z" fill="#446b2b"/>
      <path id="Контур_18877" data-name="Контур 18877" d="M1815.695,7106.705c-37.662-5.528-42.147-10.5-61.936-12.182C1769.809,7108.546,1822.89,7107.761,1815.695,7106.705Z" fill="#446b2b"/>
      <path id="Контур_18878" data-name="Контур 18878" d="M1797.114,7049.675c12.234-21.937,2.445-6.694-4.337,2.185-7.192,9.415-20.992,25.469-21.313,25.921C1748.284,7110.411,1777.66,7084.554,1797.114,7049.675Z" fill="#3a5925"/>
      <path id="Контур_18879" data-name="Контур 18879" d="M1727.4,7101.553c14.327-11.9,32.723-45.9,38.146-59.834C1764.455,7043.3,1718.123,7109.259,1727.4,7101.553Z" fill="#446b2b"/>
      <path id="Контур_18880" data-name="Контур 18880" d="M1774.418,7134.356c-1.8-.887-9.117-2.582-19.062-5.436-42.942-12.325-61.466-29.551-50.953-17.911C1721.2,7129.613,1775.879,7135.076,1774.418,7134.356Z" fill="#3a5925"/>
      <path id="Контур_18881" data-name="Контур 18881" d="M1682.379,7111.147c14.337-12.041,24.643-46.674,25.7-59.5C1699.865,7075.192,1677.94,7114.875,1682.379,7111.147Z" fill="#3a5925"/>
      <path id="Контур_18882" data-name="Контур 18882" d="M1654.929,7114.178c14.911-10.478,24.61-43.973,28.067-59.336-3.675,7.213-8.39,19.376-13.758,29.88C1668.6,7085.974,1652.044,7116.2,1654.929,7114.178Z" fill="#3a5925"/>
      <path id="Контур_18883" data-name="Контур 18883" d="M1729.991,7151.655c-18.16-5.766-69.407-23.946-84.054-36.009C1654.567,7138.467,1738.4,7154.324,1729.991,7151.655Z" fill="#3a5925"/>
      <path id="Контур_18884" data-name="Контур 18884" d="M1646.269,7073.811c-8.38,21.087-19.021,27.326-23.948,43.338C1624.542,7120.358,1645.386,7091.9,1646.269,7073.811Z" fill="#3a5925"/>
      <path id="Контур_18885" data-name="Контур 18885" d="M1584.931,7116.717c10.695-8.585,13.152-18.431,23.783-30.89-6,2.915-20.378,18.056-23.2,25.586C1585.043,7112.682,1583.566,7117.812,1584.931,7116.717Z" fill="#446b2b"/>
      <path id="Контур_18886" data-name="Контур 18886" d="M1642.817,7154.478c-11.531-7.1-40.264-23.86-44.318-36.916C1588.829,7135.811,1647.982,7157.655,1642.817,7154.478Z" fill="#446b2b"/>
      <path id="Контур_18887" data-name="Контур 18887" d="M1576.625,7112.989l-.287,4.557c90.713,8.136,201.187-24.492,285.143-60.7C1777.886,7091.367,1666.954,7122.559,1576.625,7112.989Z" fill="#3a5925"/>
    </g>
    <g id="Сгруппировать_2720" data-name="Сгруппировать 2720" transform="translate(-1567 -306)">
      <g id="Сгруппировать_2718" data-name="Сгруппировать 2718">
        <g id="Сгруппировать_2714" data-name="Сгруппировать 2714">
          <path id="Контур_18888" data-name="Контур 18888" d="M1630.323,7096.015c-13.643-7.087-19.478-7.192-4.558-4.038Z" fill="#739a2d"/>
          <path id="Контур_18889" data-name="Контур 18889" d="M1636.062,7099.959c-12.254-10.855-7.294-8-18.874-10.787C1616.316,7091.963,1614.029,7088.508,1636.062,7099.959Z" fill="#739a2d"/>
        </g>
        <g id="Сгруппировать_2715" data-name="Сгруппировать 2715">
          <path id="Контур_18890" data-name="Контур 18890" d="M1679.667,7139.724l-49.344-43.709A134.442,134.442,0,0,1,1679.667,7139.724Z" fill="#739a2d"/>
          <path id="Контур_18891" data-name="Контур 18891" d="M1684.142,7144.826c-13.832-20.485-28.216-36.469-53.426-49.566C1622.008,7090.735,1611.884,7080.821,1684.142,7144.826Zm-9.634-10.811-37.763-33.451A133.566,133.566,0,0,1,1674.508,7134.015Z" fill="#739a2d"/>
        </g>
        <g id="Сгруппировать_2716" data-name="Сгруппировать 2716">
          <path id="Контур_18892" data-name="Контур 18892" d="M1720.125,7097.99a327.182,327.182,0,0,1-94.36-6.013q-10.077-8.927-20.177-17.872A210.231,210.231,0,0,1,1720.125,7097.99Z" fill="#739a2d"/>
          <path id="Контур_18893" data-name="Контур 18893" d="M1603.543,7073.433s21.824,19.332,22.045,19.379c33.659,7.126,64.642,8.5,97.5,5.789C1683.651,7077.6,1644.268,7070.249,1603.543,7073.433Zm22.618,17.756-18.471-16.361a210.663,210.663,0,0,1,109.41,22.541A325.623,325.623,0,0,1,1626.161,7091.189Z" fill="#739a2d"/>
        </g>
        <path id="Контур_18894" data-name="Контур 18894" d="M1603.675,7073.013c1.719,2.421.816,2.1,3.824,1.754C1605.621,7072.962,1606.441,7073.343,1603.675,7073.013Z" fill="#739a2d"/>
        <g id="Сгруппировать_2717" data-name="Сгруппировать 2717">
          <path id="Контур_18895" data-name="Контур 18895" d="M1566.905,7211.544a266.775,266.775,0,0,0,15.029-116.9,197.248,197.248,0,0,1-28.388,58.885l-1.23-19.518a157.4,157.4,0,0,0,9.491-41.642c-3.524,5.134-7.275,10.106-11.171,14.962-1.073-17.029-3.611-4.746,14.57-32.527q-8.06,3.99-16.117,7.976c-15.15-240.458-5.461-86.678-8.833-140.194a285.849,285.849,0,0,1,8.9,101.338c53.91-172.106,46.039-171.481,23.3-.5q37.464-66.243,74.93-132.486a219.655,219.655,0,0,1-69.828,128.814,361.31,361.31,0,0,0,107.149-93.806c-17.262,48.24-52.872,89.609-97.827,114.131q62.513-32.032,125.02-64.066c-63.421,66.894-104.76,64.3-67.744,60.407,22.765-2.392,47.784,6.551,69.209,3.793q-53.9,6.939-107.772,13.9c11.87,17.5,6.8,14.109,11.4,15.9-.682-.165-1.365-.327-2.045-.5a176.158,176.158,0,0,1,21.25,91.379,202.832,202.832,0,0,1-51.94-90.647A182.251,182.251,0,0,1,1566.905,7211.544Z" fill="#739a2d"/>
          <path id="Контур_18896" data-name="Контур 18896" d="M1550.01,7097.4c-.306-4.853-1.49.875,12.74-20.433-16.1,7.966-13.561,7.405-13.719,4.887,22.285-11.029,19.339-10.333,16.888-6.586C1560.948,7082.863,1555.581,7090.208,1550.01,7097.4Z" fill="#739a2d"/>
          <path id="Контур_18897" data-name="Контур 18897" d="M1552.443,7136.021c-.53-8.415,5.525-15.664,8.2-40.491-11.818,16.758-9.906,13.418-10.088,10.532,6.095-7.674,9.076-12.035,12.377-16.848C1561.6,7104.746,1559.112,7118.81,1552.443,7136.021Z" fill="#739a2d"/>
          <path id="Контур_18898" data-name="Контур 18898" d="M1587.281,7103.264c10.223,30.347,26.669,56.485,49.679,79.6,1.474-33.445-5.436-63.916-20.238-92.052.7-1.955,1.08-1.436-1.363-2.324-2.661-4.85-5.466-9.461-8.354-13.73,150.029-19.31,109.779-12.093,72.075-17.195-75.152-10.158-48.361,25.29,36.869-64.591l-110.175,56.461c36.4-25.137,64.915-61.8,79.73-103.2,8.149-22.769-15.037,36.621-101.649,88.827a219.108,219.108,0,0,0,64.368-123.991c1.068-6.91,12.12-24.782-74.346,128.1,22.357-168.081,26.979-163.165-23.272-2.742a287.393,287.393,0,0,0-10.6-97.91c1.119,17.756,13.468,50.045,8.3,105.325-.951,10.167-9.869,37.15,39.071-119.094-.414,3.122-15.324,115.207-16.35,122.929,3.22-5.691,1.574-4.106,6.952-7.185a364.394,364.394,0,0,0,103.97-89.613,213.235,213.235,0,0,1-95.48,108.448c1.155,2.186-12.4,8.271,121.267-60.226-26.369,26.94-52.56,45.126-82.448,61.025,39.781-7.017,39.206-.884,72.441,1.236-105.341,13.56-89.838,13.682-96.929,7.248,21.5,31.92,36.1,65.281,34.62,110.275a201.129,201.129,0,0,1-50.339-88.864l-1.661.391A183.188,183.188,0,0,1,1572.1,7198.8c11.32-36.728,13.844-71.27,10.249-108.7-14.407,50.109-29.276,55.99-28.724,64.751a198.809,198.809,0,0,0,27.842-55.7A266.34,266.34,0,0,1,1566.1,7211.25l1.554.695C1585.068,7179.276,1591.994,7140.341,1587.281,7103.264Zm-10.3-64.148c-3.523,3.156-12.217,19.625,68.766-123.562A217.36,217.36,0,0,1,1576.984,7039.116Z" fill="#739a2d"/>
        </g>
      </g>
      <g id="Сгруппировать_2719" data-name="Сгруппировать 2719">
        <path id="Контур_18899" data-name="Контур 18899" d="M1600.859,7197.779a291.607,291.607,0,0,0-39.5-105.681,85.131,85.131,0,0,1,4.748,78.986l-6.187-76.939a118.8,118.8,0,0,1-8.746,21.675c-1.458-23.142-1.271-10.49,1.435-25.528-4.119,3.622-2.21,13.239-7.6-72.27a252.458,252.458,0,0,1,46.735-103.874,269.209,269.209,0,0,1-36.044,131.119,292.811,292.811,0,0,0,77.815-131.9,256.667,256.667,0,0,1-70.41,144.671c51.37-26.517,90.557-75.621,105.016-131.6-8.443,45.875,6.1,55.881-48.247,118.829-25.385,29.4,55.1-2.778,109.89-21.168a225.094,225.094,0,0,1-139.041,48.324,233.261,233.261,0,0,1,110.94,32.9l-138.378-27.415c43.807,8.646,82.43,40.179,99.667,81.37q-43-34.694-86-69.386C1605.948,7116.221,1616.673,7161.685,1600.859,7197.779Z" fill="#81b627"/>
        <path id="Контур_18900" data-name="Контур 18900" d="M1564.272,7072.552c31.772-8.269,64.676-36.222,77.888-66.315C1612.179,7038.063,1601.224,7047.579,1564.272,7072.552Z" fill="#739a2d"/>
        <path id="Контур_18901" data-name="Контур 18901" d="M1643.521,7060.49c-18.21-.553-48.34,6.415-64.687,15.219C1597.369,7076.3,1627.447,7069.116,1643.521,7060.49Z" fill="#739a2d"/>
        <path id="Контур_18902" data-name="Контур 18902" d="M1627.082,7085.048c-6.356-5.264-18.084-6.238-25.215-2C1608.22,7088.344,1619.952,7089.261,1627.082,7085.048Z" fill="#739a2d"/>
        <path id="Контур_18903" data-name="Контур 18903" d="M1556.711,7045.351c12-25.454,17.043-65.137,11.678-92.818C1565.82,6966.243,1557.6,7031.92,1556.711,7045.351Z" fill="#739a2d"/>
        <path id="Контур_18904" data-name="Контур 18904" d="M1561.1,7093.35a128.52,128.52,0,0,1-9.943,22.212c-1.3-20.6-2.341-5.469,6.455-34.735,26.559,22.355,37.046,46.887,37.69,69.55C1588.785,7127.146,1577.1,7108.144,1561.1,7093.35Z" fill="#739a2d"/>
      </g>
    </g>
  </g>
</svg>
