<svg xmlns="http://www.w3.org/2000/svg" width="52.999" height="102.787" viewBox="0 0 52.999 102.787">
  <g id="Сгруппировать_2467" data-name="Сгруппировать 2467" transform="translate(-2381.413 -5213.883)">
    <g id="Сгруппировать_2466" data-name="Сгруппировать 2466">
      <path id="Контур_18216" data-name="Контур 18216" d="M2432.161,5245.7l-13.711-9.2v-7.47c1.92-.634,1.152-9.4-1.506-9.4h-18.061c-2.656,0-3.427,8.761-1.5,9.4v7.454l-13.9,9.385c-1.745.965-2.07,3.155-2.07,5.038v58.568a7.2,7.2,0,0,0,7.2,7.195h38.6a7.2,7.2,0,0,0,7.2-7.195v-58.568A7.122,7.122,0,0,0,2432.161,5245.7Z" fill="#96c2fb"/>
      <rect id="Прямоугольник_459" data-name="Прямоугольник 459" width="52.998" height="34.937" transform="translate(2381.413 5259.739)" fill="#f2f1d3"/>
      <path id="Контур_18217" data-name="Контур 18217" d="M2432.161,5245.7l-13.711-9.2v-7.47c1.92-.634,1.152-9.4-1.506-9.4h-6.7c2.658,0,5.253,8.761,3.334,9.4v7.47l10.665,9.2a7.125,7.125,0,0,1,2.25,5.211v58.568a7.2,7.2,0,0,1-7.2,7.195h7.919a7.2,7.2,0,0,0,7.2-7.195v-58.568A7.122,7.122,0,0,0,2432.161,5245.7Z" fill="#e2cfa6"/>
      <g id="Сгруппировать_2465" data-name="Сгруппировать 2465">
        <path id="Прямоугольник_460" data-name="Прямоугольник 460" d="M3.564,0H24.63a3.562,3.562,0,0,1,3.562,3.562v8.406A3.562,3.562,0,0,1,24.63,15.53H3.563A3.563,3.563,0,0,1,0,11.967v-8.4A3.564,3.564,0,0,1,3.564,0Z" transform="translate(2393.816 5213.883)" fill="#f2f1d3"/>
        <path id="Контур_18218" data-name="Контур 18218" d="M2418.446,5213.883H2413.1a3.562,3.562,0,0,1,3.562,3.562v8.4a3.565,3.565,0,0,1-3.562,3.564h5.344a3.565,3.565,0,0,0,3.562-3.564v-8.4A3.562,3.562,0,0,0,2418.446,5213.883Z" fill="#e2cfa6"/>
      </g>
      <path id="Контур_18219" data-name="Контур 18219" d="M2386.8,5306.823a2.732,2.732,0,0,1-2.732-2.732v-49.717c0-3.363,1.069-5.69,3.178-6.919l7.864-5.311a2.733,2.733,0,1,1,3.059,4.529l-8.157,5.494c-.178.1-.479.675-.479,2.207v49.717A2.732,2.732,0,0,1,2386.8,5306.823Z" fill="#fff" opacity="0.4"/>
      <path id="Контур_18220" data-name="Контур 18220" d="M2399.855,5226.512a2.734,2.734,0,0,1-2.733-2.734v-4.261a2.733,2.733,0,0,1,5.466,0v4.261A2.734,2.734,0,0,1,2399.855,5226.512Z" fill="#fff" opacity="0.4"/>
    </g>
    <path id="Контур_18221" data-name="Контур 18221" d="M2404.987,5283.883l.032.016-.016-.016Zm5.156-7.1a17.038,17.038,0,0,1,2.213-.763,8.611,8.611,0,0,0,4.378-2.4,9.252,9.252,0,0,0,.825-1.215,6.9,6.9,0,0,0,.358-.779,11.357,11.357,0,0,1,1.262,6.015,9.062,9.062,0,0,1-2.041,5.157,7.853,7.853,0,0,1-3.551,2.539q-1.122.374-4.6-.514c0,.01-.01.021-.032.032a.177.177,0,0,0-.032.046.326.326,0,0,1-.046.11,10.229,10.229,0,0,0-1.293,3.91.606.606,0,0,1-.217.406.645.645,0,0,1-.436.169.619.619,0,0,1-.436-.172.6.6,0,0,1-.218-.4,12.533,12.533,0,0,0-1.776-5.265.351.351,0,0,1-.062-.078.337.337,0,0,0-.078-.124q-4.47,1.4-5.982.872a10.1,10.1,0,0,1-4.58-3.256,11.436,11.436,0,0,1-2.6-6.667,14.468,14.468,0,0,1,1.589-7.712,6.666,6.666,0,0,0,.5.981,9.247,9.247,0,0,0,1.045,1.59q1.589,1.934,5.624,3.069a22.515,22.515,0,0,1,2.867.981,5.78,5.78,0,0,1,2.29,1.59,5.479,5.479,0,0,1,1.263,4,22.576,22.576,0,0,1-.795,2.586,7.755,7.755,0,0,0-4.362-3.07,14.356,14.356,0,0,1,4.05,4.019,2.276,2.276,0,0,1,.266.39.236.236,0,0,1,.046.062,12.506,12.506,0,0,1,1.386,3.022,13.072,13.072,0,0,1,.779-1.574l0-.017a1.065,1.065,0,0,1,.093-.156l.047-.046c.082-.135.171-.27.265-.405a11.548,11.548,0,0,1,3.022-2.992,5.986,5.986,0,0,0-3.334,2.072,16.529,16.529,0,0,1-.467-1.682,4.209,4.209,0,0,1,1-3.1,4.518,4.518,0,0,1,1.775-1.23Z" fill="#a9c65e" fill-rule="evenodd"/>
  </g>
</svg>
