<svg xmlns="http://www.w3.org/2000/svg" width="104.968" height="112.094" viewBox="0 0 104.968 112.094">
  <g id="Сгруппировать_2417" data-name="Сгруппировать 2417" transform="translate(-2365.4 -4632)">
    <g id="Сгруппировать_2416" data-name="Сгруппировать 2416">
      <path id="Контур_18081" data-name="Контур 18081" d="M2370.128,4740.939a6.14,6.14,0,0,1-2.711-.71,2.6,2.6,0,0,1-1.362-2.434,1.652,1.652,0,0,1,2.149-1.351,5.765,5.765,0,0,1-2.8-4.63,5.182,5.182,0,0,1,2.62-4.671,4.713,4.713,0,0,1,5.261.587,1.213,1.213,0,0,1,1.027-1.429,3.381,3.381,0,0,1-1.225-3.826,3.622,3.622,0,0,1,3.327-2.322,3.9,3.9,0,0,1,3.445,2.213c.144-1.3-.124-2.562.279-3.814a10.31,10.31,0,0,1,1.87-3.386,9.87,9.87,0,0,1,6.433-3.6,10.149,10.149,0,0,1,10.66,7.855,1.415,1.415,0,0,1,2.819-.013,2.1,2.1,0,0,1,4.045.265c1.346-2.518,5.306-2.622,7.377-.657s2.469,5.19,1.849,7.978c.016-1.622,2.3-2.455,3.666-1.578a4.321,4.321,0,0,1,1.529,4.333,1.735,1.735,0,0,1,2.738,1.388,7.854,7.854,0,0,1,13.911-7.108c.36.553.115.146.138.805a15.175,15.175,0,0,1,.708-7.167,8.962,8.962,0,0,1,4.819-5.173,6.409,6.409,0,0,1,6.769,1.171,7.345,7.345,0,0,1,1.936,4.4,21.874,21.874,0,0,1-.163,4.882,1.565,1.565,0,0,1,2.737,1.133,1.637,1.637,0,0,1,1.534,2.181,5.024,5.024,0,0,1,5.24-3.136,6.187,6.187,0,0,1,4.87,3.961,8.106,8.106,0,0,1-.446,6.4c.667-.782,2.069-.326,2.552.582a4.811,4.811,0,0,1,.17,3.022,1.591,1.591,0,0,1,2.338.7,2.189,2.189,0,0,1-.826,2.5c-1.62,1.18-3.77.288-5.37-.462a4.011,4.011,0,0,0-1.282.015l-7.024.081-11.677.135-14.652.17-15.952.185-15.572.18-13.515.156-9.781.114C2373.294,4740.869,2371.645,4741.043,2370.128,4740.939Z" fill="#fde2c6"/>
      <g id="Сгруппировать_2415" data-name="Сгруппировать 2415">
        <path id="Контур_18082" data-name="Контур 18082" d="M2436.8,4633.15c.213,1.252-3.558,3.05-8.275,3.855s-8.613.319-8.826-.934,3.336-2.8,8.052-3.6S2436.583,4631.9,2436.8,4633.15Z" fill="#eaa24b"/>
        <g id="Сгруппировать_2413" data-name="Сгруппировать 2413">
          <path id="Контур_18083" data-name="Контур 18083" d="M2411.23,4731.233c-.442,2.216-2.351,8.11-5.679,6.439a6.355,6.355,0,0,1-1.54-1.238,1.505,1.505,0,0,1-1.059.91,4.516,4.516,0,0,1-1.445.076q-1.959-.117-3.922-.229a14.343,14.343,0,0,1-2.371-.269c-.7-.161-1.382-.425-2.081-.6-1.632-.413-3.408-.354-4.909-1.117a9.775,9.775,0,0,1-2.686-2.336,1.6,1.6,0,0,1-.488-.843c-.032-.33.247-.705.57-.629-.653-1.487-1.318-3.112-.922-4.685a3.06,3.06,0,0,0,.191-1.074.689.689,0,0,0-.012-.08,2.882,2.882,0,0,0-.7-1.159,2.216,2.216,0,0,1-.4-1.326c-.071-1.547-2.864-4.7-2.135-14.541s4.085-33.9,4.085-33.9,8.042-3.492,20,2.009c0,0-2.115,23.807-4.23,29.52a42.621,42.621,0,0,1-3.916,8.36s1.482.422,1.482,2.644c0,0,1.877,1.681,2.1,3.034a1.123,1.123,0,0,1,.017.138s5.608,3.811,6.876,5.293S2411.759,4728.589,2411.23,4731.233Z" fill="#ec904b"/>
          <path id="Контур_18084" data-name="Контур 18084" d="M2394.489,4721.719a30.877,30.877,0,0,1,3-2.65,2.066,2.066,0,0,1,1.474-.595,2.1,2.1,0,0,1,1.061.654c.339.321.683.638,1.009.971a1.053,1.053,0,0,0,.129.112c-.209-1.357-2.1-3.049-2.1-3.049,0-2.221-1.481-2.645-1.481-2.645a29.858,29.858,0,0,0,2.051-3.849,16.569,16.569,0,0,1-6.631,6.059,14.336,14.336,0,0,0,1.814-.668,1.574,1.574,0,0,1,1.767.377,1.8,1.8,0,0,1,.017,1.593A14.264,14.264,0,0,1,2394.489,4721.719Z" fill="#d87f3c"/>
          <path id="Контур_18085" data-name="Контур 18085" d="M2411.23,4731.233c-.442,2.216-2.351,8.11-5.679,6.439a6.355,6.355,0,0,1-1.54-1.238,1.505,1.505,0,0,1-1.059.91,4.516,4.516,0,0,1-1.445.076q-1.959-.117-3.922-.229a14.343,14.343,0,0,1-2.371-.269c-.7-.161-1.382-.425-2.081-.6-1.632-.413-3.408-.354-4.909-1.117a9.775,9.775,0,0,1-2.686-2.336,1.6,1.6,0,0,1-.488-.843c-.032-.33.247-.705.57-.629-.653-1.487-1.318-3.112-.922-4.685a3.06,3.06,0,0,0,.191-1.074.689.689,0,0,0-.012-.08c1.083-1.5,2.4-2.919,4.183-3.145a19.466,19.466,0,0,1,3.713.4c2.949.2,5.56-1.71,8.389-2.611a1.123,1.123,0,0,1,.017.138s5.608,3.811,6.876,5.293S2411.759,4728.589,2411.23,4731.233Z" fill="#fff"/>
          <path id="Контур_18086" data-name="Контур 18086" d="M2401.909,4679.035s2.329,17.978-1.826,30.634h0c.441-1.006.919-2.173,1.415-3.51,2.115-5.713,4.23-29.52,4.23-29.52-11.954-5.5-20-2.009-20-2.009h0C2389.222,4674.548,2399.97,4675.606,2401.909,4679.035Z" fill="#d87f3c"/>
          <path id="Контур_18087" data-name="Контур 18087" d="M2408.717,4726.322c-.516,0-1.029-.02-1.537-.067-.435-.04-1.97-.288-1.945.483a4.1,4.1,0,0,0,.834,1.669,15.452,15.452,0,0,1,1.309,2.612,9.527,9.527,0,0,1,.53,5.377c-.772-2.349-1.689-4.889-3.793-6.187a10.645,10.645,0,0,0-4.014-1.187,3.784,3.784,0,0,0-2.345.135,6.936,6.936,0,0,0-1.42,1.329,4.067,4.067,0,0,1-6.084-.51l-1.376,1.017a6.282,6.282,0,0,1-.9.588,5.783,5.783,0,0,1-2.931.4c0,.014,0,.029,0,.043a1.6,1.6,0,0,0,.488.843,9.775,9.775,0,0,0,2.686,2.336c1.5.763,3.277.7,4.909,1.117.7.178,1.377.442,2.081.6a14.343,14.343,0,0,0,2.371.269q1.964.114,3.922.229a4.516,4.516,0,0,0,1.445-.076,1.505,1.505,0,0,0,1.059-.91,6.355,6.355,0,0,0,1.54,1.238c3.328,1.671,5.237-4.223,5.679-6.439C2411.677,4729,2410.011,4727.6,2408.717,4726.322Z" fill="#cbd7e5"/>
          <path id="Контур_18088" data-name="Контур 18088" d="M2382.938,4731.619c-.1.295-.168.668-.24.844a3.6,3.6,0,0,0-2.177.573,6.317,6.317,0,0,1-4.191,4.866c-.954.31-2.15.525-2.491,1.469-.007.02-.783.084-.885.125-.279.113-.548.332-.835.457a8.929,8.929,0,0,1-2.078.618c-.247.222-.027.666.287.775a2.966,2.966,0,0,0,.991.022,10.023,10.023,0,0,1,2.143.6,9.1,9.1,0,0,0,3.653-.434,4.86,4.86,0,0,1,2.857.08,6.454,6.454,0,0,0,2.947.544c.827-.052,1.517-.553,2.316-.633a13.891,13.891,0,0,1,2.054.182c2,.112,4.006.278,6.007.444l6.93.576,2.823.232c.676.055,1.223.416,1.889.433,1.628.041,3.108-1.034,4.754-.8.773.111,1.476.517,2.243.661a6.79,6.79,0,0,0,2.075-.045,10.184,10.184,0,0,0,4.25-1.43,10.433,10.433,0,0,1,1.434-.855,2.253,2.253,0,0,1,.983-.046,7.413,7.413,0,0,0,3.268-.547,3.139,3.139,0,0,0,1.986-2.991l-1.082-.122c.229.026-.2-.982-.274-1.059-.336-.349-.722-.215-1.151-.334a2,2,0,0,1-.971-.506c-.336-.409-.091-1.116-.743-1.256-.5-.108-.672.337-1.072.464-.834.264-1.769-1.117-2.6-.622-.265.158-.339.5-.479.774a1.879,1.879,0,0,1-1.976.893,3.065,3.065,0,0,1-1.879-1.266c.065.124-.128.254-.255.195-.224-.106-.46-.724-.534-.955a13.968,13.968,0,0,1-.217-1.467c-.13-.632-.606-1.311-1.248-1.244l-.2-.876a.617.617,0,0,1-.078.631c-.122.186-.294.337-.413.526a2.941,2.941,0,0,0-.231,1.552c-.009.592-.957,4.467-1.979,3.281a.944.944,0,0,1-.19-.379.282.282,0,0,0-.243-.228c-.1-.01-.2.03-.289-.008a.446.446,0,0,1-.153-.152c-.022-.027-.13-.141-.172-.1-.024.023-.009.168-.013.205a2.082,2.082,0,0,1-.084.428,1.778,1.778,0,0,1-.434.731,1.6,1.6,0,0,1-2.233.012c-.259-.292-.384-.684-.649-.97s-.789-.409-1.015-.092a.8.8,0,0,1-.063,1.069,2.153,2.153,0,0,1-1.043.529,8.1,8.1,0,0,1-5.939-.243,7.865,7.865,0,0,0-1.163-.6,8.693,8.693,0,0,0-2.6-.072c-2.674-.052-4.676-2.294-6.651-3.823-.411-.318-.835-.287-1.239-.538-.187-.116-.345-.275-.532-.391a.722.722,0,0,0-.627-.109A.651.651,0,0,0,2382.938,4731.619Z" fill="#6a7283"/>
          <g id="Сгруппировать_2412" data-name="Сгруппировать 2412">
            <path id="Контур_18089" data-name="Контур 18089" d="M2411.251,4729.959l.056.247A.445.445,0,0,0,2411.251,4729.959Z" fill="#3f4a5a"/>
            <path id="Контур_18090" data-name="Контур 18090" d="M2421.179,4736.741c-.1-.19-.342-.106-.521-.166a1.736,1.736,0,0,1-1.222-.886c-.136-.326.034-.9-.142-1.158-.148-.22-.857-.464-1.1-.649l-.039-.029a.838.838,0,0,0-.115.052c-.265.158-.339.5-.479.774a1.879,1.879,0,0,1-1.976.893,3.065,3.065,0,0,1-1.879-1.266c.065.124-.128.254-.255.195-.224-.106-.46-.724-.534-.955a13.968,13.968,0,0,1-.217-1.467c-.13-.632-.606-1.311-1.248-1.244l-.142-.629a.777.777,0,0,1-.134.384c-.122.186-.294.337-.413.526a2.941,2.941,0,0,0-.231,1.552,6.237,6.237,0,0,1-.411,1.766c-.171.513-.436,1.462-1,1.7-.341.144-.673-.188-.714-.517a2.531,2.531,0,0,0-.041-.371.324.324,0,0,0-.247-.251c-.154-.017-.385.162-.507-.008-.039-.053-.049-.126-.084-.182a3.814,3.814,0,0,0-.218-.331c-.021-.027-.073-.066-.111-.039s.013.077.028.107a.244.244,0,0,1,.016.1c.01.1.033.208.047.312.027.205.035.411.056.617a1.054,1.054,0,0,1-.375.876,1.6,1.6,0,0,1-2.233.012c-.259-.292-.384-.684-.649-.97s-.789-.409-1.015-.092a.8.8,0,0,1-.063,1.069,2.153,2.153,0,0,1-1.043.529,8.1,8.1,0,0,1-5.939-.243,7.865,7.865,0,0,0-1.163-.6,8.693,8.693,0,0,0-2.6-.072c-2.674-.052-4.676-2.294-6.651-3.823-.411-.318-.835-.287-1.239-.538-.187-.116-.345-.275-.532-.391a.722.722,0,0,0-.627-.109.651.651,0,0,0-.275.4c-.1.295-.168.668-.24.844a3.6,3.6,0,0,0-2.177.573,6.335,6.335,0,0,1-3.731,4.693c.125.012.25.023.374.04.717.095.827.438,1.292.839a2.816,2.816,0,0,0,1.759.462c1.208-.02,2.475-.381,3.587.09.623.264,1.312.856,2.037.743a1.488,1.488,0,0,0,.869-.5c.217-.413-.011-.482-.264-.78-.858-1.011,1.254-1.294,1.8-1.306a17.622,17.622,0,0,1,2.967.384,7.984,7.984,0,0,1,2.59.7c.537.286,1.007.763,1.561,1a1.859,1.859,0,0,0,1.335-.024,1.148,1.148,0,0,1,1.071.151c.776.757,1.06,2.127,2.431,1.863.82-.158,1.146-.85,1.81-1.2a19.814,19.814,0,0,1,1.942-.927,6.136,6.136,0,0,1,2.972.084,2.418,2.418,0,0,0,2.36-.718c.166-.246.28-.568.559-.669a.729.729,0,0,1,.73.243c.189.194.322.439.515.629a1.4,1.4,0,0,0,1.7.168c.868-.572.194-1.68.948-2.187.6-.4,1.3.118,1.909.186.668.073,1.252-.217,1.947-.039a18.067,18.067,0,0,0,1.741.512,2.467,2.467,0,0,0,1.483-.035C2421,4737.336,2421.3,4736.973,2421.179,4736.741Z" fill="#3f4a5a"/>
          </g>
          <path id="Контур_18091" data-name="Контур 18091" d="M2397.343,4685.483a.567.567,0,0,0,.078-.842.981.981,0,0,0-.431-.185c-.512-.115-1.576-.36-1.435.438a.9.9,0,0,0,.4.631,1.248,1.248,0,0,0,.626.122A1.268,1.268,0,0,0,2397.343,4685.483Z" fill="#e9a578"/>
          <path id="Контур_18092" data-name="Контур 18092" d="M2388.782,4695.261a.954.954,0,0,0-1.576-.031c-.367.479.062,1.134.571,1.26a.939.939,0,0,0,.921-.283A.826.826,0,0,0,2388.782,4695.261Z" fill="#e9a578"/>
          <path id="Контур_18093" data-name="Контур 18093" d="M2397.925,4697.447a.214.214,0,0,1-.175.1c-.444.059-.969-.264-.446-.589C2397.706,4696.711,2398.209,4696.9,2397.925,4697.447Z" fill="#e9a578"/>
          <path id="Контур_18094" data-name="Контур 18094" d="M2390.9,4688.489c.123.326.414.533.769.12a.6.6,0,0,0-.213-.912C2390.857,4687.461,2390.743,4688.072,2390.9,4688.489Z" fill="#e9a578"/>
          <path id="Контур_18095" data-name="Контур 18095" d="M2389.295,4708.935a.394.394,0,0,0-.1,0c-.452.055-.442.851-.2,1.1a.54.54,0,0,0,.748.021A.756.756,0,0,0,2389.295,4708.935Z" fill="#e9a578"/>
          <path id="Контур_18096" data-name="Контур 18096" d="M2395.933,4707.238a1.2,1.2,0,0,1,.428-.325.412.412,0,0,1,.487.126.368.368,0,0,1,.012.34.621.621,0,0,1-.236.257.541.541,0,0,1-.459.084.3.3,0,0,1-.184-.386" fill="#e9a578"/>
          <path id="Контур_18097" data-name="Контур 18097" d="M2385.145,4702.021c-.026-.264.1-.551.436-.517a.386.386,0,0,1,.3.238.471.471,0,0,1-.074.479C2385.447,4702.65,2385.178,4702.353,2385.145,4702.021Z" fill="#e9a578"/>
        </g>
        <g id="Сгруппировать_2414" data-name="Сгруппировать 2414">
          <path id="Контур_18098" data-name="Контур 18098" d="M2447.792,4734.511c-.18.6-.721.527-2.03.764-.207.04-.432.083-.679.14-1.807.417-4.312-.036-4.936.4s-.487.575-.487,1.272.974,1.251-.7,1.668a20.467,20.467,0,0,1-2.416.411,17.093,17.093,0,0,1-3.284.146,3.415,3.415,0,0,1-2.779-1.345c-.767-1.16-3.686-4.982-5.006-8.008s-.764-3.442-.764-6.15.764-18.912.764-21,1.18-8,1.04-8.969c-.027-.189-.054-.332-.082-.45-.006-.028-.012-.052-.018-.077-.055-.188-.113-.331-.2-.547-.021-.058-.045-.122-.07-.195-.009-.031-.021-.061-.033-.1l-.028-.082c-.015-.058-.036-.118-.057-.182-.01-.034-.019-.07-.031-.107-.033-.109-.07-.237-.11-.377-.012-.049-.027-.1-.039-.149-.027-.1-.055-.21-.085-.329a.219.219,0,0,1-.015-.052c-.487-1.945-6.465-45.4-6.048-55.129a19.609,19.609,0,0,0,5.335.518,23.762,23.762,0,0,0,10.047-2.493c.569-.283,1.144-.6,1.719-.946,0,0,4.1,28.574,4.1,30.936,0,2.167,3.433,21.56,3.743,25.267a1.806,1.806,0,0,1,0,.6,10.153,10.153,0,0,0-.757,2.989c0,.557,1.8,6.744.757,10.637s-3.119,18.979-2.635,19.953S2448,4733.818,2447.792,4734.511Z" fill="#ec904b"/>
          <path id="Контур_18099" data-name="Контур 18099" d="M2447.792,4734.511c-.18.6-.721.527-2.03.764-.207.04-.432.083-.679.14-1.807.417-4.312-.036-4.936.4s-.487.575-.487,1.272.974,1.251-.7,1.668a20.467,20.467,0,0,1-2.416.411,17.093,17.093,0,0,1-3.284.146,3.415,3.415,0,0,1-2.779-1.345c-.767-1.16-3.686-4.982-5.006-8.008s-.764-3.442-.764-6.15.764-18.912.764-21,1.18-8,1.04-8.969c-.027-.189-.054-.332-.082-.45-.006-.028-.012-.052-.018-.077-.055-.188-.113-.331-.2-.547-.021-.058-.045-.122-.07-.195-.009-.031-.021-.061-.033-.1-.034-.106-.073-.228-.116-.371-.033-.109-.07-.237-.11-.377-.012-.049-.027-.1-.039-.149-.027-.1-.055-.21-.085-.329a12.5,12.5,0,0,1,4.957-.094c.445.067.874.155,1.276.255.237.058.462.122.678.189,2.146.682,7.542-.98,9.456-1.945a.1.1,0,0,1,.028-.012,3.681,3.681,0,0,0,.35-.2l.036-.021a2.245,2.245,0,0,1,2.1-.073,1.806,1.806,0,0,1,0,.6,10.153,10.153,0,0,0-.757,2.989c0,.557,1.8,6.744.757,10.637s-3.119,18.979-2.635,19.953S2448,4733.818,2447.792,4734.511Z" fill="#fff"/>
          <path id="Контур_18100" data-name="Контур 18100" d="M2430.968,4690.181c.867,1.266,2.961.785,3.08.758a2.962,2.962,0,0,1-2.045.474,5.654,5.654,0,0,1-1.276-.255s-.032.3-.051.758a3.345,3.345,0,0,1,2.245.858l.028.023a1.488,1.488,0,0,0,.362.142c.369.1.741.171,1.114.244a12.7,12.7,0,0,0,2.541.169,11.065,11.065,0,0,0,5.446-1.2,4.113,4.113,0,0,1,.8-.306c.011-.107.02-.192.026-.247.07-.633.822-1.695.411-1.832s-4.386,2.124-4.456,1.832c-.051-.225,2.036-1.43,2.946-1.945a.1.1,0,0,1,.028-.012c.167-.1.289-.164.35-.2l.036-.021-7.462-55.33a23.762,23.762,0,0,1-10.047,2.493c.782,5.064,3.2,20.762,3.595,23.915C2429.117,4664.272,2430.968,4690.181,2430.968,4690.181Z" fill="#d87f3c"/>
          <path id="Контур_18101" data-name="Контур 18101" d="M2445.762,4735.275c-.207.04-.432.083-.679.14-1.807.417-4.312-.036-4.936.4s-.487.575-.487,1.272.974,1.251-.7,1.668a20.467,20.467,0,0,1-2.416.411,64.751,64.751,0,0,1-5.1-7.657,15.647,15.647,0,0,1-1.647-6.58v-3.494c0-.344-3.7-1.236-3.7-1.236a12.9,12.9,0,0,0,3.29,0c.822-.274.755-7.274.755-9.529a70.334,70.334,0,0,1,.822-7.4s-1.987.179-2.879-.837a4.278,4.278,0,0,1-.956-1.355,13.477,13.477,0,0,0,2.054,1.355c.889.426,2.125-.466,2.125-.466s-.07-3.652-.274-5.116-.07-1.12-.274-2.63a14.356,14.356,0,0,1-.037-3.064,5.654,5.654,0,0,0,1.276.255c.237.058.462.122.678.189,2.146.682,7.542-.98,9.456-1.945-.91.515-3,1.72-2.946,1.945.07.292,4.045-1.969,4.456-1.832s-.341,1.2-.411,1.832-.548,5.089.07,6.6.548,1.549-.207,4.234-2.194,19.2-2.261,19.888a3.865,3.865,0,0,0,.548,2.4C2441.76,4725.259,2444.554,4732.235,2445.762,4735.275Z" fill="#cbd7e5"/>
        </g>
        <path id="Контур_18102" data-name="Контур 18102" d="M2443.878,4734.606a10.007,10.007,0,0,0-1.5.448,1.951,1.951,0,0,1-1.555.112c-.259-.112-.471-.311-.722-.441a.729.729,0,0,0-.8.006.889.889,0,0,0-.113.926c.186.636.5,1.54.009,2.1a2.636,2.636,0,0,1-1.822.627c-2.4.167-5.017.279-6.994-1.1a6.955,6.955,0,0,0-1.913-1.224c-.733-.207-1.718.211-1.712.973a4.251,4.251,0,0,0-3.582,1.163,8.906,8.906,0,0,1-3.283,2.059c-1.338.3-2.812-.2-4.074.342a8.674,8.674,0,0,0-1.786,1.3,2.5,2.5,0,0,1-2.04.65,3.793,3.793,0,0,0-.964-.26c-.335.009-.682.379-.5.656a.646.646,0,0,0,.4.218,16.2,16.2,0,0,0,7.836.018,12.276,12.276,0,0,1,4.261-.729c1.473.166,2.819,1.064,4.3,1.053,1.4-.01,2.667-.826,4.051-1.017a8.075,8.075,0,0,1,2.727.211c.455.093.907.2,1.364.28s.936.06,1.376.149a8.594,8.594,0,0,1,1.01.454,4.511,4.511,0,0,0,1.217.246,4.37,4.37,0,0,0,2.355-.508,2.025,2.025,0,0,1,1.34-.436,2.527,2.527,0,0,1,.907.627,3.23,3.23,0,0,0,2.313.561,15.959,15.959,0,0,0,2.377-.533c4-1.008,8.2-.446,12.331-.459a6.27,6.27,0,0,0,2.968-.532c.816-.438,1.831-.564,2.427-1.36a2.088,2.088,0,0,1,.38-.464c.392-.292.937-.092,1.413.014a3.3,3.3,0,0,0,1.462,0c.047-.011.1-.028.116-.072a.15.15,0,0,0-.029-.122,4.266,4.266,0,0,0-.551-.809,1.436,1.436,0,0,0-.838-.472,4.551,4.551,0,0,0-1.031.112,2.679,2.679,0,0,1-1.777-.555c-1.167-.838-1.964-2.346-3.4-2.792a4.821,4.821,0,0,0-2.365.078l-6.273,1.267c-.964.194-2.113.337-2.8-.37a12.02,12.02,0,0,1-.736-1.12,2.479,2.479,0,0,0-1.334-.767c-.415-.146-.7-.509-1.107-.683A5.09,5.09,0,0,0,2443.878,4734.606Z" fill="#6a7283"/>
        <path id="Контур_18103" data-name="Контур 18103" d="M2467.368,4739.345a1.744,1.744,0,0,0-.348.028,2.679,2.679,0,0,1-1.777-.555c-1.167-.838-1.964-2.346-3.4-2.792a4.821,4.821,0,0,0-2.365.078l-6.273,1.267c-.964.194-2.113.337-2.8-.37a12.02,12.02,0,0,1-.736-1.12,2.479,2.479,0,0,0-1.334-.767c-.415-.146-.7-.509-1.107-.683a5.09,5.09,0,0,0-3.351.175,10.007,10.007,0,0,0-1.5.448,1.951,1.951,0,0,1-1.555.112c-.259-.112-.471-.311-.722-.441a.729.729,0,0,0-.8.006.889.889,0,0,0-.113.926c.186.636.5,1.54.009,2.1a2.636,2.636,0,0,1-1.822.627c-2.4.167-5.017.279-6.994-1.1a6.955,6.955,0,0,0-1.913-1.224c-.733-.207-1.718.211-1.712.973-.051-.014-.1-.024-.151-.035,0,.059-.007.119-.016.177a1.142,1.142,0,0,1-.6.929c.057.2.341.238.514.129a1.215,1.215,0,0,0,.365-.486.752.752,0,0,1,.43-.412c.436-.1.721.488,1.154.6.3.079.609-.085.917-.07a1.248,1.248,0,0,1,.88.568c.215.29.373.622.612.892a3.2,3.2,0,0,0,3.008.666,10.659,10.659,0,0,1,3.176-.459l-1.715.852a.337.337,0,0,0-.177.147c-.057.133.069.269.187.352a3.942,3.942,0,0,0,2.763.547,8.169,8.169,0,0,0,1.608-.409,2.789,2.789,0,0,1,1.465-.366c.211.045.473.113.606-.056a.566.566,0,0,0,.08-.322,2.122,2.122,0,0,1,2.228-1.887c.5.048.965.277,1.46.356a1.2,1.2,0,0,0,1.306-.506c.071-.15.093-.322.174-.467a.952.952,0,0,1,.516-.394,3.6,3.6,0,0,1,2.759.5,4.074,4.074,0,0,0,2.749.64c.348-.092.59-.364.926-.452a8.261,8.261,0,0,1,1.537-.1.659.659,0,0,1,.535.127.441.441,0,0,1-.027.557,1.223,1.223,0,0,1-.51.321,4.738,4.738,0,0,0-1.266.655,1.364,1.364,0,0,0-.539,1.253.815.815,0,0,0,1.072.618,1.632,1.632,0,0,0,.479-.479,6.376,6.376,0,0,1,1.914-1.42,3.714,3.714,0,0,1,2.386-.7c.781.14,1.4.767,2.18.928a6.574,6.574,0,0,0,2.448-.347,6.33,6.33,0,0,1,1.721-.046c.289.028.578.064.863.113a.6.6,0,0,0,.272.028A1.39,1.39,0,0,0,2467.368,4739.345Z" fill="#3f4a5a"/>
        <path id="Контур_18104" data-name="Контур 18104" d="M2427.344,4680.365a.421.421,0,0,1,.387.153c.206.243.085.561-.275.52C2427.116,4681,2426.927,4680.444,2427.344,4680.365Z" fill="#e9a578"/>
        <path id="Контур_18105" data-name="Контур 18105" d="M2424.678,4665.7a.7.7,0,0,0,.557.077.512.512,0,0,0,.3-.456.771.771,0,0,0-.205-.528.926.926,0,0,0-.776-.323c-.235.024-.641.236-.617.516S2424.466,4665.592,2424.678,4665.7Z" fill="#e9a578"/>
        <path id="Контур_18106" data-name="Контур 18106" d="M2425.69,4650.475a.383.383,0,0,1-.071.261.3.3,0,0,1-.287.082.688.688,0,0,1-.275-.144c-.27-.211-.979-1.064-.3-1.223C2425.279,4649.327,2425.683,4650.057,2425.69,4650.475Z" fill="#e9a578"/>
        <path id="Контур_18107" data-name="Контур 18107" d="M2421.144,4640.564a.422.422,0,0,0,.048.2.448.448,0,0,0,.312.161,1.448,1.448,0,0,0,.154.026.413.413,0,0,0,.35-.089.438.438,0,0,0,.1-.25A.489.489,0,1,0,2421.144,4640.564Z" fill="#e9a578"/>
        <path id="Контур_18108" data-name="Контур 18108" d="M2439.6,4657.139c.279.178.53.577.191.747a.334.334,0,0,1-.325-.075.651.651,0,0,1-.306-.46C2439.143,4657,2439.38,4657,2439.6,4657.139Z" fill="#e9a578"/>
        <path id="Контур_18109" data-name="Контур 18109" d="M2441.234,4673.19c.207.079.444.194.478.412a.362.362,0,0,1-.3.388.453.453,0,0,1-.45-.241.606.606,0,0,1,0-.526c.018-.041-.032.094-.031.048C2441.062,4673.269,2441.1,4673.192,2441.234,4673.19Z" fill="#e9a578"/>
        <path id="Контур_18110" data-name="Контур 18110" d="M2426.994,4687.753a.633.633,0,0,1,.5.647.527.527,0,0,1-.643.446.711.711,0,0,1-.4-.727.53.53,0,0,1,.1-.33.245.245,0,0,1,.314-.063" fill="#e9a578"/>
        <path id="Контур_18111" data-name="Контур 18111" d="M2427.814,4669.305c-.22-.094-.468-.073-.431.2a.71.71,0,0,0,.18.359.406.406,0,0,0,.336.171.336.336,0,0,0,.22-.447A.539.539,0,0,0,2427.814,4669.305Z" fill="#e9a578"/>
        <path id="Контур_18112" data-name="Контур 18112" d="M2436.427,4664.853c-.689.221-1.108-.921-.429-1.182S2437.175,4664.613,2436.427,4664.853Z" fill="#ec904b"/>
        <path id="Контур_18113" data-name="Контур 18113" d="M2431.64,4649.8l-.751-.357a.277.277,0,0,0-.257-.03.211.211,0,0,0-.078.2.589.589,0,0,0,.274.428,1.761,1.761,0,0,0,.483.2.486.486,0,0,0,.327.022c.1-.043.159-.2.072-.268" fill="#ec904b"/>
        <path id="Контур_18114" data-name="Контур 18114" d="M2433.678,4639.985a1.428,1.428,0,0,1,.374.206.48.48,0,0,1,.184.372.394.394,0,0,1-.429.347.459.459,0,0,1-.383-.421.55.55,0,0,1,.3-.5" fill="#ec904b"/>
        <path id="Контур_18115" data-name="Контур 18115" d="M2436.91,4679.654a.313.313,0,0,1-.19-.22c-.072-.269.056-1.106.491-.76C2437.474,4678.884,2437.359,4679.8,2436.91,4679.654Z" fill="#ec904b"/>
        <path id="Контур_18116" data-name="Контур 18116" d="M2434.128,4683.762a.536.536,0,0,1,.242.322.411.411,0,0,1-.328.517.364.364,0,0,1-.34-.413.459.459,0,0,1,.431-.363" fill="#ec904b"/>
        <path id="Контур_18117" data-name="Контур 18117" d="M2449.322,4740.123a.432.432,0,0,1,0,.508c-.116.155-.477.005-.564-.113-.115-.154-.008-.355.119-.463A.284.284,0,0,1,2449.322,4740.123Z" fill="#e6a649"/>
        <path id="Контур_18118" data-name="Контур 18118" d="M2446.411,4742.346a.217.217,0,0,1-.027.039c-.149.177-.65.141-.736-.086-.07-.184.135-.381.332-.376S2446.532,4742.131,2446.411,4742.346Z" fill="#e6a649"/>
        <path id="Контур_18119" data-name="Контур 18119" d="M2458.766,4741.769a.275.275,0,0,1,.248.137.2.2,0,0,1-.294.271C2458.542,4742.059,2458.488,4741.784,2458.766,4741.769Z" fill="#e6a649"/>
        <path id="Контур_18120" data-name="Контур 18120" d="M2464.3,4740.482a.224.224,0,0,1,.273-.029.2.2,0,0,1,.011.3.238.238,0,0,1-.309,0A.167.167,0,0,1,2464.3,4740.482Z" fill="#e6a649"/>
        <path id="Контур_18121" data-name="Контур 18121" d="M2439.639,4742.731a.618.618,0,0,1,.208.135.208.208,0,0,1,.04.232.21.21,0,0,1-.242.077.278.278,0,0,1-.207-.251.216.216,0,0,1,.219-.218" fill="#e6a649"/>
        <path id="Контур_18122" data-name="Контур 18122" d="M2425.581,4740.6a.268.268,0,0,0,.209-.059.252.252,0,0,0-.283-.41.264.264,0,0,0-.072.408A.246.246,0,0,0,2425.581,4740.6Z" fill="#e6a649"/>
        <path id="Контур_18123" data-name="Контур 18123" d="M2420.239,4738.379c-.159.026-.3.187-.089.331a.232.232,0,0,0,.288,0,.207.207,0,0,0,.006-.261A.2.2,0,0,0,2420.239,4738.379Z" fill="#e6a649"/>
        <path id="Контур_18124" data-name="Контур 18124" d="M2421.64,4736.231a.43.43,0,0,1,.155.04.143.143,0,0,1,.081.13.128.128,0,0,1-.135.108.19.19,0,0,1-.149-.106.171.171,0,0,1-.014-.134.1.1,0,0,1,.109-.068" fill="#e6a649"/>
        <path id="Контур_18125" data-name="Контур 18125" d="M2413.375,4740.2c.056-.1-.036-.158-.113-.217a.244.244,0,0,0-.245-.062.229.229,0,0,0-.112.347.263.263,0,0,0,.251.093A.321.321,0,0,0,2413.375,4740.2Z" fill="#e6a649"/>
        <path id="Контур_18126" data-name="Контур 18126" d="M2406.473,4741.588a.368.368,0,0,0,.2.2.237.237,0,0,0,.225-.415C2406.722,4741.238,2406.352,4741.318,2406.473,4741.588Z" fill="#e6a649"/>
        <path id="Контур_18127" data-name="Контур 18127" d="M2394.24,4740.673c.08.036.166.1.155.188a.155.155,0,0,1-.112.117.409.409,0,0,1-.169.006.718.718,0,0,1-.256-.062c-.109-.056-.253-.28-.084-.362C2393.872,4740.512,2394.151,4740.633,2394.24,4740.673Z" fill="#e6a649"/>
        <path id="Контур_18128" data-name="Контур 18128" d="M2387.278,4740.439c-.032.263-.6.31-.562,0C2386.75,4740.147,2387.317,4740.127,2387.278,4740.439Z" fill="#e6a649"/>
        <path id="Контур_18129" data-name="Контур 18129" d="M2391.113,4739.834a1.249,1.249,0,0,1,.527.3c.125.123.224.328.113.464s-.335.077-.5,0a1.36,1.36,0,0,1-.371-.217.457.457,0,0,1-.161-.383.281.281,0,0,1,.3-.247" fill="#e95166"/>
        <path id="Контур_18130" data-name="Контур 18130" d="M2409.837,4739.781a.884.884,0,0,1,.728.134.4.4,0,1,1-.544.563.939.939,0,0,1-.187-.607" fill="#e95166"/>
        <path id="Контур_18131" data-name="Контур 18131" d="M2418.783,4740.672a1.191,1.191,0,0,1,.405.3.408.408,0,0,1,.042.469.431.431,0,0,1-.544.071.711.711,0,0,1-.366-.57.43.43,0,0,1,.078-.295.246.246,0,0,1,.277-.086" fill="#e95166"/>
        <path id="Контур_18132" data-name="Контур 18132" d="M2443.869,4740.12a.663.663,0,0,1,.872-.014.328.328,0,0,1,.108.389c-.073.123-.241.14-.384.143a1.078,1.078,0,0,1-.392-.04.425.425,0,0,1-.233-.192A.314.314,0,0,1,2443.869,4740.12Z" fill="#e95166"/>
        <path id="Контур_18133" data-name="Контур 18133" d="M2460.793,4740.7a.657.657,0,0,1,.811.79.577.577,0,0,1-.757-.848" fill="#e95166"/>
        <path id="Контур_18134" data-name="Контур 18134" d="M2452.268,4741.97a.3.3,0,0,1-.568.122C2451.432,4741.681,2452.283,4741.4,2452.268,4741.97Z" fill="#e95166"/>
        <path id="Контур_18135" data-name="Контур 18135" d="M2457.137,4741.744h-.022a.267.267,0,0,0-.2.233.218.218,0,1,0,.427-.072A.244.244,0,0,0,2457.137,4741.744Z" fill="#3f4a5a"/>
        <path id="Контур_18136" data-name="Контур 18136" d="M2458.472,4739.994c-.235-.027-.223-.357-.027-.434C2458.8,4739.42,2458.8,4740.031,2458.472,4739.994Z" fill="#3f4a5a"/>
        <path id="Контур_18137" data-name="Контур 18137" d="M2450.47,4739.346a.268.268,0,0,1-.3.333.254.254,0,0,1-.071-.435A.233.233,0,0,1,2450.47,4739.346Z" fill="#3f4a5a"/>
        <path id="Контур_18138" data-name="Контур 18138" d="M2442.269,4741.636c-.226.081-.363-.177-.326-.365s.288-.2.407-.1A.287.287,0,0,1,2442.269,4741.636Z" fill="#3f4a5a"/>
        <path id="Контур_18139" data-name="Контур 18139" d="M2444.743,4741.848a.155.155,0,0,0,.119-.009.134.134,0,0,0,.058-.153.159.159,0,0,0-.13-.107C2444.594,4741.55,2444.571,4741.8,2444.743,4741.848Z" fill="#3f4a5a"/>
        <path id="Контур_18140" data-name="Контур 18140" d="M2437.722,4742.033a.174.174,0,0,1,.172.042.108.108,0,0,1-.016.146.122.122,0,0,1-.15,0,.149.149,0,0,1-.033-.161A.057.057,0,0,1,2437.722,4742.033Z" fill="#3f4a5a"/>
        <path id="Контур_18141" data-name="Контур 18141" d="M2433.574,4740.832a.13.13,0,0,0,.034-.055c.034-.131-.2-.232-.274-.12C2433.24,4740.8,2433.461,4740.938,2433.574,4740.832Z" fill="#3f4a5a"/>
        <path id="Контур_18142" data-name="Контур 18142" d="M2427.595,4739.378a.091.091,0,0,1-.016.056.105.105,0,0,1-.117.016c-.066-.026-.2-.171-.1-.232C2427.452,4739.168,2427.592,4739.294,2427.595,4739.378Z" fill="#3f4a5a"/>
        <path id="Контур_18143" data-name="Контур 18143" d="M2426.912,4742.486a.167.167,0,0,1,.023.172.131.131,0,0,1-.14.041.2.2,0,0,1-.146-.172c-.006-.058.027-.169.094-.186S2426.88,4742.435,2426.912,4742.486Z" fill="#3f4a5a"/>
        <path id="Контур_18144" data-name="Контур 18144" d="M2423.185,4737.835c-.167.125-.333-.175-.168-.288S2423.323,4737.732,2423.185,4737.835Z" fill="#3f4a5a"/>
        <path id="Контур_18145" data-name="Контур 18145" d="M2417.344,4738.2a.211.211,0,0,1,.066.143.12.12,0,0,1-.076.12.164.164,0,0,1-.081,0c-.126-.032-.292-.127-.249-.284S2417.267,4738.121,2417.344,4738.2Z" fill="#3f4a5a"/>
        <path id="Контур_18146" data-name="Контур 18146" d="M2414.339,4739.364c-.187.185-.437-.16-.25-.338S2414.5,4739.21,2414.339,4739.364Z" fill="#3f4a5a"/>
        <path id="Контур_18147" data-name="Контур 18147" d="M2407.914,4740.3a.143.143,0,0,1,0,.163.124.124,0,0,1-.1.042.191.191,0,0,1-.156-.265C2407.719,4740.125,2407.862,4740.218,2407.914,4740.3Z" fill="#3f4a5a"/>
        <path id="Контур_18148" data-name="Контур 18148" d="M2404.584,4742.133c-.158.133-.389-.054-.251-.225C2404.484,4741.719,2404.75,4741.993,2404.584,4742.133Z" fill="#3f4a5a"/>
      </g>
    </g>
    <path id="Контур_18149" data-name="Контур 18149" d="M2423.254,4656.641a1.158,1.158,0,0,0,.7.512.706.706,0,0,0,.761-.332.96.96,0,0,0-.108-.863,1.591,1.591,0,0,0-.54-.607.891.891,0,0,0-.787-.089C2422.642,4655.528,2422.975,4656.229,2423.254,4656.641Z" fill="#e9a578"/>
    <path id="Контур_18150" data-name="Контур 18150" d="M2439.525,4662.929a.568.568,0,0,0,.643.027.789.789,0,0,0,.243-.6,1.421,1.421,0,0,0-.128-.8.634.634,0,0,0-.683-.336.764.764,0,0,0-.469.609A1,1,0,0,0,2439.525,4662.929Z" fill="#e9a578"/>
    <path id="Контур_18151" data-name="Контур 18151" d="M2427.182,4675.01a1.071,1.071,0,0,0,1.021-.279,1.105,1.105,0,0,0,.251-.71,1.6,1.6,0,0,0-.716-1.364,1.535,1.535,0,0,0-1.533-.061c-.386.21-.949.846-.616,1.291A3.158,3.158,0,0,0,2427.182,4675.01Z" fill="#e9a578"/>
    <path id="Контур_18152" data-name="Контур 18152" d="M2442.991,4685.618a.379.379,0,0,0,.667-.166,1.431,1.431,0,0,0,.11-.738.971.971,0,0,0-.36-.641.74.74,0,0,0-.714-.1C2441.866,4684.316,2442.535,4685.289,2442.991,4685.618Z" fill="#e9a578"/>
    <path id="Контур_18153" data-name="Контур 18153" d="M2439.085,4683.313a3.557,3.557,0,0,1,.8,1.635.923.923,0,0,1-.278.958.975.975,0,0,1-.931-.082,4.5,4.5,0,0,1-1.568-1.3,1.786,1.786,0,0,1-.436-1.1c.015-.463.436-1.225.967-1.23S2438.779,4682.946,2439.085,4683.313Z" fill="#ec904b"/>
    <path id="Контур_18154" data-name="Контур 18154" d="M2432.684,4667.486a1.564,1.564,0,0,0,.6,1.034.931.931,0,0,0,.947.18.88.88,0,0,0,.39-.453,1.526,1.526,0,0,0-.026-1.258c-.18-.369-.689-.931-1.149-.815A1.205,1.205,0,0,0,2432.684,4667.486Z" fill="#ec904b"/>
    <path id="Контур_18155" data-name="Контур 18155" d="M2433.974,4652.68a1.323,1.323,0,0,1,.795.418,3.074,3.074,0,0,1,.742,1.352,1.539,1.539,0,0,1-.188,1.489,1.136,1.136,0,0,1-1.356.115,2.054,2.054,0,0,1-.844-1.161C2432.894,4654.2,2432.851,4652.584,2433.974,4652.68Z" fill="#ec904b"/>
    <path id="Контур_18156" data-name="Контур 18156" d="M2428.562,4639.989a.959.959,0,0,0,.055,1.018,1.292,1.292,0,0,0,.88.4,1.028,1.028,0,0,0,.664-.086,1.19,1.19,0,0,0,.432-.813c.1-.479.322-1.415-.43-1.41A1.945,1.945,0,0,0,2428.562,4639.989Z" fill="#ec904b"/>
    <path id="Контур_18157" data-name="Контур 18157" d="M2390.968,4683.657a1.642,1.642,0,0,0,1.712-.6,2.017,2.017,0,0,0,.267-1.835,2.634,2.634,0,0,0-1.232-1.427,2.144,2.144,0,0,0-1.881-.177C2387.744,4680.553,2389.455,4683.215,2390.968,4683.657Z" fill="#e9a578"/>
    <path id="Контур_18158" data-name="Контур 18158" d="M2398.667,4691.289c-.086-1.31-2.09-1.088-2.074.159C2396.609,4692.68,2398.751,4692.58,2398.667,4691.289Z" fill="#e9a578"/>
    <path id="Контур_18159" data-name="Контур 18159" d="M2393.652,4706.228a1.306,1.306,0,0,1-1.289.113,2.246,2.246,0,0,1-1.436-1.717c-.139-.954.823-2.614,1.9-1.821C2393.6,4703.369,2394.527,4705.484,2393.652,4706.228Z" fill="#e9a578"/>
    <path id="Контур_18160" data-name="Контур 18160" d="M2389.095,4717.835a4.932,4.932,0,0,0,.671.094.668.668,0,0,0,.586-.279.731.731,0,0,1,.079.944,2.124,2.124,0,0,1-.806.64,4.087,4.087,0,0,1-1.381.558c-.76.1-1.744-.341-1.137-1.149A2.222,2.222,0,0,1,2389.095,4717.835Z" fill="#e9a578"/>
  </g>
</svg>
