<svg xmlns="http://www.w3.org/2000/svg" width="78.196" height="78.196" viewBox="0 0 78.196 78.196">
  <g id="Сгруппировать_2411" data-name="Сгруппировать 2411" transform="translate(-1710.799 -4667.21)">
    <g id="Сгруппировать_2408" data-name="Сгруппировать 2408">
      <g id="Сгруппировать_2404" data-name="Сгруппировать 2404">
        <g id="Сгруппировать_2400" data-name="Сгруппировать 2400">
          <g id="Сгруппировать_2395" data-name="Сгруппировать 2395">
            <g id="Сгруппировать_2394" data-name="Сгруппировать 2394">
              <circle id="Эллипс_81" data-name="Эллипс 81" cx="39.098" cy="39.098" r="39.098" transform="translate(1710.799 4667.21)" fill="#ffcb4d"/>
            </g>
          </g>
          <g id="Сгруппировать_2397" data-name="Сгруппировать 2397">
            <g id="Сгруппировать_2396" data-name="Сгруппировать 2396">
              <path id="Контур_18075" data-name="Контур 18075" d="M1765.508,4670.415A39.1,39.1,0,0,1,1720.2,4731.7a39.1,39.1,0,1,0,45.312-61.289Z" fill="#fdbe45"/>
            </g>
          </g>
          <g id="Сгруппировать_2399" data-name="Сгруппировать 2399">
            <g id="Сгруппировать_2398" data-name="Сгруппировать 2398">
              <path id="Контур_18076" data-name="Контур 18076" d="M1717.016,4715.1a36.3,36.3,0,0,1,61.361-30.972,36.3,36.3,0,1,0-54.066,48.217A36.139,36.139,0,0,1,1717.016,4715.1Z" fill="#ffd074"/>
            </g>
          </g>
        </g>
        <g id="Сгруппировать_2403" data-name="Сгруппировать 2403">
          <g id="Сгруппировать_2401" data-name="Сгруппировать 2401">
            <path id="Контур_18077" data-name="Контур 18077" d="M1734.555,4716.545a16.725,16.725,0,0,0,32.912-4.627Z" fill="#72523c"/>
          </g>
          <g id="Сгруппировать_2402" data-name="Сгруппировать 2402">
            <path id="Контур_18078" data-name="Контур 18078" d="M1741.073,4725.994a16.711,16.711,0,0,0,22.4-2.784l-.2-.335C1751.458,4719.04,1741.213,4725.9,1741.073,4725.994Z" fill="#f05d64"/>
          </g>
        </g>
      </g>
      <g id="Сгруппировать_2407" data-name="Сгруппировать 2407">
        <g id="Сгруппировать_2405" data-name="Сгруппировать 2405">
          <path id="Контур_18079" data-name="Контур 18079" d="M1758.618,4698.574a7.244,7.244,0,0,1,13.247-2,1.165,1.165,0,0,1-1.685,1.538c-2.441-1.781-6.072-2.975-9.51,1.452a1.165,1.165,0,0,1-2.052-.993Z" fill="#2c2929"/>
        </g>
        <g id="Сгруппировать_2406" data-name="Сгруппировать 2406">
          <path id="Контур_18080" data-name="Контур 18080" d="M1725.354,4703.25a7.244,7.244,0,0,1,13.247-2,1.164,1.164,0,0,1-1.685,1.538c-2.441-1.781-6.072-2.976-9.51,1.452a1.165,1.165,0,0,1-2.052-.993Z" fill="#2c2929"/>
        </g>
      </g>
    </g>
    <g id="Сгруппировать_2409" data-name="Сгруппировать 2409">
      <circle id="Эллипс_82" data-name="Эллипс 82" cx="6.826" cy="6.826" r="6.826" transform="translate(1719.182 4718.143) rotate(-74.727)" fill="#f698a4"/>
    </g>
    <g id="Сгруппировать_2410" data-name="Сгруппировать 2410">
      <circle id="Эллипс_83" data-name="Эллипс 83" cx="6.826" cy="6.826" r="6.826" transform="translate(1767.892 4699.901)" fill="#f698a4"/>
    </g>
  </g>
</svg>
