<svg xmlns="http://www.w3.org/2000/svg" width="106.204" height="96" viewBox="0 0 106.204 96">
  <g id="Сгруппировать_2429" data-name="Сгруппировать 2429" transform="translate(-2350.084 -4924.919)">
    <path id="Контур_18161" data-name="Контур 18161" d="M2410.893,5017.687a10.576,10.576,0,0,0,1.554-2.791h-16.114a11.559,11.559,0,0,0,1.684,2.7A37.316,37.316,0,0,1,2410.893,5017.687Z" fill="#28174a"/>
    <path id="Контур_18162" data-name="Контур 18162" d="M2429.137,4963.985c-3.1-17.232-20.885-18.508-24.567-18.587v0s-.119,0-.334,0-.335,0-.335,0v0c-3.681.079-21.47,1.355-24.567,18.587-2.842,15.814,6.1,21.394,9.446,24.315s6.422,14.209,6.422,14.209h18.067s3.073-11.289,6.422-14.209S2431.979,4979.8,2429.137,4963.985Z" fill="#f9cd47"/>
    <rect id="Прямоугольник_456" data-name="Прямоугольник 456" width="21.993" height="4.454" rx="2.227" transform="translate(2393.239 5002.509)" fill="#402f6d"/>
    <rect id="Прямоугольник_457" data-name="Прямоугольник 457" width="21.993" height="4.454" rx="2.227" transform="translate(2393.239 5006.963)" fill="#402f6d"/>
    <rect id="Прямоугольник_458" data-name="Прямоугольник 458" width="21.993" height="4.454" rx="2.227" transform="translate(2393.239 5011.418)" fill="#402f6d"/>
    <g id="Сгруппировать_2418" data-name="Сгруппировать 2418">
      <path id="Контур_18163" data-name="Контур 18163" d="M2400.362,5004.258a118.5,118.5,0,0,0-2.774-22.051c-.686-3.265-1.146-6.924-2.495-9.986-.877-1.992-2.593-3.78-4.915-3.759a3.585,3.585,0,0,0-3.523,3.109,5.452,5.452,0,0,0,2.781,5.416c4,2.515,11.054,3.557,14.468-.411,2.114-2.457,3.74-10.05-1.487-9.968-5.016.078-3.1,8.293-1.231,10.624,3.207,4,9.325,4.618,13.672,2.275,3.3-1.777,7.259-7.645,2.715-10.4a5.192,5.192,0,0,0-6.273.975c-2.31,2.211-2.688,5.556-2.921,8.588-.681,8.87-.18,17.789-1.237,26.637-.117.979,1.41.97,1.526,0,1.021-8.548.6-17.161,1.172-25.736a17.6,17.6,0,0,1,1.17-6.391c1.011-2.14,3.389-4.175,5.759-2.7,2.431,1.515.872,4.724-.7,6.262a9.495,9.495,0,0,1-5.76,2.558c-3.911.343-8.078-1.6-9.287-5.577a6.988,6.988,0,0,1-.268-2.85c.222-1.954,2.668-3.6,3.569-1.131.684,1.875-.408,4.632-1.714,6-2.922,3.058-8.771,2.021-12.089.093a4.489,4.489,0,0,1-2.315-2.731c-.367-1.588.536-3.315,2.439-3.032,2.49.369,3.3,3.159,3.831,5.277,2.35,9.453,4.172,19.141,4.36,28.9a.763.763,0,0,0,1.526,0Z" fill="#402f6d"/>
    </g>
    <path id="Контур_18164" data-name="Контур 18164" d="M2395.453,5006.964s6.365-1.785,17.565,0C2413.018,5006.964,2400.432,5007.568,2395.453,5006.964Z" fill="#28174a"/>
    <path id="Контур_18165" data-name="Контур 18165" d="M2395.453,5011.327s6.365-1.785,17.565,0C2413.018,5011.327,2400.432,5011.931,2395.453,5011.327Z" fill="#28174a"/>
    <path id="Контур_18166" data-name="Контур 18166" d="M2398.017,5017.594a8.488,8.488,0,0,0,6.6,3.325,7.756,7.756,0,0,0,6.278-3.232A37.316,37.316,0,0,0,2398.017,5017.594Z" fill="#402f6d"/>
    <path id="Контур_18167" data-name="Контур 18167" d="M2419.586,4952.469a14.292,14.292,0,0,1,3.9,3.144,6.45,6.45,0,0,1,1.543,4.673,2.024,2.024,0,0,1-.4,1.088c-.616.731-1.774.528-2.669.2a15.549,15.549,0,0,1-9.129-8.136,3.393,3.393,0,0,1-.347-1.562C2412.745,4948.64,2418.29,4951.695,2419.586,4952.469Z" fill="#ffda7d"/>
    <path id="Контур_18168" data-name="Контур 18168" d="M2423.748,4969.083a4.041,4.041,0,0,0,.785,2.4,3.079,3.079,0,0,0,1.483.89,1.609,1.609,0,0,0,.71.076,1.479,1.479,0,0,0,.97-.812,4.8,4.8,0,0,0,.479-2.1,13.182,13.182,0,0,0-.555-4.421,2.241,2.241,0,0,0-.711-1.219,2.166,2.166,0,0,0-2.729.657C2423.507,4965.648,2423.659,4967.854,2423.748,4969.083Z" fill="#ffda7d"/>
    <path id="Контур_18169" data-name="Контур 18169" d="M2380.616,4962.887a1.916,1.916,0,0,0-.119.851.677.677,0,0,0,.542.594.947.947,0,0,0,.644-.278,14.347,14.347,0,0,0,4.312-7.1c.164-.522.947-3.12.023-3.26-.6-.091-2.079,2.193-2.388,2.638A23.186,23.186,0,0,0,2380.616,4962.887Z" fill="#ffda7d"/>
    <g id="Сгруппировать_2428" data-name="Сгруппировать 2428" opacity="0.33">
      <g id="Сгруппировать_2419" data-name="Сгруппировать 2419">
        <path id="Контур_18170" data-name="Контур 18170" d="M2366.321,5004.778a58.2,58.2,0,0,1,8-8.665c.846-.749-.394-1.988-1.235-1.243a60.279,60.279,0,0,0-8.278,9.021c-.677.9.839,1.78,1.508.887Z" fill="#b7c3ce"/>
      </g>
      <g id="Сгруппировать_2420" data-name="Сгруппировать 2420">
        <path id="Контур_18171" data-name="Контур 18171" d="M2431.95,4993.757a47.206,47.206,0,0,1,10.659,7.807c.807.787,2.044-.454,1.235-1.243a48.91,48.91,0,0,0-11.012-8.081c-.992-.532-1.875.985-.882,1.517Z" fill="#b7c3ce"/>
      </g>
      <g id="Сгруппировать_2421" data-name="Сгруппировать 2421">
        <path id="Контур_18172" data-name="Контур 18172" d="M2442.323,4975.9l12.868,2.043c1.1.175,1.573-1.518.464-1.694l-12.868-2.043c-1.1-.174-1.573,1.518-.464,1.694Z" fill="#b7c3ce"/>
      </g>
      <g id="Сгруппировать_2422" data-name="Сгруппировать 2422">
        <path id="Контур_18173" data-name="Контур 18173" d="M2351.131,4983.6l11.287-4.543c1.031-.415.581-2.115-.464-1.694l-11.287,4.543c-1.031.415-.581,2.115.464,1.694Z" fill="#b7c3ce"/>
      </g>
      <g id="Сгруппировать_2423" data-name="Сгруппировать 2423">
        <path id="Контур_18174" data-name="Контур 18174" d="M2351.107,4952.1l11.979,4.042c1.068.361,1.527-1.335.465-1.694l-11.98-4.042c-1.068-.36-1.526,1.336-.464,1.694Z" fill="#b7c3ce"/>
      </g>
      <g id="Сгруппировать_2424" data-name="Сгруппировать 2424">
        <path id="Контур_18175" data-name="Контур 18175" d="M2438.959,4957.982l10.37-3.227c1.07-.334.613-2.03-.465-1.695l-10.369,3.227c-1.071.334-.614,2.03.464,1.695Z" fill="#b7c3ce"/>
      </g>
      <g id="Сгруппировать_2425" data-name="Сгруппировать 2425">
        <path id="Контур_18176" data-name="Контур 18176" d="M2436.846,4930.555q-3.219,4.306-6.121,8.838c-.611.954.9,1.835,1.508.887q2.9-4.53,6.121-8.838c.676-.9-.84-1.781-1.508-.887Z" fill="#b7c3ce"/>
      </g>
      <g id="Сгруппировать_2426" data-name="Сгруппировать 2426">
        <path id="Контур_18177" data-name="Контур 18177" d="M2370.827,4933.2a93.575,93.575,0,0,0,7.446,7.5c.836.752,2.076-.487,1.236-1.242a93.385,93.385,0,0,1-7.447-7.5c-.75-.846-1.982.4-1.235,1.242Z" fill="#b7c3ce"/>
      </g>
      <g id="Сгруппировать_2427" data-name="Сгруппировать 2427">
        <path id="Контур_18178" data-name="Контур 18178" d="M2400.145,4925.767q.114,3.405.226,6.812c.037,1.128,1.784,1.133,1.747,0q-.114-3.406-.226-6.812c-.037-1.128-1.784-1.133-1.747,0Z" fill="#b7c3ce"/>
      </g>
    </g>
  </g>
</svg>
