<svg xmlns="http://www.w3.org/2000/svg" xmlns:xlink="http://www.w3.org/1999/xlink" width="879" height="560.216" viewBox="0 0 879 560.216">
  <defs>
    <clipPath id="clip-path">
      <rect id="Прямоугольник_455" data-name="Прямоугольник 455" width="879" height="560.216" transform="translate(2088 4039)" fill="none"/>
    </clipPath>
  </defs>
  <g id="Сгруппировать_2393" data-name="Сгруппировать 2393" transform="translate(-2088 -4039)">
    <g id="Сгруппировать_2392" data-name="Сгруппировать 2392" clip-path="url(#clip-path)">
      <g id="Сгруппировать_2391" data-name="Сгруппировать 2391">
        <g id="Сгруппировать_2381" data-name="Сгруппировать 2381">
          <path id="Контур_17984" data-name="Контур 17984" d="M3017.479,4596.434l-679.991-.271s148.1-335.064,228.215-462.634c25.59-40.752,65.972-66.166,111.916-77.752q2.244-.569,4.507-1.1c.453-.1.9-.2,1.353-.3q1.234-.279,2.478-.543a254.561,254.561,0,0,1,51.425-5.455q2.016-.006,4.037,0,8.042.07,16.12.608a290.275,290.275,0,0,1,47.215,7.1q3.227.756,6.429,1.586,1.131.291,2.254.594c.077.018.155.039.232.061q6.554,1.764,13.026,3.826c36.629,11.681,70.957,30.614,98.8,56.118,1.4,1.288,2.8,2.593,4.171,3.916q2.113,2.03,4.166,4.119c48.087,48.737,73.366,118.914,50.793,206.421C2951.21,4462.255,3086.329,4466.964,3017.479,4596.434Z" fill="#e8f2fa"/>
          <path id="Контур_17985" data-name="Контур 17985" d="M2925.5,4118.272c-27.843-25.5-62.171-44.437-98.8-56.118q-6.469-2.069-13.026-3.826c-.077-.022-.155-.043-.232-.061q-1.125-.3-2.254-.594-3.206-.828-6.429-1.586-4.284-1.008-8.6-1.887a289.2,289.2,0,0,0-38.615-5.209q-8.073-.537-16.12-.608-2.022-.012-4.037,0a301.93,301.93,0,0,0-51.425,4.563q-1.242.219-2.478.452l-1.353.259v269.833h247.54v-201.3C2928.3,4120.865,2926.9,4119.56,2925.5,4118.272Z" fill="#f6fbff" opacity="0.5"/>
          <g id="Сгруппировать_2366" data-name="Сгруппировать 2366">
            <path id="Контур_17986" data-name="Контур 17986" d="M2743.086,4507.55l13.456,29.385v0l25.926,56.617a2.7,2.7,0,0,0,2.445,1.57h.213a2.877,2.877,0,0,0,2.769-3.649l-20.583-73.648-3-10.743Z" fill="#fddbba"/>
          </g>
          <path id="Контур_17987" data-name="Контур 17987" d="M2756.542,4536.935c-1.283-13.363,10.77-19.1,10.77-19.1l-3-10.743-21.226.463Z" fill="#f0c19c"/>
          <g id="Сгруппировать_2367" data-name="Сгруппировать 2367">
            <path id="Контур_17988" data-name="Контур 17988" d="M2882.073,4507.55l13.456,29.385v0l25.927,56.617a2.7,2.7,0,0,0,2.444,1.57h.213a2.876,2.876,0,0,0,2.769-3.649L2906.3,4517.83l-3-10.743Z" fill="#fddbba"/>
          </g>
          <path id="Контур_17989" data-name="Контур 17989" d="M2895.529,4536.935c-1.282-13.363,10.771-19.1,10.771-19.1l-3-10.743-21.226.463Z" fill="#f0c19c"/>
          <rect id="Прямоугольник_452" data-name="Прямоугольник 452" width="625.115" height="60.196" rx="5.557" transform="translate(2301.874 4449.669)" fill="#fddbba"/>
          <path id="Контур_17990" data-name="Контур 17990" d="M2329.657,4507.087l-3,10.743-20.583,73.648a2.877,2.877,0,0,0,2.769,3.649h.213a2.7,2.7,0,0,0,2.445-1.57l25.926-56.617v0l13.456-29.385Z" fill="#f0c19c"/>
          <path id="Контур_17991" data-name="Контур 17991" d="M2439.165,4507.087l-3,10.743-20.582,73.648a2.876,2.876,0,0,0,2.769,3.649h.212a2.694,2.694,0,0,0,2.445-1.57l25.926-56.617v0l13.457-29.385Z" fill="#f0c19c"/>
          <rect id="Прямоугольник_453" data-name="Прямоугольник 453" width="242.637" height="236.39" rx="16.771" transform="translate(2293.54 4273.476)" fill="#f0c19c"/>
          <path id="Контур_17992" data-name="Контур 17992" d="M2544.513,4279.752V4469.6c0,3.451-2.5,6.275-5.557,6.275H2307.432c-3.056,0-5.557-2.824-5.557-6.275V4279.752c0-3.452,2.5-6.276,5.557-6.276h231.524C2542.012,4273.476,2544.513,4276.3,2544.513,4279.752Z" fill="#fddbba"/>
          <path id="Контур_17993" data-name="Контур 17993" d="M2345.99,4465.723s-42.6-3.4-44.115-4.445v-39.1c8.983-8.5,26.621-18.165,26.621-18.165Z" fill="#f0c19c"/>
          <path id="Контур_17994" data-name="Контур 17994" d="M2358.147,4319.139a3.542,3.542,0,1,1,3.5,4.083A3.824,3.824,0,0,1,2358.147,4319.139Z" fill="#f0c19c"/>
          <path id="Контур_17995" data-name="Контур 17995" d="M2498.188,4319.139a3.542,3.542,0,1,1,3.5,4.083A3.825,3.825,0,0,1,2498.188,4319.139Z" fill="#f0c19c"/>
          <path id="Контур_17996" data-name="Контур 17996" d="M2358.147,4396.125a3.542,3.542,0,1,1,3.5,4.083A3.825,3.825,0,0,1,2358.147,4396.125Z" fill="#223e7a"/>
          <path id="Контур_17997" data-name="Контур 17997" d="M2498.188,4396.125a3.542,3.542,0,1,1,3.5,4.083A3.826,3.826,0,0,1,2498.188,4396.125Z" fill="#f0c19c"/>
          <path id="Контур_17998" data-name="Контур 17998" d="M2721.859,4455.226v49.083a5.613,5.613,0,0,1-5.636,5.557H2301.538a5.613,5.613,0,0,1-5.636-5.557v-49.083a5.613,5.613,0,0,1,5.636-5.557h414.685A5.613,5.613,0,0,1,2721.859,4455.226Z" fill="#f0c19c"/>
          <g id="Сгруппировать_2368" data-name="Сгруппировать 2368">
            <path id="Контур_17999" data-name="Контур 17999" d="M2436.99,4375.525s-15.59,45.3-7.416,74.539h26.951S2466.464,4396.743,2436.99,4375.525Z" fill="#eaf2ff"/>
            <path id="Контур_18000" data-name="Контур 18000" d="M2436.99,4375.525s54.244-7.568,84.127,0l22.458,74.539h-87.05S2466.464,4405.455,2436.99,4375.525Z" fill="#fff"/>
          </g>
          <path id="Контур_18001" data-name="Контур 18001" d="M2736.281,4447.783c-.535-.288-.819-.443-.819-.443A1.685,1.685,0,0,1,2736.281,4447.783Z" fill="#e36d11"/>
          <g id="Сгруппировать_2369" data-name="Сгруппировать 2369">
            <path id="Контур_18002" data-name="Контур 18002" d="M2331.349,4375.525s-15.59,45.3-7.416,74.539h26.95S2360.822,4396.743,2331.349,4375.525Z" fill="#eaf2ff"/>
            <path id="Контур_18003" data-name="Контур 18003" d="M2331.349,4375.525s54.244-7.568,84.127,0l22.458,74.539h-87.051S2360.822,4405.455,2331.349,4375.525Z" fill="#fff"/>
          </g>
          <path id="Контур_18004" data-name="Контур 18004" d="M2758.183,4142.415a9.129,9.129,0,1,1,9.129,9.13A9.129,9.129,0,0,1,2758.183,4142.415Z" fill="#fff"/>
          <path id="Контур_18005" data-name="Контур 18005" d="M2698.69,4219.711s7.2-10.836,24.429-9.632c0,0,25.008-18.061,51.677-2.408,0,0,28.348-3.879,49.342,3.358,14,4.825,18.621,9.886,18.621,9.886Z" fill="#f6fbff"/>
          <path id="Контур_18006" data-name="Контур 18006" d="M2782.071,4316.716s-6.828-38.937,27.025-54.447,47.424-12.093,61-45.147,55.4-13.666,55.4-13.666v113.076Z" fill="#9bd399"/>
          <path id="Контур_18007" data-name="Контур 18007" d="M2894.186,4450.321s-86.138-39.208-101.649-39.307-85.955,19.289-102.113,16.057-105.344-30.87-117.623-30.946-202.984,20.246-231.422,53.939c-5.223,6.188,83.253,123.368,135.253,116.727,34.534-4.41,111.493-117.9,121.12-119.451s194.757,2.329,194.757,2.329C2834.089,4449.669,2894.186,4450.321,2894.186,4450.321Z" fill="#96c2fb"/>
          <path id="Контур_18008" data-name="Контур 18008" d="M2795.124,4064.506c-3.778,9.734-25.206,20.678-43,22.617s-10.647,16.805-25.513,27.559-40.657,9.131-40.657,9.131v-70.871a301.93,301.93,0,0,1,51.425-4.563q2.016-.006,4.037,0,8.042.07,16.12.608a289.2,289.2,0,0,1,38.615,5.209A22.549,22.549,0,0,1,2795.124,4064.506Z" fill="#9bd399"/>
          <g id="Сгруппировать_2371" data-name="Сгруппировать 2371">
            <g id="Сгруппировать_2370" data-name="Сгруппировать 2370">
              <path id="Контур_18009" data-name="Контур 18009" d="M2929.666,4122.188c-1.37-1.323-2.766-2.628-4.171-3.916v198.26H2685.957v-262.7q-1.242.264-2.478.543c-.452.1-.9.206-1.353.3q-2.262.525-4.507,1.1v276.047h256.213V4126.307Q2931.777,4124.22,2929.666,4122.188Z" fill="#afceff"/>
            </g>
            <path id="Контур_18010" data-name="Контур 18010" d="M2956.511,4331.823H2653a15.107,15.107,0,0,1,15.106-15.107h273.3a15.107,15.107,0,0,1,15.106,15.107Z" fill="#afceff"/>
            <path id="Контур_18011" data-name="Контур 18011" d="M2813.437,4058.267v265.219h-8.683v-267.4q3.227.756,6.429,1.586Q2812.314,4057.964,2813.437,4058.267Z" fill="#afceff"/>
          </g>
          <g id="Сгруппировать_2378" data-name="Сгруппировать 2378">
            <g id="Сгруппировать_2373" data-name="Сгруппировать 2373">
              <path id="Контур_18012" data-name="Контур 18012" d="M2763.723,4254.1s-10.068-11.747-.62-19.208c0,0,6.9-4.178,12.528-3.839,0,0-7.974,13.371-5.394,14.7s7.81-15.539,7.81-15.539,15.7-1.523,20.757.906c0,0-13.425,10.987-10.6,11.641s17.329-10.13,17.329-10.13,14.617,2.488,13.837,11.4-5.816,11.67-8.029,11.433-15.163-5.18-15.445-3.366,7.513,7.741,12.971,8.018c0,0-10.3,11.365-17.154,8.085s-7.433-8.479-11.7-10.429-7.914-1.945-6.151.044,9.489,3.921,11.93,8.24,4.632,7.231-2.454,6.165-18.6-6.251-19.109-12.188Z" fill="#73b471"/>
              <g id="Сгруппировать_2372" data-name="Сгруппировать 2372">
                <path id="Контур_18013" data-name="Контур 18013" d="M2812.19,4244.271s-39.7-1.53-48.467,9.824a28.71,28.71,0,0,1-7.9,11.094l-.93,2.535s6.879-7.253,9.341-7.692C2764.229,4260.032,2760.379,4245.966,2812.19,4244.271Z" fill="#73b471"/>
                <path id="Контур_18014" data-name="Контур 18014" d="M2755.818,4265.189a24.931,24.931,0,0,0-9.113,17.562l1.547.138s2.721-11.642,7.64-16.2S2755.818,4265.189,2755.818,4265.189Z" fill="#73b471"/>
              </g>
            </g>
            <g id="Сгруппировать_2375" data-name="Сгруппировать 2375">
              <path id="Контур_18015" data-name="Контур 18015" d="M2728.52,4239.322s16.016-8.969,8.542-21.142c0,0-5.98-7.475-12.386-9.4,0,0,3.417,18.153,0,18.58s-2.35-20.5-2.35-20.5-16.871-8.115-23.491-7.474c0,0,10.465,17.725,7.048,17.3s-15.163-18.366-15.163-18.366-17.3-3.2-20.074,7.047,1.708,15.377,4.271,16.017,19.006.427,18.579,2.563-11.532,5.552-17.725,3.63c0,0,6.834,16.871,15.8,16.017s11.746-6.407,17.3-6.834,9.61,1.068,6.834,2.563-12.173.49-16.657,4.3-8.115,6.162.213,7.871,23.278.64,26.268-5.766Z" fill="#9bd399"/>
              <g id="Сгруппировать_2374" data-name="Сгруппировать 2374">
                <path id="Контур_18016" data-name="Контур 18016" d="M2678.547,4208.57s44.847,14.522,49.973,30.752a34.064,34.064,0,0,0,4.271,15.59v3.2s-4.7-10.892-7.261-12.386C2725.53,4245.729,2735.567,4231.634,2678.547,4208.57Z" fill="#73b471"/>
                <path id="Контур_18017" data-name="Контур 18017" d="M2732.791,4254.912s6.916,10.5,2.973,23.287l-1.779-.478s1.727-14.082-1.891-21.164S2732.791,4254.912,2732.791,4254.912Z" fill="#73b471"/>
              </g>
            </g>
            <g id="Сгруппировать_2377" data-name="Сгруппировать 2377">
              <path id="Контур_18018" data-name="Контур 18018" d="M2754,4226.952s-21.113-11.823-11.26-27.869c0,0,7.882-9.853,16.327-12.387,0,0-4.5,23.929,0,24.492s3.1-27.025,3.1-27.025,22.239-10.7,30.966-9.853c0,0-13.794,23.365-9.29,22.8s19.987-24.21,19.987-24.21,22.8-4.222,26.462,9.29-2.252,20.269-5.63,21.113-25.055.563-24.492,3.378,15.2,7.32,23.366,4.786c0,0-9.009,22.239-20.832,21.113s-15.483-8.445-22.8-9.008-12.668,1.407-9.008,3.378,16.046.646,21.957,5.671,10.7,8.123-.281,10.375-30.685.845-34.626-7.6Z" fill="#9bd399"/>
              <g id="Сгруппировать_2376" data-name="Сгруппировать 2376">
                <path id="Контур_18019" data-name="Контур 18019" d="M2819.874,4186.415s-59.117,19.142-65.873,40.537a44.9,44.9,0,0,1-5.63,20.55v4.223s6.193-14.357,9.571-16.328C2757.942,4235.4,2744.711,4216.818,2819.874,4186.415Z" fill="#73b471"/>
                <path id="Контур_18020" data-name="Контур 18020" d="M2748.371,4247.5s-9.117,13.844-3.919,30.7l2.345-.63s-2.277-18.562,2.493-27.9S2748.371,4247.5,2748.371,4247.5Z" fill="#73b471"/>
              </g>
            </g>
            <path id="Контур_18021" data-name="Контур 18021" d="M2794.646,4273.387a41.356,41.356,0,1,1-82.713,0Z" fill="#fc7600"/>
            <path id="Контур_18022" data-name="Контур 18022" d="M2767.424,4273.387c0,15.495-3.712,31.276-16.325,38.359-2.1,1.177-9.117-.1-11.42.7a41.372,41.372,0,0,1-27.746-39.063Z" fill="#ff912b"/>
            <path id="Контур_18023" data-name="Контур 18023" d="M2795.218,4316.849h-83.857a5.1,5.1,0,0,1,5.1-5.1h73.652A5.1,5.1,0,0,1,2795.218,4316.849Z" fill="#fc7600"/>
            <path id="Контур_18024" data-name="Контур 18024" d="M2755.928,4316.849h-44.567a5.1,5.1,0,0,1,5.1-5.1h34.361A5.1,5.1,0,0,1,2755.928,4316.849Z" fill="#ff912b"/>
            <rect id="Прямоугольник_454" data-name="Прямоугольник 454" width="85.015" height="1.269" transform="translate(2710.573 4273.386)" fill="#c23b35"/>
          </g>
          <g id="Сгруппировать_2380" data-name="Сгруппировать 2380">
            <path id="Контур_18025" data-name="Контур 18025" d="M2612.357,4178.414s-14.889,1.083-20.576,15.437-14.448,24.991-9.844,31.407,10.233,10.282,8.879,13.261-10.41,3-17.451,10.31-19.923,28.424.389,32.53c15.517,3.136,3.978,22.665,14.173,30.283,13.048,9.749,57.857,19.385,72.526,7.872s9.391-34.687,4.634-42.67,10.6-19.343,12.935-23.3c9.479-16.108-20.971-18.061-16.52-27.128s9.055-17.822-5.626-26.132C2648.667,4196.2,2644.44,4172.437,2612.357,4178.414Z" fill="#1e3865"/>
            <path id="Контур_18026" data-name="Контур 18026" d="M2772.448,4422.317c-2.621,27.982-21.422,28.2-92.07,27.386-22.868-.265-44.442-.59-63.135-.991-39.058-.845-21.915-12.323-18.123-11.51a38.577,38.577,0,0,0,21.359-.354c20.528-6.256,50.112-20.646,63.5-19.947,20.718,1.083,47.611-.618,47.611-.618s-73.058-9.414-75.679-21.871-41.9-32.2-33.361-33.773,39.763,2.719,39.763,2.719a294.914,294.914,0,0,0,37.928,15.034C2732.913,4388.643,2774.439,4401.079,2772.448,4422.317Z" fill="#f48f4e"/>
            <path id="Контур_18027" data-name="Контур 18027" d="M2639.164,4270.9c-6.287,2.915-18.641,2.5-24.033-1.853-2.8-2.262-4.065-3.3-2.347-5.4,2.867-1.988,5.9-12.64,2.916-29.571l1.353.033,22.787.56s.7,7.023,1.806,13.559c.926,5.446,2.173,10.933,3.52,11.37C2648.741,4261.1,2652.524,4264.7,2639.164,4270.9Z" fill="#ffae73"/>
            <path id="Контур_18028" data-name="Контур 18028" d="M2639.84,4234.664s.695,7.02,1.807,13.555c-12.39,1.78-20.847-8.344-24.593-14.117Z" fill="#f48f4e"/>
            <g id="Сгруппировать_2379" data-name="Сгруппировать 2379">
              <path id="Контур_18029" data-name="Контур 18029" d="M2646.818,4236.89s-27.654,10.574-33.974-6.749-14.146-27.624,3.243-35.108,23.25-2.133,26.767,3.136S2653.848,4233.692,2646.818,4236.89Z" fill="#ffae73"/>
              <path id="Контур_18030" data-name="Контур 18030" d="M2628.6,4190s-.224,23.1-10.821,30.358-16.807,5.968-16.807,5.968a35.224,35.224,0,0,0,3.716-23.5S2619.339,4182.414,2628.6,4190Z" fill="#1e3865"/>
              <path id="Контур_18031" data-name="Контур 18031" d="M2627.316,4192.338s7.339,2.471,10.331,6.379,7.334,7.483,9.453,11.5c0,0,.715-15.9-8.577-21.378C2628.67,4183.032,2627.316,4192.338,2627.316,4192.338Z" fill="#1e3865"/>
              <path id="Контур_18032" data-name="Контур 18032" d="M2628.622,4192.641s2.314,23.264-9.957,35.445c0,0,9.995-18.443,6.137-32.953S2628.622,4192.641,2628.622,4192.641Z" fill="#1e3865"/>
            </g>
            <path id="Контур_18033" data-name="Контур 18033" d="M2637.207,4229.558s9.12-3.955,9.341-4.268.025,1.736.476,2.758-2.81,2.637-4.417,3.373A4.026,4.026,0,0,1,2637.207,4229.558Z" fill="#fff"/>
            <path id="Контур_18034" data-name="Контур 18034" d="M2640.164,4257.553s12.278,2.451,29.43-12.061c6.736-5.7,35.365-24.128,43.874-29.956s35.954-16.965,35.954-16.965l5.171,5.3s-31.459,26.779-34.445,27.955-31.777,27.9-32.86,30.426-12.583,12.745-11.487,25.56C2676.443,4295.321,2640.164,4257.553,2640.164,4257.553Z" fill="#ffae73"/>
            <path id="Контур_18035" data-name="Контур 18035" d="M2614.88,4259.744a22.288,22.288,0,0,1-17.364-7.335c-5.985-6.484-35.365-24.127-43.874-29.956s-43.784-18.037-43.784-18.037l-3.135,4.921s37.252,28.226,40.239,29.4,25.124,22.091,28.746,28.486c3.416,6.032,13.587,20.794,17.333,27.337C2598.858,4304.721,2614.88,4259.744,2614.88,4259.744Z" fill="#ffae73"/>
            <path id="Контур_18036" data-name="Контур 18036" d="M2658.4,4257.553s18.416,29.25,19.5,35.749-7.944,36.833-8.3,41.166-7.583,28.888-7.583,28.888h-54.527s-2.792-39.468-6.812-49.886-13.048-31.945-13.048-31.945l29.127-19.008Z" fill="#ffae73"/>
            <path id="Контур_18037" data-name="Контур 18037" d="M2817.308,4555.352l-14.251,2.524c-1.322-2.534-2.746-5.064-4.236-7.572-12.192-20.409-29.455-39.627-40.813-54.062-33.669-42.769,10.508-57.914-61.8-56.6s-100.368-10.99-100.7-32.3c-.13-8.195,12.274-43.977,12.274-43.977h54.528s-5.514,4.106-3.25,9.181,77.814,26.78,88.289,30c18.238,5.595,20.3,20.686,34.124,54.106,7.2,17.4,24.2,65.491,31.9,87.477C2815.8,4551.019,2817.308,4555.352,2817.308,4555.352Z" fill="#ffae73"/>
            <path id="Контур_18038" data-name="Контур 18038" d="M2514.266,4206.236s-8.515-5.869-13.1-6.7-9.379-1.668-8.545,0,6.252,1.761,5.835,3.694-17.3-.919-15.839,3.008,11.969,6.844,15.78,6.844,14.619-1.981,14.619-1.981Z" fill="#ffae73"/>
            <path id="Контур_18039" data-name="Контур 18039" d="M2748.859,4198.981s8.515-5.868,13.1-6.7,9.379-1.667,8.545,0-6.252,1.761-5.836,3.694,17.3-.918,15.84,3.008-11.969,6.845-15.78,6.845-14.619-1.982-14.619-1.982Z" fill="#ffae73"/>
            <path id="Контур_18040" data-name="Контур 18040" d="M2610.795,4259.479s16.013,34.179-14.049,43.387l8.55,34.218s16.936,13.211,64.06.384c0,0,10.374-31.713,8.543-44.166-1.706-11.6-28.172-36.578-28.172-36.578l-3.392.391s13,17.785,12.278,22.84-19.844,9.479-32.228,1.715c-3.566-2.235-12.1-21.89-12.1-21.89Z" fill="#fff"/>
            <path id="Контур_18041" data-name="Контур 18041" d="M2662.963,4362.488l32.394,14.314s-2.711,7.421-17.064,8.5c-10.766.813-26.592-12.2-27.722-18.628Z" fill="#fc7600"/>
            <path id="Контур_18042" data-name="Контур 18042" d="M2607.788,4363.356a3.009,3.009,0,0,1-.233-3.064s24.9,10.513,55.539.386c0,0,.755,1.04-.78,2.678C2662.314,4363.356,2636.315,4374.356,2607.788,4363.356Z" fill="#fc7600"/>
            <path id="Контур_18043" data-name="Контур 18043" d="M2837.809,4592.759c-1.9,2.979-15.166,3.521-17.333,0s-4.062-11.1-9.479-14.9-11.916-5.688-9.479-11.646,1.539-8.342,1.539-8.342c-1.322-2.534-2.746-5.064-4.236-7.572a54.639,54.639,0,0,0,14.56-6.185c2.421,6.9,3.927,11.233,3.927,11.233s9.668,16.1,11.472,23.687S2839.705,4589.78,2837.809,4592.759Z" fill="#fff"/>
            <path id="Контур_18044" data-name="Контур 18044" d="M2636.094,4449.075c-39.058-.845-67.338-2.4-66.846-4.111.721-2.524,2.877-7.22,15.568-8.3s14.852-7.583,21.622-7.854,5.958,7.583,9.75,8.4c1.343.287,9.755-2.3,20.989-5.72C2637.486,4436.438,2638.911,4443.177,2636.094,4449.075Z" fill="#fff"/>
            <path id="Контур_18045" data-name="Контур 18045" d="M2607.788,4363.356c3.25-.619,17.6,9.853,51.465.912,0,0,10.465,9.448,16.783,13.455a103.641,103.641,0,0,0,12.106,6.651s3.576,41.987-60.7,53.181c0,0-34.279-3.319-35-30.763C2591.7,4378.8,2607.788,4363.356,2607.788,4363.356Z" fill="#ff912b"/>
          </g>
          <path id="Контур_18046" data-name="Контур 18046" d="M2813.437,4449.669s47.151,21.962,51.89,19.807,28.859-19.155,28.859-19.155l-39.667-5.836Z" fill="#96c2fb"/>
          <path id="Контур_18047" data-name="Контур 18047" d="M2476.632,4566.791a12.622,12.622,0,0,0,0,12.253,13.447,13.447,0,0,0,8.285-3.3S2483.57,4567.177,2476.632,4566.791Z" fill="#96c2fb"/>
          <path id="Контур_18048" data-name="Контур 18048" d="M2864.465,4468.776s-2.154,3.3-.718,8.761c0,0,4.884.718,7.325-1C2871.072,4476.532,2868.781,4469.182,2864.465,4468.776Z" fill="#96c2fb"/>
        </g>
        <path id="Контур_18049" data-name="Контур 18049" d="M2526.871,4572.92s-25.417,7.687-26.657,21.821h79.35s-.62-3.637-2.893-3.637-34.039-.413-34.039-.413S2536.17,4572.713,2526.871,4572.92Z" fill="#fc7600"/>
        <path id="Контур_18050" data-name="Контур 18050" d="M2625.2,4572.92s-25.417,7.687-26.656,21.821h79.349s-.62-3.637-2.893-3.637-34.039-.413-34.039-.413S2634.494,4572.713,2625.2,4572.92Z" fill="#ff912b"/>
        <g id="Сгруппировать_2390" data-name="Сгруппировать 2390">
          <g id="Сгруппировать_2388" data-name="Сгруппировать 2388">
            <path id="Контур_18051" data-name="Контур 18051" d="M2858.279,4286.783s-10.414,4.227-17.816-6.393C2840.463,4280.39,2852.478,4278.351,2858.279,4286.783Z" fill="#4fb8c0"/>
            <path id="Контур_18052" data-name="Контур 18052" d="M2859.012,4282.425a5.088,5.088,0,0,1,5.1-3.849S2862.464,4282.345,2859.012,4282.425Z" fill="#4fb8c0"/>
            <path id="Контур_18053" data-name="Контур 18053" d="M2856.816,4260.645a6.813,6.813,0,0,1-6.941-4.993S2855.346,4256.262,2856.816,4260.645Z" fill="#4fb8c0"/>
            <g id="Сгруппировать_2383" data-name="Сгруппировать 2383">
              <path id="Контур_18054" data-name="Контур 18054" d="M2844.835,4187.5c10.187-2.185,10.36-10.517,10.36-10.517C2843.2,4180.77,2844.835,4187.5,2844.835,4187.5Z" fill="#4fb8c0"/>
              <path id="Контур_18055" data-name="Контур 18055" d="M2844.135,4185.6s-6.356,2.58-10.874-3.9C2833.261,4181.693,2840.594,4180.449,2844.135,4185.6Z" fill="#4fb8c0"/>
              <g id="Сгруппировать_2382" data-name="Сгруппировать 2382">
                <path id="Контур_18056" data-name="Контур 18056" d="M2858.081,4311.224l1.316,1.515a.331.331,0,0,0,.579-.218,547.618,547.618,0,0,0-10.1-103.488c-4.992-24.54-10.055-39.047-10.1-39.191h0c.05.143,4.618,14.884,9.594,39.353,4.58,22.522,9.822,51.958,8.5,101.45A.856.856,0,0,0,2858.081,4311.224Z" fill="#4fb8c0"/>
              </g>
              <path id="Контур_18057" data-name="Контур 18057" d="M2839.861,4164c1.626,1.306,7.847,6.871,1.811,11.163,0,0-4.625,1.466-6.158-2.1a22.693,22.693,0,0,1-1.57-7.038.614.614,0,0,1,.564-.648,4.933,4.933,0,0,0,1.306-.3c.573-.223.864-1.087,1.637-1.277a4.585,4.585,0,0,1,1.542-.172A1.626,1.626,0,0,1,2839.861,4164Z" fill="#ff912b"/>
              <path id="Контур_18058" data-name="Контур 18058" d="M2843.315,4173.6a3.746,3.746,0,0,0-1.16,3.836l.019.873a4.129,4.129,0,0,0-2.75-2.858A4.884,4.884,0,0,0,2843.315,4173.6Z" fill="#4fb8c0"/>
              <path id="Контур_18059" data-name="Контур 18059" d="M2844.835,4187.5c10.187-2.185,10.36-10.517,10.36-10.517S2847.125,4181.41,2844.835,4187.5Z" fill="#70d9db"/>
            </g>
            <g id="Сгруппировать_2385" data-name="Сгруппировать 2385">
              <path id="Контур_18060" data-name="Контур 18060" d="M2854.622,4181.788s6.408,2.452,10.795-4.12C2865.417,4177.668,2858.06,4176.571,2854.622,4181.788Z" fill="#4fb8c0"/>
              <g id="Сгруппировать_2384" data-name="Сгруппировать 2384">
                <path id="Контур_18061" data-name="Контур 18061" d="M2843.2,4307.67l-1.285,1.541a.33.33,0,0,1-.583-.206,547.675,547.675,0,0,1,8.02-103.67c4.5-24.635,9.271-39.241,9.318-39.385h0c-.047.144-4.318,14.973-8.8,39.537-4.129,22.61-8.779,52.144-6.462,101.6A.852.852,0,0,1,2843.2,4307.67Z" fill="#4fb8c0"/>
              </g>
              <path id="Контур_18062" data-name="Контур 18062" d="M2858.462,4160.106c-1.6,1.338-7.707,7.026-1.586,11.2,0,0,4.654,1.372,6.114-2.222a22.657,22.657,0,0,0,1.429-7.067.614.614,0,0,0-.576-.637,4.894,4.894,0,0,1-1.312-.27c-.577-.211-.885-1.069-1.663-1.244a4.584,4.584,0,0,0-1.545-.141A1.629,1.629,0,0,0,2858.462,4160.106Z" fill="#ff912b"/>
              <path id="Контур_18063" data-name="Контур 18063" d="M2855.2,4169.783a3.742,3.742,0,0,1,1.237,3.811v.874a4.128,4.128,0,0,1,2.692-2.912A4.889,4.889,0,0,1,2855.2,4169.783Z" fill="#4fb8c0"/>
            </g>
            <g id="Сгруппировать_2387" data-name="Сгруппировать 2387">
              <path id="Контур_18064" data-name="Контур 18064" d="M2851.907,4174.276s-6.766,1.131-9.762-6.18C2842.145,4168.1,2849.574,4168.481,2851.907,4174.276Z" fill="#4fb8c0"/>
              <g id="Сгруппировать_2386" data-name="Сгруппировать 2386">
                <path id="Контур_18065" data-name="Контур 18065" d="M2838.121,4299.922l.953,1.765a.331.331,0,0,0,.613-.086,547.623,547.623,0,0,0,12.716-103.2c.479-25.038-1.3-40.3-1.316-40.452h0c.018.151,1.26,15.533.781,40.5-.442,22.98-1.745,52.85-13.832,100.861A.851.851,0,0,0,2838.121,4299.922Z" fill="#4fb8c0"/>
              </g>
              <path id="Контур_18066" data-name="Контур 18066" d="M2852.446,4152.263c1.3,1.629,6.16,8.417-.667,11.289,0,0-4.834.422-5.552-3.391a22.686,22.686,0,0,1,0-7.21.614.614,0,0,1,.692-.51,4.9,4.9,0,0,0,1.339,0c.608-.093,1.08-.873,1.876-.889a4.562,4.562,0,0,1,1.543.169A1.63,1.63,0,0,1,2852.446,4152.263Z" fill="#ff912b"/>
              <path id="Контур_18067" data-name="Контур 18067" d="M2853.721,4162.4a3.744,3.744,0,0,0-1.969,3.49l-.172.856a4.129,4.129,0,0,0-2.06-3.388A4.887,4.887,0,0,0,2853.721,4162.4Z" fill="#4fb8c0"/>
            </g>
            <path id="Контур_18068" data-name="Контур 18068" d="M2846.324,4166.741s0-5.357-4.616-7.038C2841.708,4159.7,2840.691,4164.172,2846.324,4166.741Z" fill="#4fb8c0"/>
            <path id="Контур_18069" data-name="Контур 18069" d="M2857.166,4158.132s-.136-4.088,3.645-5.267C2860.811,4152.865,2861.721,4156.671,2857.166,4158.132Z" fill="#f89b31"/>
            <path id="Контур_18070" data-name="Контур 18070" d="M2844.759,4182.724c-.137.119-1.971-3.977,1.761-7.268C2846.52,4175.456,2848.08,4179.839,2844.759,4182.724Z" fill="#f89b31"/>
            <path id="Контур_18071" data-name="Контур 18071" d="M2842.145,4182.4a2.212,2.212,0,0,0-1.911-2.332S2839.905,4181.791,2842.145,4182.4Z" fill="#4fb8c0"/>
            <path id="Контур_18072" data-name="Контур 18072" d="M2861.482,4175.456s1.637-3.389,6.876-2.8C2868.358,4172.657,2867.572,4176.292,2861.482,4175.456Z" fill="#4fb8c0"/>
          </g>
          <path id="Контур_18073" data-name="Контур 18073" d="M2832.525,4316.245h33.584a3.7,3.7,0,0,0,3.664-4.235l-15.632-107.743a2.046,2.046,0,0,0-2.024-1.751h-4.991a2.183,2.183,0,0,0-2.159,1.862l-16,107.736A3.6,3.6,0,0,0,2832.525,4316.245Z" fill="#ff912b"/>
          <g id="Сгруппировать_2389" data-name="Сгруппировать 2389">
            <path id="Контур_18074" data-name="Контур 18074" d="M2858.669,4312.986l-8.3-110.446a2.04,2.04,0,0,1,1.752,1.727l15.633,107.743a3.7,3.7,0,0,1-3.664,4.235h-6.713A3.971,3.971,0,0,0,2858.669,4312.986Z" fill="#ffae6c"/>
          </g>
        </g>
      </g>
    </g>
  </g>
</svg>
