<svg xmlns="http://www.w3.org/2000/svg" width="88.313" height="84.255" viewBox="0 0 88.313 84.255">
  <g id="Сгруппировать_2464" data-name="Сгруппировать 2464" transform="translate(-1711.688 -5223.149)">
    <path id="Контур_18212" data-name="Контур 18212" d="M1768.523,5296.924a59.366,59.366,0,0,0,3.622-14.014,15.167,15.167,0,0,0-3.319-10.929,17.94,17.94,0,0,0-3.382-3.386c-2.764-2.1-6.461-3.3-9.658-4.563a118.986,118.986,0,0,0-11.408-3.844c-5.819-1.637-14.781-5.177-20.491-1.773-4.779,2.849-6.71,7.629-8.566,12.646-1.672,4.519-4.333,11-3.463,15.919.776,4.4,5.208,7.865,8.885,9.715,1.6.8,3.214,1.6,4.842,2.368l.333,6.062c.039.72.168,1.577.823,1.877a40.372,40.372,0,0,0,5.345-4.5l.408-.387c7.1,2.879,14.447,4.981,22.063,5.268a15.172,15.172,0,0,0,5.911-.687C1764.541,5305.165,1766.928,5300.972,1768.523,5296.924Z" fill="#e9454a"/>
    <path id="Контур_18213" data-name="Контур 18213" d="M1743.165,5263.086a59.373,59.373,0,0,1-3.623-14.015,15.165,15.165,0,0,1,3.319-10.928,17.962,17.962,0,0,1,3.382-3.387c2.764-2.1,6.461-3.3,9.659-4.562a119,119,0,0,1,11.407-3.844c5.819-1.638,14.781-5.177,20.491-1.773,4.779,2.849,6.711,7.629,8.567,12.646,1.671,4.519,4.333,10.994,3.463,15.919-.777,4.4-5.208,7.865-8.886,9.715-1.6.8-3.214,1.6-4.842,2.368l-.333,6.062c-.039.719-.168,1.577-.822,1.877a40.3,40.3,0,0,1-5.345-4.5l-.409-.387c-7.095,2.878-14.447,4.981-22.062,5.267a15.149,15.149,0,0,1-5.911-.686C1747.146,5271.326,1744.759,5267.134,1743.165,5263.086Z" fill="#96c2fb"/>
    <path id="Контур_18214" data-name="Контур 18214" d="M1741.233,5280.739a18.233,18.233,0,0,0-.9-6.784c-.862-2.127-2.769-4-5.062-4.106a5.909,5.909,0,0,0-5.312,3.635,12.542,12.542,0,0,0-.7,6.708,29.944,29.944,0,0,0,4.8,13.07,1.937,1.937,0,0,0,2.772,1.048,36.857,36.857,0,0,0,14-9.077,11.678,11.678,0,0,0,3.072-4.709,5.036,5.036,0,0,0-1.292-5.209,5.4,5.4,0,0,0-2.083-1,9.232,9.232,0,0,0-11.543,7.736" fill="#fff7ff"/>
    <path id="Контур_18215" data-name="Контур 18215" d="M1771.147,5248.555a15.163,15.163,0,0,0-4.387-3.64,5.163,5.163,0,0,0-5.419.354,4.918,4.918,0,0,0-1.191,5.228,10.446,10.446,0,0,0,3.367,4.5,24.946,24.946,0,0,0,10.333,5.274,1.613,1.613,0,0,0,2.288-.927,30.713,30.713,0,0,0,3.426-13.475,9.741,9.741,0,0,0-.787-4.618,4.2,4.2,0,0,0-3.738-2.454,4.517,4.517,0,0,0-1.839.568,7.692,7.692,0,0,0-2.68,11.262" fill="#fff"/>
  </g>
</svg>
