<svg xmlns="http://www.w3.org/2000/svg" width="85.66" height="77.838" viewBox="0 0 85.66 77.838">
  <g id="Сгруппировать_2463" data-name="Сгруппировать 2463" transform="translate(-1723.775 -4934)">
    <g id="Сгруппировать_2431" data-name="Сгруппировать 2431">
      <g id="Сгруппировать_2430" data-name="Сгруппировать 2430">
        <path id="Контур_18179" data-name="Контур 18179" d="M1802.906,5005.4a6.723,6.723,0,0,1-6.535,5.919H1738.58a6.919,6.919,0,0,1-6.676-5.9l-8.084-65.511a5.141,5.141,0,0,1,5.219-5.9h75.007a5.292,5.292,0,0,1,5.36,5.918Z" fill="#d1d1d1"/>
        <path id="Контур_18180" data-name="Контур 18180" d="M1801.536,5005.009l-.047.422a5.817,5.817,0,0,1-.31,1.224,6.531,6.531,0,0,1-1.038,1.762,6.965,6.965,0,0,1-2.173,1.747c-.242.1-.48.241-.746.326l-.4.145-.421.111a3.147,3.147,0,0,1-.438.093c-.149.023-.3.056-.453.071-.308.024-.63.051-.927.054l-3.944.12-4.485.136-4.973.116-5.406.118-5.785.1c-3.971.063-8.158.137-12.49.168l-6.6.063-3.362.032-3.4.011-3.424.011-.859,0h-.108l-.167-.007-.215-.009a4.026,4.026,0,0,1-.469-.034l-.551-.074c-.177-.031-.336-.072-.505-.11l-.249-.058-.244-.077c-.162-.054-.326-.1-.485-.163a9.121,9.121,0,0,1-1.806-.945,8.88,8.88,0,0,1-1.531-1.366,8.018,8.018,0,0,1-1.147-1.743,7.222,7.222,0,0,1-.605-2.05c-.543-4.59-1.086-9.182-1.62-13.7-.273-2.258-.525-4.5-.77-6.716s-.492-4.4-.732-6.556c-.493-4.3-.921-8.471-1.339-12.42s-.794-7.686-1.135-11.135c-.168-1.726-.342-3.377-.484-4.951s-.278-3.066-.406-4.469-.246-2.716-.357-3.929q-.041-.456-.081-.892l-.005-.055,0-.048v-.027l0-.109-.008-.215-.007-.214.015-.234a4.838,4.838,0,0,1,.383-1.67,4.949,4.949,0,0,1,.79-1.294,4.662,4.662,0,0,1,.485-.489l.247-.213.257-.18a5.659,5.659,0,0,1,1.876-.827,5.339,5.339,0,0,1,.721-.121,3.907,3.907,0,0,1,.527-.037l.43,0v.147l-.419.02a3.7,3.7,0,0,0-.51.057,5.067,5.067,0,0,0-.691.145,5.425,5.425,0,0,0-1.756.858,4.662,4.662,0,0,0-1.589,2.08,4.444,4.444,0,0,0-.307,1.527,11.6,11.6,0,0,0,.147,1.733l.479,3.915c.342,2.795.727,5.948,1.148,9.388,1.684,13.76,3.93,32.1,6.175,50.452a5.835,5.835,0,0,0,.473,1.612,6.56,6.56,0,0,0,.923,1.412,7.437,7.437,0,0,0,1.257,1.129,7.686,7.686,0,0,0,1.494.789,6.9,6.9,0,0,0,1.632.4,3.252,3.252,0,0,0,.424.033l.215.011.1,0h.967l3.424,0,13.357.013,23.681.024,9.458.009,3.944,0a6.988,6.988,0,0,0,3.214-.656,6.891,6.891,0,0,0,2.121-1.589,6.279,6.279,0,0,0,1.062-1.648,5.642,5.642,0,0,0,.347-1.164c.042-.277.064-.42.064-.42Z" fill="#e2e2e2"/>
      </g>
      <path id="Контур_18181" data-name="Контур 18181" d="M1799.893,5002.876a6.165,6.165,0,0,1-5.993,5.433h-52.715a6.343,6.343,0,0,1-6.121-5.419l-7.389-60.51a4.727,4.727,0,0,1,4.8-5.419h68.434a4.864,4.864,0,0,1,4.926,5.434Z" fill="#666"/>
    </g>
    <g id="Сгруппировать_2462" data-name="Сгруппировать 2462">
      <path id="Контур_18182" data-name="Контур 18182" d="M1778.611,4949.477a6.6,6.6,0,0,1-6.616,6.574h-11.6a6.6,6.6,0,0,1-6.616-6.574h0a6.6,6.6,0,0,1,6.616-6.574h11.6a6.6,6.6,0,0,1,6.616,6.574Z" fill="#fff"/>
      <g id="Сгруппировать_2459" data-name="Сгруппировать 2459">
        <g id="Сгруппировать_2432" data-name="Сгруппировать 2432">
          <path id="Контур_18183" data-name="Контур 18183" d="M1766.082,4951.263a.278.278,0,0,1-.278-.278v-7.84a.278.278,0,0,1,.556,0v7.84A.278.278,0,0,1,1766.082,4951.263Z" fill="#ac272d"/>
        </g>
        <g id="Сгруппировать_2433" data-name="Сгруппировать 2433">
          <path id="Контур_18184" data-name="Контур 18184" d="M1756.316,4950.384a.151.151,0,0,1-.035,0l-2.8-.74a.139.139,0,1,1,.071-.268l2.8.74a.139.139,0,0,1-.036.273Z"/>
        </g>
        <g id="Сгруппировать_2434" data-name="Сгруппировать 2434">
          <path id="Контур_18185" data-name="Контур 18185" d="M1758.845,4947.282a.138.138,0,0,1-.113-.058l-2.529-3.571a.139.139,0,1,1,.227-.16l2.528,3.57a.139.139,0,0,1-.113.219Z"/>
        </g>
        <g id="Сгруппировать_2435" data-name="Сгруппировать 2435">
          <path id="Контур_18186" data-name="Контур 18186" d="M1763.314,4946.257a.138.138,0,0,1-.138-.127l-.339-3.837a.139.139,0,0,1,.127-.15.137.137,0,0,1,.15.126l.338,3.837a.139.139,0,0,1-.126.151Z"/>
        </g>
        <g id="Сгруппировать_2436" data-name="Сгруппировать 2436">
          <path id="Контур_18187" data-name="Контур 18187" d="M1757,4947.552a.072.072,0,0,1-.039-.012l-2.3-1.568a.07.07,0,0,1-.018-.1.068.068,0,0,1,.1-.018l2.3,1.569a.069.069,0,0,1-.04.126Z"/>
        </g>
        <g id="Сгруппировать_2437" data-name="Сгруппировать 2437">
          <path id="Контур_18188" data-name="Контур 18188" d="M1756.608,4948.258a.086.086,0,0,1-.026,0l-2.582-1.045a.071.071,0,0,1-.038-.091.07.07,0,0,1,.09-.038l2.582,1.045a.069.069,0,0,1-.026.134Z"/>
        </g>
        <g id="Сгруппировать_2438" data-name="Сгруппировать 2438">
          <path id="Контур_18189" data-name="Контур 18189" d="M1756.316,4949.242a.046.046,0,0,1-.021,0l-2.648-.867a.07.07,0,0,1-.044-.088.069.069,0,0,1,.087-.044l2.648.868a.069.069,0,0,1-.022.135Z"/>
        </g>
        <g id="Сгруппировать_2439" data-name="Сгруппировать 2439">
          <path id="Контур_18190" data-name="Контур 18190" d="M1757.581,4946.768a.065.065,0,0,1-.044-.016l-2.152-1.76a.07.07,0,0,1,.088-.108l2.152,1.761a.071.071,0,0,1,.009.1A.072.072,0,0,1,1757.581,4946.768Z"/>
        </g>
        <g id="Сгруппировать_2440" data-name="Сгруппировать 2440">
          <path id="Контур_18191" data-name="Контур 18191" d="M1761.062,4945.007a.07.07,0,0,1-.067-.051l-.766-2.837a.069.069,0,0,1,.134-.036l.766,2.837a.069.069,0,0,1-.049.085Z"/>
        </g>
        <g id="Сгруппировать_2441" data-name="Сгруппировать 2441">
          <path id="Контур_18192" data-name="Контур 18192" d="M1760.027,4945.287a.071.071,0,0,1-.064-.042l-1.182-2.694a.07.07,0,0,1,.128-.056l1.181,2.694a.069.069,0,0,1-.035.092A.065.065,0,0,1,1760.027,4945.287Z"/>
        </g>
        <g id="Сгруппировать_2442" data-name="Сгруппировать 2442">
          <path id="Контур_18193" data-name="Контур 18193" d="M1759.008,4945.771a.069.069,0,0,1-.06-.034l-1.428-2.483a.07.07,0,0,1,.121-.069l1.427,2.482a.07.07,0,0,1-.025.1A.074.074,0,0,1,1759.008,4945.771Z"/>
        </g>
        <g id="Сгруппировать_2443" data-name="Сгруппировать 2443">
          <path id="Контур_18194" data-name="Контур 18194" d="M1761.973,4945.007a.068.068,0,0,1-.068-.06l-.386-2.836a.069.069,0,1,1,.137-.019l.386,2.837a.069.069,0,0,1-.059.078Z"/>
        </g>
        <g id="Сгруппировать_2444" data-name="Сгруппировать 2444">
          <path id="Контур_18195" data-name="Контур 18195" d="M1764.277,4944.954a.07.07,0,0,1-.069-.067l-.092-1.986a.068.068,0,0,1,.066-.072.062.062,0,0,1,.072.066l.093,1.986a.071.071,0,0,1-.066.073Z"/>
        </g>
        <g id="Сгруппировать_2445" data-name="Сгруппировать 2445">
          <path id="Контур_18196" data-name="Контур 18196" d="M1765.181,4944.912a.069.069,0,0,1-.069-.066l-.092-1.986a.069.069,0,0,1,.066-.073.065.065,0,0,1,.072.066l.093,1.986a.07.07,0,0,1-.066.073Z"/>
        </g>
        <g id="Сгруппировать_2446" data-name="Сгруппировать 2446">
          <path id="Контур_18197" data-name="Контур 18197" d="M1775.963,4950.312a.139.139,0,0,1-.035-.273l2.8-.74a.139.139,0,0,1,.17.1.138.138,0,0,1-.1.169l-2.8.741A.151.151,0,0,1,1775.963,4950.312Z"/>
        </g>
        <g id="Сгруппировать_2447" data-name="Сгруппировать 2447">
          <path id="Контур_18198" data-name="Контур 18198" d="M1773.435,4947.211a.143.143,0,0,1-.081-.026.14.14,0,0,1-.033-.194l2.529-3.57a.139.139,0,0,1,.226.161l-2.528,3.57A.139.139,0,0,1,1773.435,4947.211Z"/>
        </g>
        <g id="Сгруппировать_2448" data-name="Сгруппировать 2448">
          <path id="Контур_18199" data-name="Контур 18199" d="M1768.966,4946.186h-.012a.139.139,0,0,1-.127-.15l.338-3.838a.139.139,0,1,1,.277.025l-.338,3.837A.139.139,0,0,1,1768.966,4946.186Z"/>
        </g>
        <g id="Сгруппировать_2449" data-name="Сгруппировать 2449">
          <path id="Контур_18200" data-name="Контур 18200" d="M1775.278,4947.481a.073.073,0,0,1-.058-.03.071.071,0,0,1,.019-.1l2.3-1.568a.069.069,0,1,1,.079.114l-2.3,1.569A.073.073,0,0,1,1775.278,4947.481Z"/>
        </g>
        <g id="Сгруппировать_2450" data-name="Сгруппировать 2450">
          <path id="Контур_18201" data-name="Контур 18201" d="M1775.672,4948.186a.07.07,0,0,1-.065-.043.071.071,0,0,1,.039-.091l2.581-1.045a.07.07,0,0,1,.09.039.068.068,0,0,1-.038.09l-2.581,1.045A.087.087,0,0,1,1775.672,4948.186Z"/>
        </g>
        <g id="Сгруппировать_2451" data-name="Сгруппировать 2451">
          <path id="Контур_18202" data-name="Контур 18202" d="M1775.963,4949.17a.069.069,0,0,1-.066-.048.069.069,0,0,1,.045-.087l2.647-.867a.069.069,0,0,1,.088.044.07.07,0,0,1-.045.088l-2.647.867A.08.08,0,0,1,1775.963,4949.17Z"/>
        </g>
        <g id="Сгруппировать_2452" data-name="Сгруппировать 2452">
          <path id="Контур_18203" data-name="Контур 18203" d="M1774.7,4946.7a.07.07,0,0,1-.044-.124l2.152-1.76a.069.069,0,0,1,.087.107l-2.151,1.761A.076.076,0,0,1,1774.7,4946.7Z"/>
        </g>
        <g id="Сгруппировать_2453" data-name="Сгруппировать 2453">
          <path id="Контур_18204" data-name="Контур 18204" d="M1771.217,4944.936l-.018,0a.071.071,0,0,1-.049-.086l.766-2.836a.068.068,0,0,1,.085-.049.07.07,0,0,1,.049.085l-.766,2.837A.068.068,0,0,1,1771.217,4944.936Z"/>
        </g>
        <g id="Сгруппировать_2454" data-name="Сгруппировать 2454">
          <path id="Контур_18205" data-name="Контур 18205" d="M1772.253,4945.215a.056.056,0,0,1-.028-.006.068.068,0,0,1-.036-.091l1.182-2.694a.069.069,0,1,1,.127.056l-1.182,2.694A.068.068,0,0,1,1772.253,4945.215Z"/>
        </g>
        <g id="Сгруппировать_2455" data-name="Сгруппировать 2455">
          <path id="Контур_18206" data-name="Контур 18206" d="M1773.271,4945.7a.074.074,0,0,1-.034-.009.07.07,0,0,1-.026-.095l1.428-2.483a.069.069,0,0,1,.095-.025.07.07,0,0,1,.025.1l-1.428,2.482A.069.069,0,0,1,1773.271,4945.7Z"/>
        </g>
        <g id="Сгруппировать_2456" data-name="Сгруппировать 2456">
          <path id="Контур_18207" data-name="Контур 18207" d="M1770.306,4944.936h-.009a.07.07,0,0,1-.06-.078l.387-2.837a.067.067,0,0,1,.078-.059.069.069,0,0,1,.059.078l-.386,2.837A.07.07,0,0,1,1770.306,4944.936Z"/>
        </g>
        <g id="Сгруппировать_2457" data-name="Сгруппировать 2457">
          <path id="Контур_18208" data-name="Контур 18208" d="M1768,4944.882h0a.069.069,0,0,1-.066-.073l.092-1.986a.067.067,0,0,1,.073-.066.07.07,0,0,1,.066.073l-.093,1.986A.069.069,0,0,1,1768,4944.882Z"/>
        </g>
        <g id="Сгруппировать_2458" data-name="Сгруппировать 2458">
          <path id="Контур_18209" data-name="Контур 18209" d="M1767.1,4944.841h0a.068.068,0,0,1-.066-.072l.092-1.986a.065.065,0,0,1,.072-.066.07.07,0,0,1,.067.072l-.092,1.986A.071.071,0,0,1,1767.1,4944.841Z"/>
        </g>
      </g>
      <g id="Сгруппировать_2461" data-name="Сгруппировать 2461">
        <path id="Контур_18210" data-name="Контур 18210" d="M1772.346,4941.7h-12.528a7.9,7.9,0,0,0,0,15.777h12.528a7.9,7.9,0,0,0,0-15.777Zm-.808,14.31h-10.913a6.435,6.435,0,1,1,0-12.869h10.913a6.435,6.435,0,1,1,0,12.869Z" fill="#d1d1d1"/>
        <g id="Сгруппировать_2460" data-name="Сгруппировать 2460">
          <path id="Контур_18211" data-name="Контур 18211" d="M1759.787,4941.969s-.186.018-.534.054a4.216,4.216,0,0,0-.627.109,6.844,6.844,0,0,0-.824.228,7.143,7.143,0,0,0-2.011,1.091,7.645,7.645,0,0,0-1.908,2.227,7.776,7.776,0,0,0-.988,3.285l-.012.461-.006.233.016.226.034.5c.015.162.05.307.073.463.039.305.138.618.211.933.04.158.1.308.157.464a3.5,3.5,0,0,0,.181.458l.209.451.252.432a3.53,3.53,0,0,0,.278.42,4.431,4.431,0,0,0,.3.4,7.054,7.054,0,0,0,1.506,1.375,6.63,6.63,0,0,0,3.933,1.126l8.75.061c.7.007,1.385,0,2.056.023l1,.021.225.006.244-.008.483-.016a6.84,6.84,0,0,0,1.7-.391,7.141,7.141,0,0,0,1.482-.756,7.891,7.891,0,0,0,2.049-2.1,7.416,7.416,0,0,0,.961-2.084c.044-.155.085-.3.123-.44s.054-.272.078-.4l.066-.342c.017-.106.021-.2.031-.288.032-.347.05-.532.05-.532h.054l-.025.537c-.005.087-.005.185-.017.292s-.031.223-.049.349-.039.26-.06.4-.071.292-.109.451a7.633,7.633,0,0,1-.906,2.168,7.749,7.749,0,0,1-2.059,2.238,7.3,7.3,0,0,1-3.351,1.287c-.638.05-1.3.042-1.971.042l-2.056,0-8.75.009a7.146,7.146,0,0,1-4.22-1.25,7.6,7.6,0,0,1-1.6-1.486,5.128,5.128,0,0,1-.321-.434,3.912,3.912,0,0,1-.292-.45l-.264-.463-.218-.481a3.811,3.811,0,0,1-.189-.489c-.054-.165-.12-.326-.162-.493a8.208,8.208,0,0,1-.209-1,8.45,8.45,0,0,1-.063-1.972,8.145,8.145,0,0,1,1.114-3.416,7.517,7.517,0,0,1,2.049-2.247,7.307,7.307,0,0,1,2.1-1.044,5.889,5.889,0,0,1,.85-.2,4.4,4.4,0,0,1,.64-.079l.535-.029Z" fill="#e2e2e2"/>
        </g>
      </g>
    </g>
  </g>
</svg>
