<svg xmlns="http://www.w3.org/2000/svg" width="166.088" height="87.27" viewBox="0 0 166.088 87.27">
  <g id="Сгруппировать_2733" data-name="Сгруппировать 2733" transform="translate(-394.841 -6734.212)">
    <g id="Сгруппировать_2730" data-name="Сгруппировать 2730" opacity="0.38">
      <path id="Контур_18960" data-name="Контур 18960" d="M543.483,6767.434l-12.531-26.915a2.41,2.41,0,0,1,1.167-3.2l.1-.047a2.407,2.407,0,0,1,3.2,1.167l12.53,26.914a2.407,2.407,0,0,1-1.167,3.2l-.1.048A2.408,2.408,0,0,1,543.483,6767.434Z" fill="#2b2422"/>
      <path id="Контур_18961" data-name="Контур 18961" d="M396.084,6821.367a1.891,1.891,0,0,1-.15-3.49l32.946-15.338a1.891,1.891,0,1,1,1.6,3.428l-32.946,15.338A1.887,1.887,0,0,1,396.084,6821.367Z" fill="#2b2422"/>
      <path id="Контур_18962" data-name="Контур 18962" d="M442.446,6804.839l-6.536,3.043a3.969,3.969,0,0,1-5.274-1.924l-1.809-3.885a3.97,3.97,0,0,1,1.924-5.274l6.535-3.042" fill="#2b2422"/>
      <path id="Контур_18963" data-name="Контур 18963" d="M466.444,6804.526a28.314,28.314,0,0,1-23.691.1,9.3,9.3,0,0,1-5.1-10.964,28.317,28.317,0,0,1,15.326-18.066l51.537-23.993,13.469,28.933Z" fill="#2b2422"/>
      <path id="Контур_18964" data-name="Контур 18964" d="M514.973,6774.07,504.393,6779l-5.843,2.72-35.115,16.347a28.313,28.313,0,0,1-23.69.1,9.275,9.275,0,0,1-2.431-1.607,9.3,9.3,0,0,0,5.439,8.07,28.314,28.314,0,0,0,23.691-.1l35.114-16.348,16.423-7.645Z" fill="#2b2422"/>
      <path id="Контур_18965" data-name="Контур 18965" d="M485.468,6795.67s-6.749-2.053-7.6-14.064-6.735-14.465-6.735-14.465l-18.157,8.452a28.316,28.316,0,0,0-15.326,18.067,9.3,9.3,0,0,0,5.1,10.964,28.318,28.318,0,0,0,23.691-.1Z" fill="#2b2422"/>
      <path id="Контур_18966" data-name="Контур 18966" d="M480.073,6790.318l-16.638,7.744a28.313,28.313,0,0,1-23.69.1,9.275,9.275,0,0,1-2.431-1.607,9.3,9.3,0,0,0,5.439,8.07,28.314,28.314,0,0,0,23.691-.1l19.024-8.857S482.339,6794.717,480.073,6790.318Z" fill="#2b2422"/>
      <path id="Контур_18967" data-name="Контур 18967" d="M520.023,6784.92l-17.553-37.707a2.964,2.964,0,0,1,1.436-3.938l.125-.058a2.964,2.964,0,0,1,3.938,1.437l17.554,37.705a2.963,2.963,0,0,1-1.436,3.938l-.125.059A2.967,2.967,0,0,1,520.023,6784.92Z" fill="#2b2422"/>
      <path id="Контур_18968" data-name="Контур 18968" d="M523.665,6778.368l-5.5,2.56,1.829,3.929a3.033,3.033,0,1,0,5.5-2.56Z" fill="#2b2422"/>
      <path id="Контур_18969" data-name="Контур 18969" d="M511.981,6753.271l20.471-9.53,9.53,20.47-20.471,9.53Z" fill="#2b2422"/>
      <path id="Контур_18970" data-name="Контур 18970" d="M532.452,6743.741l-3.473,1.616,5,10.747a4.453,4.453,0,0,1-2.157,5.914l-12.962,6.035-6.881-14.782,9.53,20.471,20.471-9.53Z" fill="#2b2422"/>
      <g id="Сгруппировать_2729" data-name="Сгруппировать 2729">
        <path id="Контур_18971" data-name="Контур 18971" d="M497.166,6765.387a1.884,1.884,0,0,1-1.066-.978l-3.321-7.134a1.89,1.89,0,0,1,3.428-1.595l3.321,7.133a1.891,1.891,0,0,1-2.362,2.574Z" fill="#2b2422"/>
        <path id="Контур_18972" data-name="Контур 18972" d="M488.647,6769.353a1.889,1.889,0,0,1-1.066-.978l-3.321-7.134a1.89,1.89,0,1,1,3.427-1.6l3.321,7.133a1.89,1.89,0,0,1-2.361,2.574Z" fill="#2b2422"/>
        <path id="Контур_18973" data-name="Контур 18973" d="M483.115,6779.735a1.887,1.887,0,0,1-1.065-.978l-6.309-13.55a1.891,1.891,0,1,1,3.428-1.6l6.308,13.551a1.89,1.89,0,0,1-2.362,2.573Z" fill="#2b2422"/>
        <path id="Контур_18974" data-name="Контур 18974" d="M471.609,6777.285a1.886,1.886,0,0,1-1.066-.979l-3.321-7.132a1.891,1.891,0,0,1,3.428-1.6l3.321,7.134a1.891,1.891,0,0,1-2.362,2.574Z" fill="#2b2422"/>
        <path id="Контур_18975" data-name="Контур 18975" d="M463.091,6781.251a1.886,1.886,0,0,1-1.066-.978l-3.321-7.134a1.89,1.89,0,0,1,3.427-1.6l3.321,7.134a1.89,1.89,0,0,1-2.361,2.574Z" fill="#2b2422"/>
        <path id="Контур_18976" data-name="Контур 18976" d="M457.558,6791.633a1.884,1.884,0,0,1-1.066-.979l-6.308-13.549a1.89,1.89,0,0,1,3.428-1.6l6.308,13.549a1.89,1.89,0,0,1-2.362,2.574Z" fill="#2b2422"/>
      </g>
    </g>
    <g id="Сгруппировать_2732" data-name="Сгруппировать 2732">
      <path id="Контур_18977" data-name="Контур 18977" d="M556.235,6764.6l-12.53-26.915a2.409,2.409,0,0,1,1.166-3.2l.1-.047a2.406,2.406,0,0,1,3.2,1.167l12.53,26.913a2.408,2.408,0,0,1-1.167,3.2l-.1.048A2.408,2.408,0,0,1,556.235,6764.6Z" fill="#7b7777"/>
      <path id="Контур_18978" data-name="Контур 18978" d="M408.836,6818.533a1.891,1.891,0,0,1-.15-3.49l32.946-15.338a1.89,1.89,0,1,1,1.6,3.427l-32.946,15.338A1.883,1.883,0,0,1,408.836,6818.533Z" fill="#7b7777"/>
      <path id="Контур_18979" data-name="Контур 18979" d="M455.2,6802l-6.536,3.042a3.97,3.97,0,0,1-5.274-1.923l-1.809-3.886a3.969,3.969,0,0,1,1.924-5.273l6.535-3.043" fill="#dfe8f2"/>
      <path id="Контур_18980" data-name="Контур 18980" d="M479.2,6801.692a28.31,28.31,0,0,1-23.691.1,9.3,9.3,0,0,1-5.1-10.963,28.317,28.317,0,0,1,15.326-18.066l51.537-23.993,13.47,28.932Z" fill="#dfe8f2"/>
      <path id="Контур_18981" data-name="Контур 18981" d="M527.725,6771.236l-10.58,4.925-5.843,2.719-35.115,16.348a28.317,28.317,0,0,1-23.69.1,9.3,9.3,0,0,1-2.431-1.607,9.3,9.3,0,0,0,5.439,8.069,28.314,28.314,0,0,0,23.691-.1l35.115-16.348,16.423-7.646Z" fill="#cbd1db"/>
      <path id="Контур_18982" data-name="Контур 18982" d="M498.22,6792.836s-6.749-2.053-7.6-14.064-6.734-14.466-6.734-14.466l-18.158,8.453a28.317,28.317,0,0,0-15.326,18.066,9.3,9.3,0,0,0,5.1,10.964,28.314,28.314,0,0,0,23.691-.1Z" fill="#659fd5"/>
      <path id="Контур_18983" data-name="Контур 18983" d="M492.825,6787.483l-16.638,7.745a28.317,28.317,0,0,1-23.69.1,9.3,9.3,0,0,1-2.431-1.607,9.3,9.3,0,0,0,5.439,8.069,28.314,28.314,0,0,0,23.691-.1l19.024-8.857S495.091,6791.882,492.825,6787.483Z" fill="#508abd"/>
      <path id="Контур_18984" data-name="Контур 18984" d="M532.775,6782.085l-17.553-37.706a2.963,2.963,0,0,1,1.436-3.938l.125-.058a2.964,2.964,0,0,1,3.938,1.436l17.554,37.706a2.964,2.964,0,0,1-1.436,3.938l-.125.059A2.967,2.967,0,0,1,532.775,6782.085Z" fill="#babfca"/>
      <path id="Контур_18985" data-name="Контур 18985" d="M536.418,6775.533l-5.5,2.561,1.829,3.929a3.034,3.034,0,0,0,5.5-2.561Z" fill="#969aa1"/>
      <path id="Контур_18986" data-name="Контур 18986" d="M524.733,6750.436l20.471-9.53,9.53,20.471-20.471,9.53Z" fill="#c5c2c2"/>
      <path id="Контур_18987" data-name="Контур 18987" d="M545.205,6740.906l-3.474,1.617,5,10.746a4.452,4.452,0,0,1-2.157,5.914l-12.962,6.035-6.881-14.782,9.53,20.471,20.471-9.53Z" fill="#a7a5a3"/>
      <g id="Сгруппировать_2731" data-name="Сгруппировать 2731">
        <path id="Контур_18988" data-name="Контур 18988" d="M509.918,6762.553a1.886,1.886,0,0,1-1.066-.979l-3.321-7.133a1.891,1.891,0,0,1,3.428-1.6l3.321,7.134a1.891,1.891,0,0,1-2.362,2.574Z" fill="#7b7777"/>
        <path id="Контур_18989" data-name="Контур 18989" d="M501.4,6766.518a1.884,1.884,0,0,1-1.066-.977l-3.321-7.134a1.89,1.89,0,1,1,3.427-1.6l3.321,7.134a1.89,1.89,0,0,1-2.361,2.573Z" fill="#7b7777"/>
        <path id="Контур_18990" data-name="Контур 18990" d="M495.867,6776.9a1.882,1.882,0,0,1-1.065-.977l-6.309-13.55a1.891,1.891,0,1,1,3.428-1.6l6.308,13.55a1.89,1.89,0,0,1-2.362,2.573Z" fill="#7b7777"/>
        <path id="Контур_18991" data-name="Контур 18991" d="M484.361,6774.451a1.889,1.889,0,0,1-1.066-.979l-3.321-7.133a1.891,1.891,0,0,1,3.428-1.6l3.321,7.134a1.891,1.891,0,0,1-2.362,2.574Z" fill="#7b7777"/>
        <path id="Контур_18992" data-name="Контур 18992" d="M475.843,6778.416a1.883,1.883,0,0,1-1.066-.978l-3.321-7.134a1.89,1.89,0,1,1,3.427-1.6l3.321,7.134a1.89,1.89,0,0,1-2.361,2.573Z" fill="#7b7777"/>
        <path id="Контур_18993" data-name="Контур 18993" d="M470.31,6788.8a1.891,1.891,0,0,1-1.066-.979l-6.308-13.549a1.891,1.891,0,1,1,3.428-1.6l6.308,13.55a1.891,1.891,0,0,1-2.362,2.574Z" fill="#7b7777"/>
      </g>
    </g>
  </g>
</svg>
