<svg xmlns="http://www.w3.org/2000/svg" width="108.824" height="169.282" viewBox="0 0 108.824 169.282">
  <g id="Сгруппировать_2728" data-name="Сгруппировать 2728" transform="translate(-529.721 -5967.612)">
    <g id="Сгруппировать_2724" data-name="Сгруппировать 2724" opacity="0.38">
      <path id="Контур_18910" data-name="Контур 18910" d="M602.139,6136.891h-43.8a5.34,5.34,0,0,1-5.305-4.7l-7.428-61.829h69.265l-7.428,61.829A5.341,5.341,0,0,1,602.139,6136.891Z" fill="#2b2422"/>
      <path id="Контур_18911" data-name="Контур 18911" d="M616.133,6070.362H544.345a9.236,9.236,0,0,1-9.395-9.068l-2.664-14.073h95.9l-2.664,14.073A9.231,9.231,0,0,1,616.133,6070.362Z" fill="#2b2422"/>
      <path id="Контур_18912" data-name="Контур 18912" d="M533.912,6047.221h92.762c2.684-2.912,4.191-6.123,4.191-9.5,0-4.717-2.913-9.108-7.917-12.811a11.341,11.341,0,0,0,.474-3.222c0-5.884-4.639-11.217-12.166-15.134,0,0,.2-33.837-27.392-31.1,0,0,8.9,14.408-3.57,14.535-17.367.185-31.448,6.35-31.448,14.174,0,.819,3.622,1.617,3.917,2.4-7.527,3.916-15.6,9.25-15.6,15.134,0,1.093,3.72,2.169,4.03,3.222-5.005,3.7-11.472,8.1-11.472,12.811C529.721,6041.1,531.228,6044.312,533.912,6047.221Z" fill="#2b2422"/>
      <path id="Контур_18913" data-name="Контур 18913" d="M573.011,6009.618h-8.678a2.893,2.893,0,0,1,0-5.785h8.678a2.893,2.893,0,0,1,0,5.785Z" fill="#2b2422"/>
      <path id="Контур_18914" data-name="Контур 18914" d="M599.044,6009.618h-5.785a2.893,2.893,0,1,1,0-5.785h5.785a2.893,2.893,0,0,1,0,5.785Z" fill="#2b2422"/>
      <g id="Сгруппировать_2722" data-name="Сгруппировать 2722">
        <path id="Контур_18915" data-name="Контур 18915" d="M573,6026.973h-2.881a2.893,2.893,0,0,1,0-5.785H573a2.893,2.893,0,1,1,0,5.785Z" fill="#2b2422"/>
        <path id="Контур_18916" data-name="Контур 18916" d="M591.552,6026.973h-5.3a2.893,2.893,0,0,1,0-5.785h5.3a2.893,2.893,0,1,1,0,5.785Z" fill="#2b2422"/>
        <path id="Контур_18917" data-name="Контур 18917" d="M607.722,6026.973h-2.881a2.893,2.893,0,1,1,0-5.785h2.881a2.893,2.893,0,0,1,0,5.785Z" fill="#2b2422"/>
      </g>
      <path id="Контур_18918" data-name="Контур 18918" d="M558.548,6026.973h-2.893a2.893,2.893,0,0,1,0-5.785h2.893a2.893,2.893,0,1,1,0,5.785Z" fill="#2b2422"/>
      <g id="Сгруппировать_2723" data-name="Сгруппировать 2723">
        <path id="Контур_18919" data-name="Контур 18919" d="M580.841,6123.275l-7.83-7.83-7.83,7.83,4.09,4.093,3.74-3.74,3.74,3.74Z" fill="#2b2422"/>
        <path id="Контур_18920" data-name="Контур 18920" d="M601.089,6123.275l-7.83-7.83-7.83,7.83,4.09,4.093,3.74-3.74,3.74,3.74Z" fill="#2b2422"/>
        <path id="Контур_18921" data-name="Контур 18921" d="M552.763,6094.7l3.74,3.74,4.09-4.093-7.83-7.83-4.938,4.938,4.09,4.093Z" fill="#2b2422"/>
        <path id="Контур_18922" data-name="Контур 18922" d="M569.271,6098.443l3.74-3.74,3.74,3.74,4.09-4.093-7.83-7.83-7.83,7.83Z" fill="#2b2422"/>
        <path id="Контур_18923" data-name="Контур 18923" d="M589.519,6098.443l3.74-3.74,3.74,3.74,4.09-4.093-7.83-7.83-7.83,7.83Z" fill="#2b2422"/>
        <path id="Контур_18924" data-name="Контур 18924" d="M553.61,6108.813l4.09,4.093,3.74-3.74,3.74,3.74,4.09-4.093-7.83-7.831Z" fill="#2b2422"/>
        <path id="Контур_18925" data-name="Контур 18925" d="M573.858,6108.813l4.09,4.093,3.74-3.74,3.74,3.74,4.09-4.093-7.83-7.831Z" fill="#2b2422"/>
        <path id="Контур_18926" data-name="Контур 18926" d="M594.106,6108.813l4.09,4.093,3.74-3.74,3.74,3.74,4.09-4.093-7.83-7.831Z" fill="#2b2422"/>
        <path id="Контур_18927" data-name="Контур 18927" d="M561.441,6080.24l3.74,3.74,4.09-4.093-7.83-7.83-7.83,7.83,4.09,4.093Z" fill="#2b2422"/>
        <path id="Контур_18928" data-name="Контур 18928" d="M581.688,6080.24l3.74,3.74,4.09-4.093-7.83-7.83-7.83,7.83,4.09,4.093Z" fill="#2b2422"/>
        <path id="Контур_18929" data-name="Контур 18929" d="M601.936,6080.24l3.74,3.74,4.09-4.093-7.83-7.83-7.83,7.83,4.09,4.093Z" fill="#2b2422"/>
        <path id="Контур_18930" data-name="Контур 18930" d="M608.569,6091.458l-2.893,2.893,4.09,4.093,1.967-1.967.2-1.655Z" fill="#2b2422"/>
        <path id="Контур_18931" data-name="Контур 18931" d="M594.106,6134.846l2.045,2.045h4.09l1.695-1.7,1.513,1.513a5.32,5.32,0,0,0,3.937-4.247l-5.447-5.446Z" fill="#2b2422"/>
        <path id="Контур_18932" data-name="Контур 18932" d="M573.858,6134.846l2.045,2.045h4.09l1.7-1.692,1.7,1.692h4.09l2.045-2.045-7.83-7.83Z" fill="#2b2422"/>
        <path id="Контур_18933" data-name="Контур 18933" d="M553.929,6134.531a5.327,5.327,0,0,0,4.411,2.363h1.406l1.7-1.695,1.7,1.695h4.09l2.045-2.045-7.83-7.83Z" fill="#2b2422"/>
        <path id="Контур_18934" data-name="Контур 18934" d="M560.593,6123.275l-5.785-5.785-3.159,3.161.252,2.115,4.6,4.6Z" fill="#2b2422"/>
      </g>
    </g>
    <g id="Сгруппировать_2727" data-name="Сгруппировать 2727">
      <path id="Контур_18935" data-name="Контур 18935" d="M609.819,6129.211h-43.8a5.341,5.341,0,0,1-5.3-4.7l-7.428-61.829h69.266l-7.428,61.829A5.341,5.341,0,0,1,609.819,6129.211Z" fill="#fbd791"/>
      <path id="Контур_18936" data-name="Контур 18936" d="M623.813,6062.682H552.025a9.236,9.236,0,0,1-9.4-9.068l-2.664-14.072h95.9l-2.664,14.072A9.232,9.232,0,0,1,623.813,6062.682Z" fill="#eeb13f"/>
      <path id="Контур_18937" data-name="Контур 18937" d="M541.592,6039.542h92.761c2.685-2.913,4.192-6.124,4.192-9.5,0-4.718-2.913-9.109-7.917-12.811a11.385,11.385,0,0,0,.474-3.223c0-5.883-4.64-11.217-12.166-15.134,0,0,.2-33.837-27.393-31.1,0,0,8.9,14.407-3.569,14.535-17.367.185-31.448,6.349-31.448,14.173,0,.819,3.621,1.617,3.917,2.4-7.527,3.917-15.6,9.251-15.6,15.134,0,1.093,3.72,2.169,4.029,3.222-5,3.7-11.472,8.1-11.472,12.812C537.4,6033.421,538.907,6036.632,541.592,6039.542Z" fill="#f4eed9"/>
      <path id="Контур_18938" data-name="Контур 18938" d="M580.69,6001.938h-8.677a2.893,2.893,0,1,1,0-5.785h8.677a2.893,2.893,0,1,1,0,5.785Z" fill="#fbd791"/>
      <path id="Контур_18939" data-name="Контур 18939" d="M606.724,6001.938h-5.786a2.893,2.893,0,0,1,0-5.785h5.786a2.893,2.893,0,0,1,0,5.785Z" fill="#fbd791"/>
      <g id="Сгруппировать_2725" data-name="Сгруппировать 2725">
        <path id="Контур_18940" data-name="Контур 18940" d="M580.679,6019.294H577.8a2.893,2.893,0,1,1,0-5.785h2.881a2.893,2.893,0,0,1,0,5.785Z" fill="#fbd791"/>
        <path id="Контур_18941" data-name="Контур 18941" d="M599.232,6019.294h-5.3a2.893,2.893,0,1,1,0-5.785h5.3a2.893,2.893,0,0,1,0,5.785Z" fill="#fbd791"/>
        <path id="Контур_18942" data-name="Контур 18942" d="M615.4,6019.294H612.52a2.893,2.893,0,0,1,0-5.785H615.4a2.893,2.893,0,1,1,0,5.785Z" fill="#fbd791"/>
      </g>
      <path id="Контур_18943" data-name="Контур 18943" d="M566.228,6019.294h-2.893a2.893,2.893,0,0,1,0-5.785h2.893a2.893,2.893,0,0,1,0,5.785Z" fill="#fbd791"/>
      <g id="Сгруппировать_2726" data-name="Сгруппировать 2726">
        <path id="Контур_18944" data-name="Контур 18944" d="M588.521,6115.6l-7.83-7.83-7.83,7.83,4.09,4.093,3.74-3.74,3.74,3.74Z" fill="#eeb13f"/>
        <path id="Контур_18945" data-name="Контур 18945" d="M608.769,6115.6l-7.83-7.83-7.83,7.83,4.09,4.093,3.74-3.74,3.74,3.74Z" fill="#eeb13f"/>
        <path id="Контур_18946" data-name="Контур 18946" d="M560.443,6087.023l3.74,3.74,4.09-4.093-7.83-7.83-4.938,4.938,4.09,4.093Z" fill="#eeb13f"/>
        <path id="Контур_18947" data-name="Контур 18947" d="M576.95,6090.763l3.74-3.74,3.74,3.74,4.09-4.093-7.83-7.83-7.83,7.83Z" fill="#eeb13f"/>
        <path id="Контур_18948" data-name="Контур 18948" d="M597.2,6090.763l3.74-3.74,3.74,3.74,4.09-4.093-7.83-7.83-7.83,7.83Z" fill="#eeb13f"/>
        <path id="Контур_18949" data-name="Контур 18949" d="M561.29,6101.133l4.09,4.093,3.74-3.74,3.74,3.74,4.09-4.093-7.83-7.831Z" fill="#eeb13f"/>
        <path id="Контур_18950" data-name="Контур 18950" d="M581.538,6101.133l4.09,4.093,3.74-3.74,3.74,3.74,4.09-4.093-7.83-7.831Z" fill="#eeb13f"/>
        <path id="Контур_18951" data-name="Контур 18951" d="M601.786,6101.133l4.09,4.093,3.74-3.74,3.74,3.74,4.09-4.093-7.83-7.831Z" fill="#eeb13f"/>
        <path id="Контур_18952" data-name="Контур 18952" d="M569.12,6072.561l3.74,3.74,4.09-4.093-7.83-7.83-7.83,7.83,4.09,4.093Z" fill="#eeb13f"/>
        <path id="Контур_18953" data-name="Контур 18953" d="M589.368,6072.561l3.74,3.74,4.09-4.093-7.83-7.83-7.83,7.83,4.09,4.093Z" fill="#eeb13f"/>
        <path id="Контур_18954" data-name="Контур 18954" d="M609.616,6072.561l3.74,3.74,4.09-4.093-7.83-7.83-7.83,7.83,4.09,4.093Z" fill="#eeb13f"/>
        <path id="Контур_18955" data-name="Контур 18955" d="M616.249,6083.778l-2.893,2.893,4.09,4.093,1.967-1.967.2-1.655Z" fill="#eeb13f"/>
        <path id="Контур_18956" data-name="Контур 18956" d="M601.786,6127.166l2.045,2.045h4.09l1.7-1.695,1.513,1.513a5.322,5.322,0,0,0,3.937-4.246l-5.447-5.447Z" fill="#eeb13f"/>
        <path id="Контур_18957" data-name="Контур 18957" d="M581.538,6127.166l2.045,2.045h4.09l1.7-1.692,1.7,1.692h4.09l2.045-2.045-7.83-7.83Z" fill="#eeb13f"/>
        <path id="Контур_18958" data-name="Контур 18958" d="M561.608,6126.851a5.328,5.328,0,0,0,4.411,2.363h1.406l1.7-1.695,1.7,1.695h4.09l2.045-2.045-7.83-7.83Z" fill="#eeb13f"/>
        <path id="Контур_18959" data-name="Контур 18959" d="M568.273,6115.6l-5.785-5.785-3.159,3.161.252,2.115,4.6,4.6Z" fill="#eeb13f"/>
      </g>
    </g>
  </g>
</svg>
