<svg xmlns="http://www.w3.org/2000/svg" width="152.91" height="152.928" viewBox="0 0 152.91 152.928">
  <g id="Сгруппировать_2779" data-name="Сгруппировать 2779" transform="translate(-449.928 -7057.428)">
    <g id="Сгруппировать_2763" data-name="Сгруппировать 2763" opacity="0.38">
      <g id="Сгруппировать_2748" data-name="Сгруппировать 2748">
        <path id="Контур_19044" data-name="Контур 19044" d="M559.625,7138.9c-8.387-13.1-8.13-14.891-7.617-19.085a46.816,46.816,0,0,0,.6-7.1c0-17.2-7.959-31.579-22.422-40.394a56.746,56.746,0,0,0-29.012-8.016,51.657,51.657,0,0,0-23.62,5.62,51.057,51.057,0,0,0-26.787,36.029,52.106,52.106,0,0,0,2.055,26.444c3.765,10.784,5.648,20.54,5.648,29.782v48.182h59.906v-17.972h12.837a12.819,12.819,0,0,0,12.837-12.837V7166.71H531.212a12.8,12.8,0,0,1-12.066-8.558h24.9v-9.5l18.742-4.793Z" fill="#2b2422"/>
      </g>
      <g id="Сгруппировать_2750" data-name="Сгруппировать 2750">
        <g id="Сгруппировать_2749" data-name="Сгруппировать 2749">
          <rect id="Прямоугольник_712" data-name="Прямоугольник 712" width="25.674" height="8.558" transform="translate(570.294 7167.281)" fill="#2b2422"/>
        </g>
      </g>
      <g id="Сгруппировать_2752" data-name="Сгруппировать 2752">
        <g id="Сгруппировать_2751" data-name="Сгруппировать 2751">
          <rect id="Прямоугольник_713" data-name="Прямоугольник 713" width="8.559" height="19.136" transform="translate(568.379 7192.498) rotate(-63.435)" fill="#2b2422"/>
        </g>
      </g>
      <g id="Сгруппировать_2755" data-name="Сгруппировать 2755">
        <g id="Сгруппировать_2754" data-name="Сгруппировать 2754">
          <g id="Сгруппировать_2753" data-name="Сгруппировать 2753">
            <rect id="Прямоугольник_714" data-name="Прямоугольник 714" width="19.136" height="8.559" transform="translate(568.381 7150.611) rotate(-26.565)" fill="#2b2422"/>
          </g>
        </g>
      </g>
      <g id="Сгруппировать_2758" data-name="Сгруппировать 2758">
        <g id="Сгруппировать_2757" data-name="Сгруппировать 2757">
          <g id="Сгруппировать_2756" data-name="Сгруппировать 2756">
            <rect id="Прямоугольник_715" data-name="Прямоугольник 715" width="8.558" height="8.558" transform="translate(553.178 7158.723)" fill="#2b2422"/>
          </g>
        </g>
      </g>
      <g id="Сгруппировать_2761" data-name="Сгруппировать 2761">
        <g id="Сгруппировать_2760" data-name="Сгруппировать 2760">
          <g id="Сгруппировать_2759" data-name="Сгруппировать 2759">
            <rect id="Прямоугольник_716" data-name="Прямоугольник 716" width="8.558" height="8.558" transform="translate(553.178 7175.839)" fill="#2b2422"/>
          </g>
        </g>
      </g>
      <path id="Контур_19045" data-name="Контур 19045" d="M562.791,7143.86l-18.742,4.793v9.5h-24.9a12.8,12.8,0,0,0,12.066,8.558h12.837v12.837a12.819,12.819,0,0,1-12.837,12.837H518.375v17.972h-17.2V7064.3a56.746,56.746,0,0,1,29.012,8.016c14.463,8.815,22.422,23.192,22.422,40.394a46.816,46.816,0,0,1-.6,7.1c-.513,4.194-.77,5.99,7.617,19.085Z" fill="#2b2422"/>
      <g id="Сгруппировать_2762" data-name="Сгруппировать 2762">
        <path id="Контур_19046" data-name="Контур 19046" d="M534.137,7123.7l-25.674-8.558,2.708-8.115,25.674,8.558Z" fill="#2b2422"/>
      </g>
    </g>
    <g id="Сгруппировать_2778" data-name="Сгруппировать 2778">
      <g id="Сгруппировать_2764" data-name="Сгруппировать 2764">
        <path id="Контур_19047" data-name="Контур 19047" d="M566.495,7132.026c-8.386-13.094-8.13-14.891-7.616-19.085a46.813,46.813,0,0,0,.6-7.1c0-17.2-7.959-31.579-22.422-40.394a56.748,56.748,0,0,0-29.012-8.016,51.663,51.663,0,0,0-23.62,5.62,51.056,51.056,0,0,0-26.787,36.029,52.11,52.11,0,0,0,2.054,26.445c3.766,10.783,5.648,20.539,5.648,29.782v48.182h59.907v-17.972h12.837a12.82,12.82,0,0,0,12.837-12.837V7159.84H538.083a12.8,12.8,0,0,1-12.067-8.558h24.9v-9.5l18.742-4.793Z" fill="#fbd5a9"/>
      </g>
      <g id="Сгруппировать_2766" data-name="Сгруппировать 2766">
        <g id="Сгруппировать_2765" data-name="Сгруппировать 2765">
          <rect id="Прямоугольник_717" data-name="Прямоугольник 717" width="25.674" height="8.558" transform="translate(577.164 7160.41)" fill="#cbdff4"/>
        </g>
      </g>
      <g id="Сгруппировать_2768" data-name="Сгруппировать 2768">
        <g id="Сгруппировать_2767" data-name="Сгруппировать 2767">
          <rect id="Прямоугольник_718" data-name="Прямоугольник 718" width="8.559" height="19.136" transform="translate(575.249 7185.627) rotate(-63.435)" fill="#cbdff4"/>
        </g>
      </g>
      <g id="Сгруппировать_2771" data-name="Сгруппировать 2771">
        <g id="Сгруппировать_2770" data-name="Сгруппировать 2770">
          <g id="Сгруппировать_2769" data-name="Сгруппировать 2769">
            <rect id="Прямоугольник_719" data-name="Прямоугольник 719" width="19.136" height="8.559" transform="translate(575.251 7143.74) rotate(-26.565)" fill="#cbdff4"/>
          </g>
        </g>
      </g>
      <g id="Сгруппировать_2774" data-name="Сгруппировать 2774">
        <g id="Сгруппировать_2773" data-name="Сгруппировать 2773">
          <g id="Сгруппировать_2772" data-name="Сгруппировать 2772">
            <rect id="Прямоугольник_720" data-name="Прямоугольник 720" width="8.558" height="8.558" transform="translate(560.048 7151.852)" fill="#cbdff4"/>
          </g>
        </g>
      </g>
      <g id="Сгруппировать_2777" data-name="Сгруппировать 2777">
        <g id="Сгруппировать_2776" data-name="Сгруппировать 2776">
          <g id="Сгруппировать_2775" data-name="Сгруппировать 2775">
            <rect id="Прямоугольник_721" data-name="Прямоугольник 721" width="8.558" height="8.558" transform="translate(560.048 7168.968)" fill="#cbdff4"/>
          </g>
        </g>
      </g>
      <path id="Контур_19048" data-name="Контур 19048" d="M569.662,7136.989l-18.742,4.793v9.5h-24.9a12.8,12.8,0,0,0,12.067,8.558H550.92v12.837a12.82,12.82,0,0,1-12.837,12.837H525.246v17.972h-17.2V7057.428a56.748,56.748,0,0,1,29.012,8.016c14.463,8.815,22.422,23.193,22.422,40.394a46.813,46.813,0,0,1-.6,7.1c-.514,4.194-.77,5.991,7.616,19.085Z" fill="#f9bf85"/>
    </g>
  </g>
</svg>
