<svg xmlns="http://www.w3.org/2000/svg" width="144.229" height="168.574" viewBox="0 0 144.229 168.574">
  <g id="Сгруппировать_2742" data-name="Сгруппировать 2742" transform="translate(-494.564 -6338.905)">
    <g id="Сгруппировать_2740" data-name="Сгруппировать 2740" opacity="0.38">
      <path id="Контур_19008" data-name="Контур 19008" d="M573.774,6449.336c-5.756,7.225-7.906,16.7-9.985,25.858-2.361,10.4-4.591,20.223-11.866,24.542-5.748,3.412-14.481,3.388-26.7-.074-12.108-3.431-19.58-8.743-22.2-15.789-4.737-12.72,6.514-29.827,13.96-41.146a103.659,103.659,0,0,0,5.576-9.041c-.553-.148-1.108-.307-1.665-.485a35.329,35.329,0,0,1-3.316-1.255c-1.158,2.138-3.019,4.969-4.956,7.913-8.023,12.2-20.149,30.636-14.49,45.835,3.037,8.157,10.831,14.286,23.186,18.241q1.212.388,2.485.749c13.668,3.873,23.738,3.723,30.783-.46,9.2-5.464,11.791-16.857,14.291-27.875,3.339-14.71,6.526-28.744,23.506-32.292a17.976,17.976,0,0,1-1.15-5.082C583.814,6440.542,578.044,6443.975,573.774,6449.336Z" fill="#2b2422"/>
      <path id="Контур_19009" data-name="Контур 19009" d="M522.559,6433.686c14.672,3.914,27.386-2.695,29.95-7.155-7.766,2.867-16.633,2.973-26.428.312a4.9,4.9,0,0,1-.99-.2l-.491-.156c-11.7-3.747-20.175-9.865-25.183-18.192-.018-.03-.033-.06-.051-.089a1.4,1.4,0,0,0-.18.372c-1.357,4.24,4.536,17.346,18.392,23.367,1.06.461,2.161.884,3.315,1.255C521.451,6433.379,522.006,6433.538,522.559,6433.686Z" fill="#2b2422"/>
      <path id="Контур_19010" data-name="Контур 19010" d="M503.13,6379.373c.188-.7.387-1.4.61-2.092,3.543-11.065,11.536-21.307,21.014-23.163a5.594,5.594,0,0,1-1.038-4.615,25.489,25.489,0,0,0-10.891,5.5c-5.917,4.906-10.686,12.324-13.427,20.887-.339,1.058-.637,2.119-.9,3.178a5.053,5.053,0,0,1,2.89-.363A4.894,4.894,0,0,1,503.13,6379.373Z" fill="#2b2422"/>
      <path id="Контур_19011" data-name="Контур 19011" d="M569.882,6400.585a5.044,5.044,0,0,1,2.142,1.974c.4-1.017.772-2.053,1.111-3.112,2.741-8.562,3.167-17.37,1.2-24.8a25.491,25.491,0,0,0-5.671-10.8,5.6,5.6,0,0,1-3.525,3.155c6.637,7.015,7.2,19.994,3.655,31.059-.223.7-.467,1.381-.718,2.058A4.919,4.919,0,0,1,569.882,6400.585Z" fill="#2b2422"/>
      <path id="Контур_19012" data-name="Контур 19012" d="M524.6,6426.488q.245.08.491.156a4.848,4.848,0,0,0,.99.2c9.795,2.662,18.662,2.556,26.428-.312.6-.223,1.2-.457,1.793-.714a35.311,35.311,0,0,0,17.961-18.014,5.626,5.626,0,0,0-.239-5.244,5.044,5.044,0,0,0-2.142-1.974,4.914,4.914,0,0,0-1.807-.47,5.374,5.374,0,0,0-5.18,3.182c-6.191,13.345-19.594,17.767-36.741,12.137l-.035-.012c-.029-.009-.06-.014-.089-.023-15.64-5.651-23.113-16.638-20.53-30.426a5.375,5.375,0,0,0-2.369-5.6,4.889,4.889,0,0,0-1.744-.666,5.037,5.037,0,0,0-2.89.362,5.627,5.627,0,0,0-3.24,4.13,35.322,35.322,0,0,0,4.11,25.008c.018.029.033.059.051.089C504.425,6416.623,512.9,6422.742,524.6,6426.488Z" fill="#2b2422"/>
      <path id="Контур_19013" data-name="Контур 19013" d="M524.4,6354a5.046,5.046,0,0,0,2.438,1.708c2.771.887,8.285.04,9.22-2.883s-3.061-6.816-5.832-7.7a5.419,5.419,0,0,0-6.712,3.687,5.781,5.781,0,0,0-.152.576A5.589,5.589,0,0,0,524.4,6354Z" fill="#2b2422"/>
      <path id="Контур_19014" data-name="Контур 19014" d="M569.018,6363.956c.078-.18.149-.366.211-.557a5.42,5.42,0,0,0-3.324-6.9c-2.771-.887-8.286-.039-9.221,2.884s3.061,6.815,5.832,7.7a5.046,5.046,0,0,0,2.977.026A5.6,5.6,0,0,0,569.018,6363.956Z" fill="#2b2422"/>
      <path id="Контур_19015" data-name="Контур 19015" d="M614.665,6420.462a18,18,0,1,0,11.653,22.626A18,18,0,0,0,614.665,6420.462Zm-9.984,31.186a14.749,14.749,0,1,1,18.544-9.55A14.749,14.749,0,0,1,604.681,6451.648Z" fill="#2b2422"/>
      <path id="Контур_19016" data-name="Контур 19016" d="M613.675,6423.555a14.749,14.749,0,1,0,9.55,18.543A14.748,14.748,0,0,0,613.675,6423.555Zm-6.627,20.7a6.986,6.986,0,1,1,8.784-4.524A6.986,6.986,0,0,1,607.048,6444.255Z" fill="#2b2422"/>
      <circle id="Эллипс_86" data-name="Эллипс 86" cx="7.292" cy="7.292" r="7.292" transform="translate(601.886 6430.31)" fill="#2b2422"/>
    </g>
    <g id="Сгруппировать_2741" data-name="Сгруппировать 2741">
      <path id="Контур_19017" data-name="Контур 19017" d="M585.387,6443.355c-5.755,7.225-7.906,16.7-9.985,25.858-2.361,10.4-4.59,20.223-11.866,24.542-5.748,3.412-14.48,3.388-26.7-.074-12.107-3.432-19.579-8.743-22.2-15.79-4.736-12.719,6.515-29.826,13.96-41.145a103.7,103.7,0,0,0,5.577-9.041c-.553-.148-1.108-.307-1.666-.485-1.153-.37-2.255-.794-3.315-1.255-1.158,2.138-3.02,4.969-4.956,7.913-8.024,12.2-20.15,30.636-14.49,45.835,3.036,8.157,10.83,14.286,23.186,18.241q1.212.388,2.484.749c13.669,3.873,23.738,3.723,30.784-.46,9.2-5.464,11.79-16.857,14.291-27.875,3.339-14.71,6.526-28.744,23.5-32.292a18.01,18.01,0,0,1-1.149-5.082C595.428,6434.561,589.658,6437.994,585.387,6443.355Z" fill="#333639"/>
      <path id="Контур_19018" data-name="Контур 19018" d="M534.172,6427.705c14.672,3.914,27.387-2.7,29.951-7.156-7.767,2.868-16.633,2.974-26.428.313a4.969,4.969,0,0,1-.99-.2c-.165-.051-.329-.1-.492-.156-11.7-3.747-20.174-9.865-25.183-18.192-.017-.03-.033-.06-.05-.089a1.374,1.374,0,0,0-.18.371c-1.358,4.241,4.536,17.347,18.391,23.368,1.06.46,2.162.884,3.316,1.255C533.064,6427.4,533.62,6427.557,534.172,6427.705Z" fill="#cbc5bc"/>
      <path id="Контур_19019" data-name="Контур 19019" d="M514.744,6373.392c.188-.7.387-1.4.61-2.092,3.542-11.066,11.536-21.307,21.013-23.163a5.6,5.6,0,0,1-1.038-4.615,25.486,25.486,0,0,0-10.89,5.5c-5.918,4.906-10.687,12.324-13.428,20.887-.339,1.058-.636,2.118-.9,3.178a5.043,5.043,0,0,1,2.89-.363A4.906,4.906,0,0,1,514.744,6373.392Z" fill="#333639"/>
      <path id="Контур_19020" data-name="Контур 19020" d="M581.495,6394.6a5.038,5.038,0,0,1,2.142,1.974c.4-1.017.773-2.053,1.112-3.112,2.741-8.562,3.167-17.37,1.2-24.8a25.481,25.481,0,0,0-5.671-10.8,5.6,5.6,0,0,1-3.525,3.155c6.637,7.015,7.2,19.994,3.655,31.059-.223.7-.466,1.381-.718,2.058A4.924,4.924,0,0,1,581.495,6394.6Z" fill="#333639"/>
      <path id="Контур_19021" data-name="Контур 19021" d="M536.214,6420.507c.162.052.326.1.491.156a4.835,4.835,0,0,0,.99.2c9.795,2.662,18.661,2.555,26.428-.312.6-.223,1.2-.458,1.792-.714a35.31,35.31,0,0,0,17.962-18.015,5.623,5.623,0,0,0-.24-5.243,5.033,5.033,0,0,0-2.142-1.974,4.919,4.919,0,0,0-1.806-.47,5.372,5.372,0,0,0-5.18,3.182c-6.192,13.345-19.594,17.767-36.741,12.137l-.035-.012c-.03-.009-.06-.014-.09-.023-15.64-5.651-23.113-16.638-20.529-30.426a5.374,5.374,0,0,0-2.369-5.6,4.906,4.906,0,0,0-1.745-.667,5.042,5.042,0,0,0-2.89.363,5.624,5.624,0,0,0-3.239,4.13,35.317,35.317,0,0,0,4.11,25.008c.017.029.033.059.05.089C516.039,6410.642,524.51,6416.761,536.214,6420.507Z" fill="#e6e1d9"/>
      <path id="Контур_19022" data-name="Контур 19022" d="M536.012,6348.023a5.046,5.046,0,0,0,2.438,1.708c2.771.887,8.285.039,9.221-2.883s-3.061-6.816-5.832-7.7a5.42,5.42,0,0,0-6.713,3.687c-.061.191-.111.384-.152.576A5.6,5.6,0,0,0,536.012,6348.023Z" fill="#e5a100"/>
      <path id="Контур_19023" data-name="Контур 19023" d="M580.631,6357.975a5.643,5.643,0,0,0,.211-.558,5.419,5.419,0,0,0-3.323-6.9c-2.772-.887-8.286-.039-9.222,2.884s3.062,6.815,5.833,7.7a5.051,5.051,0,0,0,2.976.026A5.593,5.593,0,0,0,580.631,6357.975Z" fill="#e5a100"/>
      <path id="Контур_19024" data-name="Контур 19024" d="M626.278,6414.481a18,18,0,1,0,11.653,22.626A18,18,0,0,0,626.278,6414.481Zm-9.983,31.186a14.749,14.749,0,1,1,18.543-9.55A14.749,14.749,0,0,1,616.295,6445.667Z" fill="#e6e1d9"/>
      <path id="Контур_19025" data-name="Контур 19025" d="M625.288,6417.573a14.749,14.749,0,1,0,9.55,18.544A14.749,14.749,0,0,0,625.288,6417.573Zm-6.626,20.7a6.986,6.986,0,1,1,8.783-4.524A6.986,6.986,0,0,1,618.662,6438.274Z" fill="#faf4ec"/>
      <circle id="Эллипс_87" data-name="Эллипс 87" cx="7.292" cy="7.292" r="7.292" transform="translate(613.5 6424.329)" fill="#333639"/>
    </g>
  </g>
</svg>
