<svg xmlns="http://www.w3.org/2000/svg" width="102.696" height="109.621" viewBox="0 0 102.696 109.621">
  <g id="Сгруппировать_2739" data-name="Сгруппировать 2739" transform="translate(-1165.98 -6892.214)">
    <g id="Сгруппировать_2737" data-name="Сгруппировать 2737" opacity="0.38">
      <path id="Контур_19000" data-name="Контур 19000" d="M1199.251,6917.612a28.056,28.056,0,0,1-10.423,8.53c-21.424,10.175-34.961,24.074-7.291,57.533,14.174,17.14,48.556,26.266,62.371,8.585a27.3,27.3,0,0,1,9.259-7.577c20.064-10.045,17.919-45.554,3.921-62.837C1229.764,6888.107,1213.463,6898.623,1199.251,6917.612Z" fill="#2b2422"/>
      <path id="Контур_19001" data-name="Контур 19001" d="M1182.8,6968.312a2.14,2.14,0,0,1-3.012-.3c-7.476-9.135-6.87-22.039,1.352-28.767a2.14,2.14,0,1,1,2.711,3.313c-6.393,5.231-6.73,15.435-.75,22.742A2.142,2.142,0,0,1,1182.8,6968.312Z" fill="#2b2422"/>
      <path id="Контур_19002" data-name="Контур 19002" d="M1199.053,6928.246a2.139,2.139,0,0,1-2.966-.251c-5.961-6.827-15.857-13.424-25.758-11.459a2.141,2.141,0,1,1-.833-4.2c11.692-2.321,23.067,5.112,29.816,12.844a2.139,2.139,0,0,1-.206,3.021C1199.087,6928.218,1199.071,6928.231,1199.053,6928.246Z" fill="#2b2422"/>
      <path id="Контур_19003" data-name="Контур 19003" d="M1203.776,6934.319a13.378,13.378,0,0,1-9.873,2.976,2.14,2.14,0,1,1,.426-4.259,9.181,9.181,0,0,0,10.057-8.231,2.14,2.14,0,1,1,4.259.426A13.375,13.375,0,0,1,1203.776,6934.319Z" fill="#2b2422"/>
    </g>
    <g id="Сгруппировать_2738" data-name="Сгруппировать 2738">
      <path id="Контур_19004" data-name="Контур 19004" d="M1200.017,6909.939a28.048,28.048,0,0,1-10.423,8.53c-21.424,10.175-34.96,24.074-7.29,57.533,14.173,17.14,48.555,26.266,62.37,8.585a27.321,27.321,0,0,1,9.259-7.577c20.065-10.045,17.919-45.553,3.921-62.837C1230.53,6880.434,1214.229,6890.95,1200.017,6909.939Z" fill="#ce2f28"/>
      <path id="Контур_19005" data-name="Контур 19005" d="M1183.561,6960.64a2.141,2.141,0,0,1-3.012-.3c-7.475-9.135-6.869-22.039,1.352-28.767a2.14,2.14,0,0,1,2.711,3.313c-6.392,5.232-6.73,15.435-.75,22.742A2.142,2.142,0,0,1,1183.561,6960.64Z" fill="#e95451"/>
      <path id="Контур_19006" data-name="Контур 19006" d="M1199.819,6920.573a2.141,2.141,0,0,1-2.966-.25c-5.961-6.828-15.857-13.425-25.758-11.46a2.141,2.141,0,1,1-.832-4.2c11.692-2.321,23.067,5.112,29.815,12.845a2.138,2.138,0,0,1-.206,3.02C1199.854,6920.545,1199.837,6920.558,1199.819,6920.573Z" fill="#56372e"/>
      <path id="Контур_19007" data-name="Контур 19007" d="M1204.543,6926.646a13.38,13.38,0,0,1-9.873,2.976,2.14,2.14,0,0,1,.425-4.259,9.18,9.18,0,0,0,10.057-8.23,2.14,2.14,0,1,1,4.259.425A13.373,13.373,0,0,1,1204.543,6926.646Z" fill="#9e4228"/>
    </g>
  </g>
</svg>
