<svg xmlns="http://www.w3.org/2000/svg" width="148.142" height="170.596" viewBox="0 0 148.142 170.596">
  <g id="Сгруппировать_2747" data-name="Сгруппировать 2747" transform="translate(-1143.257 -6029.57)">
    <g id="Сгруппировать_2744" data-name="Сгруппировать 2744" opacity="0.38">
      <circle id="Эллипс_88" data-name="Эллипс 88" cx="5.072" cy="5.072" r="5.072" transform="translate(1209.941 6167.851)" fill="#2b2422"/>
      <g id="Сгруппировать_2743" data-name="Сгруппировать 2743">
        <circle id="Эллипс_89" data-name="Эллипс 89" cx="4.827" cy="4.827" r="4.827" transform="translate(1231.435 6173.916)" fill="#2b2422"/>
        <circle id="Эллипс_90" data-name="Эллипс 90" cx="4.827" cy="4.827" r="4.827" transform="translate(1216.47 6145.979)" fill="#2b2422"/>
      </g>
      <circle id="Эллипс_91" data-name="Эллипс 91" cx="6.083" cy="6.083" r="6.083" transform="translate(1233.832 6153.726)" fill="#2b2422"/>
      <circle id="Эллипс_92" data-name="Эллипс 92" cx="6.517" cy="6.517" r="6.517" transform="translate(1214.78 6187.133)" fill="#2b2422"/>
      <path id="Контур_19026" data-name="Контур 19026" d="M1194.454,6062.648l-22.077,19.66,27.968,31.406,22.077-19.659a21.028,21.028,0,0,0,1.72-29.688h0A21.028,21.028,0,0,0,1194.454,6062.648Z" fill="#2b2422"/>
      <path id="Контур_19027" data-name="Контур 19027" d="M1150.3,6101.968l22.077-19.66,27.969,31.407-22.077,19.66a21.028,21.028,0,0,1-29.688-1.72h0A21.028,21.028,0,0,1,1150.3,6101.968Z" fill="#2b2422"/>
      <path id="Контур_19028" data-name="Контур 19028" d="M1224.142,6064.367a20.98,20.98,0,0,0-16.637-7.02,20.975,20.975,0,0,0,2.257,17.31l6.963,11.152a4.543,4.543,0,0,1-.934,5.892c-13.026,10.885-29.687,22.631-38.4,26.2-13.326,5.46-24.969-8.353-23.089-19.5l-3.767,3.354a21.029,21.029,0,1,0,27.735,31.616l44.153-39.32a21.028,21.028,0,0,0,1.72-29.688Z" fill="#2b2422" opacity="0.1" style="isolation: isolate"/>
      <path id="Контур_19029" data-name="Контур 19029" d="M1215.154,6067.8l15.655,25.076,35.674-22.27-15.655-25.077a21.027,21.027,0,0,0-28.972-6.7h0A21.027,21.027,0,0,0,1215.154,6067.8Z" fill="#2b2422"/>
      <path id="Контур_19030" data-name="Контур 19030" d="M1246.464,6117.957l-15.655-25.076,35.674-22.271,15.655,25.076a21.028,21.028,0,0,1-6.7,28.973h0A21.027,21.027,0,0,1,1246.464,6117.957Z" fill="#2b2422"/>
      <path id="Контур_19031" data-name="Контур 19031" d="M1275.436,6124.659a21.191,21.191,0,0,0,2.647-1.954c-25-3.674-57.586-63.348-56.118-83.938-.036.022-.073.042-.109.065h0a21.027,21.027,0,0,0-6.7,28.972l31.31,50.153a21.027,21.027,0,0,0,28.972,6.7Z" fill="#2b2422" opacity="0.1" style="isolation: isolate"/>
      <path id="Контур_19032" data-name="Контур 19032" d="M1186.046,6150.11l25.6,10.6a1.849,1.849,0,0,0,2.418-1l14.678-35.434a1.851,1.851,0,0,0-1-2.418l-25.6-10.6a21.027,21.027,0,0,0-27.473,11.38h0A21.026,21.026,0,0,0,1186.046,6150.11Z" fill="#2b2422"/>
      <path id="Контур_19033" data-name="Контур 19033" d="M1214.066,6159.713l3.614-8.727c-30.238-5.755-40.391-23.625-38.024-35.59a20.945,20.945,0,0,0-4.99,7.24h0a21.028,21.028,0,0,0,11.38,27.474l25.6,10.6A1.85,1.85,0,0,0,1214.066,6159.713Z" fill="#2b2422" opacity="0.1" style="isolation: isolate"/>
      <path id="Контур_19034" data-name="Контур 19034" d="M1271.76,6150.11l-25.6,10.6a1.85,1.85,0,0,1-2.418-1l-14.677-35.434a1.85,1.85,0,0,1,1-2.418l25.6-10.6a21.028,21.028,0,0,1,27.474,11.38h0A21.027,21.027,0,0,1,1271.76,6150.11Z" fill="#2b2422"/>
    </g>
    <g id="Сгруппировать_2746" data-name="Сгруппировать 2746">
      <circle id="Эллипс_93" data-name="Эллипс 93" cx="5.072" cy="5.072" r="5.072" transform="translate(1216.009 6161.783)" fill="#95d0cf"/>
      <g id="Сгруппировать_2745" data-name="Сгруппировать 2745">
        <circle id="Эллипс_94" data-name="Эллипс 94" cx="4.827" cy="4.827" r="4.827" transform="translate(1237.502 6167.848)" fill="#376089"/>
        <circle id="Эллипс_95" data-name="Эллипс 95" cx="4.827" cy="4.827" r="4.827" transform="translate(1222.537 6139.911)" fill="#376089"/>
      </g>
      <circle id="Эллипс_96" data-name="Эллипс 96" cx="6.083" cy="6.083" r="6.083" transform="translate(1239.899 6147.658)" fill="#95d0cf"/>
      <circle id="Эллипс_97" data-name="Эллипс 97" cx="6.517" cy="6.517" r="6.517" transform="translate(1220.847 6181.065)" fill="#ef8975"/>
      <path id="Контур_19035" data-name="Контур 19035" d="M1200.522,6056.58l-22.077,19.66,27.968,31.407,22.077-19.66a21.027,21.027,0,0,0,1.719-29.688h0A21.027,21.027,0,0,0,1200.522,6056.58Z" fill="#95d0cf"/>
      <path id="Контур_19036" data-name="Контур 19036" d="M1156.368,6095.9l22.077-19.66,27.969,31.407-22.077,19.66a21.029,21.029,0,0,1-29.688-1.719h0A21.027,21.027,0,0,1,1156.368,6095.9Z" fill="#237b98"/>
      <path id="Контур_19037" data-name="Контур 19037" d="M1230.209,6058.3a20.983,20.983,0,0,0-16.636-7.02,20.974,20.974,0,0,0,2.257,17.31l6.962,11.153a4.542,4.542,0,0,1-.933,5.891c-13.026,10.885-29.687,22.632-38.4,26.2-13.326,5.459-24.969-8.354-23.089-19.5l-3.767,3.353a21.029,21.029,0,1,0,27.734,31.616l44.154-39.32a21.027,21.027,0,0,0,1.719-29.688Z" fill="#12100b" opacity="0.1" style="isolation: isolate"/>
      <path id="Контур_19038" data-name="Контур 19038" d="M1221.222,6061.736l15.655,25.077,35.674-22.271-15.655-25.076a21.026,21.026,0,0,0-28.972-6.7h0A21.027,21.027,0,0,0,1221.222,6061.736Z" fill="#8abae5"/>
      <path id="Контур_19039" data-name="Контур 19039" d="M1252.532,6111.889l-15.655-25.076,35.674-22.271,15.655,25.077a21.027,21.027,0,0,1-6.7,28.972h0A21.026,21.026,0,0,1,1252.532,6111.889Z" fill="#dbeef3"/>
      <path id="Контур_19040" data-name="Контур 19040" d="M1281.5,6118.591a21.14,21.14,0,0,0,2.647-1.954c-25-3.674-57.586-63.348-56.118-83.938-.036.023-.073.042-.109.065h0a21.026,21.026,0,0,0-6.7,28.972l31.309,50.153a21.027,21.027,0,0,0,28.973,6.7Z" fill="#12100b" opacity="0.1" style="isolation: isolate"/>
      <path id="Контур_19041" data-name="Контур 19041" d="M1192.113,6144.042l25.6,10.6a1.851,1.851,0,0,0,2.418-1l14.677-35.434a1.85,1.85,0,0,0-1-2.418l-25.6-10.6a21.028,21.028,0,0,0-27.474,11.38h0A21.028,21.028,0,0,0,1192.113,6144.042Z" fill="#ef8975"/>
      <path id="Контур_19042" data-name="Контур 19042" d="M1220.133,6153.645l3.615-8.726c-30.238-5.755-40.391-23.625-38.025-35.59a20.928,20.928,0,0,0-4.989,7.239h0a21.026,21.026,0,0,0,11.38,27.474l25.6,10.6A1.85,1.85,0,0,0,1220.133,6153.645Z" fill="#12100b" opacity="0.1" style="isolation: isolate"/>
      <path id="Контур_19043" data-name="Контур 19043" d="M1277.828,6144.042l-25.6,10.6a1.85,1.85,0,0,1-2.418-1l-14.677-35.434a1.851,1.851,0,0,1,1-2.418l25.6-10.6a21.028,21.028,0,0,1,27.474,11.38h0A21.028,21.028,0,0,1,1277.828,6144.042Z" fill="#8abae5"/>
    </g>
  </g>
</svg>
