<svg xmlns="http://www.w3.org/2000/svg" width="143.938" height="119.208" viewBox="0 0 143.938 119.208">
  <g id="Сгруппировать_2736" data-name="Сгруппировать 2736" transform="translate(-1095.359 -6438)">
    <g id="Сгруппировать_2734" data-name="Сгруппировать 2734" opacity="0.38">
      <path id="Контур_18994" data-name="Контур 18994" d="M1223.11,6476.788c.415-17.61-13.57-32.534-31.184-32.725a31.527,31.527,0,0,0-27.629,15.7,31.525,31.525,0,0,0-27.629-15.7c-17.614.191-31.6,15.115-31.184,32.725.93,39.351,47.995,73.579,57.245,79.931a2.762,2.762,0,0,0,3.136,0C1175.115,6550.367,1222.18,6516.139,1223.11,6476.788Z" fill="#2b2422"/>
      <path id="Контур_18995" data-name="Контур 18995" d="M1223.126,6475.611c0,39.839-47.907,74.683-57.26,81.106a2.773,2.773,0,0,1-3.141,0c-2.3-1.583-6.954-4.894-12.652-9.582,9.392-6.455,57.234-41.279,57.234-81.094a31.406,31.406,0,0,0-8.042-21.042A31.56,31.56,0,0,1,1223.126,6475.611Z" fill="#2b2422"/>
      <path id="Контур_18996" data-name="Контур 18996" d="M1163.907,6533.372a3.56,3.56,0,0,1-3.5-2.9l-8.691-46.166-9.247,21.977a3.559,3.559,0,0,1-6.459.219l-2.472-4.914h-34.622a3.558,3.558,0,1,1,0-7.117h36.815a3.555,3.555,0,0,1,3.169,1.941l10.845-25.769a3.558,3.558,0,0,1,6.777.721l7.166,38.068,2.965-17.812a3.558,3.558,0,0,1,3.51-2.975h11.614a3.558,3.558,0,0,1,2.982,1.616l5.453,8.37,2.352-2.861a3.558,3.558,0,0,1,2.75-1.3h34.362a3.558,3.558,0,0,1,0,7.117H1197l-4.365,5.311a3.559,3.559,0,0,1-5.731-.316l-7.05-10.82h-6.672l-5.763,34.634a3.558,3.558,0,0,1-3.472,2.974Z" fill="#2b2422"/>
    </g>
    <g id="Сгруппировать_2735" data-name="Сгруппировать 2735">
      <path id="Контур_18997" data-name="Контур 18997" d="M1229.171,6470.727c.415-17.61-13.57-32.534-31.184-32.725a31.527,31.527,0,0,0-27.629,15.7,31.527,31.527,0,0,0-27.629-15.7c-17.614.191-31.6,15.115-31.184,32.725.93,39.352,47.995,73.579,57.244,79.932a2.768,2.768,0,0,0,3.137,0C1181.176,6544.306,1228.241,6510.079,1229.171,6470.727Z" fill="#e94d50"/>
      <path id="Контур_18998" data-name="Контур 18998" d="M1229.187,6469.55c0,39.84-47.907,74.683-57.26,81.106a2.771,2.771,0,0,1-3.141,0c-2.3-1.582-6.954-4.894-12.652-9.582,9.392-6.455,57.234-41.279,57.234-81.094a31.406,31.406,0,0,0-8.042-21.042A31.561,31.561,0,0,1,1229.187,6469.55Z" fill="#e42523"/>
      <path id="Контур_18999" data-name="Контур 18999" d="M1169.968,6527.311a3.56,3.56,0,0,1-3.5-2.9l-8.691-46.166-9.247,21.977a3.559,3.559,0,0,1-6.459.219l-2.472-4.914h-34.622a3.558,3.558,0,1,1,0-7.117h36.815a3.556,3.556,0,0,1,3.169,1.941l10.845-25.769a3.558,3.558,0,0,1,6.777.722l7.166,38.068,2.965-17.813a3.558,3.558,0,0,1,3.509-2.975h11.615a3.558,3.558,0,0,1,2.982,1.616l5.453,8.37,2.352-2.861a3.563,3.563,0,0,1,2.75-1.3h34.362a3.558,3.558,0,0,1,0,7.117h-32.68l-4.366,5.311a3.558,3.558,0,0,1-5.73-.316l-7.05-10.82h-6.672l-5.763,34.634a3.558,3.558,0,0,1-3.473,2.974Z" fill="#82cef1"/>
    </g>
  </g>
</svg>
