<svg xmlns="http://www.w3.org/2000/svg" width="150.657" height="108.751" viewBox="0 0 150.657 108.751">
  <g id="Сгруппировать_1065" data-name="Сгруппировать 1065" transform="translate(-8508.876 -9735.249)">
    <path id="Контур_8058" data-name="Контур 8058" d="M8656.651,9843.32c-18.153-23.368-71.96-67.677-109.725-77.595,36.548,8.694,91.846,50.65,112.243,75.668A1.586,1.586,0,1,1,8656.651,9843.32Z" fill="#3a5925"/>
    <path id="Контур_8059" data-name="Контур 8059" d="M8639.942,9824.388s12.684-13.388,5.988-33.471C8645.931,9790.917,8628.668,9807.125,8639.942,9824.388Z" fill="#2d4a25"/>
    <path id="Контур_8060" data-name="Контур 8060" d="M8623.382,9808.534s14.094-20.787,3.524-45.1C8626.906,9763.436,8609.29,9784.223,8623.382,9808.534Z" fill="#33562a"/>
    <path id="Контур_8061" data-name="Контур 8061" d="M8608.233,9797.259s13.388-23.254-5.639-54.963C8602.595,9742.3,8591.673,9775.767,8608.233,9797.259Z" fill="#2d4a25"/>
    <path id="Контур_8062" data-name="Контур 8062" d="M8593.435,9787.394s6.343-31.356-28.891-52.145C8564.544,9735.249,8569.476,9777.881,8593.435,9787.394Z" fill="#33562a"/>
    <path id="Контур_8063" data-name="Контур 8063" d="M8569.476,9773.654s-16.91-33.824-60.6-28.539C8508.876,9745.115,8525.436,9781.405,8569.476,9773.654Z" fill="#2d4a25"/>
    <path id="Контур_8064" data-name="Контур 8064" d="M8583.57,9781.405s-20.436-9.865-48.621,16.207C8534.949,9797.612,8569.124,9801.135,8583.57,9781.405Z" fill="#2d4a25"/>
    <path id="Контур_8065" data-name="Контур 8065" d="M8604.709,9795.5s-35.937-.354-55.668,25.367C8549.041,9820.865,8593.435,9825.446,8604.709,9795.5Z" fill="#2d4a25"/>
    <path id="Контур_8066" data-name="Контур 8066" d="M8625.5,9811.352s-31.358-3.875-40.165,19.379C8585.332,9830.73,8617.746,9830.378,8625.5,9811.352Z" fill="#33562a"/>
    <path id="Контур_8067" data-name="Контур 8067" d="M8639.942,9824.388s-8.81-4.932-20.787,5.639C8619.155,9830.026,8634.3,9833.9,8639.942,9824.388Z" fill="#33562a"/>
  </g>
</svg>
