<svg xmlns="http://www.w3.org/2000/svg" width="451.612" height="202.605" viewBox="0 0 451.612 202.605">
  <g id="Сгруппировать_2930" data-name="Сгруппировать 2930" transform="translate(-2045.969 -8548.409)">
    <g id="Love">
      <circle id="Эллипс_79" data-name="Эллипс 79" cx="36.066" cy="36.066" r="36.066" transform="matrix(0.841, -0.541, 0.541, 0.841, 2397.892, 8587.437)" fill="#ea5777"/>
      <path id="Контур_17974" data-name="Контур 17974" d="M2470.428,8596.725s2.819-9.054-5.833-12.753-14.078,3.322-14.078,3.322-1.614-8.748-11-9.471-11.045,8.613-11.045,8.613-4.815,10.514,15.042,29.4C2469.859,8608.279,2470.428,8596.725,2470.428,8596.725Z" fill="#fff"/>
    </g>
    <g id="Love-2" data-name="Love">
      <circle id="Эллипс_80" data-name="Эллипс 80" cx="30.008" cy="30.008" r="30.008" transform="translate(2045.969 8712.777) rotate(-59.364)" fill="#ea5777"/>
      <path id="Контур_17975" data-name="Контур 17975" d="M2103.391,8692.656s-1.276-7.786-9.091-7.313a13.273,13.273,0,0,1-20.945,4.77c-7.249,2.958-5.006,10.523-5.006,10.523s.335,9.615,22.145,16.264C2107.274,8701.464,2103.391,8692.656,2103.391,8692.656Z" fill="#fff"/>
    </g>
    <g id="Сгруппировать_2364" data-name="Сгруппировать 2364">
      <path id="Контур_17976" data-name="Контур 17976" d="M2227.237,8750.61a20.682,20.682,0,0,1-24.294-16.229l-13.284-66.2a20.685,20.685,0,0,1,16.153-24.348l25.921-5.2a20.576,20.576,0,0,1,13.535,1.937c1.654-3.451,3.194-7.547,4.694-11.539l.016-.043a136.725,136.725,0,0,1,6.058-14.463,51.5,51.5,0,0,1,8.689-12.583c1.449-1.59,2.4-2.64,4.692-7.106,3.358-6.556,3.281-9.146,3.144-13.851l0-.123c-.029-1.013-.062-2.159-.06-3.37.015-11.967,8.445-22.679,19.61-24.92a23.829,23.829,0,0,1,14.179,1.581c7.982,3.438,13.062,10.479,15.916,15.782a46.39,46.39,0,0,1,5.609,19.159,63.329,63.329,0,0,1-2.392,18.706l3.429-.674a42.224,42.224,0,0,1,15.591.171c12.978,2.664,22.256,11.87,24.817,24.624a32.7,32.7,0,0,1,.116,12.858,32.624,32.624,0,0,1,1.867,26.2,32.141,32.141,0,0,1,1.621,9.179,27.778,27.778,0,0,1-2.149,11.849,30.187,30.187,0,0,1,.822,6.688,26.2,26.2,0,0,1-10.108,21.623,32.356,32.356,0,0,1-11.735,5.508l-.419.117c-.526.153-1.058.285-1.581.391l-71.6,14.369a26.9,26.9,0,0,1-12.705-.666,20.531,20.531,0,0,1-10.225,5.374Z" fill="#ecebec" style="mix-blend-mode: multiply;isolation: isolate"/>
      <g id="Сгруппировать_2363" data-name="Сгруппировать 2363">
        <path id="Контур_17977" data-name="Контур 17977" d="M2224.616,8747.793a20.619,20.619,0,0,1-24.231-16.165l-13.236-65.957a20.621,20.621,0,0,1,16.119-24.264l25.859-5.189a20.548,20.548,0,0,1,13.5,1.925c1.651-3.438,3.188-7.521,4.685-11.5l.016-.042a136.128,136.128,0,0,1,6.047-14.412,51.315,51.315,0,0,1,8.671-12.541c1.445-1.583,2.4-2.631,4.681-7.081,3.352-6.534,3.276-9.115,3.141-13.8l0-.123c-.029-1.008-.062-2.15-.06-3.357.018-11.924,8.43-22.6,19.568-24.836a23.794,23.794,0,0,1,14.144,1.573c7.962,3.424,13.028,10.438,15.874,15.721a46.186,46.186,0,0,1,5.591,19.091,63.069,63.069,0,0,1-2.39,18.64l3.42-.673a42.169,42.169,0,0,1,15.553.167c12.946,2.651,22.2,11.822,24.751,24.53a32.559,32.559,0,0,1,.113,12.813,32.478,32.478,0,0,1,1.855,26.1,32,32,0,0,1,1.616,9.144,27.668,27.668,0,0,1-2.147,11.808,30.091,30.091,0,0,1,.819,6.664,26.113,26.113,0,0,1-10.089,21.548,32.305,32.305,0,0,1-11.708,5.491l-.418.115c-.525.154-1.055.286-1.577.391l-71.431,14.335a26.855,26.855,0,0,1-12.674-.661,20.484,20.484,0,0,1-10.2,5.357Z" fill="#fff"/>
        <g id="Сгруппировать_2362" data-name="Сгруппировать 2362">
          <g id="Сгруппировать_2358" data-name="Сгруппировать 2358">
            <g id="Сгруппировать_2356" data-name="Сгруппировать 2356">
              <path id="Контур_17978" data-name="Контур 17978" d="M2270.291,8722.661a12.046,12.046,0,0,1-6.888-.929c-.911-.411-2.692-1.465-3.835-2.157l-11.038,2.215a2.823,2.823,0,0,1-3.323-2.212l-12.062-60.107a2.824,2.824,0,0,1,2.212-3.322l16.236-3.259a15.663,15.663,0,0,0,3.009-4.117c2.876-4.991,5.115-10.941,7.279-16.692a124.914,124.914,0,0,1,5.324-12.78,36.1,36.1,0,0,1,6.331-9.174c1.866-2.047,3.8-4.165,7.028-10.463,5.175-10.088,5.009-15.813,4.847-21.348-.027-.981-.058-1.994-.055-3.011,0-4.026,2.653-8.723,7.078-9.609a8.212,8.212,0,0,1,4.934.6c6.441,2.772,11.692,13.541,12.088,21.318.405,7.987-3.253,19.992-5.85,24.426-2.256,3.854-3.269,5.921-1.668,10.784.763,2.318,4.4,1.685,4.549,1.657l22.438-4.411c6.55-1.257,19.588-.264,22.147,12.482,1.167,5.814-.444,9.9-2.748,12.55,3.055,1.807,5.833,5.184,6.262,11.062.417,5.7-1.645,9.567-4.482,11.908a13.5,13.5,0,0,1,4.259,9.994,12.055,12.055,0,0,1-4.486,9.921,11.606,11.606,0,0,1,3.149,8.241c.119,8.987-7.207,10.98-10.334,11.832-.262.07-.506.138-.722.2a2.461,2.461,0,0,1-.246.062Z" fill="#fff"/>
            </g>
            <g id="Сгруппировать_2357" data-name="Сгруппировать 2357">
              <path id="Контур_17979" data-name="Контур 17979" d="M2292.99,8568.461a5.457,5.457,0,0,1,3.263.433c5.108,2.2,10.019,11.688,10.383,18.868s-3.06,18.746-5.466,22.855-3.884,7.111-1.915,13.094c1.567,4.758,7.755,3.549,7.755,3.549l22.46-4.415s16.151-3.1,18.835,10.268c2.1,10.462-6.376,13.014-6.376,13.014s9.089-.056,9.841,10.247c.688,9.409-6.4,11.288-7.77,11.563-.144.028-.226.041-.226.041s7.464,1.018,7.766,10.188c.25,7.567-7.259,9.753-7.259,9.753s5.824,1.077,5.923,8.352c.1,7.445-6.315,8.483-9.037,9.29l-71.43,14.334a9.188,9.188,0,0,1-5.172-.733c-1.163-.524-4.466-2.57-4.466-2.57l-12.124,2.434-12.061-60.106,16.61-3.333.007,0c.116-.023,1.646-.419,4.519-5.4,5.327-9.245,8.456-21.4,12.666-29.59,5.209-10.127,6.91-7.062,13.361-19.639s5.092-19.009,5.1-25.643c.005-2.565,1.728-6.228,4.812-6.848m-1.112-5.536c-5.842,1.173-9.338,7.213-9.348,12.376,0,1.059.031,2.1.06,3.1.156,5.418.3,10.535-4.537,19.978-3.058,5.963-4.781,7.852-6.6,9.85a39,39,0,0,0-6.754,9.784,126.673,126.673,0,0,0-5.456,13.078c-2.125,5.646-4.32,11.485-7.083,16.276a20.32,20.32,0,0,1-1.96,2.928l-15.394,3.089a5.647,5.647,0,0,0-4.425,6.648l12.062,60.106a5.647,5.647,0,0,0,6.647,4.425l9.967-2c1.124.667,2.39,1.387,3.193,1.747a14.985,14.985,0,0,0,8.6,1.124l71.43-14.334a5.069,5.069,0,0,0,.495-.123c.2-.06.42-.116.659-.184a20.018,20.018,0,0,0,7.26-3.275,13.416,13.416,0,0,0,5.156-11.318,15.024,15.024,0,0,0-2.2-7.978,14.555,14.555,0,0,0,3.541-10.241,19.793,19.793,0,0,1,.219-22.016,16.706,16.706,0,0,0-5.2-11.467c1.661-2.884,2.75-6.96,1.639-12.493-1.557-7.755-6.823-12.928-14.828-14.567a29.664,29.664,0,0,0-10.607-.135l-.024,0-22.4,4.4a4.655,4.655,0,0,1-1.448-.026c-1.106-3.5-.533-4.724,1.508-8.211,2.833-4.837,6.669-17.37,6.233-26a33.734,33.734,0,0,0-4.084-13.694c-1.545-2.868-4.862-7.988-9.707-10.073a11.144,11.144,0,0,0-6.607-.782Z" fill="#4558a3"/>
            </g>
          </g>
          <g id="Сгруппировать_2359" data-name="Сгруппировать 2359">
            <path id="Контур_17980" data-name="Контур 17980" d="M2251.351,8721.4a5.048,5.048,0,0,1-3.935,5.958l-25.859,5.187a5.046,5.046,0,0,1-5.928-3.978l-13.236-65.957a5.048,5.048,0,0,1,3.934-5.959l25.859-5.191a5.051,5.051,0,0,1,5.93,3.981Z" fill="#8998cc"/>
            <path id="Контур_17981" data-name="Контур 17981" d="M2247.972,8730.127l-25.86,5.189a7.88,7.88,0,0,1-9.251-6.192l-13.236-65.957a7.881,7.881,0,0,1,6.146-9.283l25.86-5.189a7.882,7.882,0,0,1,9.253,6.193l13.236,65.957a7.882,7.882,0,0,1-6.148,9.282Z" fill="#4558a3"/>
          </g>
          <g id="Сгруппировать_2360" data-name="Сгруппировать 2360">
            <path id="Контур_17982" data-name="Контур 17982" d="M2245.326,8718.013a4.78,4.78,0,1,1-5.627-3.747A4.781,4.781,0,0,1,2245.326,8718.013Z" fill="#fff"/>
          </g>
          <g id="Сгруппировать_2361" data-name="Сгруппировать 2361">
            <path id="Контур_17983" data-name="Контур 17983" d="M2245.326,8718.013a4.78,4.78,0,1,1-5.627-3.747A4.781,4.781,0,0,1,2245.326,8718.013Z" fill="#fff"/>
          </g>
        </g>
      </g>
    </g>
  </g>
</svg>
