<svg xmlns="http://www.w3.org/2000/svg" xmlns:xlink="http://www.w3.org/1999/xlink" width="56.646" height="62.42" viewBox="0 0 56.646 62.42">
  <defs>
    <radialGradient id="radial-gradient" cx="-0.186" cy="0.462" r="1.281" gradientTransform="matrix(-0.404, -0.912, -0.9, 0.41, -368.393, -239.832)" gradientUnits="objectBoundingBox">
      <stop offset="0" stop-color="#0099d1"/>
      <stop offset="1" stop-color="#3f61c6"/>
    </radialGradient>
    <clipPath id="clip-path">
      <path id="Контур_9123" data-name="Контур 9123" d="M8496.75,11895.547c-5.489,5.777-3.857,16.24,3.647,23.367s18.034,8.226,23.523,2.448,3.857-16.239-3.646-23.368S8502.238,11889.768,8496.75,11895.547Z" fill="url(#radial-gradient)"/>
    </clipPath>
  </defs>
  <g id="Сгруппировать_1399" data-name="Сгруппировать 1399" transform="translate(-8470.523 -11891.839)">
    <g id="Сгруппировать_1398" data-name="Сгруппировать 1398">
      <path id="Контур_9118" data-name="Контур 9118" d="M8490.985,11935.714s-16.3,17.487-17.5,18.345-3.065-1.166-2.956-3.756l15.729-19.457Z" fill="#ccc"/>
      <path id="Контур_9119" data-name="Контур 9119" d="M8477.5,11914.92c-5.963,6.278-4.276,17.562,3.768,25.205s19.4,8.75,25.363,2.472,4.279-17.561-3.765-25.2S8483.468,11908.644,8477.5,11914.92Z" fill="#0099d1"/>
      <path id="Контур_9120" data-name="Контур 9120" d="M8514.391,11922.027a52.944,52.944,0,0,0-8.684,8.627c-.96,1.3-2.534,1.66-4.116,1.992-3.109.655-13.051-1.932-14.109-13.224a5.519,5.519,0,0,1,1.935-4.7,64.95,64.95,0,0,0,8.665-9.2Z" fill="#3f61c6"/>
      <g id="Сгруппировать_1397" data-name="Сгруппировать 1397">
        <path id="Контур_9121" data-name="Контур 9121" d="M8496.75,11895.547c-5.489,5.777-3.857,16.24,3.647,23.367s18.034,8.226,23.523,2.448,3.857-16.239-3.646-23.368S8502.238,11889.768,8496.75,11895.547Z" fill="url(#radial-gradient)"/>
        <g id="Сгруппировать_1396" data-name="Сгруппировать 1396" clip-path="url(#clip-path)">
          <path id="Контур_9122" data-name="Контур 9122" d="M8501.356,11893.56c-4.967,4.789-4.139,13.7,1.848,19.909s14.865,7.357,19.832,2.568,4.138-13.7-1.85-19.911S8506.32,11888.769,8501.356,11893.56Z" fill="#0099d1"/>
        </g>
      </g>
    </g>
  </g>
</svg>
