<svg xmlns="http://www.w3.org/2000/svg" width="404.74" height="462.807" viewBox="0 0 404.74 462.807">
  <g id="Сгруппировать_1513" data-name="Сгруппировать 1513" transform="translate(-2619.563 -6844.935)">
    <g id="Сгруппировать_1511" data-name="Сгруппировать 1511">
      <g id="Сгруппировать_1507" data-name="Сгруппировать 1507">
        <path id="Контур_10395" data-name="Контур 10395" d="M2963.638,7112.37c-124.885-81.328-206.949-180.523-177.376-241.958,22.74-47.238,131.557-21.667,238.04,19.014Z" fill="#528831"/>
        <g id="Сгруппировать_1506" data-name="Сгруппировать 1506">
          <path id="Контур_10396" data-name="Контур 10396" d="M2988.435,7021.24c-71.132-48.849-178.9-130.652-176.8-133.277C3000.747,7034.157,2993.243,7003.569,2988.435,7021.24Z" fill="#33562a"/>
          <path id="Контур_10397" data-name="Контур 10397" d="M2984.692,7035c-30.038.459-99.52-12.177-128.087-19.681.462-2.408-3.037-.537,38.478,2.747,41.642,3.884,64.038,2.893,91.979,8.225Z" fill="#33562a"/>
          <path id="Контур_10398" data-name="Контур 10398" d="M2869.7,6876.9c34.933,61.43,54.107,68.321,72.961,108.406l-.842.749C2906.091,6963.367,2865.374,6878.859,2869.7,6876.9Z" fill="#33562a"/>
          <path id="Контур_10399" data-name="Контур 10399" d="M2997.316,6973.2c3.689,6.938,3.616,2.112-1.216,19.869-13.151-30.05-26.439-60.961-36.453-92.348C2962.771,6899.5,2956.543,6897.531,2997.316,6973.2Z" fill="#33562a"/>
        </g>
      </g>
      <g id="Сгруппировать_1509" data-name="Сгруппировать 1509">
        <path id="Контур_10400" data-name="Контур 10400" d="M3017.779,7096.087l-19.948,90.706c-28.05,27.578-65.082-6.737-80.652,14.345-21.1,28.57-11.534,56.878-47.575,58.843-137.1,7.476-134.723-76.146-125.156-144.82s-2.618-136.952-2.618-136.952,30.405,17.562,119.261,12.451C2961.916,6984.864,3007.362,7041.016,3017.779,7096.087Z" fill="#a9c65e"/>
        <g id="Сгруппировать_1508" data-name="Сгруппировать 1508">
          <path id="Контур_10401" data-name="Контур 10401" d="M2843,7099.58c45.291,69.909,74.33,94.466,139.518,156.851l-3.523,16.019c-148.484-155.319-103.281-119.548-164.984-208.206-17.268-24.806-35.944-48.749-56.715-70.832C2785.063,7020.709,2816.177,7058.182,2843,7099.58Z" fill="#608b2f"/>
          <path id="Контур_10402" data-name="Контур 10402" d="M2813.607,6991.379c15.593,27,51.708,89.419,59.23,121.773C2872.206,7077.75,2815.326,6990.333,2813.607,6991.379Z" fill="#7a9c2c"/>
          <path id="Контур_10403" data-name="Контур 10403" d="M2828.584,7101.818c-37.852-29.689-55.381-47.448-82.541-91.21C2744.36,7011.6,2781.735,7080.074,2828.584,7101.818Z" fill="#7a9c2c"/>
          <path id="Контур_10404" data-name="Контур 10404" d="M2873.93,7150.44c-43.317-10.517-100.38-34.231-126.178-70.108C2742.369,7083.824,2808.679,7147.589,2873.93,7150.44Z" fill="#7a9c2c"/>
          <path id="Контур_10405" data-name="Контур 10405" d="M2748.569,7209.195c28.239,24.916,77.146,48.862,110.055,33.608,19.252-10.545,40.191-30.393,52.5-48.812-14.959,16.388-34.693,34.467-54.049,45.64C2812.112,7262.047,2749.638,7207.966,2748.569,7209.195Z" fill="#7a9c2c"/>
          <path id="Контур_10406" data-name="Контур 10406" d="M2868.728,6990.448c58.4,77.211,45.068,105.2,28.713,189.881l1.741-1.293c-14.11-1.434-28.057-.867-41.969.508-70.375,6.962-70.723,25.042-116.444-13.333,50.155,52.1,76.87,8.7,159.525,16.047,11.545-75.157,14.055-84.071,12.058-101.807C2907.4,7036.535,2870.191,6989.307,2868.728,6990.448Z" fill="#7a9c2c"/>
          <path id="Контур_10407" data-name="Контур 10407" d="M2929.349,7012.747c23.59,50.645,21.34,111.175-6.465,162C2972.267,7112.476,2934.229,7010.37,2929.349,7012.747Z" fill="#7a9c2c"/>
          <path id="Контур_10408" data-name="Контур 10408" d="M2991.931,7039.305c8.633,67.439,10.348,103.608-57.835,137.56,27.95-8.329,51.033-26.57,60.214-54.668,9.787-29.951,1.626-60.5-2.027-82.937Z" fill="#7a9c2c"/>
          <path id="Контур_10409" data-name="Контур 10409" d="M2937.006,7194.221c24.613-4.056,53.743-7.573,65.662-29.424C2997.3,7189.209,2961.9,7195.593,2937.006,7194.221Z" fill="#7a9c2c"/>
          <path id="Контур_10410" data-name="Контур 10410" d="M3009.436,7134.021c1.036-31.138.626-27.816,1.245-5.659Z" fill="#7a9c2c"/>
        </g>
      </g>
      <g id="Сгруппировать_1510" data-name="Сгруппировать 1510">
        <path id="Контур_10411" data-name="Контур 10411" d="M2826.035,7168.125c12.33-33.233,8.911-29.672,15.47-27.6,86.894,27.466,140.906,46.064,171.312,65.265l4.225,67.051c-30.389,20.354-85.017,37.6-146.889,34.544l29.722-30.783-62.218,27.311c-41.6-6.879-86.5-26.329-123.613-46.324l32.1-27.034-57.317,12.292c-56.983-36.226-69.909-67.592-69.236-83.618.855-20.383,77.578-52.329,186.985-28.095Z" fill="#56762b"/>
        <path id="Контур_10412" data-name="Контур 10412" d="M2644.051,7195.531c35.576,8.634,62.466-1.011,80.74-1.167C2695.62,7218.508,2635.368,7193.424,2644.051,7195.531Z" fill="#3a5925"/>
        <path id="Контур_10413" data-name="Контур 10413" d="M2678.362,7135.589c20.581,28.817,42.025,39.487,57.214,62.115C2733.926,7202.458,2689.152,7164.069,2678.362,7135.589Z" fill="#446b2b"/>
        <path id="Контур_10414" data-name="Контур 10414" d="M2697.029,7226.789c50.039-7.344,56-13.946,82.291-16.185C2758,7229.235,2687.47,7228.193,2697.029,7226.789Z" fill="#446b2b"/>
        <path id="Контур_10415" data-name="Контур 10415" d="M2721.716,7151.017c-16.255-29.146-3.249-8.894,5.763,2.9,9.555,12.51,27.89,33.839,28.317,34.439C2786.593,7231.714,2747.564,7197.358,2721.716,7151.017Z" fill="#3a5925"/>
        <path id="Контур_10416" data-name="Контур 10416" d="M2814.34,7219.944c-19.035-15.811-43.476-60.984-50.682-79.5C2765.108,7142.552,2826.667,7230.183,2814.34,7219.944Z" fill="#446b2b"/>
        <path id="Контур_10417" data-name="Контур 10417" d="M2751.871,7263.527c2.392-1.178,12.113-3.43,25.326-7.222,57.055-16.376,81.666-39.262,67.7-23.8C2822.577,7257.226,2749.93,7264.484,2751.871,7263.527Z" fill="#3a5925"/>
        <path id="Контур_10418" data-name="Контур 10418" d="M2874.158,7232.691c-19.049-16-32.743-62.012-34.147-79.056C2850.924,7184.92,2880.055,7237.645,2874.158,7232.691Z" fill="#3a5925"/>
        <path id="Контур_10419" data-name="Контур 10419" d="M2910.628,7236.718c-19.81-13.921-32.7-58.424-37.29-78.835,4.883,9.582,11.147,25.743,18.28,39.7C2892.467,7199.245,2914.462,7239.409,2910.628,7236.718Z" fill="#3a5925"/>
        <path id="Контур_10420" data-name="Контур 10420" d="M2810.9,7286.512c24.128-7.661,92.217-31.816,111.678-47.843C2911.11,7268.99,2799.728,7290.057,2810.9,7286.512Z" fill="#3a5925"/>
        <path id="Контур_10421" data-name="Контур 10421" d="M2922.135,7183.085c11.133,28.017,25.272,36.307,31.818,57.581C2951,7244.929,2923.308,7207.115,2922.135,7183.085Z" fill="#3a5925"/>
        <path id="Контур_10422" data-name="Контур 10422" d="M3003.631,7240.092c-14.21-11.406-17.475-24.489-31.6-41.042,7.973,3.873,27.074,23.99,30.819,34C3003.482,7234.731,3005.444,7241.546,3003.631,7240.092Z" fill="#446b2b"/>
        <path id="Контур_10423" data-name="Контур 10423" d="M2926.721,7290.262c15.32-9.427,53.5-31.7,58.882-49.048C2998.452,7265.46,2919.859,7294.484,2926.721,7290.262Z" fill="#446b2b"/>
        <path id="Контур_10424" data-name="Контур 10424" d="M3014.666,7235.138l.382,6.056c-120.526,10.809-267.305-32.541-378.852-80.649C2747.263,7206.41,2894.652,7247.854,3014.666,7235.138Z" fill="#3a5925"/>
      </g>
    </g>
    <g id="Сгруппировать_1512" data-name="Сгруппировать 1512">
      <path id="Контур_10425" data-name="Контур 10425" d="M2964.49,7204.248s37.44-44.591-21.136-110.114-90.3-48.712-106.886-56.293c0,0-1.682,39.254,8.08,92.016S2909.828,7220.348,2964.49,7204.248Z" fill="#99a922"/>
      <path id="Контур_10426" data-name="Контур 10426" d="M2964.49,7204.249s6.441-7.7,9.8-21.379a32.161,32.161,0,0,1-1.936,2.721c-54.662,16.1-110.18-21.629-119.942-74.391a495.806,495.806,0,0,1-7.934-71.307,28.11,28.11,0,0,1-8.007-2.051s-1.682,39.254,8.079,92.016S2909.829,7220.349,2964.49,7204.249Z" fill="#2e2b28" opacity="0.2"/>
      <path id="Контур_10427" data-name="Контур 10427" d="M2960.192,7198.438a1.633,1.633,0,0,0,.967-2.1c-7.434-20.2-17.572-37.348-29.834-50.7a1.6,1.6,0,0,0-.346-.61c-8.151-8.851-13.309-22.1-14.149-36.366a117.305,117.305,0,0,1,.434-15.211c.4-5.6.858-11.931,3.705-17.04a1.631,1.631,0,1,0-2.85-1.588,32.7,32.7,0,0,0-3.524,11.94c-.279,2.2-.436,4.374-.587,6.453a120.637,120.637,0,0,0-.437,15.637,68.433,68.433,0,0,0,6.868,26.391,100.536,100.536,0,0,0-8.143-6.117c-2.218-1.49-4.5-2.894-6.779-4.295a100.224,100.224,0,0,1-12.547-8.622c-.853-.726-1.678-1.483-2.481-2.262l0,0-.093-.088c-5.722-5.582-10.208-12.382-14.023-18.451-1.2-1.907-2.358-3.85-3.527-5.783a1.634,1.634,0,0,0-.2-.537c-3.1-5.072-2.026-10.722-1.081-15.706l.171-.911c1.029-5.523,3.558-10.036,7.121-12.712a1.631,1.631,0,1,0-1.959-2.609c-4.218,3.166-7.192,8.4-8.369,14.723l-.17.9c-.275,1.452-.569,3-.773,4.609-.119.94-.2,1.905-.235,2.881-4.191-7.375-8.18-14.875-11.87-22.463a1.631,1.631,0,1,0-2.933,1.427,400.506,400.506,0,0,0,21.058,37.918c1.332,2.119,2.758,4.327,4.276,6.546-.242-.124-.493-.274-.728-.376-5.11-2.234-10.58-3.388-15.868-4.5l-10.263-2.162a1.633,1.633,0,0,0-1.934,1.26c-.009.045-.016.089-.022.133a1.633,1.633,0,0,0,1.282,1.8l10.262,2.162c5.129,1.082,10.432,2.2,15.236,4.3,3.641,1.593,9.029,6.77,12.292,9.915.041.04.084.08.125.121l.772.742a1.7,1.7,0,0,0,.144.091c.553.513,1.1,1.034,1.675,1.525a102.151,102.151,0,0,0,12.951,8.915c2.243,1.38,4.487,2.759,6.668,4.225,11.577,7.783,21.885,18.467,30.6,31.592-6.8-3.764-15.247-4.75-21.832-5.115l-27.537-1.532c-11.335-.631-22.1-1.764-29.258-8.6a1.631,1.631,0,0,0-2.255,2.358c7.96,7.6,19.363,8.833,31.332,9.5l27.537,1.532c8.847.493,21.287,2.129,27.152,10.63a1.614,1.614,0,0,0,.5.464,171.37,171.37,0,0,1,11.374,24.809A1.632,1.632,0,0,0,2960.192,7198.438Z" fill="#818626"/>
      <path id="Контур_10428" data-name="Контур 10428" d="M2937.968,7102.36c14.148,17.527,23.313,40.047,20.852,62.436-7.024-17.043-14.147-34.265-24.958-49.2-17.919-24.746-43.345-38.542-68.53-54.407C2893.542,7054.536,2922.042,7082.631,2937.968,7102.36Z" fill="#fff" opacity="0.3"/>
    </g>
  </g>
</svg>
