<svg xmlns="http://www.w3.org/2000/svg" width="99.622" height="81.282" viewBox="0 0 99.622 81.282">
  <g id="Сгруппировать_2805" data-name="Сгруппировать 2805" transform="translate(-84.378 -5531.027)">
    <circle id="Эллипс_100" data-name="Эллипс 100" cx="18.571" cy="18.571" r="18.571" transform="translate(91.329 5573.452)" fill="#d9e1eb"/>
    <path id="Контур_19153" data-name="Контур 19153" d="M99.9,5598.883a28.119,28.119,0,0,0,1.742,9.778,18.576,18.576,0,0,1,13.054-34.582A28.169,28.169,0,0,0,99.9,5598.883Z" fill="#e8eff6"/>
    <circle id="Эллипс_101" data-name="Эллипс 101" cx="18.571" cy="18.571" r="18.571" transform="translate(139.906 5573.452)" fill="#d9e1eb"/>
    <path id="Контур_19154" data-name="Контур 19154" d="M148.208,5598.883a28.119,28.119,0,0,0,1.742,9.778A18.576,18.576,0,0,1,163,5574.079,28.169,28.169,0,0,0,148.208,5598.883Z" fill="#e8eff6"/>
    <path id="Контур_19155" data-name="Контур 19155" d="M177.643,5531.027a6.365,6.365,0,0,0-6.358,6.358,1.715,1.715,0,1,0,3.43,0,2.928,2.928,0,0,1,5.856,0v49.4a3.525,3.525,0,0,1-1.917,3.132A20.287,20.287,0,0,0,139,5586.362a7.412,7.412,0,0,0-9.616,0,20.287,20.287,0,0,0-39.657,3.556,3.524,3.524,0,0,1-1.916-3.132v-49.4a2.928,2.928,0,1,1,5.855,0,1.715,1.715,0,1,0,3.43,0,6.358,6.358,0,1,0-12.715,0v49.4a6.963,6.963,0,0,0,5.294,6.751,20.285,20.285,0,0,0,40.514-1.513,4,4,0,0,1,8.006,0,20.285,20.285,0,0,0,40.514,1.513,6.963,6.963,0,0,0,5.294-6.751v-49.4A6.365,6.365,0,0,0,177.643,5531.027ZM109.9,5608.879a16.855,16.855,0,1,1,16.855-16.855A16.875,16.875,0,0,1,109.9,5608.879Zm48.576,0a16.855,16.855,0,1,1,16.855-16.855A16.874,16.874,0,0,1,158.477,5608.879Z" fill="#455e73"/>
  </g>
</svg>
