<svg xmlns="http://www.w3.org/2000/svg" width="96.907" height="106.771" viewBox="0 0 96.907 106.771">
  <g id="Сгруппировать_2809" data-name="Сгруппировать 2809" transform="translate(-730.735 -5066.829)">
    <g id="Сгруппировать_2806" data-name="Сгруппировать 2806">
      <path id="Контур_19156" data-name="Контур 19156" d="M779.19,5156.987c0,14.137,16.243,20.645,17.952,8.267.759-5.5,5.809-2.745,8.277-7.876,1.338-2.78.627-5.033,3.32-6.414,4.965-2.549,8.5-9.8,8.15-15.519-.187-3.1,5.012-8.185,6.676-10.772a15.338,15.338,0,0,0,0-16.156c-1.662-2.587-2.461-7.673-2.272-10.772.346-5.715-2.659-11.812-7.625-14.361h0c-2.692-1.382-4.874-.81-6.211-3.591-2.468-5.128-4.779-5.742-10.313-5.385-3,.194-4.339-5.344-8.976-5.344-.026,0-.036-.042-.061-.042-4.8,0-8.915,2.594-8.915,5.386v82.579Z" fill="#f1d0bb"/>
      <path id="Контур_19157" data-name="Контур 19157" d="M790.859,5173.6c-.2,0-.394-.007-.589-.02-6.219-.427-12.877-7.2-12.877-16.6v-82.579c0-3.892,4.9-7.181,10.71-7.181l.907.09c2.816.325,4.595,2.224,5.925,3.648.774.826,1.525,1.757,2.088,1.651,6.014-.389,9.183.444,12.048,6.4.544,1.129,1.138,1.3,2.576,1.716a14.772,14.772,0,0,1,2.838,1.055c5.465,2.806,9,9.413,8.6,16.067-.172,2.851.6,7.531,1.993,9.691a17.234,17.234,0,0,1,0,18.1c-.53.822-1.3,1.779-2.2,2.888-1.6,1.979-4.283,5.287-4.191,6.8.407,6.706-3.686,14.435-9.124,17.226-.978.5-1.143,1.011-1.513,2.549a14.551,14.551,0,0,1-1.007,3.047,8.762,8.762,0,0,1-5.488,4.6c-1.68.638-2.375.9-2.63,2.745C798.091,5171.494,794.318,5173.6,790.859,5173.6Zm-3.535-102.757c-3.722.246-6.339,2.209-6.339,3.563v82.579c0,7.958,5.637,12.746,9.532,13.014,2.632.131,4.377-1.591,4.846-4.991.545-3.95,3.068-4.91,4.91-5.61,1.491-.567,2.671-1.016,3.527-2.8a11.264,11.264,0,0,0,.752-2.334c.41-1.7.875-3.622,3.365-4.9,4.141-2.125,7.494-8.581,7.179-13.814-.176-2.908,2.565-6.294,4.985-9.281.8-.984,1.549-1.912,1.971-2.571a13.523,13.523,0,0,0,0-14.214c-1.872-2.912-2.77-8.312-2.555-11.852.315-5.193-2.482-10.514-6.653-12.656a11.932,11.932,0,0,0-2.193-.8c-1.677-.484-3.576-1.032-4.815-3.608-2.074-4.307-3.571-4.689-8.581-4.373-2.187.1-3.661-1.413-4.942-2.783-1.489-1.592-2.51-2.558-4.149-2.558Z" fill="#d18b6b"/>
    </g>
    <g id="Сгруппировать_2807" data-name="Сгруппировать 2807">
      <path id="Контур_19158" data-name="Контур 19158" d="M779.19,5156.987c0,14.137-16.243,20.645-17.952,8.267-.76-5.5-5.809-2.745-8.278-7.876-1.337-2.78-.626-5.033-3.319-6.414-4.966-2.549-8.5-9.8-8.15-15.519.186-3.1-5.013-8.185-6.677-10.772a15.338,15.338,0,0,1,0-16.156c1.663-2.587,2.462-7.673,2.273-10.772-.346-5.715,2.659-11.812,7.624-14.361h0c2.693-1.382,4.874-.81,6.212-3.591,2.468-5.128,4.778-5.742,10.313-5.385,3,.194,4.339-4.637,8.976-5.344.023,0,.039-.027.061-.042,2.6-1.763,8.915,2.594,8.915,5.386v82.579Z" fill="#f1d0bb"/>
      <path id="Контур_19159" data-name="Контур 19159" d="M767.519,5173.6c-3.459,0-7.233-2.106-8.06-8.1-.255-1.842-.95-2.108-2.63-2.745a8.752,8.752,0,0,1-5.486-4.6,14.623,14.623,0,0,1-1.009-3.047c-.372-1.536-.535-2.046-1.514-2.549-5.435-2.792-9.528-10.518-9.123-17.227.092-1.515-2.59-4.825-4.192-6.8-.9-1.109-1.673-2.066-2.2-2.888a17.229,17.229,0,0,1,0-18.1c1.389-2.16,2.165-6.842,1.992-9.691-.4-6.655,3.133-13.263,8.6-16.067a14.675,14.675,0,0,1,2.838-1.055c1.438-.415,2.032-.587,2.574-1.717,2.867-5.951,6.032-6.784,12.048-6.4.6.072,1.253-.587,2.3-1.623a11.509,11.509,0,0,1,5.914-3.637c1.592-.872,3.815-.655,6.188.6,2.6,1.382,5.233,3.911,5.233,6.45v82.579c0,9.4-6.659,16.167-12.877,16.6C767.912,5173.593,767.717,5173.6,767.519,5173.6Zm-8.611-97.488c-3.307,0-4.637.863-6.368,4.459-1.237,2.576-3.138,3.123-4.815,3.608a11.858,11.858,0,0,0-2.193.8c-4.169,2.14-6.968,7.462-6.653,12.656.215,3.54-.683,8.938-2.555,11.852a13.523,13.523,0,0,0,0,14.214c.422.657,1.174,1.587,1.971,2.571,2.42,2.987,5.161,6.373,4.985,9.281-.316,5.233,3.038,11.69,7.179,13.814,2.49,1.278,2.955,3.2,3.365,4.9a11.2,11.2,0,0,0,.754,2.334c.856,1.781,2.035,2.23,3.527,2.8,1.842.7,4.366,1.66,4.91,5.61.469,3.4,2.194,5.127,4.845,4.99,3.9-.267,9.533-5.055,9.533-13.013v-82.579c0-.535-1.262-2.185-3.325-3.278a3.871,3.871,0,0,0-2.723-.655l-.28.258-.591.11c-1.853.281-3.041,1.459-4.3,2.7-1.325,1.312-2.826,2.795-5.057,2.655C760.294,5076.144,759.561,5076.112,758.908,5076.112Z" fill="#d18b6b"/>
    </g>
    <path id="Контур_19160" data-name="Контур 19160" d="M806.118,5155.192a1.8,1.8,0,0,1-1.795-1.795,8.986,8.986,0,0,0-8.976-8.976,1.8,1.8,0,1,1,0-3.591,12.582,12.582,0,0,1,12.566,12.567A1.8,1.8,0,0,1,806.118,5155.192Z" fill="#d18b6b"/>
    <path id="Контур_19161" data-name="Контур 19161" d="M752.262,5155.192a1.8,1.8,0,0,1-1.8-1.795,12.582,12.582,0,0,1,12.566-12.567,1.8,1.8,0,0,1,0,3.591,8.986,8.986,0,0,0-8.976,8.976A1.8,1.8,0,0,1,752.262,5155.192Z" fill="#d18b6b"/>
    <path id="Контур_19162" data-name="Контур 19162" d="M800.732,5090.565a1.8,1.8,0,0,1-1.795-1.8,8.987,8.987,0,0,1,8.976-8.976,1.8,1.8,0,0,1,0,3.591,5.392,5.392,0,0,0-5.386,5.385A1.8,1.8,0,0,1,800.732,5090.565Z" fill="#d18b6b"/>
    <path id="Контур_19163" data-name="Контур 19163" d="M759.443,5092.36a1.8,1.8,0,0,1-1.8-1.795,7.187,7.187,0,0,0-7.18-7.181,1.8,1.8,0,1,1,0-3.591,10.782,10.782,0,0,1,10.771,10.772A1.8,1.8,0,0,1,759.443,5092.36Z" fill="#d18b6b"/>
    <path id="Контур_19164" data-name="Контур 19164" d="M816.889,5135.445a1.8,1.8,0,0,1-1.795-1.8,10.782,10.782,0,0,0-10.771-10.771,14.378,14.378,0,0,1-14.362-14.361,1.8,1.8,0,1,1,3.59,0,10.782,10.782,0,0,0,10.772,10.771,14.378,14.378,0,0,1,14.361,14.361A1.8,1.8,0,0,1,816.889,5135.445Z" fill="#d18b6b"/>
    <g id="Сгруппировать_2808" data-name="Сгруппировать 2808">
      <path id="Контур_19165" data-name="Контур 19165" d="M779.19,5088.769a14.378,14.378,0,0,0-14.362,14.362,10.782,10.782,0,0,1-10.771,10.771,1.8,1.8,0,0,0,0,3.591,14.379,14.379,0,0,0,14.362-14.362,10.782,10.782,0,0,1,10.771-10.771,1.8,1.8,0,0,0,0-3.591Z" fill="#f7e6dc"/>
      <path id="Контур_19166" data-name="Контур 19166" d="M772.973,5116.839a1.793,1.793,0,0,0-2.538,0,48.282,48.282,0,0,1-3.812,25.041,12.914,12.914,0,0,0,3.812,9.194,1.8,1.8,0,1,0,2.538-2.539,9.4,9.4,0,0,1,0-13.309,1.794,1.794,0,0,0,0-2.539,9.4,9.4,0,0,1,0-13.309A1.8,1.8,0,0,0,772.973,5116.839Z" fill="#f7e6dc"/>
      <path id="Контур_19167" data-name="Контур 19167" d="M790.365,5122.841a1.8,1.8,0,0,0-2.539,2.538,8.572,8.572,0,0,1,0,12.1,12.141,12.141,0,0,0,0,17.18,1.8,1.8,0,0,0,2.539-2.538,8.551,8.551,0,0,1,0-12.1A12.164,12.164,0,0,0,790.365,5122.841Z" fill="#f7e6dc"/>
      <path id="Контур_19168" data-name="Контур 19168" d="M811.171,5105.768a8.578,8.578,0,0,1-9.911-6.949,12.145,12.145,0,0,0-14.067-9.865,1.8,1.8,0,0,0,.621,3.539,8.55,8.55,0,0,1,9.911,6.947,12.144,12.144,0,0,0,14.069,9.867,1.8,1.8,0,0,0-.623-3.539Z" fill="#f7e6dc"/>
      <path id="Контур_19169" data-name="Контур 19169" d="M750.233,5107.75A7.272,7.272,0,0,0,757.05,5103a1.8,1.8,0,1,0-3.368-1.244,3.671,3.671,0,0,1-4.711,2.171,7.272,7.272,0,0,0-9.32,4.3,1.795,1.795,0,1,0,3.367,1.245,3.666,3.666,0,0,1,4.711-2.17A7.284,7.284,0,0,0,750.233,5107.75Z" fill="#f7e6dc"/>
      <path id="Контур_19170" data-name="Контур 19170" d="M755.951,5135.224a3.671,3.671,0,0,1-2.172-4.707v0a7.267,7.267,0,0,0-4.3-9.322,1.8,1.8,0,0,0-1.246,3.369,3.671,3.671,0,0,1,2.172,4.709v0a7.27,7.27,0,0,0,4.3,9.319,1.8,1.8,0,0,0,1.246-3.369Z" fill="#f7e6dc"/>
    </g>
  </g>
</svg>
