<svg xmlns="http://www.w3.org/2000/svg" width="83.384" height="117.78" viewBox="0 0 83.384 117.78">
  <g id="Сгруппировать_2804" data-name="Сгруппировать 2804" transform="translate(-737.497 -4807.3)">
    <path id="Контур_19138" data-name="Контур 19138" d="M807.126,4903.272a1.84,1.84,0,0,0-1.791-.081l-11.042,5.521a1.841,1.841,0,0,0-.868,2.371l5.521,12.882a1.839,1.839,0,0,0,1.691,1.115h5.521a1.841,1.841,0,0,0,1.841-1.84v-18.4A1.84,1.84,0,0,0,807.126,4903.272Z" fill="#b89dcb"/>
    <path id="Контур_19139" data-name="Контур 19139" d="M762.814,4908.712l-11.042-5.521a1.841,1.841,0,0,0-2.664,1.646v18.4a1.841,1.841,0,0,0,1.841,1.84h5.521a1.838,1.838,0,0,0,1.691-1.115l5.521-12.882A1.84,1.84,0,0,0,762.814,4908.712Z" fill="#b89dcb"/>
    <path id="Контур_19140" data-name="Контур 19140" d="M778.554,4842.266a38.646,38.646,0,1,0,38.646,38.647A38.69,38.69,0,0,0,778.554,4842.266Z" fill="#d7dc55"/>
    <path id="Контур_19141" data-name="Контур 19141" d="M808,4880.913a29.446,29.446,0,1,1-29.445-29.445A29.446,29.446,0,0,1,808,4880.913Z" fill="#f7f4f9"/>
    <path id="Контур_19142" data-name="Контур 19142" d="M785.915,4906.677a29.445,29.445,0,0,1-16.7-53.7,29.449,29.449,0,1,0,26.041,52.183A29.443,29.443,0,0,1,785.915,4906.677Z" fill="#ede7f3"/>
    <path id="Контур_19143" data-name="Контур 19143" d="M814.312,4834.676a11.022,11.022,0,0,0-15.174,3.69l-1.914,3.144a1.861,1.861,0,0,0,.616,2.529l15.72,9.569a1.872,1.872,0,0,0,2.559-.668c.653-1.014,1.257-2.062,1.884-3.091A11.055,11.055,0,0,0,814.312,4834.676Z" fill="#c5afd5"/>
    <path id="Контур_19144" data-name="Контур 19144" d="M814.312,4834.676a10.964,10.964,0,0,0-8.5-1.257,11.039,11.039,0,0,1,6.667,16.43c-.458.753-.905,1.515-1.367,2.267l2.451,1.492a1.871,1.871,0,0,0,2.559-.668c.653-1.014,1.257-2.061,1.884-3.091A11.055,11.055,0,0,0,814.312,4834.676Z" fill="#b89dcb"/>
    <path id="Контур_19145" data-name="Контур 19145" d="M757.969,4838.366a11.042,11.042,0,0,0-18.865,11.483l1.914,3.144a1.858,1.858,0,0,0,2.529.615l15.72-9.569a1.86,1.86,0,0,0,.615-2.529Z" fill="#c5afd5"/>
    <path id="Контур_19146" data-name="Контур 19146" d="M744.631,4849.849a11.038,11.038,0,0,1,6.656-16.427,11.035,11.035,0,0,0-12.183,16.427l1.914,3.144a1.858,1.858,0,0,0,2.529.615l2.46-1.5Z" fill="#b89dcb"/>
    <path id="Контур_19147" data-name="Контур 19147" d="M778.554,4849.627a31.286,31.286,0,1,0,31.285,31.286A31.321,31.321,0,0,0,778.554,4849.627Zm1.84,58.828v-3.618a1.84,1.84,0,0,0-3.681,0v3.618a27.644,27.644,0,0,1-25.7-25.7h3.617a1.841,1.841,0,1,0,0-3.681h-3.617a27.644,27.644,0,0,1,25.7-25.7v3.618a1.84,1.84,0,0,0,3.681,0v-3.618a27.644,27.644,0,0,1,25.7,25.7h-3.617a1.841,1.841,0,1,0,0,3.681h3.617A27.645,27.645,0,0,1,780.394,4908.455Z" fill="#f5b07f"/>
    <path id="Контур_19148" data-name="Контур 19148" d="M778.554,4882.753H765.671a1.841,1.841,0,0,1,0-3.681h12.121l12.343-12.343a1.84,1.84,0,0,1,2.6,2.6l-12.882,12.882A1.841,1.841,0,0,1,778.554,4882.753Z" fill="#b89dcb"/>
    <path id="Контур_19149" data-name="Контур 19149" d="M778.554,4875.392a5.521,5.521,0,1,0,5.52,5.521A5.526,5.526,0,0,0,778.554,4875.392Z" fill="#ffdc7b"/>
    <g id="Сгруппировать_2803" data-name="Сгруппировать 2803">
      <path id="Контур_19150" data-name="Контур 19150" d="M793.276,4834.9h-7.361a1.857,1.857,0,0,1-1.437-2.99l4.969-6.212h-3.532a1.84,1.84,0,1,1,0-3.68h7.361a1.856,1.856,0,0,1,1.437,2.989l-4.969,6.212h3.532a1.84,1.84,0,0,1,0,3.681Z" fill="#f7c5a2"/>
      <path id="Контур_19151" data-name="Контур 19151" d="M806.158,4827.544H798.8a1.857,1.857,0,0,1-1.437-2.99l4.969-6.212H798.8a1.84,1.84,0,0,1,0-3.681h7.361a1.857,1.857,0,0,1,1.437,2.99l-4.969,6.212h3.532a1.841,1.841,0,1,1,0,3.681Z" fill="#f7c5a2"/>
      <path id="Контур_19152" data-name="Контур 19152" d="M819.041,4820.182h-7.362a1.857,1.857,0,0,1-1.437-2.989l4.97-6.212h-3.533a1.841,1.841,0,0,1,0-3.681h7.362a1.857,1.857,0,0,1,1.436,2.99l-4.969,6.212h3.533a1.84,1.84,0,0,1,0,3.68Z" fill="#f7c5a2"/>
    </g>
  </g>
</svg>
