<svg xmlns="http://www.w3.org/2000/svg" width="97.704" height="87.983" viewBox="0 0 97.704 87.983">
  <g id="Сгруппировать_2811" data-name="Сгруппировать 2811" transform="translate(-730.337 -5323.732)">
    <path id="Контур_19171" data-name="Контур 19171" d="M821.8,5359.745h0c-3.617-20.462-21.116-35.339-42.615-35.339s-39,14.877-42.615,35.339h0a10.6,10.6,0,0,0-6.237,9.355,9.321,9.321,0,0,0,6.357,8.818,43.614,43.614,0,0,0,84.99,0v0a9.326,9.326,0,0,0,6.357-8.82A10.6,10.6,0,0,0,821.8,5359.745Z" fill="#ffd780"/>
    <circle id="Эллипс_102" data-name="Эллипс 102" cx="4.158" cy="4.158" r="4.158" transform="translate(761.519 5368.06)" fill="#494644"/>
    <circle id="Эллипс_103" data-name="Эллипс 103" cx="4.158" cy="4.158" r="4.158" transform="translate(790.622 5368.06)" fill="#494644"/>
    <path id="Контур_19172" data-name="Контур 19172" d="M821.8,5359.745v0a43.635,43.635,0,0,0-42.944-36.015c-21.5,0-38.669,15.551-42.286,36.013,0,0,35.144,9,58.709-9.824a2.5,2.5,0,0,1,3.654.519C803.2,5356.785,811.053,5364.485,821.8,5359.745Z" fill="#494644"/>
    <g id="Сгруппировать_2810" data-name="Сгруппировать 2810">
      <path id="Контур_19173" data-name="Контур 19173" d="M779.821,5389.333c-9.409,0-17.038,8.064-17.038,12.874,0,2.673,2.356,1.907,6.062.7,1.756-3.563,5.92-6.081,10.808-6.081,4.779,0,8.874,2.407,10.694,5.849-.034.018-.071.034-.1.052,4.023,1.3,6.617,2.283,6.617-.52C796.859,5397.4,789.23,5389.333,779.821,5389.333Z" fill="#494644"/>
      <path id="Контур_19174" data-name="Контур 19174" d="M779.653,5396.826c-4.888,0-9.052,2.518-10.808,6.081a35.247,35.247,0,0,1,10.976-2.215,33.738,33.738,0,0,1,10.421,2.035c.034-.018.071-.034.1-.052C788.527,5399.233,784.432,5396.826,779.653,5396.826Z" fill="#de402f"/>
    </g>
  </g>
</svg>
