<svg xmlns="http://www.w3.org/2000/svg" width="89.154" height="122.117" viewBox="0 0 89.154 122.117">
  <g id="Сгруппировать_2802" data-name="Сгруппировать 2802" transform="translate(-84.409 -5306.665)">
    <g id="Сгруппировать_2801" data-name="Сгруппировать 2801">
      <path id="Контур_19123" data-name="Контур 19123" d="M133.465,5313.057c.2.078.293,21.206.334,34.811h-6.311v-33.712a1.872,1.872,0,0,1,1.873-1.872A11.168,11.168,0,0,1,133.465,5313.057Zm-37.884,6.788a11.347,11.347,0,0,0-4.165.316,1.872,1.872,0,0,0-1.324,2.294l6.81,25.413h6.55c-3.326-12.414-7.378-27.54-7.382-27.563A.556.556,0,0,0,95.581,5319.845Zm49.12.7a11.182,11.182,0,0,0-4.1-.773,1.874,1.874,0,0,0-1.874,1.873v26.22h6.286C144.96,5335.148,144.866,5320.613,144.7,5320.548Zm-26.578-13.883a1.872,1.872,0,0,0-1.873,1.873v39.33h6.326c-.029-12.259-.121-40.34-.35-40.43A11.162,11.162,0,0,0,118.123,5306.665Zm-11.239,7.491a1.874,1.874,0,0,0-1.873,1.873v31.839h6.306c-.043-13.585-.139-32.865-.328-32.939A11.189,11.189,0,0,0,106.884,5314.156Z" fill="#f4cc44"/>
      <path id="Контур_19124" data-name="Контур 19124" d="M149.963,5368.467h-3.745a1.873,1.873,0,0,1-1.873-1.873v-44.949a1.866,1.866,0,0,1,.356-1.1,11.238,11.238,0,0,1,7.135,10.461v35.585A1.873,1.873,0,0,1,149.963,5368.467ZM140.6,5359.1v-35.584a11.238,11.238,0,0,0-7.135-10.461,1.857,1.857,0,0,0-.357,1.1V5359.1a1.872,1.872,0,0,0,1.872,1.873h3.747A1.873,1.873,0,0,0,140.6,5359.1Zm-11.238-5.618V5317.9a11.238,11.238,0,0,0-7.136-10.461,1.865,1.865,0,0,0-.356,1.1v44.95a1.873,1.873,0,0,0,1.873,1.873h3.745A1.874,1.874,0,0,0,129.362,5353.484Zm-11.239,7.491v-35.584a11.238,11.238,0,0,0-7.134-10.462,1.859,1.859,0,0,0-.358,1.1v44.949a1.873,1.873,0,0,0,1.874,1.873h3.746A1.872,1.872,0,0,0,118.123,5360.975Zm-3.732,1.5-9.211-34.372a11.244,11.244,0,0,0-9.6-8.262A1.869,1.869,0,0,0,95.52,5321l11.634,43.416a1.873,1.873,0,0,0,2.294,1.325l3.618-.969A1.874,1.874,0,0,0,114.391,5362.479Z" fill="#fff187"/>
      <path id="Контур_19125" data-name="Контур 19125" d="M160.273,5339.715l-9.451,31.53-8.44,28.156a45.942,45.942,0,0,1-44.333-14.316l-4.149-13.84-9.451-31.53a.936.936,0,0,1,.9-1.205h21.665a1.85,1.85,0,0,1,1.608.913,9.358,9.358,0,0,0,8.123,4.705H127.98a9.36,9.36,0,0,0,8.123-4.705,1.85,1.85,0,0,1,1.608-.913h21.665A.936.936,0,0,1,160.273,5339.715Z" fill="#e84c47"/>
      <path id="Контур_19126" data-name="Контур 19126" d="M160.273,5339.709l-11.962,39.906a21.563,21.563,0,0,1-41.309,0L94.393,5338.5h12.618a1.85,1.85,0,0,1,1.608.913,9.361,9.361,0,0,0,8.123,4.706H127.98a9.361,9.361,0,0,0,8.124-4.706,1.848,1.848,0,0,1,1.608-.913h21.664A.936.936,0,0,1,160.273,5339.709Z" fill="#ea634f"/>
    </g>
    <path id="Контур_19127" data-name="Контур 19127" d="M159.355,5428.782H133.08A13.084,13.084,0,0,1,120,5415.7v-.034a3.738,3.738,0,0,1,3.738-3.738H168.7a3.738,3.738,0,0,1,3.738,3.738v.034A13.084,13.084,0,0,1,159.355,5428.782Z" fill="#ebb04f"/>
    <path id="Контур_19128" data-name="Контур 19128" d="M159.355,5428.782h-16.91a13.084,13.084,0,0,1-13.084-13.084v-.034a3.738,3.738,0,0,1,3.738-3.738h35.6a3.738,3.738,0,0,1,3.738,3.738v.034A13.084,13.084,0,0,1,159.355,5428.782Z" fill="#fac768"/>
    <path id="Контур_19129" data-name="Контур 19129" d="M173.563,5413.612c0,3.1-2.825,5.618-6.31,5.618a7.057,7.057,0,0,1-1.486-.157,1.129,1.129,0,0,0-1.072.346,5.084,5.084,0,0,1-3.753,1.684,5.159,5.159,0,0,1-4.279-2.352,1.117,1.117,0,0,0-1.509-.343,5.808,5.808,0,0,1-5.761.112,1.126,1.126,0,0,0-1.485.331,5.613,5.613,0,0,1-8.991,0,1.125,1.125,0,0,0-1.484-.331,5.712,5.712,0,0,1-2.785.71,5.559,5.559,0,0,1-3.859-1.5,1.115,1.115,0,0,0-1.5-.05,6.515,6.515,0,0,1-4.283,1.553c-3.388,0-6.135-2.445-6.135-5.462s2.747-5.463,6.135-5.463a6.206,6.206,0,0,1,5.6,3.242,5.527,5.527,0,0,1,4.036-1.681,5.23,5.23,0,0,1,5.016,3.272,5.721,5.721,0,0,1,7.5,0,5.229,5.229,0,0,1,5.016-3.272,5.406,5.406,0,0,1,4.524,2.3,5.151,5.151,0,0,1,4.24-2.3,4.97,4.97,0,0,1,1.411.206,6.619,6.619,0,0,1,4.9-2.079C170.738,5407.993,173.563,5410.508,173.563,5413.612Z" fill="#4bb7a5"/>
    <path id="Контур_19130" data-name="Контур 19130" d="M129.492,5417.538a6.436,6.436,0,0,1-4.485,1.692c-3.381-.214-6.135-2.445-6.135-5.462s2.747-5.463,6.135-5.463c1.7,0,5.576.758,4.354,1.617C125.24,5412.816,129.492,5417.538,129.492,5417.538Z" fill="#00ab96"/>
    <path id="Контур_19131" data-name="Контур 19131" d="M164.947,5413.612H127.488a5.619,5.619,0,0,1-5.62-5.62v-1.872a5.619,5.619,0,0,1,5.62-5.618h37.459a5.619,5.619,0,0,1,5.62,5.618v1.872A5.619,5.619,0,0,1,164.947,5413.612Z" fill="#b95832"/>
    <path id="Контур_19132" data-name="Контур 19132" d="M164.947,5413.612H136.853a5.619,5.619,0,0,1-5.62-5.62v-1.872a5.619,5.619,0,0,1,5.62-5.618h28.094a5.619,5.619,0,0,1,5.62,5.618v1.872A5.619,5.619,0,0,1,164.947,5413.612Z" fill="#cf734f"/>
    <path id="Контур_19133" data-name="Контур 19133" d="M132.611,5404.247h-8.873a1.869,1.869,0,0,1-1.87-1.869v-.008a1.869,1.869,0,0,1,1.87-1.868h8.873a1.869,1.869,0,0,1,1.87,1.868v.008A1.869,1.869,0,0,1,132.611,5404.247Z" fill="#f4cc44"/>
    <path id="Контур_19134" data-name="Контур 19134" d="M170.562,5402.5a1.915,1.915,0,0,1-1.933,1.748h-9a1.874,1.874,0,0,0-1.407.638,24.48,24.48,0,0,1-4.363,3.91l-1.047.732a1.87,1.87,0,0,1-2.148,0l-1.048-.733a24.465,24.465,0,0,1-4.362-3.909,1.877,1.877,0,0,0-1.407-.638H131.3a1.916,1.916,0,0,1-1.933-1.748,1.872,1.872,0,0,1,1.868-2h37.46A1.873,1.873,0,0,1,170.562,5402.5Z" fill="#fff187"/>
    <path id="Контур_19135" data-name="Контур 19135" d="M172.439,5395.071v1.872a3.746,3.746,0,0,1-3.746,3.746H123.741a3.745,3.745,0,0,1-3.745-3.746v-1.872a13.11,13.11,0,0,1,13.11-13.111h26.222A13.11,13.11,0,0,1,172.439,5395.071Z" fill="#ebb04f"/>
    <path id="Контур_19136" data-name="Контур 19136" d="M172.439,5395.071v1.872a3.746,3.746,0,0,1-3.746,3.746H133.106a3.745,3.745,0,0,1-3.745-3.746v-1.872a13.11,13.11,0,0,1,13.11-13.111h16.857A13.11,13.11,0,0,1,172.439,5395.071Z" fill="#fac768"/>
    <path id="Контур_19137" data-name="Контур 19137" d="M140.6,5381.773a1.873,1.873,0,1,1-1.873-1.873A1.873,1.873,0,0,1,140.6,5381.773Zm3.747,3.745a1.873,1.873,0,1,0,1.873,1.873A1.874,1.874,0,0,0,144.345,5385.518Zm-13.112,1.873a1.873,1.873,0,1,0,1.873,1.873A1.873,1.873,0,0,0,131.233,5387.391Zm18.73-3.745a1.873,1.873,0,1,0,1.873,1.872A1.873,1.873,0,0,0,149.963,5383.646Zm9.365,5.618a1.873,1.873,0,1,0,1.873,1.873A1.873,1.873,0,0,0,159.328,5389.264Zm6.556-6.555a1.873,1.873,0,1,0,1.873,1.873A1.872,1.872,0,0,0,165.884,5382.709Z" fill="#fde18e"/>
  </g>
</svg>
