<svg xmlns="http://www.w3.org/2000/svg" width="52.482" height="142.763" viewBox="0 0 52.482 142.763">
  <g id="Сгруппировать_2800" data-name="Сгруппировать 2800" transform="translate(-102.745 -5048.833)">
    <path id="Контур_19116" data-name="Контур 19116" d="M154.132,5147.659a67.143,67.143,0,0,0-4.719-18.735c-2.862-7.406-2.276-17.88,1.967-23.371a16.067,16.067,0,0,0,3.094-9.913c-.12-22.9-12.561-28.363-16.029-29.441a3,3,0,0,1-1.735-1.371,14.652,14.652,0,0,1-1.492-4.953,3.019,3.019,0,0,0-3.249-2.6c-.955.081-1.952.125-2.983.125s-2.029-.044-2.984-.125a3.02,3.02,0,0,0-3.249,2.6,14.651,14.651,0,0,1-1.491,4.953,3.008,3.008,0,0,1-1.736,1.371c-3.468,1.078-15.911,6.545-16.029,29.441a16.054,16.054,0,0,0,3.094,9.913c4.246,5.491,4.83,15.965,1.967,23.371a67.256,67.256,0,0,0-4.719,18.735c-.861,10.643-1.659,25.439-.556,35.371,0,4.731,6.927,8.566,24.275,8.566s27.13-3.835,27.13-8.566C155.791,5173.1,154.994,5158.3,154.132,5147.659Z" fill="#d0dde4"/>
    <path id="Контур_19117" data-name="Контур 19117" d="M103.544,5094.488c-.01.392-.044.751-.047,1.152a16.054,16.054,0,0,0,3.094,9.913c4.246,5.491,4.83,15.965,1.967,23.371a67.256,67.256,0,0,0-4.719,18.735c-.029.361-.056.763-.086,1.134a101.1,101.1,0,0,0,25.233,2.831,101.24,101.24,0,0,0,25.232-2.828c-.029-.372-.056-.773-.086-1.135a67.111,67.111,0,0,0-4.719-18.734c-2.862-7.407-2.279-17.88,1.967-23.372a16.063,16.063,0,0,0,3.094-9.912c0-.4-.037-.761-.047-1.152-6.473,1.772-15.467,2.882-25.441,2.882S110.015,5096.263,103.544,5094.488Z" fill="#5aa7dd"/>
    <path id="Контур_19118" data-name="Контур 19118" d="M123.428,5182.639c-5.017,0-8.625-1.155-10.74-3.437a6.765,6.765,0,0,1-1.868-4.834v-2.757a2.461,2.461,0,0,1,4.923,0l-.017,3.111h0a2.087,2.087,0,0,0,.662,1.229c.753.741,2.836,1.971,8.221,1.742a2.421,2.421,0,0,1,2.555,2.363,2.459,2.459,0,0,1-2.363,2.555C124.331,5182.629,123.873,5182.639,123.428,5182.639Z" fill="#fff"/>
    <path id="Контур_19119" data-name="Контур 19119" d="M113.279,5165.5a2.459,2.459,0,0,1-2.461-2.461v-2.88a2.461,2.461,0,1,1,4.923,0v2.88A2.46,2.46,0,0,1,113.279,5165.5Z" fill="#fff"/>
    <path id="Контур_19120" data-name="Контур 19120" d="M116.139,5088.414a2.469,2.469,0,0,1-2.427-2.9c1.63-9.1,9.583-13.04,9.918-13.2a2.462,2.462,0,0,1,2.151,4.428c-.121.059-6.05,3.1-7.225,9.647A2.457,2.457,0,0,1,116.139,5088.414Z" fill="#fff"/>
    <path id="Контур_19121" data-name="Контур 19121" d="M128.986,5048.833c-4.416,0-7.995,1.194-7.995,2.666v8c0,1.472,3.579,2.666,7.995,2.666s8-1.194,8-2.666v-8C136.981,5050.027,133.4,5048.833,128.986,5048.833Z" fill="#23366f"/>
    <path id="Контур_19122" data-name="Контур 19122" d="M128.612,5055.8h-2a1.23,1.23,0,0,1,0-2.461h2a1.23,1.23,0,0,1,0,2.461Z" fill="#2564ac"/>
  </g>
</svg>
