<svg xmlns="http://www.w3.org/2000/svg" width="97.971" height="144.583" viewBox="0 0 97.971 144.583">
  <g id="Сгруппировать_2799" data-name="Сгруппировать 2799" transform="translate(-80 -4793.899)">
    <path id="Контур_19103" data-name="Контур 19103" d="M91.043,4829.615H85.011A5.011,5.011,0,0,1,80,4824.6v-.034a5.012,5.012,0,0,1,5.011-5.012h6.032Z" fill="#706f7c"/>
    <path id="Контур_19104" data-name="Контур 19104" d="M86.724,4819.558h4.319v10.057H86.724Z" fill="#615f6a"/>
    <path id="Контур_19105" data-name="Контур 19105" d="M142.532,4892.541h-19.75s-9.761,16.4-10.123,35.6h40C152.293,4908.944,142.532,4892.541,142.532,4892.541Z" fill="#d2dff3"/>
    <path id="Контур_19106" data-name="Контур 19106" d="M149.764,4910.009a32.814,32.814,0,0,1-34.214,0,82.271,82.271,0,0,1,7.232-17.468h19.75A82.271,82.271,0,0,1,149.764,4910.009Z" fill="#b0ccec"/>
    <path id="Контур_19107" data-name="Контур 19107" d="M156.935,4938.482H108.379a2.021,2.021,0,0,1-2.021-2.022v-6.892a2.022,2.022,0,0,1,2.021-2.022h48.556a2.022,2.022,0,0,1,2.021,2.022v6.892A2.021,2.021,0,0,1,156.935,4938.482Z" fill="#4270b3"/>
    <path id="Контур_19108" data-name="Контур 19108" d="M168.49,4857.8H96.823a6.373,6.373,0,0,1-6.372-6.374v-46.5h84.413v46.5A6.374,6.374,0,0,1,168.49,4857.8Z" fill="#d2dff3"/>
    <path id="Контур_19109" data-name="Контур 19109" d="M174.863,4804.925v46.5a6.376,6.376,0,0,1-6.374,6.374H96.824a6.373,6.373,0,0,1-6.352-5.865,5.933,5.933,0,0,0,.828.056h74.044a4,4,0,0,0,4-4v-43.064Z" fill="#b0ccec"/>
    <path id="Контур_19110" data-name="Контур 19110" d="M159.57,4881.611a26.914,26.914,0,1,1-53.826,0Z" fill="#e7ecf7"/>
    <path id="Контур_19111" data-name="Контур 19111" d="M159.571,4881.61a27,27,0,0,1-26.914,27.1,26.669,26.669,0,0,1-14.776-4.445,26.661,26.661,0,0,0,9.736,1.829A26.984,26.984,0,0,0,154.4,4881.61Z" fill="#d6dcf1"/>
    <path id="Контур_19112" data-name="Контур 19112" d="M155.853,4830.014a34.029,34.029,0,0,0-11.258-13.108l-.109-.075a20.8,20.8,0,0,0-23.446,0c-.036.025-.073.049-.109.075a34.054,34.054,0,0,0-11.258,13.108,41.628,41.628,0,0,0-3.581,23.836,33.332,33.332,0,0,0,1.51,5.971,71.783,71.783,0,0,0,4.171,9.282c.248.486,1.287,2.5,1.287,2.5h39.406c3.316-6.406,6.137-12.349,6.932-19.667A40.4,40.4,0,0,0,155.853,4830.014Z" fill="#e7ecf7"/>
    <path id="Контур_19113" data-name="Контур 19113" d="M159.4,4851.938c-.8,7.319-3.618,13.262-6.932,19.668,0,0-2.843,0-7,0,3.317-6.406,6.138-12.35,6.931-19.668a40.387,40.387,0,0,0-3.543-21.923,34.054,34.054,0,0,0-11.259-13.109c-.035-.025-.072-.051-.11-.074a20.71,20.71,0,0,0-8.22-3.324,20.8,20.8,0,0,1,15.223,3.324c.036.023.074.049.109.074a34.056,34.056,0,0,1,11.26,13.109A40.387,40.387,0,0,1,159.4,4851.938Z" fill="#d6dcf1"/>
    <g id="Сгруппировать_2798" data-name="Сгруппировать 2798">
      <path id="Контур_19114" data-name="Контур 19114" d="M176.03,4805.515H89.284a1.941,1.941,0,0,1-1.942-1.941v-7.734a1.941,1.941,0,0,1,1.942-1.941H176.03a1.941,1.941,0,0,1,1.941,1.941v7.734A1.941,1.941,0,0,1,176.03,4805.515Z" fill="#4270b3"/>
      <path id="Контур_19115" data-name="Контур 19115" d="M162.666,4882.359H102.647a1.941,1.941,0,0,1-1.941-1.941v-7.734a1.941,1.941,0,0,1,1.941-1.941h60.019a1.942,1.942,0,0,1,1.942,1.941v7.734A1.942,1.942,0,0,1,162.666,4882.359Z" fill="#4270b3"/>
    </g>
  </g>
</svg>
