<svg xmlns="http://www.w3.org/2000/svg" width="390.53" height="842.7" viewBox="0 0 390.53 842.7">
  <g id="Сгруппировать_2825" data-name="Сгруппировать 2825" transform="translate(-123.493 -2058)">
    <g id="Сгруппировать_2824" data-name="Сгруппировать 2824">
      <g id="Сгруппировать_2814" data-name="Сгруппировать 2814">
        <path id="Контур_19177" data-name="Контур 19177" d="M321.785,2058.768a1.68,1.68,0,0,0-2.823,0c-.935,1.672-22.848,41.073-22.848,52.539a24.257,24.257,0,1,0,48.515,0C344.629,2099.841,322.717,2060.44,321.785,2058.768Z" fill="#a82e17"/>
        <path id="Контур_19178" data-name="Контур 19178" d="M318.249,2128.8a14.555,14.555,0,0,1-14.555-14.554,1.617,1.617,0,1,1,3.235,0,11.32,11.32,0,0,0,11.32,11.32,1.617,1.617,0,1,1,0,3.234Z" fill="#f6c8c9"/>
      </g>
      <g id="Сгруппировать_2823" data-name="Сгруппировать 2823">
        <g id="Сгруппировать_2822" data-name="Сгруппировать 2822">
          <path id="Контур_19179" data-name="Контур 19179" d="M365.678,2229.848a13.151,13.151,0,0,0-13.151-13.152H288.522a13.153,13.153,0,0,0-2.65,26.036l-4.364,37.092,8.768,20.166,50.236-8,18.152-12.168-2.2-37.425A13.156,13.156,0,0,0,365.678,2229.848Z" fill="#f3f1e5"/>
          <g id="Сгруппировать_2817" data-name="Сгруппировать 2817">
            <g id="Сгруппировать_2815" data-name="Сгруппировать 2815">
              <path id="Контур_19180" data-name="Контур 19180" d="M365.563,2401.016c-49.45,4.574-90,2.849-115.964-1.359.126-2.224.243-4.575.361-6.8,13.848-1.111,33.141-2.1,57.611-1.722,19.041.244,39.321.244,57,.488a11.382,11.382,0,0,1,.371,2.851A58.3,58.3,0,0,1,365.563,2401.016Z" fill="#d4cfc5"/>
              <path id="Контур_19181" data-name="Контур 19181" d="M249.96,2392.855c-.118,2.227-.235,4.578-.361,6.8-3.7-.621-7.167-1.234-10.257-1.977-2.718-.614-5.076-1.24-7.292-1.851a4.012,4.012,0,0,1,.117-1.115C236.366,2394.095,242.316,2393.477,249.96,2392.855Z" fill="#cac5b7"/>
              <path id="Контур_19182" data-name="Контур 19182" d="M406.843,2396.073c-7.663,1.109-15.331,2.1-22.624,2.963-6.419.871-12.6,1.485-18.656,1.98a58.3,58.3,0,0,0-.62-6.544,11.382,11.382,0,0,0-.371-2.851c17.667.244,32.994.742,42.028,1.856,0,.368.127.618.127.995C406.727,2394.96,406.843,2395.578,406.843,2396.073Z" fill="#cac5b7"/>
            </g>
            <g id="Сгруппировать_2816" data-name="Сгруппировать 2816">
              <path id="Контур_19183" data-name="Контур 19183" d="M442.7,2335.619c-.139,3.465-1.247,20.28-8.777,24.605-8.539,4.818-21.511,20.15-21.885,21.631,0,0-.992,6.308-8.041.5-.243-.739-.487-1.611-.864-2.476a101.908,101.908,0,0,0-8.41-16.066c1.983,1.857,5.2,2.72,11.5-1.609,10.126-6.926,17.562-25.589,12.367-37.335a18.352,18.352,0,0,0-2.972-4.568c-10.388-10.758-22.01-16.569-38.808-11.872-4.2,1.235-6.676,4.946-8.045,8.406a26.932,26.932,0,0,0-1.855,6.55l-7.907-43.141c.86,2.348,4.455,11.993,11.985,11,8.653-1.115,29.3-8.163,50.309,5.931C433.43,2305.331,441.337,2320.782,442.7,2335.619Z" fill="#e6e3d8"/>
              <path id="Контур_19184" data-name="Контур 19184" d="M364.572,2391.621c-17.68-.244-37.96-.244-57-.488-24.47-.38-43.763.611-57.611,1.722.259-2.221.5-4.319.761-6.547,2.471-15.944,8.772-32.76,21.5-45.369,1.728,0,7.175-.245,14.585-.495,4.691.739,10.388,1.6,16.685,2.1a.95.95,0,0,1,.374.121c.261,0,.491.133.866.133.733.115,1.723.367,2.836.488.614.121,1.251.252,1.981.374,4.34.861,10.515,1.851,17.06,2.716,2.1.254,4.2.5,6.441.742,1.845.125,3.7.368,5.554.5a22.447,22.447,0,0,0,2.72.25,22.127,22.127,0,0,0,2.717.117,22.5,22.5,0,0,0,2.848.126,24.351,24.351,0,0,0,4.2,0,128.148,128.148,0,0,1,12.6,37.207A56.81,56.81,0,0,1,364.572,2391.621Z" fill="#f3f1e5"/>
              <path id="Контур_19185" data-name="Контур 19185" d="M291.926,2243.646l-16.607,93.827-.132.625h-.126c-2.334-.625-3.7-.993-3.7-.993l14.27-94.937h.252a4.139,4.139,0,0,0,.738.123A42.017,42.017,0,0,0,291.926,2243.646Z" fill="#d3cdb3"/>
              <path id="Контур_19186" data-name="Контур 19186" d="M351.1,2331.418s-8.9,12.241-47.6,11.125c-6.3-.494-11.994-1.36-16.685-2.1a1.9,1.9,0,0,1-.488-.129c-4.706-.739-8.541-1.6-11.135-2.217l.132-.625,8.819-59.4c4.345.993,11.948,4.9,16.149,5.383a.991.991,0,0,1,.371.123c3.211.742,31.637,7.048,45.368,6.061a3.165,3.165,0,0,1,2.593,3.333S355.912,2323.01,351.1,2331.418Z" fill="#f3f1e5"/>
              <path id="Контур_19187" data-name="Контур 19187" d="M403.953,2372.2s16.886-8.776,22.02-22.363c1.923-5.118-2.43-9.557-3.477-4.055C419.741,2360.224,405.307,2369.726,403.953,2372.2Z" fill="#fff"/>
              <path id="Контур_19188" data-name="Контур 19188" d="M442.7,2335.619v-.613" fill="none"/>
              <path id="Контур_19189" data-name="Контур 19189" d="M286.81,2340.444c-7.41.25-12.857.495-14.585.495-12.732,12.609-19.033,29.425-21.5,45.369-.259,2.228-.5,4.326-.761,6.547-7.644.622-13.594,1.24-17.793,1.859v-.242a30.27,30.27,0,0,1,.5-3.095c.116-.991.375-1.977.619-3.09.375-1.979.863-4.081,1.484-6.31,7.913-27.691,36.591-44.872,36.591-44.872s1.367.368,3.7.993h.126c2.594.613,6.429,1.478,11.135,2.217A1.9,1.9,0,0,0,286.81,2340.444Z" fill="#d3cdb3"/>
              <path id="Контур_19190" data-name="Контур 19190" d="M406.6,2393.477c-9.034-1.114-24.361-1.612-42.028-1.856a56.81,56.81,0,0,0-.875-6.306,128.148,128.148,0,0,0-12.6-37.207c-1.24,0-2.737.121-4.2,0a22.5,22.5,0,0,1-2.848-.126,22.127,22.127,0,0,1-2.717-.117,22.447,22.447,0,0,1-2.72-.25c-1.854-.13-3.709-.373-5.554-.5-2.239-.244-4.341-.488-6.441-.742-6.545-.865-12.72-1.855-17.06-2.716-.73-.122-1.367-.253-1.981-.374-1.113-.121-2.1-.373-2.836-.488,17.792,1.351,40.79.862,64.655-5.692,0,0,11.623,6.928,22.616,22.626a1.563,1.563,0,0,1,.379.493,17.719,17.719,0,0,0,2.221,3.457.12.12,0,0,0,.119.129,101.908,101.908,0,0,1,8.41,16.066c.377.865.621,1.737.864,2.476a54.209,54.209,0,0,1,1.738,5.935c.242,1.113.49,2.1.619,3.09C406.473,2392,406.473,2392.738,406.6,2393.477Z" fill="#d3cdb3"/>
              <path id="Контур_19191" data-name="Контур 19191" d="M434.9,2363.435c-10.129,10.875-18.042,19.536-23.481,30.906-.748,1.488-1.479,3.092-2.1,4.695a68.972,68.972,0,0,0-3.342,10.14,56.159,56.159,0,0,0,.864-13.1c0-.5-.116-1.113-.116-1.6,0-.377-.127-.627-.127-.995-.127-.739-.127-1.481-.244-2.1-.129-.991-.377-1.977-.619-3.09-.5-1.979-6.034-16.836-4.12-11.909,7.932,12.666,8.66,7.839,10.423,5.477,3.165-4.235,13.346-16.813,21.885-21.631,7.53-4.325,8.638-21.14,8.777-24.605C443.7,2346.247,441.337,2356.64,434.9,2363.435Z" fill="#d3cdb3"/>
              <path id="Контур_19192" data-name="Контур 19192" d="M360.716,2338.991c2.9-.631,5.743-1.078,8.674-1.886l-2.476-13.723-7.907-43.141a7.055,7.055,0,0,1,0-1.6c-1.227.314-2.5.621-3.746.947,1.736,8.548,9.207,45.8,8.518,53.828A12,12,0,0,1,360.716,2338.991Z" fill="#edebe0"/>
              <path id="Контур_19193" data-name="Контур 19193" d="M376.814,2308.426c16.8-4.7,28.42,1.114,38.808,11.872a15.85,15.85,0,0,1,3.026,4.6h0c-1.124-9.325-20.986-27.45-39.181-27.44-3.249,0-10.077,2.535-13.777-.962,0,0,4.635,10.3,3.046,20.361C370.172,2313.39,372.644,2309.6,376.814,2308.426Z" fill="#d3cdb3"/>
              <path id="Контур_19194" data-name="Контур 19194" d="M275.187,2343.4s26.42,0,36.234,4.183c0,0-24.694-1.038-31.959,4.177,0,0-14.939,11.147-19.969,33.046C259.493,2384.808,258,2361.825,275.187,2343.4Z" fill="#fff"/>
              <path id="Контур_19195" data-name="Контур 19195" d="M398.484,2392.743c3.064.209,5.816.45,8.116.734-.127-.739-.127-1.481-.244-2.1-.129-.991-.377-1.977-.619-3.09a54.209,54.209,0,0,0-1.738-5.935c-.243-.739-.487-1.611-.864-2.476a101.908,101.908,0,0,0-8.41-16.066.12.12,0,0,1-.119-.129,17.719,17.719,0,0,1-2.221-3.457,1.563,1.563,0,0,0-.379-.493,89.429,89.429,0,0,0-20.063-20.875c-3.764,1.588-19.251,3.763-19.251,3.763,7.154.238,13.876.057,16.7.877,5.938,1.734,21.844,26.036,27.8,37.625C401.469,2389.393,399.842,2391.93,398.484,2392.743Z" fill="#edebe0"/>
              <path id="Контур_19196" data-name="Контур 19196" d="M369.39,2337.1c-23.865,6.554-46.863,7.043-64.655,5.692-.375,0-.6-.133-.866-.133a.95.95,0,0,0-.374-.121c38.7,1.116,47.6-11.125,47.6-11.125,4.817-8.408-2.432-36.046-2.432-36.046a3.164,3.164,0,0,0-2.59-3.332c-53.839-.144-55.54-8.945-58.751-9.686,5.931.62,25.075,2.084,30.631,2.084a10.34,10.34,0,0,0,1.864-.12A126.836,126.836,0,0,0,337,2283.08a3.716,3.716,0,0,0,1.118-.114c6.92-.5,14.087-2.594,20.893-4.327a7.055,7.055,0,0,0,0,1.6l7.907,43.141Z" fill="#d3cdb3"/>
            </g>
            <path id="Контур_19197" data-name="Контур 19197" d="M379.467,2297.456s9.022-2.16,22.748,0c0,0,12.169,3.348,17.182,13.565,0,0,2.71,8.244-7.242,2.759C412.155,2313.78,392.479,2297.456,379.467,2297.456Z" fill="#fff"/>
          </g>
          <g id="Сгруппировать_2819" data-name="Сгруппировать 2819">
            <path id="Контур_19198" data-name="Контур 19198" d="M397.2,2891.551s-4.434,9.149-32,9.149H337.627c-.631-19.416-11.379-33.633-16.081-38.953h11.009s46.243,1.365,59.578,10.511C392.133,2872.258,400.054,2882.272,397.2,2891.551Z" fill="#b94218"/>
            <path id="Контур_19199" data-name="Контур 19199" d="M337.627,2900.7H301.034c-67.374-4.7-61.809-19.416-61.809-19.416,3.945-13.843,26.321-18.172,41.157-19.537h41.164C326.248,2867.067,337,2881.284,337.627,2900.7Z" fill="#cd4816"/>
            <path id="Контур_19200" data-name="Контур 19200" d="M392.991,2437.114c-2.831,1.732-8.153,3.466-14.83,5.191h-.129c-1.481.377-2.96.743-4.571,1.117,2.862-.74,5.7-1.611,8.416-2.474.244-.126.362-.126.615-.246h.132c.116,0,.232-.122.369-.122a7.431,7.431,0,0,0,1.487-.5A86.8,86.8,0,0,0,392.991,2437.114Z" fill="#a82e17"/>
            <path id="Контур_19201" data-name="Контур 19201" d="M390.661,2845.062c-12.861,11.866-45.254,13.349-71.34,14.341,90.109-158.356,30.406-406.712,30.406-406.712,19.162-1.36,39.686-4.077,40.934-3.71,4.935,1.119,84.673,119.417,90.364,192.112C481.025,2641.093,484.349,2758.529,390.661,2845.062Z" fill="#b94218"/>
            <path id="Контур_19202" data-name="Контур 19202" d="M319.321,2859.4c-9.885.362-18.916.743-25.463,1.739h-.99c-39.071-3.839-49.44-15.951-49.44-15.951-19.041-13.6-104.346-86.034-114.484-178.883s106.814-209.784,106.814-209.784c6.792-8.9,13.232-11.5,13.232-11.5,16.43,5.075,33.735,3.342,33.735,3.342,4.963.986,9.767,1.733,14.585,2.347,1.743.122,3.348.366,5.077.494,2.592.246,5.184.367,7.78.5h.376c1.728.986,6.917,1.481,13.351,1.481.733,0,1.723.123,2.718.123,1.251.128,2.589.128,4.084.128,5.436.117,12.116-.251,19.031-.746C349.727,2452.691,409.43,2701.047,319.321,2859.4Z" fill="#cd4816"/>
            <path id="Контур_19203" data-name="Контур 19203" d="M301.034,2900.7H219.812c-7.556-13.481,16.44-38.953,16.44-38.953s-100.259-83.688-112.009-194.329c-11.866-110.643,120.908-230.3,120.908-230.3,6.059,4.573,27.074,8.774,37.574,11.253,0,0-17.3,1.733-33.735-3.342,0,0-6.44,2.6-13.232,11.5,0,0-116.944,116.948-106.814,209.784s95.443,165.287,114.484,178.883c0,0,10.369,12.112,49.44,15.951-1.972,0-6.678.118-12.486.6-14.836,1.365-37.212,5.694-41.157,19.537C239.225,2881.284,233.66,2896,301.034,2900.7Z" fill="#a82e17"/>
            <path id="Контур_19204" data-name="Контур 19204" d="M406.843,2396.073a56.159,56.159,0,0,1-.864,13.1c-.5,1.727-.858,3.46-1.233,5.31a70.161,70.161,0,0,1-11.378,22.259c-.113.247-.245.369-.377.369a86.8,86.8,0,0,1-8.511,2.969,7.431,7.431,0,0,1-1.487.5c-.137,0-.253.122-.369.122h-.132c-.253.12-.371.12-.615.246-2.721.863-5.554,1.734-8.416,2.474,1.611-.374,3.09-.74,4.571-1.117a191.831,191.831,0,0,1-59.826,9.518c-2.21,0-4.455,0-6.785-.118,2.33-.13,4.692-.251,6.9-.5,1.741-.128,3.346-.372,4.965-.624.233,0,.487-.115.729-.115h.245c2.1-.369,4.2-.749,6.183-1.239a52.583,52.583,0,0,0,6.68-1.731,99.136,99.136,0,0,0,12.113-4.325c1.478-.621,2.96-1.363,4.327-1.978,2.718-1.358,5.189-2.723,7.537-4.082a104.8,104.8,0,0,0,4.574-32.883c0-1.114-.116-2.222-.116-3.215,6.059-.5,12.237-1.109,18.656-1.98C391.512,2398.175,399.18,2397.182,406.843,2396.073Z" fill="#a82e17"/>
            <path id="Контур_19205" data-name="Контур 19205" d="M365.679,2404.231a104.8,104.8,0,0,1-4.574,32.883c-2.348,1.359-4.819,2.724-7.537,4.082-1.367.615-2.849,1.357-4.327,1.978a99.136,99.136,0,0,1-12.113,4.325c-2.1.617-4.461,1.239-6.68,1.731-1.98.49-4.084.87-6.183,1.239h-.245c-.242,0-.5.115-.729.115-1.619.252-3.224.5-4.965.624-2.213.246-4.575.367-6.9.5h-1.254c-2.6-.13-5.188-.251-7.78-.5-1.729-.128-3.334-.372-5.077-.494-4.818-.614-9.622-1.361-14.585-2.347-1.363-.38-2.706-.745-4.2-1.237-7.669-2.593-15.938-7.292-19.159-9.149a11.165,11.165,0,0,0-1.367-.867c-4.32-2.1-8.777-17.185-8.533-35.847a6.633,6.633,0,0,1,.132-1.61c25.966,4.208,66.514,5.933,115.964,1.359C365.563,2402.009,365.679,2403.117,365.679,2404.231Z" fill="#cd4816"/>
            <path id="Контур_19206" data-name="Контур 19206" d="M253.285,2396.317c1.964,6.371,8.857,25.422,15.262,32.325,5.08,5.478,16.033,18.348,35.356,22.689,0,0-45.123-2.8-55.178-20.373-7.927-13.828,1.456-25.877.874-31.3C249.458,2398.316,250.58,2387.508,253.285,2396.317Z" fill="#f2935d"/>
            <path id="Контур_19207" data-name="Контур 19207" d="M282.725,2448.367c-10.5-2.479-31.515-6.68-37.574-11.253a13.857,13.857,0,0,1-2.1-1.734c-4.456-4.2-13.848-16.066-11-39.551,2.216.611,4.574,1.237,7.292,1.851,3.09.743,6.557,1.356,10.257,1.977a6.633,6.633,0,0,0-.132,1.61c-.244,18.662,4.213,33.746,8.533,35.847a11.165,11.165,0,0,1,1.367.867c3.221,1.857,11.49,6.556,19.159,9.149C280.019,2447.622,281.362,2447.987,282.725,2448.367Z" fill="#a82e17"/>
            <path id="Контур_19208" data-name="Контур 19208" d="M172.362,2755.948c-30.908-60.9,5.242-120.327,23.374-148.693,7.772-12.151,36.431-112.159,36.431-112.159-45.171,34.8-69.172,74.844-78.673,118.46l-14.736,39.531s-.652,22.732-1.446,50.738c24.4,74.35,89.728,129.661,106.116,141.366,0,0,9.518,10.654,43.231,15.109h15.1C223.485,2858.855,172.362,2755.948,172.362,2755.948Z" fill="#ed7135"/>
            <path id="Контур_19209" data-name="Контур 19209" d="M152.559,2738.364c-27.263-82.148,35.592-188.987,37.179-191.672-19.9,24.47-36.244,66.864-36.244,66.864l-14.736,39.531s-.652,22.732-1.446,50.738a231.193,231.193,0,0,0,15.994,36.849C153.062,2739.882,152.843,2739.181,152.559,2738.364Z" fill="#fdcc5d"/>
            <path id="Контур_19210" data-name="Контур 19210" d="M282.725,2448.367s-17.3,1.733-33.735-3.342c0,0-6.44,2.6-13.232,11.5,0,0-116.944,116.948-106.814,209.784,3.128,28.613,13.407,55.265,26.679,78.882C85.877,2599.225,282.725,2448.367,282.725,2448.367Z" fill="#b94218"/>
            <path id="Контур_19211" data-name="Контур 19211" d="M262.794,2434.307c4.974,5.151,10.656,7.131,9.421,8.046s-12-3.885-15.311-8.547c-1.693-2.393-2.873-5.791-1.623-6.711C256.516,2426.174,260.767,2432.206,262.794,2434.307Z" fill="#fdcc5d"/>
            <g id="Сгруппировать_2818" data-name="Сгруппировать 2818">
              <path id="Контур_19212" data-name="Контур 19212" d="M378.032,2442.3c-1.481.377-2.96.743-4.571,1.117,0,0,.266.016.488.027C375.317,2443.048,376.683,2442.737,378.032,2442.3Z" fill="#fdcc5d"/>
              <path id="Контур_19213" data-name="Контур 19213" d="M400.185,2397.006c-.4,10.258-3.408,31.232-11.518,37.732,0,0-12.653,7.661-15.206,8.684,2.862-.74,5.7-1.611,8.416-2.474.244-.126.362-.126.615-.246h.132c.116,0,.232-.122.369-.122a7.431,7.431,0,0,0,1.487-.5,86.8,86.8,0,0,0,8.511-2.969c.132,0,.264-.122.377-.369a70.161,70.161,0,0,0,11.378-22.259c.375-1.85.734-3.583,1.233-5.31a56.159,56.159,0,0,0,.864-13.1c-2.239.329-4.384.562-6.616.87Z" fill="#7d3712"/>
            </g>
            <path id="Контур_19214" data-name="Контур 19214" d="M514.023,2645.913c0-39.684-43.386-136.607-121.032-208.8-13.96,6.335-54.629,14.835-74.785,14.709-2.21,0-4.455,0-6.785-.118h-.878c1.728.986,6.917,1.481,13.351,1.481.733,0,1.723.123,2.718.123,1.251.128,2.589.128,4.084.128,5.436.117,12.116-.251,19.031-.746,19.162-1.36,39.686-4.077,40.934-3.71,4.935,1.119,84.673,119.417,90.364,192.112,0,0,3.324,117.436-90.364,203.969-12.861,11.866-45.254,13.349-71.34,14.341-9.885.362-18.916.743-25.463,1.739h-.99c-1.972,0-6.678.118-12.486.6h52.173s46.243,1.365,59.578,10.511c0,0,7.921,10.014,5.062,19.293,0,0-4.434,9.149-32,9.149h48.947s0-22.379-13.477-38.953C400.661,2861.747,514.023,2772.25,514.023,2645.913Z" fill="#a82e17"/>
            <path id="Контур_19215" data-name="Контур 19215" d="M392.991,2437.114a105.57,105.57,0,0,1-14.256,4.843c4.437-.946,11.038-2.211,12.519-1.691,0,0,61.5,61.444,95.309,121.117C466.041,2521.208,434.452,2475.667,392.991,2437.114Z" fill="#7d3712"/>
            <path id="Контур_19216" data-name="Контур 19216" d="M369.123,2859.4c25.62-.584,34.467,9.032,37.6,24.737s-14.735,16.56-14.735,16.56h22.146a74.1,74.1,0,0,0-2.835-17.622l-2.919-8.39a54.949,54.949,0,0,0-7.723-12.941s18.028-14.353,39.652-39.392C406.345,2859.9,369.123,2859.4,369.123,2859.4Z" fill="#7d3712"/>
          </g>
          <g id="Сгруппировать_2821" data-name="Сгруппировать 2821">
            <path id="Контур_19217" data-name="Контур 19217" d="M434.825,2617.1c-14.336-25.835-36.706-56.992-58.716-73.679H271.037s-35.607,37.457-57.367,73.679c-9.9,16.452-16.93,32.648-16.686,45.125,0,0,.864,14.712,7.293,33.87,11.74,35.847,42.649,87.4,121.891,87.527,57.728.129,98.4-45.37,115.216-87.527,5.93-14.34,8.895-28.307,8.895-40.044C450.279,2649,444.34,2634.165,434.825,2617.1Z" fill="#913615"/>
            <g id="Сгруппировать_2820" data-name="Сгруппировать 2820">
              <path id="Контур_19218" data-name="Контур 19218" d="M445.423,2651.709c0,11.75-2.978,25.718-8.9,40.074H199.412c-6.432-19.161-7.292-33.886-7.292-33.886-.245-12.485,6.789-28.683,16.684-45.114H429.959C439.473,2629.843,445.423,2644.677,445.423,2651.709Z" fill="#fbbb00"/>
              <path id="Контур_19219" data-name="Контур 19219" d="M429.959,2612.783H401.278c-10.617-17.317-24.464-36.1-38.936-48.959h-85.3a497.047,497.047,0,0,0-38.95,48.959H208.8c21.763-36.219,57.362-73.672,57.362-73.672h105.08C393.255,2555.794,415.622,2586.949,429.959,2612.783Z" fill="#facda3"/>
              <path id="Контур_19220" data-name="Контур 19220" d="M436.52,2691.783c-16.813,42.148-57.489,87.632-115.215,87.514-79.244-.114-110.153-51.669-121.893-87.514h25.706c11.134,28.3,36.967,62.661,96.3,62.8h.125c33.989,0,57.728-20.281,71.709-37.469a134.771,134.771,0,0,0,16.31-25.331Z" fill="#facda3"/>
              <path id="Контур_19221" data-name="Контур 19221" d="M401.278,2612.783H238.093a497.047,497.047,0,0,1,38.95-48.959h85.3C376.814,2576.682,390.661,2595.466,401.278,2612.783Z" fill="#b21917"/>
              <path id="Контур_19222" data-name="Контур 19222" d="M409.565,2691.783a134.771,134.771,0,0,1-16.31,25.331c-13.981,17.188-37.72,37.469-71.709,37.469h-.125c-59.336-.139-85.169-34.5-96.3-62.8Z" fill="#b21917"/>
            </g>
            <path id="Контур_19223" data-name="Контур 19223" d="M362.342,2563.824h-85.3l82.125,5.9s24.785,26.838,31.024,43.056h11.086C390.661,2595.466,376.814,2576.682,362.342,2563.824Z" fill="#811811"/>
            <path id="Контур_19224" data-name="Контур 19224" d="M217.064,2608.447s44.355-60.694,52.221-65.023h48.059l-44.955,6.069Z" fill="#fdf0e5"/>
            <path id="Контур_19225" data-name="Контур 19225" d="M326.625,2754.2c31.235-1.924,53.366-20.791,66.63-37.083a134.771,134.771,0,0,0,16.31-25.331H397.2S367.8,2748.772,326.625,2754.2Z" fill="#811811"/>
            <path id="Контур_19226" data-name="Контур 19226" d="M205.527,2696.755s20.024,46.674,43.2,56.17Z" fill="#fdf0e5"/>
          </g>
          <path id="Контур_19227" data-name="Контур 19227" d="M283.3,2231.205a148.39,148.39,0,0,0,73.667.813" fill="none" stroke="#d3cdb3" stroke-miterlimit="10" stroke-width="2.877"/>
        </g>
      </g>
    </g>
    <text id="Syrup" transform="translate(257.444 2662.252)" fill="#a82e17" font-size="43.717" font-family="Pacifico-Regular, Pacifico"><tspan x="0" y="0">Syrup</tspan></text>
  </g>
</svg>
