<svg xmlns="http://www.w3.org/2000/svg" width="110.952" height="110.95" viewBox="0 0 110.952 110.95">
  <path id="Контур_18907" data-name="Контур 18907" d="M967.222,8153.2l-1.007,1.007a4.7,4.7,0,0,0,0,6.649l15.717,15.718a4.705,4.705,0,0,0,6.652,0l1-1.006a4.7,4.7,0,0,0,0-6.65l-4.08-4.081,8.086-8.086,14.057,14.055a4.7,4.7,0,0,0,6.651,0l1.005-1.006a4.7,4.7,0,0,0,0-6.65l-1.308-1.31,45.88-45.882a8.35,8.35,0,0,0,0-11.815l-4.758-4.76h0l5.156-5.158h0l.249-.249a2.331,2.331,0,0,0,0-3.293l-.249-.249h0l-2.675-2.676,17.724-17.725a1.576,1.576,0,0,0,0-2.232l-.337-.338a1.581,1.581,0,0,0-2.233,0l-17.723,17.726,1.436,1.436h0l-1.436-1.436-2.926-2.925a2.326,2.326,0,0,0-3.292,0l-5.407,5.4-4.761-4.759a8.353,8.353,0,0,0-11.815,0l-45.882,45.882-1.311-1.309a4.7,4.7,0,0,0-6.65,0l-1.006,1.006a4.705,4.705,0,0,0,0,6.65l14.055,14.056-8.086,8.086-4.08-4.081A4.7,4.7,0,0,0,967.222,8153.2Z" transform="translate(-964.837 -8067)" fill="#10a3b2"/>
</svg>
