<svg xmlns="http://www.w3.org/2000/svg" width="110.907" height="102.229" viewBox="0 0 110.907 102.229">
  <g id="Сгруппировать_2721" data-name="Сгруппировать 2721" transform="translate(-280.917 -8080)">
    <path id="Контур_18908" data-name="Контур 18908" d="M290.41,8122.744v0l30.6,26.262,32.955,28.282a20.484,20.484,0,0,0,28.881-2.2l2.013-2.345h0a.329.329,0,0,0,.033-.041l1.991-2.319a20.48,20.48,0,0,0-2.2-28.88l-32.954-28.282-30.6-26.263v0l-2.35-2.015a20.483,20.483,0,0,0-28.884,2.2l-4.034,4.7a20.482,20.482,0,0,0,2.2,28.882Z" fill="#10a3b2"/>
    <path id="Контур_18909" data-name="Контур 18909" d="M354.79,8108.726c-5.1,19.4-17.737,34.033-37.044,44.453" fill="none" stroke="#fff" stroke-miterlimit="10" stroke-width="10"/>
  </g>
</svg>
